%TF.GenerationSoftware,KiCad,Pcbnew,(6.0.7)*%
%TF.CreationDate,2022-08-11T09:50:47+02:00*%
%TF.ProjectId,cowstick-rp,636f7773-7469-4636-9b2d-72702e6b6963,1*%
%TF.SameCoordinates,Original*%
%TF.FileFunction,Copper,L4,Bot*%
%TF.FilePolarity,Positive*%
%FSLAX46Y46*%
G04 Gerber Fmt 4.6, Leading zero omitted, Abs format (unit mm)*
G04 Created by KiCad (PCBNEW (6.0.7)) date 2022-08-11 09:50:47*
%MOMM*%
%LPD*%
G01*
G04 APERTURE LIST*
G04 Aperture macros list*
%AMFreePoly0*
4,1,28,0.201453,0.499398,0.202936,0.499913,0.218927,0.492160,0.235355,0.485355,0.235956,0.483903,0.237370,0.483218,0.637371,0.033218,0.642752,0.017705,0.649913,0.002936,0.648894,0.000000,0.649913,-0.002936,0.642752,-0.017705,0.637371,-0.033218,0.237370,-0.483218,0.235956,-0.483903,0.235355,-0.485355,0.218927,-0.492160,0.202936,-0.499913,0.201453,-0.499398,0.200000,-0.500000,
-0.400000,-0.500000,-0.435355,-0.485355,-0.450000,-0.450000,-0.450000,0.450000,-0.435355,0.485355,-0.400000,0.500000,0.200000,0.500000,0.201453,0.499398,0.201453,0.499398,$1*%
%AMFreePoly1*
4,1,30,0.435355,0.485355,0.450000,0.450000,0.450000,-0.450000,0.435355,-0.485355,0.400000,-0.500000,-0.600000,-0.500000,-0.616429,-0.493195,-0.633218,-0.487370,-0.633903,-0.485956,-0.635355,-0.485355,-0.642160,-0.468927,-0.649913,-0.452936,-0.649398,-0.451453,-0.650000,-0.450000,-0.643195,-0.433571,-0.637370,-0.416782,-0.266897,0.000000,-0.637370,0.416782,-0.643195,0.433571,-0.650000,0.450000,
-0.649398,0.451453,-0.649913,0.452936,-0.642160,0.468927,-0.635355,0.485355,-0.633903,0.485956,-0.633218,0.487370,-0.616429,0.493195,-0.600000,0.500000,0.400000,0.500000,0.435355,0.485355,0.435355,0.485355,$1*%
G04 Aperture macros list end*
%ADD10C,0.152400*%
%TA.AperFunction,NonConductor*%
%ADD11C,0.152400*%
%TD*%
%TA.AperFunction,ComponentPad*%
%ADD12R,1.750000X1.750000*%
%TD*%
%TA.AperFunction,ComponentPad*%
%ADD13C,1.750000*%
%TD*%
%TA.AperFunction,ComponentPad*%
%ADD14C,2.000000*%
%TD*%
%TA.AperFunction,SMDPad,CuDef*%
%ADD15FreePoly0,270.000000*%
%TD*%
%TA.AperFunction,SMDPad,CuDef*%
%ADD16FreePoly1,270.000000*%
%TD*%
%TA.AperFunction,SMDPad,CuDef*%
%ADD17C,1.198880*%
%TD*%
%TA.AperFunction,ViaPad*%
%ADD18C,0.711200*%
%TD*%
%TA.AperFunction,Conductor*%
%ADD19C,0.203200*%
%TD*%
%TA.AperFunction,Conductor*%
%ADD20C,0.304800*%
%TD*%
%TA.AperFunction,Conductor*%
%ADD21C,0.406400*%
%TD*%
%TA.AperFunction,Conductor*%
%ADD22C,0.200000*%
%TD*%
G04 APERTURE END LIST*
D10*
D11*
X130682142Y-101511571D02*
X130718428Y-101475285D01*
X130754714Y-101366428D01*
X130754714Y-101293857D01*
X130718428Y-101185000D01*
X130645857Y-101112428D01*
X130573285Y-101076142D01*
X130428142Y-101039857D01*
X130319285Y-101039857D01*
X130174142Y-101076142D01*
X130101571Y-101112428D01*
X130029000Y-101185000D01*
X129992714Y-101293857D01*
X129992714Y-101366428D01*
X130029000Y-101475285D01*
X130065285Y-101511571D01*
X130754714Y-101947000D02*
X130718428Y-101874428D01*
X130682142Y-101838142D01*
X130609571Y-101801857D01*
X130391857Y-101801857D01*
X130319285Y-101838142D01*
X130283000Y-101874428D01*
X130246714Y-101947000D01*
X130246714Y-102055857D01*
X130283000Y-102128428D01*
X130319285Y-102164714D01*
X130391857Y-102201000D01*
X130609571Y-102201000D01*
X130682142Y-102164714D01*
X130718428Y-102128428D01*
X130754714Y-102055857D01*
X130754714Y-101947000D01*
X130246714Y-102455000D02*
X130754714Y-102600142D01*
X130391857Y-102745285D01*
X130754714Y-102890428D01*
X130246714Y-103035571D01*
X130718428Y-103289571D02*
X130754714Y-103362142D01*
X130754714Y-103507285D01*
X130718428Y-103579857D01*
X130645857Y-103616142D01*
X130609571Y-103616142D01*
X130537000Y-103579857D01*
X130500714Y-103507285D01*
X130500714Y-103398428D01*
X130464428Y-103325857D01*
X130391857Y-103289571D01*
X130355571Y-103289571D01*
X130283000Y-103325857D01*
X130246714Y-103398428D01*
X130246714Y-103507285D01*
X130283000Y-103579857D01*
X130246714Y-103833857D02*
X130246714Y-104124142D01*
X129992714Y-103942714D02*
X130645857Y-103942714D01*
X130718428Y-103979000D01*
X130754714Y-104051571D01*
X130754714Y-104124142D01*
X130754714Y-104378142D02*
X130246714Y-104378142D01*
X129992714Y-104378142D02*
X130029000Y-104341857D01*
X130065285Y-104378142D01*
X130029000Y-104414428D01*
X129992714Y-104378142D01*
X130065285Y-104378142D01*
X130718428Y-105067571D02*
X130754714Y-104995000D01*
X130754714Y-104849857D01*
X130718428Y-104777285D01*
X130682142Y-104741000D01*
X130609571Y-104704714D01*
X130391857Y-104704714D01*
X130319285Y-104741000D01*
X130283000Y-104777285D01*
X130246714Y-104849857D01*
X130246714Y-104995000D01*
X130283000Y-105067571D01*
X130754714Y-105394142D02*
X129992714Y-105394142D01*
X130464428Y-105466714D02*
X130754714Y-105684428D01*
X130246714Y-105684428D02*
X130537000Y-105394142D01*
X130754714Y-106446428D02*
X130391857Y-106192428D01*
X130754714Y-106011000D02*
X129992714Y-106011000D01*
X129992714Y-106301285D01*
X130029000Y-106373857D01*
X130065285Y-106410142D01*
X130137857Y-106446428D01*
X130246714Y-106446428D01*
X130319285Y-106410142D01*
X130355571Y-106373857D01*
X130391857Y-106301285D01*
X130391857Y-106011000D01*
X130754714Y-106773000D02*
X129992714Y-106773000D01*
X129992714Y-107063285D01*
X130029000Y-107135857D01*
X130065285Y-107172142D01*
X130137857Y-107208428D01*
X130246714Y-107208428D01*
X130319285Y-107172142D01*
X130355571Y-107135857D01*
X130391857Y-107063285D01*
X130391857Y-106773000D01*
X130754714Y-108115571D02*
X130246714Y-108115571D01*
X130391857Y-108115571D02*
X130319285Y-108151857D01*
X130283000Y-108188142D01*
X130246714Y-108260714D01*
X130246714Y-108333285D01*
X130718428Y-108877571D02*
X130754714Y-108805000D01*
X130754714Y-108659857D01*
X130718428Y-108587285D01*
X130645857Y-108551000D01*
X130355571Y-108551000D01*
X130283000Y-108587285D01*
X130246714Y-108659857D01*
X130246714Y-108805000D01*
X130283000Y-108877571D01*
X130355571Y-108913857D01*
X130428142Y-108913857D01*
X130500714Y-108551000D01*
X130246714Y-109167857D02*
X130754714Y-109349285D01*
X130246714Y-109530714D01*
X130754714Y-110220142D02*
X130754714Y-109784714D01*
X130754714Y-110002428D02*
X129992714Y-110002428D01*
X130101571Y-109929857D01*
X130174142Y-109857285D01*
X130210428Y-109784714D01*
D10*
D11*
X131897000Y-96871285D02*
X131897000Y-97234142D01*
X132114714Y-96798714D02*
X131352714Y-97052714D01*
X132114714Y-97306714D01*
X131606714Y-97887285D02*
X132223571Y-97887285D01*
X132296142Y-97851000D01*
X132332428Y-97814714D01*
X132368714Y-97742142D01*
X132368714Y-97633285D01*
X132332428Y-97560714D01*
X132078428Y-97887285D02*
X132114714Y-97814714D01*
X132114714Y-97669571D01*
X132078428Y-97597000D01*
X132042142Y-97560714D01*
X131969571Y-97524428D01*
X131751857Y-97524428D01*
X131679285Y-97560714D01*
X131643000Y-97597000D01*
X131606714Y-97669571D01*
X131606714Y-97814714D01*
X131643000Y-97887285D01*
X132114714Y-98250142D02*
X131606714Y-98250142D01*
X131352714Y-98250142D02*
X131389000Y-98213857D01*
X131425285Y-98250142D01*
X131389000Y-98286428D01*
X131352714Y-98250142D01*
X131425285Y-98250142D01*
X132114714Y-98721857D02*
X132078428Y-98649285D01*
X132005857Y-98613000D01*
X131352714Y-98613000D01*
X132114714Y-99338714D02*
X131715571Y-99338714D01*
X131643000Y-99302428D01*
X131606714Y-99229857D01*
X131606714Y-99084714D01*
X131643000Y-99012142D01*
X132078428Y-99338714D02*
X132114714Y-99266142D01*
X132114714Y-99084714D01*
X132078428Y-99012142D01*
X132005857Y-98975857D01*
X131933285Y-98975857D01*
X131860714Y-99012142D01*
X131824428Y-99084714D01*
X131824428Y-99266142D01*
X131788142Y-99338714D01*
X132078428Y-100028142D02*
X132114714Y-99955571D01*
X132114714Y-99810428D01*
X132078428Y-99737857D01*
X132042142Y-99701571D01*
X131969571Y-99665285D01*
X131751857Y-99665285D01*
X131679285Y-99701571D01*
X131643000Y-99737857D01*
X131606714Y-99810428D01*
X131606714Y-99955571D01*
X131643000Y-100028142D01*
X132114714Y-100354714D02*
X131352714Y-100354714D01*
X131824428Y-100427285D02*
X132114714Y-100645000D01*
X131606714Y-100645000D02*
X131897000Y-100354714D01*
X131425285Y-101515857D02*
X131389000Y-101552142D01*
X131352714Y-101624714D01*
X131352714Y-101806142D01*
X131389000Y-101878714D01*
X131425285Y-101915000D01*
X131497857Y-101951285D01*
X131570428Y-101951285D01*
X131679285Y-101915000D01*
X132114714Y-101479571D01*
X132114714Y-101951285D01*
X131352714Y-102423000D02*
X131352714Y-102495571D01*
X131389000Y-102568142D01*
X131425285Y-102604428D01*
X131497857Y-102640714D01*
X131643000Y-102677000D01*
X131824428Y-102677000D01*
X131969571Y-102640714D01*
X132042142Y-102604428D01*
X132078428Y-102568142D01*
X132114714Y-102495571D01*
X132114714Y-102423000D01*
X132078428Y-102350428D01*
X132042142Y-102314142D01*
X131969571Y-102277857D01*
X131824428Y-102241571D01*
X131643000Y-102241571D01*
X131497857Y-102277857D01*
X131425285Y-102314142D01*
X131389000Y-102350428D01*
X131352714Y-102423000D01*
X131425285Y-102967285D02*
X131389000Y-103003571D01*
X131352714Y-103076142D01*
X131352714Y-103257571D01*
X131389000Y-103330142D01*
X131425285Y-103366428D01*
X131497857Y-103402714D01*
X131570428Y-103402714D01*
X131679285Y-103366428D01*
X132114714Y-102931000D01*
X132114714Y-103402714D01*
X131425285Y-103693000D02*
X131389000Y-103729285D01*
X131352714Y-103801857D01*
X131352714Y-103983285D01*
X131389000Y-104055857D01*
X131425285Y-104092142D01*
X131497857Y-104128428D01*
X131570428Y-104128428D01*
X131679285Y-104092142D01*
X132114714Y-103656714D01*
X132114714Y-104128428D01*
X132042142Y-105471000D02*
X132078428Y-105434714D01*
X132114714Y-105325857D01*
X132114714Y-105253285D01*
X132078428Y-105144428D01*
X132005857Y-105071857D01*
X131933285Y-105035571D01*
X131788142Y-104999285D01*
X131679285Y-104999285D01*
X131534142Y-105035571D01*
X131461571Y-105071857D01*
X131389000Y-105144428D01*
X131352714Y-105253285D01*
X131352714Y-105325857D01*
X131389000Y-105434714D01*
X131425285Y-105471000D01*
X132042142Y-106233000D02*
X132078428Y-106196714D01*
X132114714Y-106087857D01*
X132114714Y-106015285D01*
X132078428Y-105906428D01*
X132005857Y-105833857D01*
X131933285Y-105797571D01*
X131788142Y-105761285D01*
X131679285Y-105761285D01*
X131534142Y-105797571D01*
X131461571Y-105833857D01*
X131389000Y-105906428D01*
X131352714Y-106015285D01*
X131352714Y-106087857D01*
X131389000Y-106196714D01*
X131425285Y-106233000D01*
X131824428Y-106559571D02*
X131824428Y-107140142D01*
X132114714Y-107503000D02*
X131352714Y-107503000D01*
X131643000Y-107503000D02*
X131606714Y-107575571D01*
X131606714Y-107720714D01*
X131643000Y-107793285D01*
X131679285Y-107829571D01*
X131751857Y-107865857D01*
X131969571Y-107865857D01*
X132042142Y-107829571D01*
X132078428Y-107793285D01*
X132114714Y-107720714D01*
X132114714Y-107575571D01*
X132078428Y-107503000D01*
X131606714Y-108119857D02*
X132114714Y-108301285D01*
X131606714Y-108482714D02*
X132114714Y-108301285D01*
X132296142Y-108228714D01*
X132332428Y-108192428D01*
X132368714Y-108119857D01*
X131824428Y-108773000D02*
X131824428Y-109353571D01*
X132078428Y-109680142D02*
X132114714Y-109789000D01*
X132114714Y-109970428D01*
X132078428Y-110043000D01*
X132042142Y-110079285D01*
X131969571Y-110115571D01*
X131897000Y-110115571D01*
X131824428Y-110079285D01*
X131788142Y-110043000D01*
X131751857Y-109970428D01*
X131715571Y-109825285D01*
X131679285Y-109752714D01*
X131643000Y-109716428D01*
X131570428Y-109680142D01*
X131497857Y-109680142D01*
X131425285Y-109716428D01*
X131389000Y-109752714D01*
X131352714Y-109825285D01*
X131352714Y-110006714D01*
X131389000Y-110115571D01*
X131897000Y-110405857D02*
X131897000Y-110768714D01*
X132114714Y-110333285D02*
X131352714Y-110587285D01*
X132114714Y-110841285D01*
D12*
%TO.P,J2,1,IO1*%
%TO.N,PMOD_CTS*%
X165836500Y-98650000D03*
D13*
%TO.P,J2,2,IO2*%
%TO.N,PMOD_TX*%
X165836500Y-101190000D03*
%TO.P,J2,3,IO3*%
%TO.N,PMOD_RX*%
X165836500Y-103730000D03*
%TO.P,J2,4,IO4*%
%TO.N,PMOD_RTS*%
X165836500Y-106270000D03*
%TO.P,J2,5*%
%TO.N,GND*%
X165836500Y-108810000D03*
%TO.P,J2,6*%
%TO.N,+PMOD*%
X165836500Y-111350000D03*
D14*
%TO.P,J2,7,IO5*%
%TO.N,PMOD_IO5*%
X168376500Y-98650000D03*
%TO.P,J2,8,IO6*%
%TO.N,PMOD_IO6*%
X168376500Y-101190000D03*
%TO.P,J2,9,IO7*%
%TO.N,PMOD_IO7*%
X168376500Y-103730000D03*
%TO.P,J2,10,IO8*%
%TO.N,PMOD_IO8*%
X168376500Y-106270000D03*
%TO.P,J2,11*%
%TO.N,GND*%
X168376500Y-108810000D03*
%TO.P,J2,12*%
%TO.N,+PMOD*%
X168376500Y-111350000D03*
%TD*%
D15*
%TO.P,JP1,1*%
%TO.N,BUTTON*%
X141000000Y-97400000D03*
D16*
%TO.P,JP1,2*%
%TO.N,Net-(R7-Pad1)*%
X141000000Y-98600000D03*
%TD*%
D17*
%TO.P,TP4,1,1*%
%TO.N,Net-(TP4-Pad1)*%
X139550000Y-111500000D03*
%TD*%
%TO.P,TP1,1,1*%
%TO.N,GND*%
X137010000Y-111500000D03*
%TD*%
%TO.P,TP5,1,1*%
%TO.N,Net-(TP5-Pad1)*%
X142090000Y-111500000D03*
%TD*%
%TO.P,TP3,1,1*%
%TO.N,RST*%
X144630000Y-111500000D03*
%TD*%
D18*
%TO.N,PMOD_CTS*%
X143750000Y-99000000D03*
%TO.N,PMOD_TX*%
X145430000Y-98850000D03*
%TO.N,GND*%
X160500000Y-113900000D03*
X149300000Y-105800000D03*
X126600000Y-98000000D03*
X144500000Y-96100000D03*
X158830000Y-101770000D03*
X152150000Y-100660000D03*
X164500000Y-96100000D03*
X164100000Y-97250000D03*
X164500000Y-113900000D03*
X148500000Y-113900000D03*
X134000000Y-101700000D03*
X156500000Y-96100000D03*
X137010000Y-111500000D03*
X148500000Y-96100000D03*
X154500000Y-113900000D03*
X158500000Y-113900000D03*
X134500000Y-96100000D03*
X139900000Y-106000000D03*
X170400000Y-113900000D03*
X132500000Y-96100000D03*
X128500000Y-96100000D03*
X133750000Y-109750000D03*
X162500000Y-113900000D03*
X151100000Y-97150000D03*
X137000000Y-106100000D03*
X136500000Y-113900000D03*
X136500000Y-96100000D03*
X126600000Y-102000000D03*
X162500000Y-96100000D03*
X134500000Y-113900000D03*
X144500000Y-113900000D03*
X147700000Y-104200000D03*
X128250000Y-105000000D03*
X150500000Y-96100000D03*
X139550000Y-110000000D03*
X168500000Y-113900000D03*
X147700000Y-105800000D03*
X157100000Y-108500000D03*
X132500000Y-113900000D03*
X130500000Y-113900000D03*
X129150000Y-100250000D03*
X138500000Y-96100000D03*
X154500000Y-96100000D03*
X126600000Y-100000000D03*
X126600000Y-110000000D03*
X157100000Y-106750000D03*
X163750000Y-108170000D03*
X146150000Y-111760000D03*
X140500000Y-96100000D03*
X129150000Y-101500000D03*
X139900000Y-107500000D03*
X166500000Y-113900000D03*
X170400000Y-104000000D03*
X126600000Y-112000000D03*
X158500000Y-96100000D03*
X170400000Y-100000000D03*
X138500000Y-102250000D03*
X141500000Y-110000000D03*
X149300000Y-104200000D03*
X128500000Y-113900000D03*
X126600000Y-96100000D03*
X141000000Y-104250000D03*
X156500000Y-113900000D03*
X150500000Y-113900000D03*
X136950000Y-99100000D03*
X145000000Y-101250000D03*
X153000000Y-110600000D03*
X170400000Y-98000000D03*
X147500000Y-97150000D03*
X130500000Y-96100000D03*
X126600000Y-106000000D03*
X170400000Y-106000000D03*
X138600000Y-113900000D03*
X170400000Y-102000000D03*
X168500000Y-96100000D03*
X146500000Y-96100000D03*
X126600000Y-104000000D03*
X166500000Y-96100000D03*
X132500000Y-112000000D03*
X126600000Y-108000000D03*
X157100000Y-105000000D03*
X142550000Y-99100000D03*
X142500000Y-113900000D03*
X170400000Y-112000000D03*
X140500000Y-113900000D03*
X170400000Y-110000000D03*
X170400000Y-96100000D03*
X142500000Y-96100000D03*
X126600000Y-113900000D03*
X152500000Y-96100000D03*
X146500000Y-113900000D03*
X130600000Y-100250000D03*
X170400000Y-108000000D03*
X152500000Y-113900000D03*
%TO.N,PMOD_RX*%
X144550000Y-98350000D03*
%TO.N,PMOD_RTS*%
X143750000Y-100000000D03*
%TO.N,+3.3V*%
X153000000Y-109000000D03*
X152110000Y-98750000D03*
X143050000Y-104900000D03*
X162250000Y-111250000D03*
X146270000Y-98350000D03*
X147500000Y-109410000D03*
X144000000Y-113000000D03*
X143000000Y-113000000D03*
X155500000Y-107600000D03*
X162100000Y-98500000D03*
X143500000Y-112250000D03*
X134350000Y-107000000D03*
%TO.N,USB_D-*%
X133050000Y-98500000D03*
X153700000Y-106850000D03*
%TO.N,USB_D+*%
X134950000Y-98500000D03*
X153300000Y-106000000D03*
%TO.N,Net-(C6-Pad1)*%
X155500000Y-109350000D03*
X155500000Y-105850000D03*
X142250000Y-108600000D03*
%TO.N,Net-(TP4-Pad1)*%
X143000000Y-109250000D03*
%TO.N,Net-(TP5-Pad1)*%
X143750000Y-108600000D03*
%TO.N,RST*%
X144500000Y-109250000D03*
%TO.N,FL_D0*%
X158600000Y-100650000D03*
X156000000Y-102000000D03*
%TO.N,FL_D2*%
X155000000Y-102000000D03*
X156120000Y-99390000D03*
%TO.N,FL_D1*%
X155750000Y-98120000D03*
X154000000Y-102000000D03*
%TO.N,BUTTON*%
X139750000Y-98250000D03*
X144000000Y-103250000D03*
%TO.N,LED*%
X145900000Y-109410000D03*
X162250000Y-110250000D03*
%TO.N,UB*%
X155750000Y-96850000D03*
X153000000Y-102000000D03*
X149300000Y-97150000D03*
%TO.N,Net-(R7-Pad1)*%
X141400000Y-99750000D03*
%TD*%
D19*
%TO.N,PMOD_CTS*%
X144370000Y-97150000D02*
X146430000Y-97150000D01*
X143750000Y-97770000D02*
X144370000Y-97150000D01*
X146430000Y-97150000D02*
X152500000Y-103220000D01*
X143750000Y-99000000D02*
X143750000Y-97770000D01*
X159240000Y-103220000D02*
X163810000Y-98650000D01*
X152500000Y-103220000D02*
X159240000Y-103220000D01*
X163810000Y-98650000D02*
X165836500Y-98650000D01*
%TO.N,PMOD_TX*%
X152340000Y-103590000D02*
X159390000Y-103590000D01*
X145907895Y-98850000D02*
X146147895Y-99090000D01*
X159390000Y-103590000D02*
X161790000Y-101190000D01*
X147840000Y-99090000D02*
X152340000Y-103590000D01*
X146147895Y-99090000D02*
X147840000Y-99090000D01*
X145430000Y-98850000D02*
X145907895Y-98850000D01*
X161790000Y-101190000D02*
X165836500Y-101190000D01*
D20*
%TO.N,GND*%
X163540000Y-98030000D02*
X163540000Y-97810000D01*
D21*
X148020000Y-97670000D02*
X147500000Y-97150000D01*
D19*
X165836500Y-108810000D02*
X166916500Y-109890000D01*
D20*
X157850000Y-102750000D02*
X152700000Y-102750000D01*
X160200000Y-101370000D02*
X163540000Y-98030000D01*
D21*
X152700000Y-102750000D02*
X148020000Y-98070000D01*
X151360000Y-105000000D02*
X150560000Y-104200000D01*
X138600000Y-113900000D02*
X136500000Y-113900000D01*
D20*
X159230000Y-101370000D02*
X160200000Y-101370000D01*
D21*
X157100000Y-105000000D02*
X151360000Y-105000000D01*
D19*
X167296500Y-109890000D02*
X168376500Y-108810000D01*
D21*
X162500000Y-113900000D02*
X162500000Y-112146500D01*
X162500000Y-112146500D02*
X165836500Y-108810000D01*
D20*
X158830000Y-101770000D02*
X157850000Y-102750000D01*
X158830000Y-101770000D02*
X159230000Y-101370000D01*
D19*
X166916500Y-109890000D02*
X167296500Y-109890000D01*
D21*
X150560000Y-104200000D02*
X149300000Y-104200000D01*
X148020000Y-98070000D02*
X148020000Y-97670000D01*
D20*
X163540000Y-97810000D02*
X164100000Y-97250000D01*
D19*
%TO.N,PMOD_RX*%
X145170000Y-99550000D02*
X147780000Y-99550000D01*
X159750000Y-103960000D02*
X159980000Y-103730000D01*
X152190000Y-103960000D02*
X159750000Y-103960000D01*
X144550000Y-98350000D02*
X144550000Y-98930000D01*
X147780000Y-99550000D02*
X152190000Y-103960000D01*
X159980000Y-103730000D02*
X165836500Y-103730000D01*
X144550000Y-98930000D02*
X145170000Y-99550000D01*
%TO.N,PMOD_RTS*%
X143750000Y-100000000D02*
X147710000Y-100000000D01*
X163896500Y-104330000D02*
X165836500Y-106270000D01*
X152040000Y-104330000D02*
X163896500Y-104330000D01*
X147710000Y-100000000D02*
X152040000Y-104330000D01*
D22*
%TO.N,USB_D-*%
X137866800Y-104375000D02*
X133774999Y-100283199D01*
X133774999Y-100283199D02*
X133774999Y-99224999D01*
X139326800Y-104375000D02*
X137866800Y-104375000D01*
X141286800Y-106335000D02*
X139326800Y-104375000D01*
X133774999Y-99224999D02*
X133050000Y-98500000D01*
X146856800Y-107185000D02*
X146006800Y-106335000D01*
X150173200Y-107185000D02*
X146856800Y-107185000D01*
X150508200Y-106850000D02*
X150173200Y-107185000D01*
X146006800Y-106335000D02*
X141286800Y-106335000D01*
X153700000Y-106850000D02*
X150508200Y-106850000D01*
%TO.N,USB_D+*%
X134225001Y-99224999D02*
X134950000Y-98500000D01*
X152900001Y-106399999D02*
X150321801Y-106399999D01*
X147043200Y-106735000D02*
X146193200Y-105885000D01*
X149986800Y-106735000D02*
X147043200Y-106735000D01*
X139513200Y-103925000D02*
X138053200Y-103925000D01*
X138053200Y-103925000D02*
X134225001Y-100096801D01*
X146193200Y-105885000D02*
X141473200Y-105885000D01*
X153300000Y-106000000D02*
X152900001Y-106399999D01*
X141473200Y-105885000D02*
X139513200Y-103925000D01*
X134225001Y-100096801D02*
X134225001Y-99224999D01*
X150321801Y-106399999D02*
X149986800Y-106735000D01*
D21*
%TO.N,Net-(C6-Pad1)*%
X143100000Y-107750000D02*
X142250000Y-108600000D01*
X156260000Y-108590000D02*
X155500000Y-109350000D01*
X144500000Y-107750000D02*
X143100000Y-107750000D01*
X154400000Y-108250000D02*
X155500000Y-109350000D01*
X145000000Y-108250000D02*
X154400000Y-108250000D01*
X145000000Y-108250000D02*
X144500000Y-107750000D01*
X155500000Y-105850000D02*
X156260000Y-106610000D01*
X156260000Y-106610000D02*
X156260000Y-108590000D01*
D20*
%TO.N,Net-(TP4-Pad1)*%
X140550000Y-110500000D02*
X139550000Y-111500000D01*
X142510000Y-109250000D02*
X142430000Y-109330000D01*
X142430000Y-109330000D02*
X140910000Y-109330000D01*
X143000000Y-109250000D02*
X142510000Y-109250000D01*
X140550000Y-109690000D02*
X140550000Y-110500000D01*
X140910000Y-109330000D02*
X140550000Y-109690000D01*
%TO.N,Net-(TP5-Pad1)*%
X143750000Y-108600000D02*
X143750000Y-109840000D01*
X143750000Y-109840000D02*
X142090000Y-111500000D01*
%TO.N,RST*%
X144500000Y-110190000D02*
X144630000Y-110320000D01*
X144500000Y-109250000D02*
X144500000Y-110190000D01*
X144630000Y-110320000D02*
X144630000Y-111500000D01*
D19*
%TO.N,FL_D0*%
X156853655Y-100990860D02*
X157599141Y-101736345D01*
X156000000Y-102000000D02*
X156590000Y-102000000D01*
X157940000Y-100650000D02*
X158600000Y-100650000D01*
X157862793Y-100727204D02*
X157940000Y-100650000D01*
X156590000Y-101575736D02*
X156429389Y-101415125D01*
X158023405Y-101312080D02*
X157862793Y-101151468D01*
X158023405Y-101312079D02*
X158023405Y-101312080D01*
X156853655Y-100990861D02*
X156853655Y-100990860D01*
X156429396Y-100990868D02*
G75*
G03*
X156429389Y-101415125I212104J-212132D01*
G01*
X158023417Y-101312067D02*
G75*
G02*
X158023405Y-101736345I-212117J-212133D01*
G01*
X156853654Y-100990862D02*
G75*
G03*
X156429390Y-100990862I-212132J-212130D01*
G01*
X157862758Y-100727169D02*
G75*
G03*
X157862794Y-101151467I212142J-212131D01*
G01*
X156589968Y-101575768D02*
G75*
G02*
X156590000Y-102000000I-212068J-212132D01*
G01*
X158023404Y-101736344D02*
G75*
G02*
X157599142Y-101736344I-212131J212131D01*
G01*
%TO.N,FL_D2*%
X156120000Y-99390000D02*
X155845000Y-99665000D01*
X155067184Y-100442819D02*
X155000000Y-100510000D01*
X155619145Y-100605872D02*
X155456092Y-100442819D01*
X156008052Y-100605873D02*
X156008053Y-100605872D01*
X155845000Y-100053910D02*
X155844999Y-100053910D01*
X155844999Y-100053910D02*
X156008053Y-100216964D01*
X155067183Y-100442820D02*
X155067184Y-100442819D01*
X155000000Y-100510000D02*
X155000000Y-102000000D01*
X155067145Y-100442782D02*
G75*
G02*
X155456092Y-100442819I194455J-194518D01*
G01*
X155844955Y-100053955D02*
G75*
G02*
X155845000Y-99665000I194545J194455D01*
G01*
X155619145Y-100605872D02*
G75*
G03*
X156008053Y-100605872I194454J194459D01*
G01*
X156008034Y-100605855D02*
G75*
G03*
X156008053Y-100216964I-194434J194455D01*
G01*
%TO.N,FL_D1*%
X155017486Y-98271192D02*
X155017486Y-98271191D01*
X154511059Y-101078942D02*
X154511059Y-100990000D01*
X155017486Y-98271191D02*
X155096017Y-98349722D01*
X154000000Y-99870000D02*
X154247485Y-99622515D01*
X154000000Y-100390000D02*
X154000000Y-99870000D01*
X154255529Y-101334471D02*
X154255530Y-101334471D01*
X155520281Y-98349722D02*
X155520841Y-98349159D01*
X154000000Y-100478942D02*
X154000000Y-100390000D01*
X154671749Y-99622515D02*
X154750279Y-99701045D01*
X154255530Y-100734471D02*
X154255529Y-100734471D01*
X154000000Y-102000000D02*
X154000000Y-101590000D01*
X155520841Y-98349159D02*
X155750000Y-98120000D01*
X155174543Y-99276780D02*
X154593220Y-98695456D01*
X155174543Y-99276779D02*
X155174543Y-99276780D01*
X155520280Y-98349721D02*
G75*
G02*
X155096018Y-98349721I-212131J212131D01*
G01*
X155017485Y-98271193D02*
G75*
G03*
X154593221Y-98271193I-212132J-212130D01*
G01*
X153999929Y-100478942D02*
G75*
G03*
X154255529Y-100734471I255571J42D01*
G01*
X155174554Y-99276768D02*
G75*
G02*
X155174542Y-99701044I-212154J-212132D01*
G01*
X154255530Y-100734441D02*
G75*
G02*
X154511059Y-100990000I-30J-255559D01*
G01*
X154511071Y-101078942D02*
G75*
G02*
X154255530Y-101334471I-255571J42D01*
G01*
X155174542Y-99701044D02*
G75*
G02*
X154750280Y-99701044I-212131J212131D01*
G01*
X154671748Y-99622516D02*
G75*
G03*
X154247486Y-99622516I-212131J-212131D01*
G01*
X154593197Y-98271169D02*
G75*
G03*
X154593221Y-98695455I212203J-212131D01*
G01*
X154255529Y-101334500D02*
G75*
G03*
X154000000Y-101590000I-29J-255500D01*
G01*
%TO.N,BUTTON*%
X139750000Y-97790000D02*
X139750000Y-98250000D01*
X140130000Y-99060000D02*
X140511686Y-99441686D01*
X141000000Y-97400000D02*
X140140000Y-97400000D01*
X139750000Y-98250000D02*
X140130000Y-98630000D01*
X140511686Y-100571686D02*
X143190000Y-103250000D01*
X140511686Y-99441686D02*
X140511686Y-100571686D01*
X143190000Y-103250000D02*
X144000000Y-103250000D01*
X140140000Y-97400000D02*
X139750000Y-97790000D01*
X140130000Y-98630000D02*
X140130000Y-99060000D01*
D20*
%TO.N,LED*%
X147920000Y-111430000D02*
X145900000Y-109410000D01*
X162250000Y-110250000D02*
X154660000Y-110250000D01*
X153480000Y-111430000D02*
X147920000Y-111430000D01*
X154660000Y-110250000D02*
X153480000Y-111430000D01*
D19*
%TO.N,UB*%
X150675570Y-98840000D02*
X150800000Y-98840000D01*
X150050000Y-97150000D02*
X151100000Y-98200000D01*
X151100000Y-98540000D02*
X151100000Y-98450011D01*
X151524430Y-99440000D02*
X151400000Y-99440000D01*
X152580000Y-101580000D02*
X152207895Y-101580000D01*
X151100000Y-98200000D02*
X152450000Y-96850000D01*
X151400000Y-99440000D02*
X150675570Y-99440000D01*
X152450000Y-96850000D02*
X155750000Y-96850000D01*
X152207895Y-101580000D02*
X151100000Y-100472105D01*
X153000000Y-102000000D02*
X152580000Y-101580000D01*
X151400000Y-100040000D02*
X151524430Y-100040000D01*
X151100000Y-98450011D02*
X151100000Y-98200000D01*
X151100000Y-100472105D02*
X151100000Y-100340000D01*
X149300000Y-97150000D02*
X150050000Y-97150000D01*
X150675570Y-98839970D02*
G75*
G03*
X150375570Y-99140000I30J-300030D01*
G01*
X151100000Y-98540000D02*
G75*
G02*
X150800000Y-98840000I-300000J0D01*
G01*
X151400000Y-100040000D02*
G75*
G03*
X151100000Y-100340000I0J-300000D01*
G01*
X151824400Y-99740000D02*
G75*
G02*
X151524430Y-100040000I-300000J0D01*
G01*
X150375600Y-99140000D02*
G75*
G03*
X150675570Y-99440000I300000J0D01*
G01*
X151524430Y-99439970D02*
G75*
G02*
X151824430Y-99740000I-30J-300030D01*
G01*
%TO.N,Net-(R7-Pad1)*%
X141000000Y-98600000D02*
X141000000Y-99350000D01*
X141000000Y-99350000D02*
X141400000Y-99750000D01*
%TD*%
%TA.AperFunction,Conductor*%
%TO.N,GND*%
G36*
X170789221Y-95672902D02*
G01*
X170835714Y-95726558D01*
X170847100Y-95778900D01*
X170847100Y-114221100D01*
X170827098Y-114289221D01*
X170773442Y-114335714D01*
X170721100Y-114347100D01*
X126278900Y-114347100D01*
X126210779Y-114327098D01*
X126164286Y-114273442D01*
X126152900Y-114221100D01*
X126152900Y-112185874D01*
X136509229Y-112185874D01*
X136518056Y-112197492D01*
X136575587Y-112239291D01*
X136586959Y-112245857D01*
X136738789Y-112313456D01*
X136751277Y-112317513D01*
X136913843Y-112352068D01*
X136926903Y-112353440D01*
X137093097Y-112353440D01*
X137106157Y-112352068D01*
X137268723Y-112317513D01*
X137281211Y-112313456D01*
X137433041Y-112245857D01*
X137444413Y-112239291D01*
X137502315Y-112197223D01*
X137510738Y-112186300D01*
X137503834Y-112173439D01*
X137022812Y-111692417D01*
X137008868Y-111684803D01*
X137007035Y-111684934D01*
X137000420Y-111689185D01*
X136515842Y-112173763D01*
X136509229Y-112185874D01*
X126152900Y-112185874D01*
X126152900Y-111506565D01*
X136152549Y-111506565D01*
X136169921Y-111671855D01*
X136172651Y-111684696D01*
X136224007Y-111842752D01*
X136229353Y-111854760D01*
X136312449Y-111998686D01*
X136312565Y-111998847D01*
X136322003Y-112004662D01*
X136322079Y-112004660D01*
X136331364Y-111999031D01*
X136817583Y-111512812D01*
X136823961Y-111501132D01*
X137194803Y-111501132D01*
X137194934Y-111502965D01*
X137199185Y-111509580D01*
X137686586Y-111996981D01*
X137700530Y-112004595D01*
X137700606Y-112004590D01*
X137705859Y-112001017D01*
X137707551Y-111998686D01*
X137790647Y-111854760D01*
X137795993Y-111842752D01*
X137847349Y-111684696D01*
X137850079Y-111671855D01*
X137867451Y-111506565D01*
X137867451Y-111493435D01*
X137867030Y-111489429D01*
X138792974Y-111489429D01*
X138809444Y-111657410D01*
X138862722Y-111817567D01*
X138866369Y-111823589D01*
X138866370Y-111823591D01*
X138940130Y-111945382D01*
X138950158Y-111961941D01*
X138955048Y-111967005D01*
X138955049Y-111967006D01*
X138996807Y-112010248D01*
X139067406Y-112083356D01*
X139106086Y-112108667D01*
X139202747Y-112171920D01*
X139208641Y-112175777D01*
X139215237Y-112178230D01*
X139215239Y-112178231D01*
X139251338Y-112191656D01*
X139366841Y-112234611D01*
X139373822Y-112235542D01*
X139373824Y-112235543D01*
X139409163Y-112240258D01*
X139534144Y-112256934D01*
X139541155Y-112256296D01*
X139541159Y-112256296D01*
X139679293Y-112243724D01*
X139702236Y-112241636D01*
X139708936Y-112239459D01*
X139708941Y-112239458D01*
X139856062Y-112191656D01*
X139856065Y-112191655D01*
X139862761Y-112189479D01*
X139976596Y-112121620D01*
X140001687Y-112106663D01*
X140001690Y-112106661D01*
X140007742Y-112103053D01*
X140129972Y-111986654D01*
X140142399Y-111967951D01*
X140214934Y-111858776D01*
X140223377Y-111846069D01*
X140236743Y-111810884D01*
X140261964Y-111744487D01*
X140283314Y-111688283D01*
X140303820Y-111542378D01*
X140306254Y-111525061D01*
X140306254Y-111525058D01*
X140306805Y-111521139D01*
X140306966Y-111509580D01*
X140307045Y-111503962D01*
X140307045Y-111503957D01*
X140307100Y-111500000D01*
X140295476Y-111396369D01*
X140289071Y-111339262D01*
X140289070Y-111339259D01*
X140288286Y-111332266D01*
X140278430Y-111303964D01*
X140274918Y-111233055D01*
X140308327Y-111173433D01*
X140728200Y-110753560D01*
X140730345Y-110751709D01*
X140735180Y-110749345D01*
X140767170Y-110714860D01*
X140769022Y-110712863D01*
X140772302Y-110709458D01*
X140785957Y-110695803D01*
X140788714Y-110691784D01*
X140791166Y-110688992D01*
X140804614Y-110674495D01*
X140804615Y-110674493D01*
X140812528Y-110665963D01*
X140816840Y-110655156D01*
X140819069Y-110651630D01*
X140825689Y-110639232D01*
X140827376Y-110635425D01*
X140833957Y-110625831D01*
X140839776Y-110601312D01*
X140845338Y-110583726D01*
X140851378Y-110568588D01*
X140851379Y-110568582D01*
X140854673Y-110560327D01*
X140855300Y-110553932D01*
X140855300Y-110550636D01*
X140855318Y-110550483D01*
X140855450Y-110547780D01*
X140855633Y-110547789D01*
X140857103Y-110535232D01*
X140857530Y-110526493D01*
X140860217Y-110515172D01*
X140856451Y-110487500D01*
X140855300Y-110470509D01*
X140855300Y-109868650D01*
X140875302Y-109800529D01*
X140892205Y-109779554D01*
X140999556Y-109672204D01*
X141061868Y-109638179D01*
X141088651Y-109635300D01*
X142376710Y-109635300D01*
X142379535Y-109635507D01*
X142384628Y-109637256D01*
X142434357Y-109635389D01*
X142439083Y-109635300D01*
X142458393Y-109635300D01*
X142463180Y-109634408D01*
X142466898Y-109634167D01*
X142498282Y-109632989D01*
X142508974Y-109628395D01*
X142513059Y-109627475D01*
X142526481Y-109623397D01*
X142530377Y-109621894D01*
X142541811Y-109619764D01*
X142545070Y-109617755D01*
X142610771Y-109612312D01*
X142656139Y-109635142D01*
X142657583Y-109632973D01*
X142771361Y-109708710D01*
X142771363Y-109708711D01*
X142778834Y-109713684D01*
X142787401Y-109716361D01*
X142787402Y-109716361D01*
X142803777Y-109721477D01*
X142917864Y-109757121D01*
X143063498Y-109759790D01*
X143072162Y-109757428D01*
X143081065Y-109756319D01*
X143081438Y-109759313D01*
X143137309Y-109760399D01*
X143196278Y-109799936D01*
X143224510Y-109865078D01*
X143213043Y-109935142D01*
X143188563Y-109969677D01*
X142416881Y-110741359D01*
X142354569Y-110775385D01*
X142285519Y-110770963D01*
X142269518Y-110765265D01*
X142269516Y-110765264D01*
X142262884Y-110762903D01*
X142255896Y-110762070D01*
X142255893Y-110762069D01*
X142142198Y-110748512D01*
X142095286Y-110742918D01*
X142088283Y-110743654D01*
X142088282Y-110743654D01*
X141934424Y-110759825D01*
X141934422Y-110759826D01*
X141927424Y-110760561D01*
X141767642Y-110814955D01*
X141623883Y-110903397D01*
X141618851Y-110908324D01*
X141618848Y-110908327D01*
X141529996Y-110995338D01*
X141503290Y-111021491D01*
X141411857Y-111163367D01*
X141409447Y-111169987D01*
X141409446Y-111169990D01*
X141357046Y-111313956D01*
X141354128Y-111321974D01*
X141332974Y-111489429D01*
X141349444Y-111657410D01*
X141402722Y-111817567D01*
X141406369Y-111823589D01*
X141406370Y-111823591D01*
X141480130Y-111945382D01*
X141490158Y-111961941D01*
X141495048Y-111967005D01*
X141495049Y-111967006D01*
X141536807Y-112010248D01*
X141607406Y-112083356D01*
X141646086Y-112108667D01*
X141742747Y-112171920D01*
X141748641Y-112175777D01*
X141755237Y-112178230D01*
X141755239Y-112178231D01*
X141791338Y-112191656D01*
X141906841Y-112234611D01*
X141913822Y-112235542D01*
X141913824Y-112235543D01*
X141949163Y-112240258D01*
X142074144Y-112256934D01*
X142081155Y-112256296D01*
X142081159Y-112256296D01*
X142219293Y-112243724D01*
X142242236Y-112241636D01*
X142248936Y-112239459D01*
X142248941Y-112239458D01*
X142396062Y-112191656D01*
X142396065Y-112191655D01*
X142402761Y-112189479D01*
X142516596Y-112121620D01*
X142541687Y-112106663D01*
X142541690Y-112106661D01*
X142547742Y-112103053D01*
X142669972Y-111986654D01*
X142682399Y-111967951D01*
X142754934Y-111858776D01*
X142763377Y-111846069D01*
X142776743Y-111810884D01*
X142801964Y-111744487D01*
X142823314Y-111688283D01*
X142843820Y-111542378D01*
X142846254Y-111525061D01*
X142846254Y-111525058D01*
X142846805Y-111521139D01*
X142846966Y-111509580D01*
X142847045Y-111503962D01*
X142847045Y-111503957D01*
X142847100Y-111500000D01*
X142828286Y-111332266D01*
X142818430Y-111303963D01*
X142814916Y-111233058D01*
X142848326Y-111173433D01*
X143928196Y-110093563D01*
X143930343Y-110091709D01*
X143935180Y-110089345D01*
X143969035Y-110052849D01*
X143972315Y-110049444D01*
X143979605Y-110042154D01*
X144041917Y-110008128D01*
X144112732Y-110013193D01*
X144169568Y-110055740D01*
X144194379Y-110122260D01*
X144194700Y-110131249D01*
X144194700Y-110136710D01*
X144194493Y-110139535D01*
X144192744Y-110144628D01*
X144194030Y-110178869D01*
X144194611Y-110194356D01*
X144194700Y-110199083D01*
X144194700Y-110218393D01*
X144195592Y-110223180D01*
X144195833Y-110226898D01*
X144197011Y-110258282D01*
X144201605Y-110268974D01*
X144202525Y-110273059D01*
X144206601Y-110286475D01*
X144208106Y-110290374D01*
X144210236Y-110301811D01*
X144220089Y-110317795D01*
X144223453Y-110323253D01*
X144231961Y-110339632D01*
X144238393Y-110354604D01*
X144238396Y-110354608D01*
X144241906Y-110362779D01*
X144245985Y-110367744D01*
X144248311Y-110370070D01*
X144248402Y-110370185D01*
X144250223Y-110372193D01*
X144250087Y-110372316D01*
X144257933Y-110382243D01*
X144263810Y-110388725D01*
X144269915Y-110398628D01*
X144279177Y-110405671D01*
X144286990Y-110414287D01*
X144285003Y-110416088D01*
X144317085Y-110459626D01*
X144324700Y-110502766D01*
X144324700Y-110734042D01*
X144304698Y-110802163D01*
X144264723Y-110841359D01*
X144243573Y-110854371D01*
X144163883Y-110903397D01*
X144158851Y-110908324D01*
X144158848Y-110908327D01*
X144069996Y-110995338D01*
X144043290Y-111021491D01*
X143951857Y-111163367D01*
X143949447Y-111169987D01*
X143949446Y-111169990D01*
X143897046Y-111313956D01*
X143894128Y-111321974D01*
X143872974Y-111489429D01*
X143878318Y-111543934D01*
X143889339Y-111656344D01*
X143876079Y-111726092D01*
X143827216Y-111777598D01*
X143758263Y-111794511D01*
X143716578Y-111784356D01*
X143715485Y-111783648D01*
X143575934Y-111741914D01*
X143566958Y-111741859D01*
X143566957Y-111741859D01*
X143505644Y-111741485D01*
X143430279Y-111741024D01*
X143290229Y-111781051D01*
X143282642Y-111785838D01*
X143282640Y-111785839D01*
X143232354Y-111817567D01*
X143167042Y-111858776D01*
X143070622Y-111967951D01*
X143066808Y-111976074D01*
X143066807Y-111976076D01*
X143012533Y-112091676D01*
X143008719Y-112099800D01*
X143007339Y-112108665D01*
X143007338Y-112108667D01*
X142989679Y-112222084D01*
X142986309Y-112243724D01*
X142987473Y-112252626D01*
X142987473Y-112252629D01*
X143001386Y-112359026D01*
X142990386Y-112429165D01*
X142943211Y-112482223D01*
X142911076Y-112496512D01*
X142877792Y-112506025D01*
X142790229Y-112531051D01*
X142667042Y-112608776D01*
X142570622Y-112717951D01*
X142508719Y-112849800D01*
X142486309Y-112993724D01*
X142487473Y-113002626D01*
X142487473Y-113002629D01*
X142499096Y-113091514D01*
X142505195Y-113138152D01*
X142508809Y-113146365D01*
X142508810Y-113146369D01*
X142509237Y-113147339D01*
X142563859Y-113271474D01*
X142569634Y-113278344D01*
X142569635Y-113278346D01*
X142577140Y-113287274D01*
X142657583Y-113382973D01*
X142665060Y-113387950D01*
X142771361Y-113458710D01*
X142771363Y-113458711D01*
X142778834Y-113463684D01*
X142917864Y-113507121D01*
X143063498Y-113509790D01*
X143133762Y-113490634D01*
X143195363Y-113473839D01*
X143195364Y-113473839D01*
X143204026Y-113471477D01*
X143212359Y-113466361D01*
X143320502Y-113399961D01*
X143328154Y-113395263D01*
X143407391Y-113307723D01*
X143467934Y-113270643D01*
X143538913Y-113272181D01*
X143597256Y-113311205D01*
X143657583Y-113382973D01*
X143665060Y-113387950D01*
X143771361Y-113458710D01*
X143771363Y-113458711D01*
X143778834Y-113463684D01*
X143917864Y-113507121D01*
X144063498Y-113509790D01*
X144133762Y-113490634D01*
X144195363Y-113473839D01*
X144195364Y-113473839D01*
X144204026Y-113471477D01*
X144212359Y-113466361D01*
X144320502Y-113399961D01*
X144328154Y-113395263D01*
X144334774Y-113387950D01*
X144419873Y-113293934D01*
X144419874Y-113293933D01*
X144425901Y-113287274D01*
X144433214Y-113272181D01*
X144485495Y-113164272D01*
X144485495Y-113164271D01*
X144489410Y-113156191D01*
X144513576Y-113012552D01*
X144513729Y-113000000D01*
X144493080Y-112855813D01*
X144489362Y-112847635D01*
X144436508Y-112731390D01*
X144436507Y-112731388D01*
X144432792Y-112723218D01*
X144337713Y-112612873D01*
X144215485Y-112533648D01*
X144206888Y-112531077D01*
X144206886Y-112531076D01*
X144086438Y-112495055D01*
X144026904Y-112456374D01*
X143997734Y-112391646D01*
X143998286Y-112353433D01*
X144012770Y-112267344D01*
X144012770Y-112267341D01*
X144013576Y-112262552D01*
X144013729Y-112250000D01*
X144013039Y-112245184D01*
X144012723Y-112240331D01*
X144013845Y-112240258D01*
X144023234Y-112175247D01*
X144069760Y-112121620D01*
X144137893Y-112101660D01*
X144206808Y-112122228D01*
X144282745Y-112171920D01*
X144282751Y-112171923D01*
X144288641Y-112175777D01*
X144295237Y-112178230D01*
X144295239Y-112178231D01*
X144331338Y-112191656D01*
X144446841Y-112234611D01*
X144453822Y-112235542D01*
X144453824Y-112235543D01*
X144489163Y-112240258D01*
X144614144Y-112256934D01*
X144621155Y-112256296D01*
X144621159Y-112256296D01*
X144759293Y-112243724D01*
X144782236Y-112241636D01*
X144788936Y-112239459D01*
X144788941Y-112239458D01*
X144936062Y-112191656D01*
X144936065Y-112191655D01*
X144942761Y-112189479D01*
X145056596Y-112121620D01*
X145081687Y-112106663D01*
X145081690Y-112106661D01*
X145087742Y-112103053D01*
X145209972Y-111986654D01*
X145222399Y-111967951D01*
X145294934Y-111858776D01*
X145303377Y-111846069D01*
X145316743Y-111810884D01*
X145341964Y-111744487D01*
X145363314Y-111688283D01*
X145383820Y-111542378D01*
X145386254Y-111525061D01*
X145386254Y-111525058D01*
X145386805Y-111521139D01*
X145386966Y-111509580D01*
X145387045Y-111503962D01*
X145387045Y-111503957D01*
X145387100Y-111500000D01*
X145375476Y-111396369D01*
X145369071Y-111339262D01*
X145369070Y-111339259D01*
X145368286Y-111332266D01*
X145312777Y-111172868D01*
X145223334Y-111029729D01*
X145215154Y-111021491D01*
X145150518Y-110956402D01*
X145104402Y-110909963D01*
X145012615Y-110851713D01*
X144993786Y-110839764D01*
X144946987Y-110786375D01*
X144935300Y-110733379D01*
X144935300Y-110373290D01*
X144935507Y-110370465D01*
X144937256Y-110365372D01*
X144935389Y-110315643D01*
X144935300Y-110310917D01*
X144935300Y-110291607D01*
X144934408Y-110286820D01*
X144934167Y-110283101D01*
X144933790Y-110273059D01*
X144932989Y-110251718D01*
X144928395Y-110241026D01*
X144927475Y-110236941D01*
X144923399Y-110223525D01*
X144921894Y-110219626D01*
X144919764Y-110208189D01*
X144906547Y-110186747D01*
X144898039Y-110170368D01*
X144891606Y-110155394D01*
X144891604Y-110155391D01*
X144888094Y-110147221D01*
X144884016Y-110142256D01*
X144881687Y-110139927D01*
X144881599Y-110139815D01*
X144879773Y-110137802D01*
X144879909Y-110137678D01*
X144872062Y-110127751D01*
X144866188Y-110121273D01*
X144860085Y-110111372D01*
X144850825Y-110104331D01*
X144843011Y-110095713D01*
X144844997Y-110093912D01*
X144812914Y-110050370D01*
X144805300Y-110007234D01*
X144805300Y-109719067D01*
X144825302Y-109650946D01*
X144837878Y-109634520D01*
X144925901Y-109537274D01*
X144930669Y-109527434D01*
X144985495Y-109414272D01*
X144985495Y-109414271D01*
X144989410Y-109406191D01*
X145013576Y-109262552D01*
X145013729Y-109250000D01*
X144998175Y-109141390D01*
X144994354Y-109114706D01*
X144994353Y-109114703D01*
X144993080Y-109105813D01*
X144989362Y-109097635D01*
X144936508Y-108981390D01*
X144936507Y-108981388D01*
X144932792Y-108973218D01*
X144837713Y-108862873D01*
X144830182Y-108857992D01*
X144830179Y-108857989D01*
X144766397Y-108816648D01*
X144746177Y-108803541D01*
X144727339Y-108781630D01*
X144704941Y-108780494D01*
X144584539Y-108744487D01*
X144584536Y-108744487D01*
X144575934Y-108741914D01*
X144566958Y-108741859D01*
X144566957Y-108741859D01*
X144505644Y-108741485D01*
X144430279Y-108741024D01*
X144421647Y-108743491D01*
X144412756Y-108744709D01*
X144412506Y-108742882D01*
X144352508Y-108742451D01*
X144293059Y-108703639D01*
X144264031Y-108638848D01*
X144263442Y-108613346D01*
X144263576Y-108612552D01*
X144263729Y-108600000D01*
X144254665Y-108536710D01*
X144244354Y-108464706D01*
X144244353Y-108464703D01*
X144243080Y-108455813D01*
X144237026Y-108442498D01*
X144186508Y-108331390D01*
X144186507Y-108331388D01*
X144182792Y-108323218D01*
X144175149Y-108314348D01*
X144174029Y-108311878D01*
X144172096Y-108308855D01*
X144172532Y-108308576D01*
X144145835Y-108249686D01*
X144156134Y-108179441D01*
X144202775Y-108125914D01*
X144270602Y-108106100D01*
X144300308Y-108106100D01*
X144368429Y-108126102D01*
X144389403Y-108143005D01*
X144711834Y-108465436D01*
X144724508Y-108481129D01*
X144727327Y-108484227D01*
X144732975Y-108492974D01*
X144741152Y-108499420D01*
X144757367Y-108512203D01*
X144761397Y-108515784D01*
X144761480Y-108515686D01*
X144765437Y-108519039D01*
X144769118Y-108522720D01*
X144773350Y-108525744D01*
X144773352Y-108525746D01*
X144783711Y-108533149D01*
X144788426Y-108536688D01*
X144819049Y-108560829D01*
X144830537Y-108577003D01*
X144850811Y-108577093D01*
X144868497Y-108582382D01*
X144887062Y-108587934D01*
X144892707Y-108589768D01*
X144930447Y-108603021D01*
X144930450Y-108603022D01*
X144937929Y-108605648D01*
X144943148Y-108606100D01*
X144945859Y-108606100D01*
X144948136Y-108606198D01*
X144948585Y-108606333D01*
X144948583Y-108606387D01*
X144948816Y-108606402D01*
X144954752Y-108608177D01*
X145005150Y-108606197D01*
X145010096Y-108606100D01*
X152424783Y-108606100D01*
X152492904Y-108626102D01*
X152539397Y-108679758D01*
X152549501Y-108750032D01*
X152538838Y-108785649D01*
X152514176Y-108838178D01*
X152508719Y-108849800D01*
X152507339Y-108858665D01*
X152507338Y-108858667D01*
X152488053Y-108982526D01*
X152486309Y-108993724D01*
X152487473Y-109002626D01*
X152487473Y-109002629D01*
X152491985Y-109037131D01*
X152505195Y-109138152D01*
X152508809Y-109146365D01*
X152508810Y-109146369D01*
X152509237Y-109147339D01*
X152563859Y-109271474D01*
X152569634Y-109278344D01*
X152569635Y-109278346D01*
X152640417Y-109362552D01*
X152657583Y-109382973D01*
X152665060Y-109387950D01*
X152771361Y-109458710D01*
X152771363Y-109458711D01*
X152778834Y-109463684D01*
X152917864Y-109507121D01*
X153063498Y-109509790D01*
X153170777Y-109480542D01*
X153195363Y-109473839D01*
X153195364Y-109473839D01*
X153204026Y-109471477D01*
X153212359Y-109466361D01*
X153304152Y-109410000D01*
X153328154Y-109395263D01*
X153334774Y-109387950D01*
X153419873Y-109293934D01*
X153419874Y-109293933D01*
X153425901Y-109287274D01*
X153441606Y-109254860D01*
X153485495Y-109164272D01*
X153485495Y-109164271D01*
X153489410Y-109156191D01*
X153504181Y-109068393D01*
X153512770Y-109017344D01*
X153512770Y-109017341D01*
X153513576Y-109012552D01*
X153513729Y-109000000D01*
X153504934Y-108938585D01*
X153494354Y-108864706D01*
X153494353Y-108864703D01*
X153493080Y-108855813D01*
X153460542Y-108784250D01*
X153450556Y-108713961D01*
X153480156Y-108649429D01*
X153539946Y-108611145D01*
X153575243Y-108606100D01*
X154200308Y-108606100D01*
X154268429Y-108626102D01*
X154289404Y-108643005D01*
X154955449Y-109309051D01*
X154989474Y-109371363D01*
X154991289Y-109381809D01*
X154995319Y-109412629D01*
X155005195Y-109488152D01*
X155008809Y-109496365D01*
X155008810Y-109496369D01*
X155043089Y-109574272D01*
X155063859Y-109621474D01*
X155069634Y-109628344D01*
X155069635Y-109628346D01*
X155157583Y-109732973D01*
X155156156Y-109734173D01*
X155187768Y-109785086D01*
X155186665Y-109856074D01*
X155147357Y-109915196D01*
X155082326Y-109943681D01*
X155066335Y-109944700D01*
X154713290Y-109944700D01*
X154710465Y-109944493D01*
X154705372Y-109942744D01*
X154655644Y-109944611D01*
X154650917Y-109944700D01*
X154631607Y-109944700D01*
X154626820Y-109945592D01*
X154623102Y-109945833D01*
X154591718Y-109947011D01*
X154581026Y-109951605D01*
X154576941Y-109952525D01*
X154563525Y-109956601D01*
X154559626Y-109958106D01*
X154548189Y-109960236D01*
X154532873Y-109969677D01*
X154526747Y-109973453D01*
X154510368Y-109981961D01*
X154495396Y-109988393D01*
X154495392Y-109988396D01*
X154487221Y-109991906D01*
X154482256Y-109995985D01*
X154479930Y-109998311D01*
X154479815Y-109998402D01*
X154477807Y-110000223D01*
X154477684Y-110000087D01*
X154467750Y-110007940D01*
X154461277Y-110013810D01*
X154451372Y-110019915D01*
X154434458Y-110042158D01*
X154423264Y-110054977D01*
X153390445Y-111087795D01*
X153328133Y-111121821D01*
X153301350Y-111124700D01*
X148098649Y-111124700D01*
X148030528Y-111104698D01*
X148009554Y-111087795D01*
X146449194Y-109527434D01*
X146415168Y-109465122D01*
X146412799Y-109427173D01*
X146413576Y-109422552D01*
X146413729Y-109410000D01*
X146412830Y-109403724D01*
X146986309Y-109403724D01*
X146987473Y-109412626D01*
X146987473Y-109412629D01*
X146999013Y-109500878D01*
X147005195Y-109548152D01*
X147008809Y-109556365D01*
X147008810Y-109556369D01*
X147044136Y-109636651D01*
X147063859Y-109681474D01*
X147069634Y-109688344D01*
X147069635Y-109688346D01*
X147150270Y-109784273D01*
X147157583Y-109792973D01*
X147176046Y-109805263D01*
X147271361Y-109868710D01*
X147271363Y-109868711D01*
X147278834Y-109873684D01*
X147417864Y-109917121D01*
X147563498Y-109919790D01*
X147647130Y-109896989D01*
X147695363Y-109883839D01*
X147695364Y-109883839D01*
X147704026Y-109881477D01*
X147712359Y-109876361D01*
X147766712Y-109842988D01*
X147828154Y-109805263D01*
X147834774Y-109797950D01*
X147919873Y-109703934D01*
X147919874Y-109703933D01*
X147925901Y-109697274D01*
X147933474Y-109681645D01*
X147985495Y-109574272D01*
X147985495Y-109574271D01*
X147989410Y-109566191D01*
X148009434Y-109447173D01*
X148012770Y-109427344D01*
X148012770Y-109427341D01*
X148013576Y-109422552D01*
X148013729Y-109410000D01*
X148006934Y-109362552D01*
X147994354Y-109274706D01*
X147994353Y-109274703D01*
X147993080Y-109265813D01*
X147988100Y-109254860D01*
X147936508Y-109141390D01*
X147936507Y-109141388D01*
X147932792Y-109133218D01*
X147837713Y-109022873D01*
X147715485Y-108943648D01*
X147575934Y-108901914D01*
X147566958Y-108901859D01*
X147566957Y-108901859D01*
X147505644Y-108901485D01*
X147430279Y-108901024D01*
X147290229Y-108941051D01*
X147282642Y-108945838D01*
X147282640Y-108945839D01*
X147239247Y-108973218D01*
X147167042Y-109018776D01*
X147161100Y-109025504D01*
X147150831Y-109037131D01*
X147070622Y-109127951D01*
X147066808Y-109136074D01*
X147066807Y-109136076D01*
X147015426Y-109245514D01*
X147008719Y-109259800D01*
X147007339Y-109268665D01*
X147007338Y-109268667D01*
X146989749Y-109381634D01*
X146986309Y-109403724D01*
X146412830Y-109403724D01*
X146406934Y-109362552D01*
X146394354Y-109274706D01*
X146394353Y-109274703D01*
X146393080Y-109265813D01*
X146388100Y-109254860D01*
X146336508Y-109141390D01*
X146336507Y-109141388D01*
X146332792Y-109133218D01*
X146237713Y-109022873D01*
X146115485Y-108943648D01*
X145975934Y-108901914D01*
X145966958Y-108901859D01*
X145966957Y-108901859D01*
X145905644Y-108901485D01*
X145830279Y-108901024D01*
X145690229Y-108941051D01*
X145682642Y-108945838D01*
X145682640Y-108945839D01*
X145639247Y-108973218D01*
X145567042Y-109018776D01*
X145561100Y-109025504D01*
X145550831Y-109037131D01*
X145470622Y-109127951D01*
X145466808Y-109136074D01*
X145466807Y-109136076D01*
X145415426Y-109245514D01*
X145408719Y-109259800D01*
X145407339Y-109268665D01*
X145407338Y-109268667D01*
X145389749Y-109381634D01*
X145386309Y-109403724D01*
X145387473Y-109412626D01*
X145387473Y-109412629D01*
X145399013Y-109500878D01*
X145405195Y-109548152D01*
X145408809Y-109556365D01*
X145408810Y-109556369D01*
X145444136Y-109636651D01*
X145463859Y-109681474D01*
X145469634Y-109688344D01*
X145469635Y-109688346D01*
X145550270Y-109784273D01*
X145557583Y-109792973D01*
X145576046Y-109805263D01*
X145671361Y-109868710D01*
X145671363Y-109868711D01*
X145678834Y-109873684D01*
X145817864Y-109917121D01*
X145888377Y-109918413D01*
X145927469Y-109919130D01*
X145995212Y-109940377D01*
X146014255Y-109956014D01*
X147666437Y-111608196D01*
X147668291Y-111610343D01*
X147670655Y-111615180D01*
X147679184Y-111623092D01*
X147679185Y-111623093D01*
X147707151Y-111649035D01*
X147710556Y-111652315D01*
X147724197Y-111665956D01*
X147728213Y-111668711D01*
X147731007Y-111671164D01*
X147754037Y-111692528D01*
X147764843Y-111696839D01*
X147768378Y-111699074D01*
X147780751Y-111705681D01*
X147784576Y-111707376D01*
X147794168Y-111713956D01*
X147816129Y-111719168D01*
X147818675Y-111719772D01*
X147836271Y-111725337D01*
X147851413Y-111731378D01*
X147851416Y-111731379D01*
X147859673Y-111734673D01*
X147866068Y-111735300D01*
X147869362Y-111735300D01*
X147869513Y-111735318D01*
X147872220Y-111735450D01*
X147872211Y-111735633D01*
X147884766Y-111737103D01*
X147893507Y-111737530D01*
X147904827Y-111740217D01*
X147916356Y-111738648D01*
X147916357Y-111738648D01*
X147932499Y-111736451D01*
X147949490Y-111735300D01*
X153426710Y-111735300D01*
X153429535Y-111735507D01*
X153434628Y-111737256D01*
X153484357Y-111735389D01*
X153489083Y-111735300D01*
X153508393Y-111735300D01*
X153513180Y-111734408D01*
X153516898Y-111734167D01*
X153548282Y-111732989D01*
X153558974Y-111728395D01*
X153563059Y-111727475D01*
X153576475Y-111723399D01*
X153580374Y-111721894D01*
X153591811Y-111719764D01*
X153613253Y-111706547D01*
X153629632Y-111698039D01*
X153644604Y-111691607D01*
X153644608Y-111691604D01*
X153652779Y-111688094D01*
X153657744Y-111684015D01*
X153660070Y-111681689D01*
X153660185Y-111681598D01*
X153662193Y-111679777D01*
X153662316Y-111679913D01*
X153672250Y-111672060D01*
X153678723Y-111666190D01*
X153688628Y-111660085D01*
X153705542Y-111637842D01*
X153716736Y-111625023D01*
X154749555Y-110592205D01*
X154811867Y-110558179D01*
X154838650Y-110555300D01*
X161783605Y-110555300D01*
X161851726Y-110575302D01*
X161880056Y-110600225D01*
X161907583Y-110632973D01*
X161924514Y-110644243D01*
X161970136Y-110698639D01*
X161979108Y-110769067D01*
X161948579Y-110833164D01*
X161931202Y-110847854D01*
X161931470Y-110848168D01*
X161924634Y-110853986D01*
X161917042Y-110858776D01*
X161820622Y-110967951D01*
X161816808Y-110976074D01*
X161816807Y-110976076D01*
X161791617Y-111029729D01*
X161758719Y-111099800D01*
X161757339Y-111108665D01*
X161757338Y-111108667D01*
X161737970Y-111233058D01*
X161736309Y-111243724D01*
X161737473Y-111252626D01*
X161737473Y-111252629D01*
X161747018Y-111325619D01*
X161755195Y-111388152D01*
X161758809Y-111396365D01*
X161758810Y-111396369D01*
X161766688Y-111414272D01*
X161813859Y-111521474D01*
X161819634Y-111528344D01*
X161819635Y-111528346D01*
X161898498Y-111622165D01*
X161907583Y-111632973D01*
X161915060Y-111637950D01*
X162021361Y-111708710D01*
X162021363Y-111708711D01*
X162028834Y-111713684D01*
X162037401Y-111716361D01*
X162037402Y-111716361D01*
X162038740Y-111716779D01*
X162167864Y-111757121D01*
X162313498Y-111759790D01*
X162396150Y-111737256D01*
X162445363Y-111723839D01*
X162445364Y-111723839D01*
X162454026Y-111721477D01*
X162462359Y-111716361D01*
X162551142Y-111661848D01*
X162578154Y-111645263D01*
X162584774Y-111637950D01*
X162669873Y-111543934D01*
X162669874Y-111543933D01*
X162675901Y-111537274D01*
X162681675Y-111525358D01*
X162735495Y-111414272D01*
X162735495Y-111414271D01*
X162739410Y-111406191D01*
X162751290Y-111335579D01*
X164803727Y-111335579D01*
X164804243Y-111341723D01*
X164818610Y-111512812D01*
X164820595Y-111536454D01*
X164822294Y-111542378D01*
X164874360Y-111723955D01*
X164876158Y-111730226D01*
X164881736Y-111741079D01*
X164935694Y-111846069D01*
X164968301Y-111909516D01*
X164983680Y-111928919D01*
X165089684Y-112062665D01*
X165089689Y-112062670D01*
X165093513Y-112067495D01*
X165098207Y-112071489D01*
X165098207Y-112071490D01*
X165239402Y-112191656D01*
X165247025Y-112198144D01*
X165252403Y-112201150D01*
X165252405Y-112201151D01*
X165328581Y-112243724D01*
X165422990Y-112296487D01*
X165614705Y-112358779D01*
X165814869Y-112382647D01*
X165821004Y-112382175D01*
X165821006Y-112382175D01*
X165881978Y-112377483D01*
X166015857Y-112367182D01*
X166210013Y-112312973D01*
X166234682Y-112300512D01*
X166335054Y-112249810D01*
X166389942Y-112222084D01*
X166421419Y-112197492D01*
X166543934Y-112101772D01*
X166548790Y-112097978D01*
X166561412Y-112083356D01*
X166628350Y-112005807D01*
X166680508Y-111945382D01*
X166683551Y-111940025D01*
X166683554Y-111940021D01*
X166748339Y-111825977D01*
X166780077Y-111770108D01*
X166783510Y-111759790D01*
X166819898Y-111650402D01*
X166843706Y-111578832D01*
X166868971Y-111378840D01*
X166869374Y-111350000D01*
X166866402Y-111319691D01*
X167219058Y-111319691D01*
X167232916Y-111531126D01*
X167285073Y-111736495D01*
X167373782Y-111928919D01*
X167496072Y-112101956D01*
X167500206Y-112105983D01*
X167641601Y-112243724D01*
X167647848Y-112249810D01*
X167652644Y-112253015D01*
X167652647Y-112253017D01*
X167723729Y-112300512D01*
X167824027Y-112367529D01*
X167829335Y-112369810D01*
X167829336Y-112369810D01*
X168013405Y-112448892D01*
X168013408Y-112448893D01*
X168018708Y-112451170D01*
X168024338Y-112452444D01*
X168219088Y-112496512D01*
X168225372Y-112497934D01*
X168231141Y-112498161D01*
X168231144Y-112498161D01*
X168311272Y-112501309D01*
X168437097Y-112506252D01*
X168537048Y-112491760D01*
X168641078Y-112476677D01*
X168641083Y-112476676D01*
X168646792Y-112475848D01*
X168652256Y-112473993D01*
X168652261Y-112473992D01*
X168841964Y-112409597D01*
X168841969Y-112409595D01*
X168847436Y-112407739D01*
X168882411Y-112388152D01*
X169027269Y-112307027D01*
X169027273Y-112307024D01*
X169032307Y-112304205D01*
X169036744Y-112300514D01*
X169036748Y-112300512D01*
X169190778Y-112172407D01*
X169195216Y-112168716D01*
X169203429Y-112158841D01*
X169327012Y-112010248D01*
X169327014Y-112010244D01*
X169330705Y-112005807D01*
X169333524Y-112000773D01*
X169333527Y-112000769D01*
X169431416Y-111825977D01*
X169431417Y-111825976D01*
X169434239Y-111820936D01*
X169436095Y-111815469D01*
X169436097Y-111815464D01*
X169500492Y-111625761D01*
X169500493Y-111625756D01*
X169502348Y-111620292D01*
X169503176Y-111614583D01*
X169503177Y-111614578D01*
X169532219Y-111414271D01*
X169532752Y-111410597D01*
X169534339Y-111350000D01*
X169514951Y-111139001D01*
X169512239Y-111129383D01*
X169466710Y-110967951D01*
X169457436Y-110935068D01*
X169363720Y-110745031D01*
X169346132Y-110721477D01*
X169240395Y-110579878D01*
X169240394Y-110579877D01*
X169236942Y-110575254D01*
X169220794Y-110560327D01*
X169085589Y-110435345D01*
X169085587Y-110435343D01*
X169081348Y-110431425D01*
X169048097Y-110410445D01*
X168907028Y-110321437D01*
X168902148Y-110318358D01*
X168896788Y-110316220D01*
X168896785Y-110316218D01*
X168728206Y-110248962D01*
X168672346Y-110205141D01*
X168649046Y-110138077D01*
X168665702Y-110069062D01*
X168717026Y-110020007D01*
X168742285Y-110010225D01*
X168801722Y-109994299D01*
X168812014Y-109990553D01*
X169000914Y-109902467D01*
X169010400Y-109896989D01*
X169156413Y-109794751D01*
X169164788Y-109784273D01*
X169157720Y-109770825D01*
X168389312Y-109002417D01*
X168375368Y-108994803D01*
X168373535Y-108994934D01*
X168366920Y-108999185D01*
X167594558Y-109771547D01*
X167588128Y-109783321D01*
X167597425Y-109795337D01*
X167742600Y-109896989D01*
X167752086Y-109902467D01*
X167940986Y-109990553D01*
X167951278Y-109994299D01*
X168013545Y-110010983D01*
X168074168Y-110047935D01*
X168105189Y-110111795D01*
X168096761Y-110182290D01*
X168051558Y-110237037D01*
X168024546Y-110250901D01*
X167878037Y-110304952D01*
X167873076Y-110307904D01*
X167873075Y-110307904D01*
X167707870Y-110406191D01*
X167695939Y-110413289D01*
X167536633Y-110552996D01*
X167405455Y-110719396D01*
X167306796Y-110906914D01*
X167243963Y-111109272D01*
X167219058Y-111319691D01*
X166866402Y-111319691D01*
X166849703Y-111149380D01*
X166791440Y-110956402D01*
X166733724Y-110847854D01*
X166699697Y-110783858D01*
X166699695Y-110783855D01*
X166696803Y-110778416D01*
X166692913Y-110773646D01*
X166692910Y-110773642D01*
X166606784Y-110668043D01*
X166569397Y-110622202D01*
X166414076Y-110493709D01*
X166236755Y-110397832D01*
X166044188Y-110338222D01*
X166038067Y-110337579D01*
X166038064Y-110337578D01*
X165849839Y-110317795D01*
X165849838Y-110317795D01*
X165843711Y-110317151D01*
X165776662Y-110323253D01*
X165649098Y-110334862D01*
X165649095Y-110334863D01*
X165642959Y-110335421D01*
X165637053Y-110337159D01*
X165637049Y-110337160D01*
X165513442Y-110373540D01*
X165449579Y-110392336D01*
X165270936Y-110485728D01*
X165113836Y-110612040D01*
X164984262Y-110766460D01*
X164981298Y-110771852D01*
X164981295Y-110771856D01*
X164929812Y-110865504D01*
X164887149Y-110943108D01*
X164885288Y-110948975D01*
X164885287Y-110948977D01*
X164828059Y-111129383D01*
X164826197Y-111135253D01*
X164803727Y-111335579D01*
X162751290Y-111335579D01*
X162763576Y-111262552D01*
X162763729Y-111250000D01*
X162751827Y-111166893D01*
X162744354Y-111114706D01*
X162744353Y-111114703D01*
X162743080Y-111105813D01*
X162739362Y-111097635D01*
X162686508Y-110981390D01*
X162686507Y-110981388D01*
X162682792Y-110973218D01*
X162587713Y-110862873D01*
X162577836Y-110856471D01*
X162576030Y-110854371D01*
X162573416Y-110852090D01*
X162573745Y-110851713D01*
X162531553Y-110802635D01*
X162521722Y-110732322D01*
X162551466Y-110667857D01*
X162565885Y-110653794D01*
X162570500Y-110649963D01*
X162578154Y-110645263D01*
X162637338Y-110579878D01*
X162669873Y-110543934D01*
X162669874Y-110543933D01*
X162675901Y-110537274D01*
X162686610Y-110515172D01*
X162735495Y-110414272D01*
X162735495Y-110414271D01*
X162739410Y-110406191D01*
X162763576Y-110262552D01*
X162763729Y-110250000D01*
X162750304Y-110156255D01*
X162744354Y-110114706D01*
X162744353Y-110114703D01*
X162743080Y-110105813D01*
X162737669Y-110093912D01*
X162686508Y-109981390D01*
X162686507Y-109981388D01*
X162682792Y-109973218D01*
X162587713Y-109862873D01*
X162465485Y-109783648D01*
X162325934Y-109741914D01*
X162316958Y-109741859D01*
X162316957Y-109741859D01*
X162255644Y-109741485D01*
X162180279Y-109741024D01*
X162040229Y-109781051D01*
X162032642Y-109785838D01*
X162032640Y-109785839D01*
X161980015Y-109819043D01*
X161917042Y-109858776D01*
X161883294Y-109896989D01*
X161878774Y-109902107D01*
X161818688Y-109939926D01*
X161784332Y-109944700D01*
X155931633Y-109944700D01*
X155863512Y-109924698D01*
X155817019Y-109871042D01*
X155806915Y-109800768D01*
X155838218Y-109734145D01*
X155874106Y-109694497D01*
X165136759Y-109694497D01*
X165146639Y-109706984D01*
X165290679Y-109803227D01*
X165300784Y-109808714D01*
X165480818Y-109886063D01*
X165491761Y-109889618D01*
X165682868Y-109932862D01*
X165694278Y-109934364D01*
X165890072Y-109942056D01*
X165901554Y-109941454D01*
X166095475Y-109913338D01*
X166106658Y-109910653D01*
X166292201Y-109847670D01*
X166302716Y-109842988D01*
X166473673Y-109747247D01*
X166483148Y-109740736D01*
X166526261Y-109704880D01*
X166534714Y-109692294D01*
X166528540Y-109681645D01*
X165849312Y-109002417D01*
X165835368Y-108994803D01*
X165833535Y-108994934D01*
X165826920Y-108999185D01*
X165142955Y-109683150D01*
X165136759Y-109694497D01*
X155874106Y-109694497D01*
X155919873Y-109643934D01*
X155919874Y-109643933D01*
X155925901Y-109637274D01*
X155932625Y-109623397D01*
X155985495Y-109514272D01*
X155985495Y-109514271D01*
X155989410Y-109506191D01*
X155990899Y-109497342D01*
X155990900Y-109497338D01*
X156011451Y-109375182D01*
X156046610Y-109306991D01*
X156475433Y-108878168D01*
X156491122Y-108865496D01*
X156494222Y-108862676D01*
X156502974Y-108857025D01*
X156522203Y-108832633D01*
X156525784Y-108828603D01*
X156525686Y-108828520D01*
X156529039Y-108824563D01*
X156532720Y-108820882D01*
X156541306Y-108808868D01*
X156543149Y-108806289D01*
X156546712Y-108801544D01*
X156558898Y-108786086D01*
X164703430Y-108786086D01*
X164716244Y-108981602D01*
X164718045Y-108992974D01*
X164766276Y-109182883D01*
X164770117Y-109193730D01*
X164852150Y-109371673D01*
X164857901Y-109381634D01*
X164941591Y-109500054D01*
X164952181Y-109508442D01*
X164965481Y-109501414D01*
X165644083Y-108822812D01*
X165650461Y-108811132D01*
X166021303Y-108811132D01*
X166021434Y-108812965D01*
X166025685Y-108819580D01*
X166706983Y-109500878D01*
X166720292Y-109508145D01*
X166730327Y-109501026D01*
X166767236Y-109456648D01*
X166773747Y-109447173D01*
X166869488Y-109276216D01*
X166874170Y-109265701D01*
X166922954Y-109121986D01*
X166963791Y-109063910D01*
X167029544Y-109037131D01*
X167099336Y-109050152D01*
X167151009Y-109098839D01*
X167163974Y-109129876D01*
X167192201Y-109235222D01*
X167195947Y-109245514D01*
X167284033Y-109434414D01*
X167289511Y-109443900D01*
X167391749Y-109589913D01*
X167402227Y-109598288D01*
X167415675Y-109591220D01*
X168184083Y-108822812D01*
X168190461Y-108811132D01*
X168561303Y-108811132D01*
X168561434Y-108812965D01*
X168565685Y-108819580D01*
X169338047Y-109591942D01*
X169349821Y-109598372D01*
X169361837Y-109589075D01*
X169463489Y-109443900D01*
X169468967Y-109434414D01*
X169557053Y-109245514D01*
X169560799Y-109235222D01*
X169614742Y-109033902D01*
X169616645Y-109023107D01*
X169634811Y-108815475D01*
X169634811Y-108804525D01*
X169616645Y-108596893D01*
X169614742Y-108586098D01*
X169560799Y-108384778D01*
X169557053Y-108374486D01*
X169468967Y-108185586D01*
X169463489Y-108176100D01*
X169361251Y-108030087D01*
X169350773Y-108021712D01*
X169337325Y-108028780D01*
X168568917Y-108797188D01*
X168561303Y-108811132D01*
X168190461Y-108811132D01*
X168191697Y-108808868D01*
X168191566Y-108807035D01*
X168187315Y-108800420D01*
X167414953Y-108028058D01*
X167403179Y-108021628D01*
X167391163Y-108030925D01*
X167289511Y-108176100D01*
X167284033Y-108185586D01*
X167195947Y-108374486D01*
X167192201Y-108384778D01*
X167163419Y-108492194D01*
X167126467Y-108552817D01*
X167062606Y-108583838D01*
X166992112Y-108575410D01*
X166937365Y-108530207D01*
X166920443Y-108493784D01*
X166896597Y-108409230D01*
X166892474Y-108398489D01*
X166805810Y-108222753D01*
X166799800Y-108212945D01*
X166730850Y-108120609D01*
X166719592Y-108112160D01*
X166707173Y-108118932D01*
X166028917Y-108797188D01*
X166021303Y-108811132D01*
X165650461Y-108811132D01*
X165651697Y-108808868D01*
X165651566Y-108807035D01*
X165647315Y-108800420D01*
X164966185Y-108119290D01*
X164953344Y-108112278D01*
X164942655Y-108120073D01*
X164889162Y-108187929D01*
X164882891Y-108197586D01*
X164791663Y-108370982D01*
X164787258Y-108381616D01*
X164729153Y-108568747D01*
X164726761Y-108579998D01*
X164703731Y-108774585D01*
X164703430Y-108786086D01*
X156558898Y-108786086D01*
X156569920Y-108772105D01*
X156569921Y-108772103D01*
X156576368Y-108763925D01*
X156579214Y-108755820D01*
X156584210Y-108748829D01*
X156594764Y-108713538D01*
X156597937Y-108702929D01*
X156599771Y-108697285D01*
X156613021Y-108659553D01*
X156613022Y-108659550D01*
X156615648Y-108652071D01*
X156616100Y-108646852D01*
X156616100Y-108644141D01*
X156616198Y-108641865D01*
X156616333Y-108641415D01*
X156616387Y-108641417D01*
X156616402Y-108641186D01*
X156618177Y-108635249D01*
X156616197Y-108584851D01*
X156616100Y-108579905D01*
X156616100Y-107927283D01*
X165137319Y-107927283D01*
X165143153Y-107937048D01*
X165823688Y-108617583D01*
X165837632Y-108625197D01*
X165839465Y-108625066D01*
X165846080Y-108620815D01*
X166529353Y-107937542D01*
X166536967Y-107923598D01*
X166536930Y-107923081D01*
X166531300Y-107914686D01*
X166530981Y-107914391D01*
X166521848Y-107907383D01*
X166356131Y-107802823D01*
X166345888Y-107797604D01*
X166163896Y-107724997D01*
X166152859Y-107721728D01*
X165960684Y-107683501D01*
X165949239Y-107682298D01*
X165753322Y-107679734D01*
X165741842Y-107680637D01*
X165548731Y-107713820D01*
X165537623Y-107716797D01*
X165353790Y-107784616D01*
X165343408Y-107789568D01*
X165175015Y-107889751D01*
X165165703Y-107896517D01*
X165145715Y-107914046D01*
X165137319Y-107927283D01*
X156616100Y-107927283D01*
X156616100Y-106661427D01*
X156618234Y-106641378D01*
X156618432Y-106637188D01*
X156620624Y-106627006D01*
X156616973Y-106596160D01*
X156616656Y-106590783D01*
X156616528Y-106590794D01*
X156616100Y-106585616D01*
X156616100Y-106580416D01*
X156615246Y-106575284D01*
X156613158Y-106562739D01*
X156612321Y-106556861D01*
X156609833Y-106535839D01*
X156606689Y-106509277D01*
X156602971Y-106501534D01*
X156601560Y-106493058D01*
X156578798Y-106450874D01*
X156576117Y-106445611D01*
X156558804Y-106409556D01*
X156558803Y-106409555D01*
X156555372Y-106402409D01*
X156552001Y-106398399D01*
X156550062Y-106396460D01*
X156548547Y-106394808D01*
X156548327Y-106394400D01*
X156548368Y-106394362D01*
X156548208Y-106394181D01*
X156545265Y-106388726D01*
X156527892Y-106372666D01*
X156508219Y-106354481D01*
X156504653Y-106351051D01*
X156045103Y-105891501D01*
X156011077Y-105829189D01*
X156009471Y-105820268D01*
X155994354Y-105714706D01*
X155994353Y-105714703D01*
X155993080Y-105705813D01*
X155989362Y-105697635D01*
X155936508Y-105581390D01*
X155936507Y-105581388D01*
X155932792Y-105573218D01*
X155837713Y-105462873D01*
X155715485Y-105383648D01*
X155575934Y-105341914D01*
X155566958Y-105341859D01*
X155566957Y-105341859D01*
X155505644Y-105341485D01*
X155430279Y-105341024D01*
X155290229Y-105381051D01*
X155167042Y-105458776D01*
X155070622Y-105567951D01*
X155066808Y-105576074D01*
X155066807Y-105576076D01*
X155012533Y-105691676D01*
X155008719Y-105699800D01*
X155007339Y-105708665D01*
X155007338Y-105708667D01*
X154988723Y-105828223D01*
X154986309Y-105843724D01*
X154987473Y-105852626D01*
X154987473Y-105852629D01*
X154999096Y-105941514D01*
X155005195Y-105988152D01*
X155008809Y-105996365D01*
X155008810Y-105996369D01*
X155036370Y-106059001D01*
X155063859Y-106121474D01*
X155069634Y-106128344D01*
X155069635Y-106128346D01*
X155120362Y-106188693D01*
X155157583Y-106232973D01*
X155165060Y-106237950D01*
X155271361Y-106308710D01*
X155271363Y-106308711D01*
X155278834Y-106313684D01*
X155417864Y-106357121D01*
X155454283Y-106357788D01*
X155522025Y-106379034D01*
X155541071Y-106394672D01*
X155866996Y-106720598D01*
X155901021Y-106782910D01*
X155903900Y-106809693D01*
X155903900Y-107025089D01*
X155883898Y-107093210D01*
X155830242Y-107139703D01*
X155759968Y-107149807D01*
X155725050Y-107139469D01*
X155723015Y-107138529D01*
X155715485Y-107133648D01*
X155575934Y-107091914D01*
X155566958Y-107091859D01*
X155566957Y-107091859D01*
X155505644Y-107091485D01*
X155430279Y-107091024D01*
X155290229Y-107131051D01*
X155282642Y-107135838D01*
X155282640Y-107135839D01*
X155223717Y-107173017D01*
X155167042Y-107208776D01*
X155070622Y-107317951D01*
X155066808Y-107326074D01*
X155066807Y-107326076D01*
X155013169Y-107440321D01*
X155008719Y-107449800D01*
X155007339Y-107458665D01*
X155007338Y-107458667D01*
X154989745Y-107571658D01*
X154986309Y-107593724D01*
X154987473Y-107602626D01*
X154987473Y-107602629D01*
X154990490Y-107625700D01*
X155005195Y-107738152D01*
X155008809Y-107746365D01*
X155008810Y-107746369D01*
X155025640Y-107784616D01*
X155063859Y-107871474D01*
X155069634Y-107878344D01*
X155069635Y-107878346D01*
X155121528Y-107940080D01*
X155157583Y-107982973D01*
X155165060Y-107987950D01*
X155271361Y-108058710D01*
X155271363Y-108058711D01*
X155278834Y-108063684D01*
X155287401Y-108066361D01*
X155287402Y-108066361D01*
X155303777Y-108071477D01*
X155417864Y-108107121D01*
X155563498Y-108109790D01*
X155642391Y-108088281D01*
X155695363Y-108073839D01*
X155695364Y-108073839D01*
X155704026Y-108071477D01*
X155711971Y-108066599D01*
X155712300Y-108066509D01*
X155719913Y-108063215D01*
X155720388Y-108064314D01*
X155780487Y-108048000D01*
X155848183Y-108069396D01*
X155893564Y-108123995D01*
X155903900Y-108173973D01*
X155903900Y-108390308D01*
X155883898Y-108458429D01*
X155866995Y-108479403D01*
X155589095Y-108757303D01*
X155526783Y-108791329D01*
X155455968Y-108786264D01*
X155410904Y-108757303D01*
X155086203Y-108432601D01*
X154688165Y-108034563D01*
X154675502Y-108018883D01*
X154672674Y-108015775D01*
X154667025Y-108007026D01*
X154642633Y-107987797D01*
X154638603Y-107984216D01*
X154638520Y-107984314D01*
X154634563Y-107980961D01*
X154630882Y-107977280D01*
X154626648Y-107974254D01*
X154616289Y-107966851D01*
X154611544Y-107963288D01*
X154582105Y-107940080D01*
X154582103Y-107940079D01*
X154573925Y-107933632D01*
X154565820Y-107930786D01*
X154558829Y-107925790D01*
X154512938Y-107912066D01*
X154507293Y-107910232D01*
X154469553Y-107896979D01*
X154469550Y-107896978D01*
X154462071Y-107894352D01*
X154456852Y-107893900D01*
X154454141Y-107893900D01*
X154451864Y-107893802D01*
X154451415Y-107893667D01*
X154451417Y-107893613D01*
X154451184Y-107893598D01*
X154445248Y-107891823D01*
X154395385Y-107893782D01*
X154394850Y-107893803D01*
X154389904Y-107893900D01*
X145199692Y-107893900D01*
X145131571Y-107873898D01*
X145110596Y-107856995D01*
X144788166Y-107534564D01*
X144775492Y-107518871D01*
X144772673Y-107515773D01*
X144767025Y-107507026D01*
X144742633Y-107487797D01*
X144738603Y-107484216D01*
X144738520Y-107484314D01*
X144734563Y-107480961D01*
X144730882Y-107477280D01*
X144726067Y-107473839D01*
X144716289Y-107466851D01*
X144711544Y-107463288D01*
X144682105Y-107440080D01*
X144682103Y-107440079D01*
X144673925Y-107433632D01*
X144665820Y-107430786D01*
X144658829Y-107425790D01*
X144612938Y-107412066D01*
X144607293Y-107410232D01*
X144569553Y-107396979D01*
X144569550Y-107396978D01*
X144562071Y-107394352D01*
X144556852Y-107393900D01*
X144554141Y-107393900D01*
X144551864Y-107393802D01*
X144551415Y-107393667D01*
X144551417Y-107393613D01*
X144551184Y-107393598D01*
X144545248Y-107391823D01*
X144495385Y-107393782D01*
X144494850Y-107393803D01*
X144489904Y-107393900D01*
X143151432Y-107393900D01*
X143131371Y-107391765D01*
X143127187Y-107391568D01*
X143117007Y-107389376D01*
X143087182Y-107392906D01*
X143086160Y-107393027D01*
X143080785Y-107393344D01*
X143080796Y-107393472D01*
X143075618Y-107393900D01*
X143070416Y-107393900D01*
X143062227Y-107395263D01*
X143052757Y-107396839D01*
X143046885Y-107397674D01*
X143009626Y-107402084D01*
X143009619Y-107402086D01*
X142999278Y-107403310D01*
X142991532Y-107407030D01*
X142983058Y-107408440D01*
X142946099Y-107428382D01*
X142940891Y-107431192D01*
X142935604Y-107433885D01*
X142899558Y-107451195D01*
X142899555Y-107451197D01*
X142892410Y-107454628D01*
X142888400Y-107457999D01*
X142886462Y-107459937D01*
X142884811Y-107461452D01*
X142884401Y-107461673D01*
X142884363Y-107461631D01*
X142884180Y-107461792D01*
X142878726Y-107464735D01*
X142871658Y-107472382D01*
X142871657Y-107472382D01*
X142844481Y-107501781D01*
X142841051Y-107505348D01*
X142292142Y-108054256D01*
X142229830Y-108088281D01*
X142202279Y-108091158D01*
X142192963Y-108091101D01*
X142180279Y-108091024D01*
X142040229Y-108131051D01*
X141917042Y-108208776D01*
X141820622Y-108317951D01*
X141816808Y-108326074D01*
X141816807Y-108326076D01*
X141766794Y-108432601D01*
X141758719Y-108449800D01*
X141757339Y-108458665D01*
X141757338Y-108458667D01*
X141737691Y-108584851D01*
X141736309Y-108593724D01*
X141737473Y-108602626D01*
X141737473Y-108602629D01*
X141744917Y-108659553D01*
X141755195Y-108738152D01*
X141758810Y-108746368D01*
X141758811Y-108746371D01*
X141803509Y-108847954D01*
X141812637Y-108918361D01*
X141782250Y-108982526D01*
X141721997Y-109020077D01*
X141688180Y-109024700D01*
X140963290Y-109024700D01*
X140960465Y-109024493D01*
X140955372Y-109022744D01*
X140905644Y-109024611D01*
X140900917Y-109024700D01*
X140881607Y-109024700D01*
X140876820Y-109025592D01*
X140873102Y-109025833D01*
X140841718Y-109027011D01*
X140831026Y-109031605D01*
X140826941Y-109032525D01*
X140813525Y-109036601D01*
X140809626Y-109038106D01*
X140798189Y-109040236D01*
X140776747Y-109053453D01*
X140760368Y-109061961D01*
X140745396Y-109068393D01*
X140745392Y-109068396D01*
X140737221Y-109071906D01*
X140732256Y-109075985D01*
X140729930Y-109078311D01*
X140729815Y-109078402D01*
X140727807Y-109080223D01*
X140727684Y-109080087D01*
X140717750Y-109087940D01*
X140711277Y-109093810D01*
X140701372Y-109099915D01*
X140694331Y-109109175D01*
X140684468Y-109122145D01*
X140673267Y-109134974D01*
X140371796Y-109436444D01*
X140369656Y-109438291D01*
X140364820Y-109440655D01*
X140356908Y-109449184D01*
X140356907Y-109449185D01*
X140330978Y-109477137D01*
X140327698Y-109480542D01*
X140314043Y-109494197D01*
X140311286Y-109498216D01*
X140308834Y-109501008D01*
X140295384Y-109515507D01*
X140295382Y-109515510D01*
X140287472Y-109524037D01*
X140283162Y-109534839D01*
X140280932Y-109538367D01*
X140274316Y-109550760D01*
X140272627Y-109554572D01*
X140266044Y-109564168D01*
X140263358Y-109575487D01*
X140260226Y-109588683D01*
X140254663Y-109606270D01*
X140245327Y-109629673D01*
X140244700Y-109636068D01*
X140244700Y-109639364D01*
X140244682Y-109639517D01*
X140244550Y-109642220D01*
X140244367Y-109642211D01*
X140242897Y-109654768D01*
X140242470Y-109663507D01*
X140239783Y-109674828D01*
X140241352Y-109686357D01*
X140241352Y-109686358D01*
X140243549Y-109702500D01*
X140244700Y-109719491D01*
X140244700Y-110321350D01*
X140224698Y-110389471D01*
X140207795Y-110410445D01*
X139876881Y-110741359D01*
X139814569Y-110775385D01*
X139745519Y-110770963D01*
X139729518Y-110765265D01*
X139729516Y-110765264D01*
X139722884Y-110762903D01*
X139715896Y-110762070D01*
X139715893Y-110762069D01*
X139602198Y-110748512D01*
X139555286Y-110742918D01*
X139548283Y-110743654D01*
X139548282Y-110743654D01*
X139394424Y-110759825D01*
X139394422Y-110759826D01*
X139387424Y-110760561D01*
X139227642Y-110814955D01*
X139083883Y-110903397D01*
X139078851Y-110908324D01*
X139078848Y-110908327D01*
X138989996Y-110995338D01*
X138963290Y-111021491D01*
X138871857Y-111163367D01*
X138869447Y-111169987D01*
X138869446Y-111169990D01*
X138817046Y-111313956D01*
X138814128Y-111321974D01*
X138792974Y-111489429D01*
X137867030Y-111489429D01*
X137850079Y-111328145D01*
X137847349Y-111315304D01*
X137795993Y-111157248D01*
X137790647Y-111145240D01*
X137707551Y-111001314D01*
X137707435Y-111001153D01*
X137697997Y-110995338D01*
X137697921Y-110995340D01*
X137688636Y-111000969D01*
X137202417Y-111487188D01*
X137194803Y-111501132D01*
X136823961Y-111501132D01*
X136825197Y-111498868D01*
X136825066Y-111497035D01*
X136820815Y-111490420D01*
X136333414Y-111003019D01*
X136319470Y-110995405D01*
X136319394Y-110995410D01*
X136314141Y-110998983D01*
X136312449Y-111001314D01*
X136229353Y-111145240D01*
X136224007Y-111157248D01*
X136172651Y-111315304D01*
X136169921Y-111328145D01*
X136152549Y-111493435D01*
X136152549Y-111506565D01*
X126152900Y-111506565D01*
X126152900Y-107242614D01*
X127192031Y-107242614D01*
X127198887Y-107317951D01*
X127210024Y-107440321D01*
X127210745Y-107448248D01*
X127212483Y-107454154D01*
X127212484Y-107454158D01*
X127258529Y-107610606D01*
X127269044Y-107646332D01*
X127364708Y-107829319D01*
X127494091Y-107990240D01*
X127652268Y-108122966D01*
X127657663Y-108125932D01*
X127657669Y-108125936D01*
X127770434Y-108187929D01*
X127833211Y-108222441D01*
X128030030Y-108284875D01*
X128036147Y-108285561D01*
X128036151Y-108285562D01*
X128111982Y-108294068D01*
X128190724Y-108302900D01*
X128301964Y-108302900D01*
X128455499Y-108287846D01*
X128653171Y-108228165D01*
X128751091Y-108176100D01*
X128830043Y-108134121D01*
X128830046Y-108134119D01*
X128835485Y-108131227D01*
X128840255Y-108127337D01*
X128840259Y-108127334D01*
X128990724Y-108004617D01*
X128990727Y-108004614D01*
X128995499Y-108000722D01*
X129000896Y-107994199D01*
X129096738Y-107878346D01*
X129127118Y-107841623D01*
X129225327Y-107659990D01*
X129278629Y-107487797D01*
X129283025Y-107473597D01*
X129322276Y-107414437D01*
X129387281Y-107385890D01*
X129457400Y-107397019D01*
X129510371Y-107444290D01*
X129529390Y-107510856D01*
X129529390Y-110594385D01*
X130763390Y-110594385D01*
X130831511Y-110614387D01*
X130878004Y-110668043D01*
X130889390Y-110720385D01*
X130889390Y-111142957D01*
X132650610Y-111142957D01*
X132650610Y-110813701D01*
X136509262Y-110813701D01*
X136516166Y-110826561D01*
X136997188Y-111307583D01*
X137011132Y-111315197D01*
X137012965Y-111315066D01*
X137019580Y-111310815D01*
X137504158Y-110826237D01*
X137510771Y-110814126D01*
X137501944Y-110802508D01*
X137444413Y-110760709D01*
X137433041Y-110754143D01*
X137281211Y-110686544D01*
X137268723Y-110682487D01*
X137106157Y-110647932D01*
X137093097Y-110646560D01*
X136926903Y-110646560D01*
X136913843Y-110647932D01*
X136751277Y-110682487D01*
X136738789Y-110686544D01*
X136586958Y-110754144D01*
X136575591Y-110760707D01*
X136517685Y-110802777D01*
X136509262Y-110813701D01*
X132650610Y-110813701D01*
X132650610Y-106993724D01*
X133836309Y-106993724D01*
X133837473Y-107002626D01*
X133837473Y-107002629D01*
X133842002Y-107037261D01*
X133855195Y-107138152D01*
X133858809Y-107146365D01*
X133858810Y-107146369D01*
X133895697Y-107230198D01*
X133913859Y-107271474D01*
X133919634Y-107278344D01*
X133919635Y-107278346D01*
X134000229Y-107374224D01*
X134007583Y-107382973D01*
X134024089Y-107393960D01*
X134121361Y-107458710D01*
X134121363Y-107458711D01*
X134128834Y-107463684D01*
X134137401Y-107466361D01*
X134137402Y-107466361D01*
X134153777Y-107471477D01*
X134267864Y-107507121D01*
X134413498Y-107509790D01*
X134511024Y-107483201D01*
X134545363Y-107473839D01*
X134545364Y-107473839D01*
X134554026Y-107471477D01*
X134562359Y-107466361D01*
X134619637Y-107431192D01*
X134678154Y-107395263D01*
X134684774Y-107387950D01*
X134769873Y-107293934D01*
X134769874Y-107293933D01*
X134775901Y-107287274D01*
X134780940Y-107276875D01*
X134835495Y-107164272D01*
X134835495Y-107164271D01*
X134839410Y-107156191D01*
X134860833Y-107028855D01*
X134862770Y-107017344D01*
X134862770Y-107017341D01*
X134863576Y-107012552D01*
X134863729Y-107000000D01*
X134853104Y-106925807D01*
X134844354Y-106864706D01*
X134844353Y-106864703D01*
X134843080Y-106855813D01*
X134839362Y-106847635D01*
X134786508Y-106731390D01*
X134786507Y-106731388D01*
X134782792Y-106723218D01*
X134687713Y-106612873D01*
X134565485Y-106533648D01*
X134425934Y-106491914D01*
X134416958Y-106491859D01*
X134416957Y-106491859D01*
X134355644Y-106491485D01*
X134280279Y-106491024D01*
X134140229Y-106531051D01*
X134132642Y-106535838D01*
X134132640Y-106535839D01*
X134081746Y-106567951D01*
X134017042Y-106608776D01*
X133920622Y-106717951D01*
X133916808Y-106726074D01*
X133916807Y-106726076D01*
X133868242Y-106829516D01*
X133858719Y-106849800D01*
X133857339Y-106858665D01*
X133857338Y-106858667D01*
X133846193Y-106930248D01*
X133836309Y-106993724D01*
X132650610Y-106993724D01*
X132650610Y-99076964D01*
X132670612Y-99008843D01*
X132724268Y-98962350D01*
X132794542Y-98952246D01*
X132825921Y-98961745D01*
X132828834Y-98963684D01*
X132837396Y-98966359D01*
X132837398Y-98966360D01*
X132861337Y-98973839D01*
X132967864Y-99007121D01*
X133043305Y-99008504D01*
X133104526Y-99009626D01*
X133104529Y-99009626D01*
X133113498Y-99009790D01*
X133122157Y-99007429D01*
X133130056Y-99006445D01*
X133200127Y-99017872D01*
X133234728Y-99042383D01*
X133485194Y-99292849D01*
X133519220Y-99355161D01*
X133522099Y-99381944D01*
X133522099Y-100245878D01*
X133519678Y-100270458D01*
X133517144Y-100283199D01*
X133522099Y-100308110D01*
X133529713Y-100346386D01*
X133536772Y-100381876D01*
X133543665Y-100392193D01*
X133543666Y-100392194D01*
X133577497Y-100442825D01*
X133577498Y-100442826D01*
X133592668Y-100465530D01*
X133602984Y-100472423D01*
X133603469Y-100472747D01*
X133622562Y-100488417D01*
X137661582Y-104527437D01*
X137677248Y-104546524D01*
X137684469Y-104557331D01*
X137694785Y-104564224D01*
X137705586Y-104571441D01*
X137705587Y-104571442D01*
X137757803Y-104606332D01*
X137757805Y-104606333D01*
X137768123Y-104613227D01*
X137866800Y-104632855D01*
X137879539Y-104630321D01*
X137904121Y-104627900D01*
X139169855Y-104627900D01*
X139237976Y-104647902D01*
X139258950Y-104664805D01*
X141081580Y-106487434D01*
X141097250Y-106506527D01*
X141104469Y-106517331D01*
X141188123Y-106573227D01*
X141261889Y-106587900D01*
X141274628Y-106590434D01*
X141274629Y-106590434D01*
X141286800Y-106592855D01*
X141298971Y-106590434D01*
X141298973Y-106590434D01*
X141299541Y-106590321D01*
X141324121Y-106587900D01*
X145849854Y-106587900D01*
X145917975Y-106607902D01*
X145938949Y-106624804D01*
X146651582Y-107337436D01*
X146667252Y-107356530D01*
X146674469Y-107367331D01*
X146684785Y-107374224D01*
X146697253Y-107382555D01*
X146758123Y-107423227D01*
X146821583Y-107435850D01*
X146831889Y-107437900D01*
X146844628Y-107440434D01*
X146844629Y-107440434D01*
X146856800Y-107442855D01*
X146868971Y-107440434D01*
X146868973Y-107440434D01*
X146869541Y-107440321D01*
X146894121Y-107437900D01*
X150135879Y-107437900D01*
X150160459Y-107440321D01*
X150161027Y-107440434D01*
X150161029Y-107440434D01*
X150173200Y-107442855D01*
X150185371Y-107440434D01*
X150185940Y-107440321D01*
X150219568Y-107433632D01*
X150271877Y-107423227D01*
X150282195Y-107416333D01*
X150282199Y-107416331D01*
X150311911Y-107396478D01*
X150334405Y-107381448D01*
X150334414Y-107381441D01*
X150345215Y-107374224D01*
X150355531Y-107367331D01*
X150362748Y-107356530D01*
X150378415Y-107337440D01*
X150473241Y-107242614D01*
X150576049Y-107139805D01*
X150638361Y-107105780D01*
X150665145Y-107102900D01*
X153189558Y-107102900D01*
X153257679Y-107122902D01*
X153286009Y-107147825D01*
X153350213Y-107224205D01*
X153357583Y-107232973D01*
X153365060Y-107237950D01*
X153471361Y-107308710D01*
X153471363Y-107308711D01*
X153478834Y-107313684D01*
X153487401Y-107316361D01*
X153487402Y-107316361D01*
X153503777Y-107321477D01*
X153617864Y-107357121D01*
X153763498Y-107359790D01*
X153833762Y-107340633D01*
X153895363Y-107323839D01*
X153895364Y-107323839D01*
X153904026Y-107321477D01*
X153912359Y-107316361D01*
X153998846Y-107263258D01*
X154028154Y-107245263D01*
X154034774Y-107237950D01*
X154119873Y-107143934D01*
X154119874Y-107143933D01*
X154125901Y-107137274D01*
X154135170Y-107118144D01*
X154185495Y-107014272D01*
X154185495Y-107014271D01*
X154189410Y-107006191D01*
X154213576Y-106862552D01*
X154213729Y-106850000D01*
X154204121Y-106782910D01*
X154194354Y-106714706D01*
X154194353Y-106714703D01*
X154193080Y-106705813D01*
X154188377Y-106695469D01*
X154136508Y-106581390D01*
X154136507Y-106581388D01*
X154132792Y-106573218D01*
X154037713Y-106462873D01*
X153915485Y-106383648D01*
X153883438Y-106374064D01*
X153850953Y-106364349D01*
X153791419Y-106325668D01*
X153762249Y-106260941D01*
X153773662Y-106188696D01*
X153789410Y-106156191D01*
X153805008Y-106063478D01*
X153812770Y-106017344D01*
X153812770Y-106017341D01*
X153813576Y-106012552D01*
X153813729Y-106000000D01*
X153798191Y-105891501D01*
X153794354Y-105864706D01*
X153794353Y-105864703D01*
X153793080Y-105855813D01*
X153789362Y-105847635D01*
X153736508Y-105731390D01*
X153736507Y-105731388D01*
X153732792Y-105723218D01*
X153637713Y-105612873D01*
X153515485Y-105533648D01*
X153375934Y-105491914D01*
X153366958Y-105491859D01*
X153366957Y-105491859D01*
X153305644Y-105491485D01*
X153230279Y-105491024D01*
X153090229Y-105531051D01*
X153082642Y-105535838D01*
X153082640Y-105535839D01*
X153016377Y-105577648D01*
X152967042Y-105608776D01*
X152870622Y-105717951D01*
X152866808Y-105726074D01*
X152866807Y-105726076D01*
X152857772Y-105745321D01*
X152808719Y-105849800D01*
X152807339Y-105858665D01*
X152807338Y-105858667D01*
X152788563Y-105979249D01*
X152786309Y-105993724D01*
X152787473Y-106002626D01*
X152787473Y-106002628D01*
X152787753Y-106004766D01*
X152787422Y-106006878D01*
X152787364Y-106011599D01*
X152786682Y-106011591D01*
X152776750Y-106074905D01*
X152729574Y-106127961D01*
X152662816Y-106147099D01*
X150359122Y-106147099D01*
X150334542Y-106144678D01*
X150333974Y-106144565D01*
X150333972Y-106144565D01*
X150321801Y-106142144D01*
X150223124Y-106161772D01*
X150212806Y-106168666D01*
X150212804Y-106168667D01*
X150169801Y-106197401D01*
X150160588Y-106203557D01*
X150160587Y-106203558D01*
X150139470Y-106217668D01*
X150132577Y-106227984D01*
X150132253Y-106228469D01*
X150116583Y-106247562D01*
X149918950Y-106445195D01*
X149856638Y-106479221D01*
X149829855Y-106482100D01*
X147200145Y-106482100D01*
X147132024Y-106462098D01*
X147111049Y-106445195D01*
X146398415Y-105732560D01*
X146382746Y-105713467D01*
X146382424Y-105712985D01*
X146375531Y-105702669D01*
X146354414Y-105688559D01*
X146354413Y-105688558D01*
X146302197Y-105653668D01*
X146302195Y-105653667D01*
X146291877Y-105646773D01*
X146193200Y-105627145D01*
X146181029Y-105629566D01*
X146181027Y-105629566D01*
X146180459Y-105629679D01*
X146155879Y-105632100D01*
X143239265Y-105632100D01*
X143171144Y-105612098D01*
X143124651Y-105558442D01*
X143114547Y-105488168D01*
X143144041Y-105423588D01*
X143206123Y-105384537D01*
X143245363Y-105373839D01*
X143245364Y-105373839D01*
X143254026Y-105371477D01*
X143262359Y-105366361D01*
X143345696Y-105315192D01*
X143378154Y-105295263D01*
X143384774Y-105287950D01*
X143469873Y-105193934D01*
X143469874Y-105193933D01*
X143475901Y-105187274D01*
X143488156Y-105161981D01*
X143535495Y-105064272D01*
X143535495Y-105064271D01*
X143539410Y-105056191D01*
X143563576Y-104912552D01*
X143563729Y-104900000D01*
X143553546Y-104828892D01*
X143544354Y-104764706D01*
X143544353Y-104764703D01*
X143543080Y-104755813D01*
X143539362Y-104747635D01*
X143486508Y-104631390D01*
X143486507Y-104631388D01*
X143482792Y-104623218D01*
X143387713Y-104512873D01*
X143265485Y-104433648D01*
X143125934Y-104391914D01*
X143116958Y-104391859D01*
X143116957Y-104391859D01*
X143055644Y-104391485D01*
X142980279Y-104391024D01*
X142840229Y-104431051D01*
X142832642Y-104435838D01*
X142832640Y-104435839D01*
X142807835Y-104451490D01*
X142717042Y-104508776D01*
X142620622Y-104617951D01*
X142616808Y-104626074D01*
X142616807Y-104626076D01*
X142589516Y-104684205D01*
X142558719Y-104749800D01*
X142557339Y-104758665D01*
X142557338Y-104758667D01*
X142538768Y-104877934D01*
X142536309Y-104893724D01*
X142537473Y-104902626D01*
X142537473Y-104902629D01*
X142544539Y-104956662D01*
X142555195Y-105038152D01*
X142558809Y-105046365D01*
X142558810Y-105046369D01*
X142593832Y-105125959D01*
X142613859Y-105171474D01*
X142619634Y-105178344D01*
X142619635Y-105178346D01*
X142683953Y-105254862D01*
X142707583Y-105282973D01*
X142715060Y-105287950D01*
X142821361Y-105358710D01*
X142821363Y-105358711D01*
X142828834Y-105363684D01*
X142837401Y-105366361D01*
X142837402Y-105366361D01*
X142899727Y-105385833D01*
X142958783Y-105425240D01*
X142987160Y-105490319D01*
X142975847Y-105560408D01*
X142928437Y-105613255D01*
X142862152Y-105632100D01*
X141630144Y-105632100D01*
X141562023Y-105612098D01*
X141541049Y-105595195D01*
X140640483Y-104694628D01*
X139718418Y-103772563D01*
X139702748Y-103753470D01*
X139702424Y-103752985D01*
X139695531Y-103742669D01*
X139674414Y-103728559D01*
X139674413Y-103728558D01*
X139669494Y-103725271D01*
X139622197Y-103693668D01*
X139622195Y-103693667D01*
X139611877Y-103686773D01*
X139513200Y-103667145D01*
X139501029Y-103669566D01*
X139501027Y-103669566D01*
X139500459Y-103669679D01*
X139475879Y-103672100D01*
X138210145Y-103672100D01*
X138142024Y-103652098D01*
X138121050Y-103635195D01*
X134514806Y-100028951D01*
X134480780Y-99966639D01*
X134477901Y-99939856D01*
X134477901Y-99381944D01*
X134497903Y-99313823D01*
X134514806Y-99292849D01*
X134765436Y-99042219D01*
X134827748Y-99008193D01*
X134867857Y-99007119D01*
X134867864Y-99007121D01*
X135013498Y-99009790D01*
X135129521Y-98978158D01*
X135145363Y-98973839D01*
X135145364Y-98973839D01*
X135154026Y-98971477D01*
X135162359Y-98966361D01*
X135223974Y-98928529D01*
X135278154Y-98895263D01*
X135284774Y-98887950D01*
X135369873Y-98793934D01*
X135369874Y-98793933D01*
X135375901Y-98787274D01*
X135382419Y-98773822D01*
X135435495Y-98664272D01*
X135435495Y-98664271D01*
X135439410Y-98656191D01*
X135457161Y-98550680D01*
X135462770Y-98517344D01*
X135462770Y-98517341D01*
X135463576Y-98512552D01*
X135463729Y-98500000D01*
X135454197Y-98433437D01*
X135444354Y-98364706D01*
X135444353Y-98364703D01*
X135443080Y-98355813D01*
X135438247Y-98345183D01*
X135386508Y-98231390D01*
X135386507Y-98231388D01*
X135382792Y-98223218D01*
X135287713Y-98112873D01*
X135165485Y-98033648D01*
X135025934Y-97991914D01*
X135016958Y-97991859D01*
X135016957Y-97991859D01*
X134955644Y-97991485D01*
X134880279Y-97991024D01*
X134740229Y-98031051D01*
X134732642Y-98035838D01*
X134732640Y-98035839D01*
X134666377Y-98077648D01*
X134617042Y-98108776D01*
X134520622Y-98217951D01*
X134516808Y-98226074D01*
X134516807Y-98226076D01*
X134462533Y-98341676D01*
X134458719Y-98349800D01*
X134457339Y-98358665D01*
X134457338Y-98358667D01*
X134438940Y-98476829D01*
X134436309Y-98493724D01*
X134437473Y-98502626D01*
X134437473Y-98502630D01*
X134447031Y-98575724D01*
X134436030Y-98645863D01*
X134411190Y-98681155D01*
X134089095Y-99003250D01*
X134026783Y-99037276D01*
X133955968Y-99032211D01*
X133910905Y-99003250D01*
X133588866Y-98681211D01*
X133554840Y-98618899D01*
X133553707Y-98571211D01*
X133562770Y-98517344D01*
X133562770Y-98517341D01*
X133563576Y-98512552D01*
X133563729Y-98500000D01*
X133554197Y-98433437D01*
X133544354Y-98364706D01*
X133544353Y-98364703D01*
X133543080Y-98355813D01*
X133538247Y-98345183D01*
X133486508Y-98231390D01*
X133486507Y-98231388D01*
X133482792Y-98223218D01*
X133387713Y-98112873D01*
X133265485Y-98033648D01*
X133125934Y-97991914D01*
X133116958Y-97991859D01*
X133116957Y-97991859D01*
X133055644Y-97991485D01*
X132980279Y-97991024D01*
X132840229Y-98031051D01*
X132832633Y-98035844D01*
X132828061Y-98037889D01*
X132757711Y-98047447D01*
X132693361Y-98017453D01*
X132655442Y-97957431D01*
X132650610Y-97922872D01*
X132650610Y-96908459D01*
X139218188Y-96908459D01*
X139246777Y-97050241D01*
X139312440Y-97179112D01*
X139410340Y-97285578D01*
X139417642Y-97290106D01*
X139417644Y-97290107D01*
X139525965Y-97357269D01*
X139533265Y-97361795D01*
X139541509Y-97364190D01*
X139541511Y-97364191D01*
X139549529Y-97366520D01*
X139609364Y-97404734D01*
X139639041Y-97469230D01*
X139629137Y-97539533D01*
X139603470Y-97576612D01*
X139596542Y-97583540D01*
X139577450Y-97599210D01*
X139566516Y-97606516D01*
X139552319Y-97627763D01*
X139552316Y-97627766D01*
X139510266Y-97690699D01*
X139507846Y-97702868D01*
X139507845Y-97702869D01*
X139502849Y-97727989D01*
X139496493Y-97759944D01*
X139495976Y-97762542D01*
X139463069Y-97825451D01*
X139439633Y-97844522D01*
X139417042Y-97858776D01*
X139320622Y-97967951D01*
X139316808Y-97976074D01*
X139316807Y-97976076D01*
X139262769Y-98091173D01*
X139258719Y-98099800D01*
X139257339Y-98108665D01*
X139257338Y-98108667D01*
X139238464Y-98229885D01*
X139236309Y-98243724D01*
X139237473Y-98252626D01*
X139237473Y-98252629D01*
X139243355Y-98297609D01*
X139255195Y-98388152D01*
X139258809Y-98396365D01*
X139258810Y-98396369D01*
X139293883Y-98476076D01*
X139313859Y-98521474D01*
X139319634Y-98528344D01*
X139319635Y-98528346D01*
X139397917Y-98621474D01*
X139407583Y-98632973D01*
X139427708Y-98646369D01*
X139521361Y-98708710D01*
X139521363Y-98708711D01*
X139528834Y-98713684D01*
X139537401Y-98716361D01*
X139537402Y-98716361D01*
X139559350Y-98723218D01*
X139667864Y-98757121D01*
X139751809Y-98758659D01*
X139819551Y-98779906D01*
X139865053Y-98834404D01*
X139875500Y-98884638D01*
X139875500Y-98996100D01*
X139855498Y-99064221D01*
X139801842Y-99110714D01*
X139749500Y-99122100D01*
X139713893Y-99122100D01*
X139652565Y-99130883D01*
X139616288Y-99136078D01*
X139616286Y-99136079D01*
X139607401Y-99137351D01*
X139599231Y-99141066D01*
X139599230Y-99141066D01*
X139593043Y-99143879D01*
X139476266Y-99196974D01*
X139469467Y-99202832D01*
X139469463Y-99202835D01*
X139373934Y-99285149D01*
X139373932Y-99285151D01*
X139367136Y-99291007D01*
X139288785Y-99411889D01*
X139247510Y-99549902D01*
X139247455Y-99558878D01*
X139247455Y-99558879D01*
X139247372Y-99572483D01*
X139246630Y-99693953D01*
X139249097Y-99702584D01*
X139249097Y-99702586D01*
X139282710Y-99820196D01*
X139286215Y-99832461D01*
X139363084Y-99954291D01*
X139369812Y-99960233D01*
X139369813Y-99960234D01*
X139401353Y-99988089D01*
X139471057Y-100049649D01*
X139501421Y-100063905D01*
X139593332Y-100107058D01*
X139593334Y-100107059D01*
X139601454Y-100110871D01*
X139710825Y-100127900D01*
X139786107Y-100127900D01*
X139847435Y-100119117D01*
X139883712Y-100113922D01*
X139883714Y-100113921D01*
X139892599Y-100112649D01*
X140023734Y-100053026D01*
X140030535Y-100047166D01*
X140030541Y-100047162D01*
X140048939Y-100031309D01*
X140113601Y-100001995D01*
X140183847Y-100012294D01*
X140237373Y-100058936D01*
X140257186Y-100126762D01*
X140257186Y-100534210D01*
X140254765Y-100558789D01*
X140252200Y-100571686D01*
X140254621Y-100583858D01*
X140255225Y-100586896D01*
X140257186Y-100596753D01*
X140258179Y-100601742D01*
X140259116Y-100606453D01*
X140259117Y-100606460D01*
X140269308Y-100657693D01*
X140271952Y-100670987D01*
X140314002Y-100733920D01*
X140314005Y-100733923D01*
X140328202Y-100755170D01*
X140338515Y-100762061D01*
X140339136Y-100762476D01*
X140358228Y-100778146D01*
X142983540Y-103403458D01*
X142999210Y-103422550D01*
X143006516Y-103433484D01*
X143027763Y-103447681D01*
X143027766Y-103447684D01*
X143090699Y-103489734D01*
X143102868Y-103492154D01*
X143102869Y-103492155D01*
X143177829Y-103507065D01*
X143190000Y-103509486D01*
X143202897Y-103506921D01*
X143227476Y-103504500D01*
X143490903Y-103504500D01*
X143559024Y-103524502D01*
X143587354Y-103549425D01*
X143645843Y-103619006D01*
X143657583Y-103632973D01*
X143665060Y-103637950D01*
X143771361Y-103708710D01*
X143771363Y-103708711D01*
X143778834Y-103713684D01*
X143917864Y-103757121D01*
X144063498Y-103759790D01*
X144178054Y-103728558D01*
X144195363Y-103723839D01*
X144195364Y-103723839D01*
X144204026Y-103721477D01*
X144212359Y-103716361D01*
X144320502Y-103649961D01*
X144328154Y-103645263D01*
X144334774Y-103637950D01*
X144419873Y-103543934D01*
X144419874Y-103543933D01*
X144425901Y-103537274D01*
X144434755Y-103519001D01*
X144485495Y-103414272D01*
X144485495Y-103414271D01*
X144489410Y-103406191D01*
X144513576Y-103262552D01*
X144513729Y-103250000D01*
X144500839Y-103159990D01*
X144494354Y-103114706D01*
X144494353Y-103114703D01*
X144493080Y-103105813D01*
X144488100Y-103094860D01*
X144436508Y-102981390D01*
X144436507Y-102981388D01*
X144432792Y-102973218D01*
X144337713Y-102862873D01*
X144215485Y-102783648D01*
X144075934Y-102741914D01*
X144066958Y-102741859D01*
X144066957Y-102741859D01*
X144005644Y-102741485D01*
X143930279Y-102741024D01*
X143790229Y-102781051D01*
X143782642Y-102785838D01*
X143782640Y-102785839D01*
X143770833Y-102793289D01*
X143667042Y-102858776D01*
X143583908Y-102952908D01*
X143523823Y-102990726D01*
X143489467Y-102995500D01*
X143347608Y-102995500D01*
X143279487Y-102975498D01*
X143258513Y-102958595D01*
X140803091Y-100503173D01*
X140769065Y-100440861D01*
X140766186Y-100414078D01*
X140766186Y-100132026D01*
X140786188Y-100063905D01*
X140839844Y-100017412D01*
X140910118Y-100007308D01*
X140974698Y-100036802D01*
X140988636Y-100050950D01*
X141057583Y-100132973D01*
X141065060Y-100137950D01*
X141171361Y-100208710D01*
X141171363Y-100208711D01*
X141178834Y-100213684D01*
X141317864Y-100257121D01*
X141463498Y-100259790D01*
X141553728Y-100235190D01*
X141595363Y-100223839D01*
X141595364Y-100223839D01*
X141604026Y-100221477D01*
X141612359Y-100216361D01*
X141685838Y-100171245D01*
X141728154Y-100145263D01*
X141734774Y-100137950D01*
X141819873Y-100043934D01*
X141819874Y-100043933D01*
X141825901Y-100037274D01*
X141829934Y-100028951D01*
X141847001Y-99993724D01*
X143236309Y-99993724D01*
X143237473Y-100002626D01*
X143237473Y-100002629D01*
X143246366Y-100070634D01*
X143255195Y-100138152D01*
X143258809Y-100146365D01*
X143258810Y-100146369D01*
X143292899Y-100223839D01*
X143313859Y-100271474D01*
X143319634Y-100278344D01*
X143319635Y-100278346D01*
X143393667Y-100366418D01*
X143407583Y-100382973D01*
X143415060Y-100387950D01*
X143521361Y-100458710D01*
X143521363Y-100458711D01*
X143528834Y-100463684D01*
X143537401Y-100466361D01*
X143537402Y-100466361D01*
X143553777Y-100471477D01*
X143667864Y-100507121D01*
X143813498Y-100509790D01*
X143924085Y-100479640D01*
X143945363Y-100473839D01*
X143945364Y-100473839D01*
X143954026Y-100471477D01*
X143962359Y-100466361D01*
X144019597Y-100431217D01*
X144078154Y-100395263D01*
X144084774Y-100387950D01*
X144148768Y-100317250D01*
X144168053Y-100295944D01*
X144228595Y-100258864D01*
X144261467Y-100254500D01*
X147552392Y-100254500D01*
X147620513Y-100274502D01*
X147641487Y-100291405D01*
X151833538Y-104483455D01*
X151849208Y-104502547D01*
X151856516Y-104513484D01*
X151877766Y-104527683D01*
X151877767Y-104527684D01*
X151940699Y-104569734D01*
X152040000Y-104589486D01*
X152052897Y-104586921D01*
X152077476Y-104584500D01*
X163738892Y-104584500D01*
X163807013Y-104604502D01*
X163827987Y-104621405D01*
X164885008Y-105678426D01*
X164919034Y-105740738D01*
X164913969Y-105811553D01*
X164906327Y-105828223D01*
X164890116Y-105857710D01*
X164890114Y-105857715D01*
X164887149Y-105863108D01*
X164885288Y-105868975D01*
X164885287Y-105868977D01*
X164838222Y-106017344D01*
X164826197Y-106055253D01*
X164803727Y-106255579D01*
X164804243Y-106261723D01*
X164819909Y-106448279D01*
X164820595Y-106456454D01*
X164840028Y-106524224D01*
X164873621Y-106641378D01*
X164876158Y-106650226D01*
X164968301Y-106829516D01*
X164981284Y-106845897D01*
X165089684Y-106982665D01*
X165089689Y-106982670D01*
X165093513Y-106987495D01*
X165098207Y-106991489D01*
X165098207Y-106991490D01*
X165217728Y-107093210D01*
X165247025Y-107118144D01*
X165252403Y-107121150D01*
X165252405Y-107121151D01*
X165315102Y-107156191D01*
X165422990Y-107216487D01*
X165614705Y-107278779D01*
X165814869Y-107302647D01*
X165821004Y-107302175D01*
X165821006Y-107302175D01*
X165881978Y-107297483D01*
X166015857Y-107287182D01*
X166210013Y-107232973D01*
X166223626Y-107226097D01*
X166374653Y-107149807D01*
X166389942Y-107142084D01*
X166397936Y-107135839D01*
X166543934Y-107021772D01*
X166548790Y-107017978D01*
X166680508Y-106865382D01*
X166683551Y-106860025D01*
X166683554Y-106860021D01*
X166754311Y-106735464D01*
X166780077Y-106690108D01*
X166786540Y-106670681D01*
X166829914Y-106540292D01*
X166843706Y-106498832D01*
X166868971Y-106298840D01*
X166869227Y-106280528D01*
X166869325Y-106273523D01*
X166869325Y-106273519D01*
X166869374Y-106270000D01*
X166866402Y-106239691D01*
X167219058Y-106239691D01*
X167232916Y-106451126D01*
X167285073Y-106656495D01*
X167373782Y-106848919D01*
X167496072Y-107021956D01*
X167526658Y-107051752D01*
X167621286Y-107143934D01*
X167647848Y-107169810D01*
X167652644Y-107173015D01*
X167652647Y-107173017D01*
X167756807Y-107242614D01*
X167824027Y-107287529D01*
X167829335Y-107289810D01*
X167829336Y-107289810D01*
X167986722Y-107357428D01*
X168018708Y-107371170D01*
X168018325Y-107372061D01*
X168072552Y-107409146D01*
X168100185Y-107474544D01*
X168088074Y-107544500D01*
X168040064Y-107596803D01*
X168007615Y-107610606D01*
X167951280Y-107625700D01*
X167940986Y-107629447D01*
X167752086Y-107717533D01*
X167742600Y-107723011D01*
X167596587Y-107825249D01*
X167588212Y-107835727D01*
X167595280Y-107849175D01*
X168363688Y-108617583D01*
X168377632Y-108625197D01*
X168379465Y-108625066D01*
X168386080Y-108620815D01*
X169158442Y-107848453D01*
X169164872Y-107836679D01*
X169155575Y-107824663D01*
X169010400Y-107723011D01*
X169000914Y-107717533D01*
X168812014Y-107629447D01*
X168801722Y-107625701D01*
X168737932Y-107608609D01*
X168677309Y-107571658D01*
X168646288Y-107507797D01*
X168654716Y-107437303D01*
X168699919Y-107382555D01*
X168730042Y-107367589D01*
X168841964Y-107329597D01*
X168841969Y-107329595D01*
X168847436Y-107327739D01*
X168854400Y-107323839D01*
X169027269Y-107227027D01*
X169027273Y-107227024D01*
X169032307Y-107224205D01*
X169036744Y-107220514D01*
X169036748Y-107220512D01*
X169189475Y-107093491D01*
X169195216Y-107088716D01*
X169203429Y-107078841D01*
X169327012Y-106930248D01*
X169327014Y-106930244D01*
X169330705Y-106925807D01*
X169333524Y-106920773D01*
X169333527Y-106920769D01*
X169431416Y-106745977D01*
X169431417Y-106745976D01*
X169434239Y-106740936D01*
X169436095Y-106735469D01*
X169436097Y-106735464D01*
X169500492Y-106545761D01*
X169500493Y-106545756D01*
X169502348Y-106540292D01*
X169503176Y-106534583D01*
X169503177Y-106534578D01*
X169528674Y-106358720D01*
X169532752Y-106330597D01*
X169534339Y-106270000D01*
X169514951Y-106059001D01*
X169512239Y-106049383D01*
X169460154Y-105864706D01*
X169457436Y-105855068D01*
X169363720Y-105665031D01*
X169297295Y-105576076D01*
X169240395Y-105499878D01*
X169240394Y-105499877D01*
X169236942Y-105495254D01*
X169232706Y-105491338D01*
X169085589Y-105355345D01*
X169085587Y-105355343D01*
X169081348Y-105351425D01*
X169064951Y-105341079D01*
X168907028Y-105241437D01*
X168902148Y-105238358D01*
X168896788Y-105236220D01*
X168896785Y-105236218D01*
X168710708Y-105161981D01*
X168705344Y-105159841D01*
X168515899Y-105122158D01*
X168452990Y-105089252D01*
X168417858Y-105027557D01*
X168421658Y-104956662D01*
X168463183Y-104899076D01*
X168522401Y-104873884D01*
X168641078Y-104856677D01*
X168641083Y-104856676D01*
X168646792Y-104855848D01*
X168652256Y-104853993D01*
X168652261Y-104853992D01*
X168841964Y-104789597D01*
X168841969Y-104789595D01*
X168847436Y-104787739D01*
X168888564Y-104764706D01*
X169027269Y-104687027D01*
X169027273Y-104687024D01*
X169032307Y-104684205D01*
X169036744Y-104680514D01*
X169036748Y-104680512D01*
X169190778Y-104552407D01*
X169195216Y-104548716D01*
X169250739Y-104481956D01*
X169327012Y-104390248D01*
X169327014Y-104390244D01*
X169330705Y-104385807D01*
X169333524Y-104380773D01*
X169333527Y-104380769D01*
X169431416Y-104205977D01*
X169431417Y-104205976D01*
X169434239Y-104200936D01*
X169436095Y-104195469D01*
X169436097Y-104195464D01*
X169500492Y-104005761D01*
X169500493Y-104005756D01*
X169502348Y-104000292D01*
X169503176Y-103994583D01*
X169503177Y-103994578D01*
X169532219Y-103794271D01*
X169532752Y-103790597D01*
X169534339Y-103730000D01*
X169514951Y-103519001D01*
X169512268Y-103509486D01*
X169477892Y-103387599D01*
X169457436Y-103315068D01*
X169363720Y-103125031D01*
X169236942Y-102955254D01*
X169217777Y-102937538D01*
X169085589Y-102815345D01*
X169085587Y-102815343D01*
X169081348Y-102811425D01*
X169052604Y-102793289D01*
X168907028Y-102701437D01*
X168902148Y-102698358D01*
X168896788Y-102696220D01*
X168896785Y-102696218D01*
X168710708Y-102621981D01*
X168705344Y-102619841D01*
X168515899Y-102582158D01*
X168452990Y-102549252D01*
X168417858Y-102487557D01*
X168421658Y-102416662D01*
X168463183Y-102359076D01*
X168522401Y-102333884D01*
X168641078Y-102316677D01*
X168641083Y-102316676D01*
X168646792Y-102315848D01*
X168652256Y-102313993D01*
X168652261Y-102313992D01*
X168841964Y-102249597D01*
X168841969Y-102249595D01*
X168847436Y-102247739D01*
X168874042Y-102232839D01*
X169027269Y-102147027D01*
X169027273Y-102147024D01*
X169032307Y-102144205D01*
X169036744Y-102140514D01*
X169036748Y-102140512D01*
X169190778Y-102012407D01*
X169195216Y-102008716D01*
X169250739Y-101941956D01*
X169327012Y-101850248D01*
X169327014Y-101850244D01*
X169330705Y-101845807D01*
X169333524Y-101840773D01*
X169333527Y-101840769D01*
X169431416Y-101665977D01*
X169431417Y-101665976D01*
X169434239Y-101660936D01*
X169436095Y-101655469D01*
X169436097Y-101655464D01*
X169500492Y-101465761D01*
X169500493Y-101465756D01*
X169502348Y-101460292D01*
X169503176Y-101454583D01*
X169503177Y-101454578D01*
X169524792Y-101305498D01*
X169532752Y-101250597D01*
X169534339Y-101190000D01*
X169514951Y-100979001D01*
X169502683Y-100935500D01*
X169466545Y-100807365D01*
X169457436Y-100775068D01*
X169363720Y-100585031D01*
X169344127Y-100558792D01*
X169240395Y-100419878D01*
X169240394Y-100419877D01*
X169236942Y-100415254D01*
X169232270Y-100410935D01*
X169085589Y-100275345D01*
X169085587Y-100275343D01*
X169081348Y-100271425D01*
X169062646Y-100259625D01*
X168907028Y-100161437D01*
X168902148Y-100158358D01*
X168896788Y-100156220D01*
X168896785Y-100156218D01*
X168710708Y-100081981D01*
X168705344Y-100079841D01*
X168515899Y-100042158D01*
X168452990Y-100009252D01*
X168417858Y-99947557D01*
X168421658Y-99876662D01*
X168463183Y-99819076D01*
X168522401Y-99793884D01*
X168641078Y-99776677D01*
X168641083Y-99776676D01*
X168646792Y-99775848D01*
X168652256Y-99773993D01*
X168652261Y-99773992D01*
X168841964Y-99709597D01*
X168841969Y-99709595D01*
X168847436Y-99707739D01*
X168856637Y-99702586D01*
X169027269Y-99607027D01*
X169027273Y-99607024D01*
X169032307Y-99604205D01*
X169036744Y-99600514D01*
X169036748Y-99600512D01*
X169190778Y-99472407D01*
X169195216Y-99468716D01*
X169247390Y-99405983D01*
X169327012Y-99310248D01*
X169327014Y-99310244D01*
X169330705Y-99305807D01*
X169333524Y-99300773D01*
X169333527Y-99300769D01*
X169431416Y-99125977D01*
X169431417Y-99125976D01*
X169434239Y-99120936D01*
X169436095Y-99115469D01*
X169436097Y-99115464D01*
X169500492Y-98925761D01*
X169500493Y-98925756D01*
X169502348Y-98920292D01*
X169503176Y-98914583D01*
X169503177Y-98914578D01*
X169526334Y-98754860D01*
X169532752Y-98710597D01*
X169534339Y-98650000D01*
X169514951Y-98439001D01*
X169513067Y-98432319D01*
X169484442Y-98330825D01*
X169457436Y-98235068D01*
X169363720Y-98045031D01*
X169335898Y-98007772D01*
X169240395Y-97879878D01*
X169240394Y-97879877D01*
X169236942Y-97875254D01*
X169232706Y-97871338D01*
X169085589Y-97735345D01*
X169085587Y-97735343D01*
X169081348Y-97731425D01*
X169052604Y-97713289D01*
X168907028Y-97621437D01*
X168902148Y-97618358D01*
X168896788Y-97616220D01*
X168896785Y-97616218D01*
X168710708Y-97541981D01*
X168705344Y-97539841D01*
X168699684Y-97538715D01*
X168699680Y-97538714D01*
X168503195Y-97499631D01*
X168503190Y-97499631D01*
X168497527Y-97498504D01*
X168491752Y-97498428D01*
X168491748Y-97498428D01*
X168385375Y-97497036D01*
X168285657Y-97495730D01*
X168279960Y-97496709D01*
X168279959Y-97496709D01*
X168269955Y-97498428D01*
X168076829Y-97531613D01*
X167878037Y-97604952D01*
X167873076Y-97607904D01*
X167873075Y-97607904D01*
X167709830Y-97705025D01*
X167695939Y-97713289D01*
X167536633Y-97852996D01*
X167405455Y-98019396D01*
X167306796Y-98206914D01*
X167259887Y-98357989D01*
X167247094Y-98399190D01*
X167243963Y-98409272D01*
X167219058Y-98619691D01*
X167232916Y-98831126D01*
X167285073Y-99036495D01*
X167373782Y-99228919D01*
X167496072Y-99401956D01*
X167555791Y-99460132D01*
X167635911Y-99538181D01*
X167647848Y-99549810D01*
X167652644Y-99553015D01*
X167652647Y-99553017D01*
X167752408Y-99619675D01*
X167824027Y-99667529D01*
X167829335Y-99669810D01*
X167829336Y-99669810D01*
X168013405Y-99748892D01*
X168013408Y-99748893D01*
X168018708Y-99751170D01*
X168221903Y-99797149D01*
X168225372Y-99797934D01*
X168225218Y-99798616D01*
X168286171Y-99825584D01*
X168325259Y-99884851D01*
X168326100Y-99955843D01*
X168288426Y-100016020D01*
X168226131Y-100045958D01*
X168076829Y-100071613D01*
X167878037Y-100144952D01*
X167873076Y-100147904D01*
X167873075Y-100147904D01*
X167716997Y-100240761D01*
X167695939Y-100253289D01*
X167536633Y-100392996D01*
X167405455Y-100559396D01*
X167306796Y-100746914D01*
X167243963Y-100949272D01*
X167219058Y-101159691D01*
X167232916Y-101371126D01*
X167285073Y-101576495D01*
X167373782Y-101768919D01*
X167496072Y-101941956D01*
X167500206Y-101945983D01*
X167642648Y-102084744D01*
X167647848Y-102089810D01*
X167652644Y-102093015D01*
X167652647Y-102093017D01*
X167733479Y-102147027D01*
X167824027Y-102207529D01*
X167829335Y-102209810D01*
X167829336Y-102209810D01*
X168013405Y-102288892D01*
X168013408Y-102288893D01*
X168018708Y-102291170D01*
X168221903Y-102337149D01*
X168225372Y-102337934D01*
X168225218Y-102338616D01*
X168286171Y-102365584D01*
X168325259Y-102424851D01*
X168326100Y-102495843D01*
X168288426Y-102556020D01*
X168226131Y-102585958D01*
X168076829Y-102611613D01*
X167878037Y-102684952D01*
X167873076Y-102687904D01*
X167873075Y-102687904D01*
X167716466Y-102781077D01*
X167695939Y-102793289D01*
X167536633Y-102932996D01*
X167405455Y-103099396D01*
X167306796Y-103286914D01*
X167243963Y-103489272D01*
X167219058Y-103699691D01*
X167232916Y-103911126D01*
X167285073Y-104116495D01*
X167373782Y-104308919D01*
X167496072Y-104481956D01*
X167543012Y-104527683D01*
X167619387Y-104602084D01*
X167647848Y-104629810D01*
X167652644Y-104633015D01*
X167652647Y-104633017D01*
X167723729Y-104680512D01*
X167824027Y-104747529D01*
X167829335Y-104749810D01*
X167829336Y-104749810D01*
X168013405Y-104828892D01*
X168013408Y-104828893D01*
X168018708Y-104831170D01*
X168221903Y-104877149D01*
X168225372Y-104877934D01*
X168225218Y-104878616D01*
X168286171Y-104905584D01*
X168325259Y-104964851D01*
X168326100Y-105035843D01*
X168288426Y-105096020D01*
X168226131Y-105125958D01*
X168076829Y-105151613D01*
X167878037Y-105224952D01*
X167873076Y-105227904D01*
X167873075Y-105227904D01*
X167716997Y-105320761D01*
X167695939Y-105333289D01*
X167536633Y-105472996D01*
X167405455Y-105639396D01*
X167306796Y-105826914D01*
X167243963Y-106029272D01*
X167219058Y-106239691D01*
X166866402Y-106239691D01*
X166849703Y-106069380D01*
X166791440Y-105876402D01*
X166711510Y-105726076D01*
X166699697Y-105703858D01*
X166699695Y-105703855D01*
X166696803Y-105698416D01*
X166692913Y-105693646D01*
X166692910Y-105693642D01*
X166594693Y-105573218D01*
X166569397Y-105542202D01*
X166414076Y-105413709D01*
X166236755Y-105317832D01*
X166044188Y-105258222D01*
X166038067Y-105257579D01*
X166038064Y-105257578D01*
X165849839Y-105237795D01*
X165849838Y-105237795D01*
X165843711Y-105237151D01*
X165759984Y-105244771D01*
X165649098Y-105254862D01*
X165649095Y-105254863D01*
X165642959Y-105255421D01*
X165637053Y-105257159D01*
X165637049Y-105257160D01*
X165532435Y-105287950D01*
X165449579Y-105312336D01*
X165444116Y-105315192D01*
X165393156Y-105341833D01*
X165323520Y-105355668D01*
X165257459Y-105329658D01*
X165245685Y-105319267D01*
X164126013Y-104199595D01*
X164091987Y-104137283D01*
X164097052Y-104066468D01*
X164139599Y-104009632D01*
X164206119Y-103984821D01*
X164215108Y-103984500D01*
X164745159Y-103984500D01*
X164813280Y-104004502D01*
X164859773Y-104058158D01*
X164866278Y-104075770D01*
X164870435Y-104090266D01*
X164876158Y-104110226D01*
X164968301Y-104289516D01*
X164983680Y-104308919D01*
X165089684Y-104442665D01*
X165089689Y-104442670D01*
X165093513Y-104447495D01*
X165098207Y-104451489D01*
X165098207Y-104451490D01*
X165229042Y-104562839D01*
X165247025Y-104578144D01*
X165252403Y-104581150D01*
X165252405Y-104581151D01*
X165289861Y-104602084D01*
X165422990Y-104676487D01*
X165614705Y-104738779D01*
X165814869Y-104762647D01*
X165821004Y-104762175D01*
X165821006Y-104762175D01*
X165881978Y-104757483D01*
X166015857Y-104747182D01*
X166210013Y-104692973D01*
X166234682Y-104680512D01*
X166351693Y-104621405D01*
X166389942Y-104602084D01*
X166409166Y-104587065D01*
X166543934Y-104481772D01*
X166548790Y-104477978D01*
X166680508Y-104325382D01*
X166683551Y-104320025D01*
X166683554Y-104320021D01*
X166751203Y-104200936D01*
X166780077Y-104150108D01*
X166784344Y-104137283D01*
X166828095Y-104005761D01*
X166843706Y-103958832D01*
X166868971Y-103758840D01*
X166869374Y-103730000D01*
X166849703Y-103529380D01*
X166791440Y-103336402D01*
X166696803Y-103158416D01*
X166692913Y-103153646D01*
X166692910Y-103153642D01*
X166576455Y-103010856D01*
X166569397Y-103002202D01*
X166414076Y-102873709D01*
X166236755Y-102777832D01*
X166044188Y-102718222D01*
X166038067Y-102717579D01*
X166038064Y-102717578D01*
X165849839Y-102697795D01*
X165849838Y-102697795D01*
X165843711Y-102697151D01*
X165759984Y-102704771D01*
X165649098Y-102714862D01*
X165649095Y-102714863D01*
X165642959Y-102715421D01*
X165637053Y-102717159D01*
X165637049Y-102717160D01*
X165500375Y-102757386D01*
X165449579Y-102772336D01*
X165270936Y-102865728D01*
X165113836Y-102992040D01*
X164984262Y-103146460D01*
X164981298Y-103151852D01*
X164981295Y-103151856D01*
X164923111Y-103257693D01*
X164887149Y-103323108D01*
X164885288Y-103328975D01*
X164885287Y-103328977D01*
X164866691Y-103387599D01*
X164827027Y-103446483D01*
X164761825Y-103474575D01*
X164746589Y-103475500D01*
X160168608Y-103475500D01*
X160100487Y-103455498D01*
X160053994Y-103401842D01*
X160043890Y-103331568D01*
X160073384Y-103266988D01*
X160079513Y-103260405D01*
X161858512Y-101481405D01*
X161920824Y-101447380D01*
X161947607Y-101444500D01*
X164745159Y-101444500D01*
X164813280Y-101464502D01*
X164859773Y-101518158D01*
X164866278Y-101535770D01*
X164871179Y-101552861D01*
X164876158Y-101570226D01*
X164878977Y-101575711D01*
X164957811Y-101729104D01*
X164968301Y-101749516D01*
X164990624Y-101777681D01*
X165089684Y-101902665D01*
X165089689Y-101902670D01*
X165093513Y-101907495D01*
X165098207Y-101911489D01*
X165098207Y-101911490D01*
X165207233Y-102004278D01*
X165247025Y-102038144D01*
X165252403Y-102041150D01*
X165252405Y-102041151D01*
X165319613Y-102078712D01*
X165422990Y-102136487D01*
X165614705Y-102198779D01*
X165814869Y-102222647D01*
X165821004Y-102222175D01*
X165821006Y-102222175D01*
X165881978Y-102217483D01*
X166015857Y-102207182D01*
X166210013Y-102152973D01*
X166234682Y-102140512D01*
X166328705Y-102093017D01*
X166389942Y-102062084D01*
X166453526Y-102012407D01*
X166543934Y-101941772D01*
X166548790Y-101937978D01*
X166556056Y-101929561D01*
X166590374Y-101889803D01*
X166680508Y-101785382D01*
X166683551Y-101780025D01*
X166683554Y-101780021D01*
X166763988Y-101638430D01*
X166780077Y-101610108D01*
X166782256Y-101603560D01*
X166819729Y-101490910D01*
X166843706Y-101418832D01*
X166868971Y-101218840D01*
X166869374Y-101190000D01*
X166849703Y-100989380D01*
X166791440Y-100796402D01*
X166728785Y-100678565D01*
X166699697Y-100623858D01*
X166699695Y-100623855D01*
X166696803Y-100618416D01*
X166692913Y-100613646D01*
X166692910Y-100613642D01*
X166614171Y-100517100D01*
X166569397Y-100462202D01*
X166414076Y-100333709D01*
X166236755Y-100237832D01*
X166069457Y-100186044D01*
X166050071Y-100180043D01*
X166050070Y-100180043D01*
X166044188Y-100178222D01*
X166038067Y-100177579D01*
X166038064Y-100177578D01*
X165849839Y-100157795D01*
X165849838Y-100157795D01*
X165843711Y-100157151D01*
X165759984Y-100164771D01*
X165649098Y-100174862D01*
X165649095Y-100174863D01*
X165642959Y-100175421D01*
X165637053Y-100177159D01*
X165637049Y-100177160D01*
X165529853Y-100208710D01*
X165449579Y-100232336D01*
X165378156Y-100269675D01*
X165282620Y-100319620D01*
X165270936Y-100325728D01*
X165113836Y-100452040D01*
X164984262Y-100606460D01*
X164981298Y-100611852D01*
X164981295Y-100611856D01*
X164909859Y-100741798D01*
X164887149Y-100783108D01*
X164885288Y-100788975D01*
X164885287Y-100788977D01*
X164866691Y-100847599D01*
X164827027Y-100906483D01*
X164761825Y-100934575D01*
X164746589Y-100935500D01*
X162188608Y-100935500D01*
X162120487Y-100915498D01*
X162073994Y-100861842D01*
X162063890Y-100791568D01*
X162093384Y-100726988D01*
X162099513Y-100720405D01*
X163878513Y-98941405D01*
X163940825Y-98907379D01*
X163967608Y-98904500D01*
X164682601Y-98904500D01*
X164750722Y-98924502D01*
X164797215Y-98978158D01*
X164808601Y-99030500D01*
X164808601Y-99540056D01*
X164817472Y-99584658D01*
X164824366Y-99594975D01*
X164824368Y-99594979D01*
X164838083Y-99615504D01*
X164851266Y-99635234D01*
X164861582Y-99642127D01*
X164891525Y-99662135D01*
X164891528Y-99662136D01*
X164901842Y-99669028D01*
X164914009Y-99671448D01*
X164914011Y-99671449D01*
X164932243Y-99675075D01*
X164946443Y-99677900D01*
X165836356Y-99677900D01*
X166726556Y-99677899D01*
X166743210Y-99674587D01*
X166758983Y-99671450D01*
X166758985Y-99671449D01*
X166771158Y-99669028D01*
X166807017Y-99645068D01*
X166811418Y-99642127D01*
X166821734Y-99635234D01*
X166834917Y-99615504D01*
X166848635Y-99594975D01*
X166848636Y-99594972D01*
X166855528Y-99584658D01*
X166864400Y-99540057D01*
X166864399Y-97759944D01*
X166859538Y-97735504D01*
X166857950Y-97727517D01*
X166857948Y-97727511D01*
X166855528Y-97715342D01*
X166847336Y-97703081D01*
X166828627Y-97675082D01*
X166821734Y-97664766D01*
X166801247Y-97651077D01*
X166781475Y-97637865D01*
X166781472Y-97637864D01*
X166771158Y-97630972D01*
X166758991Y-97628552D01*
X166758989Y-97628551D01*
X166735299Y-97623839D01*
X166726557Y-97622100D01*
X165836644Y-97622100D01*
X164946444Y-97622101D01*
X164935182Y-97624341D01*
X164914017Y-97628550D01*
X164914015Y-97628551D01*
X164901842Y-97630972D01*
X164851266Y-97664766D01*
X164844373Y-97675082D01*
X164824365Y-97705025D01*
X164824364Y-97705028D01*
X164817472Y-97715342D01*
X164815052Y-97727509D01*
X164815051Y-97727511D01*
X164813493Y-97735345D01*
X164808600Y-97759943D01*
X164808600Y-98269500D01*
X164788598Y-98337621D01*
X164734942Y-98384114D01*
X164682600Y-98395500D01*
X163847476Y-98395500D01*
X163822897Y-98393079D01*
X163810000Y-98390514D01*
X163797828Y-98392935D01*
X163784933Y-98395500D01*
X163726701Y-98407083D01*
X163722869Y-98407845D01*
X163722868Y-98407845D01*
X163710699Y-98410266D01*
X163647766Y-98452316D01*
X163647763Y-98452319D01*
X163626516Y-98466516D01*
X163619625Y-98476829D01*
X163619210Y-98477450D01*
X163603540Y-98496542D01*
X159171487Y-102928595D01*
X159109175Y-102962621D01*
X159082392Y-102965500D01*
X152657607Y-102965500D01*
X152589486Y-102945498D01*
X152568512Y-102928595D01*
X149615336Y-99975418D01*
X146783642Y-97143724D01*
X148786309Y-97143724D01*
X148805195Y-97288152D01*
X148808809Y-97296365D01*
X148808810Y-97296369D01*
X148836644Y-97359625D01*
X148863859Y-97421474D01*
X148869634Y-97428344D01*
X148869635Y-97428346D01*
X148926277Y-97495730D01*
X148957583Y-97532973D01*
X148965060Y-97537950D01*
X149071361Y-97608710D01*
X149071363Y-97608711D01*
X149078834Y-97613684D01*
X149087401Y-97616361D01*
X149087402Y-97616361D01*
X149109635Y-97623307D01*
X149217864Y-97657121D01*
X149363498Y-97659790D01*
X149443917Y-97637865D01*
X149495363Y-97623839D01*
X149495364Y-97623839D01*
X149504026Y-97621477D01*
X149512359Y-97616361D01*
X149577263Y-97576510D01*
X149628154Y-97545263D01*
X149634774Y-97537950D01*
X149718052Y-97445945D01*
X149778595Y-97408864D01*
X149811467Y-97404500D01*
X149892392Y-97404500D01*
X149960513Y-97424502D01*
X149981487Y-97441405D01*
X150808595Y-98268513D01*
X150842621Y-98330825D01*
X150845500Y-98357608D01*
X150845500Y-98459500D01*
X150825498Y-98527621D01*
X150771842Y-98574114D01*
X150719500Y-98585500D01*
X150713029Y-98585500D01*
X150688460Y-98583081D01*
X150687718Y-98582934D01*
X150687717Y-98582934D01*
X150675544Y-98580514D01*
X150663370Y-98582937D01*
X150663208Y-98582937D01*
X150653506Y-98584446D01*
X150551378Y-98595963D01*
X150433440Y-98637242D01*
X150427448Y-98641008D01*
X150427447Y-98641008D01*
X150346162Y-98692089D01*
X150327643Y-98703727D01*
X150314151Y-98717221D01*
X150249268Y-98782111D01*
X150239293Y-98792087D01*
X150206128Y-98844872D01*
X150179086Y-98887913D01*
X150172817Y-98897890D01*
X150131550Y-99015832D01*
X150130758Y-99022862D01*
X150120084Y-99117603D01*
X150118504Y-99127757D01*
X150118504Y-99127832D01*
X150118208Y-99129320D01*
X150116084Y-99140000D01*
X150118505Y-99152170D01*
X150118505Y-99152172D01*
X150118525Y-99152274D01*
X150120154Y-99162748D01*
X150122831Y-99186505D01*
X150131580Y-99264161D01*
X150172844Y-99382097D01*
X150239316Y-99487894D01*
X150244314Y-99492893D01*
X150244316Y-99492895D01*
X150322658Y-99571245D01*
X150322661Y-99571247D01*
X150327662Y-99576249D01*
X150333652Y-99580014D01*
X150333653Y-99580014D01*
X150361693Y-99597635D01*
X150433453Y-99642731D01*
X150551385Y-99684008D01*
X150573625Y-99686516D01*
X150653139Y-99695483D01*
X150663305Y-99697064D01*
X150663374Y-99697064D01*
X150675544Y-99699486D01*
X150687712Y-99697067D01*
X150687717Y-99697067D01*
X150688460Y-99696919D01*
X150713029Y-99694500D01*
X150957128Y-99694500D01*
X151025249Y-99714502D01*
X151071742Y-99768158D01*
X151081846Y-99838432D01*
X151052352Y-99903012D01*
X151046223Y-99909595D01*
X150963731Y-99992087D01*
X150959964Y-99998082D01*
X150913761Y-100071613D01*
X150897251Y-100097889D01*
X150855981Y-100215831D01*
X150855189Y-100222857D01*
X150855189Y-100222859D01*
X150844514Y-100317609D01*
X150842936Y-100327759D01*
X150842936Y-100327825D01*
X150840514Y-100340000D01*
X150842935Y-100352171D01*
X150843079Y-100352894D01*
X150845500Y-100377476D01*
X150845500Y-100434629D01*
X150843079Y-100459208D01*
X150840514Y-100472105D01*
X150842935Y-100484277D01*
X150845500Y-100497172D01*
X150849464Y-100517100D01*
X150856845Y-100554205D01*
X150860266Y-100571406D01*
X150867160Y-100581723D01*
X150867160Y-100581724D01*
X150870616Y-100586896D01*
X150902316Y-100634339D01*
X150902319Y-100634342D01*
X150916516Y-100655589D01*
X150926829Y-100662480D01*
X150927450Y-100662895D01*
X150946542Y-100678565D01*
X152001435Y-101733458D01*
X152017105Y-101752550D01*
X152024411Y-101763484D01*
X152045658Y-101777681D01*
X152045661Y-101777684D01*
X152045680Y-101777696D01*
X152045679Y-101777696D01*
X152098275Y-101812840D01*
X152098279Y-101812842D01*
X152103778Y-101816516D01*
X152108594Y-101819734D01*
X152120763Y-101822155D01*
X152120764Y-101822155D01*
X152182821Y-101834499D01*
X152182826Y-101834500D01*
X152182829Y-101834500D01*
X152182837Y-101834501D01*
X152207895Y-101839485D01*
X152220067Y-101837064D01*
X152220786Y-101836921D01*
X152245366Y-101834500D01*
X152363964Y-101834500D01*
X152432085Y-101854502D01*
X152478578Y-101908158D01*
X152488464Y-101979885D01*
X152486309Y-101993724D01*
X152487473Y-102002626D01*
X152487473Y-102002629D01*
X152497422Y-102078712D01*
X152505195Y-102138152D01*
X152508809Y-102146365D01*
X152508810Y-102146369D01*
X152542374Y-102222647D01*
X152563859Y-102271474D01*
X152569634Y-102278344D01*
X152569635Y-102278346D01*
X152637919Y-102359580D01*
X152657583Y-102382973D01*
X152665060Y-102387950D01*
X152771361Y-102458710D01*
X152771363Y-102458711D01*
X152778834Y-102463684D01*
X152917864Y-102507121D01*
X153063498Y-102509790D01*
X153145046Y-102487557D01*
X153195363Y-102473839D01*
X153195364Y-102473839D01*
X153204026Y-102471477D01*
X153212359Y-102466361D01*
X153320502Y-102399961D01*
X153328154Y-102395263D01*
X153407391Y-102307723D01*
X153467934Y-102270643D01*
X153538913Y-102272181D01*
X153597256Y-102311205D01*
X153637496Y-102359076D01*
X153657583Y-102382973D01*
X153665060Y-102387950D01*
X153771361Y-102458710D01*
X153771363Y-102458711D01*
X153778834Y-102463684D01*
X153917864Y-102507121D01*
X154063498Y-102509790D01*
X154145046Y-102487557D01*
X154195363Y-102473839D01*
X154195364Y-102473839D01*
X154204026Y-102471477D01*
X154212359Y-102466361D01*
X154320502Y-102399961D01*
X154328154Y-102395263D01*
X154407391Y-102307723D01*
X154467934Y-102270643D01*
X154538913Y-102272181D01*
X154597256Y-102311205D01*
X154637496Y-102359076D01*
X154657583Y-102382973D01*
X154665060Y-102387950D01*
X154771361Y-102458710D01*
X154771363Y-102458711D01*
X154778834Y-102463684D01*
X154917864Y-102507121D01*
X155063498Y-102509790D01*
X155145046Y-102487557D01*
X155195363Y-102473839D01*
X155195364Y-102473839D01*
X155204026Y-102471477D01*
X155212359Y-102466361D01*
X155320502Y-102399961D01*
X155328154Y-102395263D01*
X155407391Y-102307723D01*
X155467934Y-102270643D01*
X155538913Y-102272181D01*
X155597256Y-102311205D01*
X155637496Y-102359076D01*
X155657583Y-102382973D01*
X155665060Y-102387950D01*
X155771361Y-102458710D01*
X155771363Y-102458711D01*
X155778834Y-102463684D01*
X155917864Y-102507121D01*
X156063498Y-102509790D01*
X156145046Y-102487557D01*
X156195363Y-102473839D01*
X156195364Y-102473839D01*
X156204026Y-102471477D01*
X156212359Y-102466361D01*
X156320502Y-102399961D01*
X156328154Y-102395263D01*
X156334774Y-102387950D01*
X156383712Y-102333884D01*
X156418053Y-102295944D01*
X156478595Y-102258864D01*
X156511467Y-102254500D01*
X156552524Y-102254500D01*
X156577103Y-102256921D01*
X156590000Y-102259486D01*
X156689301Y-102239734D01*
X156738018Y-102207182D01*
X156763166Y-102190379D01*
X156763168Y-102190377D01*
X156773484Y-102183484D01*
X156780378Y-102173167D01*
X156780426Y-102173119D01*
X156786502Y-102164805D01*
X156812972Y-102131611D01*
X156850346Y-102084744D01*
X156861258Y-102062084D01*
X156901490Y-101978534D01*
X156901491Y-101978532D01*
X156904559Y-101972160D01*
X156910533Y-101945983D01*
X156930784Y-101857234D01*
X156932358Y-101850336D01*
X156932352Y-101770054D01*
X156932349Y-101733671D01*
X156952346Y-101665548D01*
X157005998Y-101619051D01*
X157076271Y-101608942D01*
X157140854Y-101638430D01*
X157147444Y-101644566D01*
X157392681Y-101889803D01*
X157408351Y-101908895D01*
X157415657Y-101919829D01*
X157425971Y-101926721D01*
X157426017Y-101926767D01*
X157434327Y-101932840D01*
X157491626Y-101978534D01*
X157514395Y-101996692D01*
X157626975Y-102050907D01*
X157748796Y-102078712D01*
X157873750Y-102078712D01*
X157995571Y-102050907D01*
X158108151Y-101996692D01*
X158188190Y-101932863D01*
X158196472Y-101926812D01*
X158196524Y-101926760D01*
X158206872Y-101919847D01*
X158206880Y-101919835D01*
X158206889Y-101919829D01*
X158213801Y-101909485D01*
X158213855Y-101909431D01*
X158219911Y-101901145D01*
X158239143Y-101877034D01*
X158283749Y-101821109D01*
X158337976Y-101708525D01*
X158340495Y-101697493D01*
X158359812Y-101612873D01*
X158365788Y-101586697D01*
X158365790Y-101512427D01*
X158365792Y-101468811D01*
X158365792Y-101461734D01*
X158337986Y-101339905D01*
X158328442Y-101320087D01*
X158316904Y-101250034D01*
X158345072Y-101184864D01*
X158404001Y-101145268D01*
X158479536Y-101145147D01*
X158509294Y-101154444D01*
X158509297Y-101154445D01*
X158517864Y-101157121D01*
X158663498Y-101159790D01*
X158781641Y-101127580D01*
X158795363Y-101123839D01*
X158795364Y-101123839D01*
X158804026Y-101121477D01*
X158816719Y-101113684D01*
X158873018Y-101079116D01*
X158928154Y-101045263D01*
X158939279Y-101032973D01*
X159019873Y-100943934D01*
X159019874Y-100943933D01*
X159025901Y-100937274D01*
X159030625Y-100927525D01*
X159085495Y-100814272D01*
X159085495Y-100814271D01*
X159089410Y-100806191D01*
X159110882Y-100678565D01*
X159112770Y-100667344D01*
X159112770Y-100667341D01*
X159113576Y-100662552D01*
X159113729Y-100650000D01*
X159104953Y-100588718D01*
X159094354Y-100514706D01*
X159094353Y-100514703D01*
X159093080Y-100505813D01*
X159089151Y-100497172D01*
X159036508Y-100381390D01*
X159036507Y-100381388D01*
X159032792Y-100373218D01*
X158937713Y-100262873D01*
X158815485Y-100183648D01*
X158675934Y-100141914D01*
X158666958Y-100141859D01*
X158666957Y-100141859D01*
X158605644Y-100141485D01*
X158530279Y-100141024D01*
X158390229Y-100181051D01*
X158382642Y-100185838D01*
X158382640Y-100185839D01*
X158346392Y-100208710D01*
X158267042Y-100258776D01*
X158183908Y-100352908D01*
X158123823Y-100390726D01*
X158089467Y-100395500D01*
X157977483Y-100395500D01*
X157952900Y-100393079D01*
X157952176Y-100392935D01*
X157952175Y-100392935D01*
X157940005Y-100390514D01*
X157927833Y-100392935D01*
X157927832Y-100392935D01*
X157914941Y-100395499D01*
X157914935Y-100395500D01*
X157914933Y-100395500D01*
X157892506Y-100399961D01*
X157892370Y-100399988D01*
X157892369Y-100399988D01*
X157873802Y-100403681D01*
X157840703Y-100410264D01*
X157840700Y-100410266D01*
X157840699Y-100410266D01*
X157830465Y-100417104D01*
X157830463Y-100417105D01*
X157819772Y-100424249D01*
X157777770Y-100452313D01*
X157777766Y-100452317D01*
X157756516Y-100466516D01*
X157749215Y-100477443D01*
X157733546Y-100496535D01*
X157709332Y-100520748D01*
X157690245Y-100536413D01*
X157679304Y-100543724D01*
X157672410Y-100554042D01*
X157672247Y-100554205D01*
X157666625Y-100561898D01*
X157650816Y-100581724D01*
X157602402Y-100642438D01*
X157599333Y-100648811D01*
X157599332Y-100648813D01*
X157573875Y-100701681D01*
X157548187Y-100755030D01*
X157546614Y-100761925D01*
X157546613Y-100761927D01*
X157521962Y-100869965D01*
X157520388Y-100876864D01*
X157520394Y-100940916D01*
X157520398Y-100993484D01*
X157500402Y-101061607D01*
X157446750Y-101108104D01*
X157376477Y-101118214D01*
X157311894Y-101088727D01*
X157305303Y-101082590D01*
X157060115Y-100837402D01*
X157044445Y-100818310D01*
X157044030Y-100817689D01*
X157037139Y-100807376D01*
X157026825Y-100800484D01*
X157026778Y-100800437D01*
X157018463Y-100794360D01*
X156943941Y-100734931D01*
X156943940Y-100734930D01*
X156938402Y-100730514D01*
X156825821Y-100676298D01*
X156703999Y-100648493D01*
X156579045Y-100648493D01*
X156482893Y-100670439D01*
X156412031Y-100666097D01*
X156354765Y-100624132D01*
X156329276Y-100557869D01*
X156332017Y-100519555D01*
X156343083Y-100471085D01*
X156343087Y-100387950D01*
X156343089Y-100358840D01*
X156343089Y-100351767D01*
X156316543Y-100235439D01*
X156287374Y-100174862D01*
X156267848Y-100134310D01*
X156267847Y-100134308D01*
X156264778Y-100127935D01*
X156252589Y-100112649D01*
X156220232Y-100072070D01*
X156193400Y-100006339D01*
X156206365Y-99936536D01*
X156255010Y-99884824D01*
X156285602Y-99871953D01*
X156300680Y-99867842D01*
X156315364Y-99863839D01*
X156315367Y-99863838D01*
X156324026Y-99861477D01*
X156356276Y-99841676D01*
X156391259Y-99820196D01*
X156448154Y-99785263D01*
X156473110Y-99757693D01*
X156539873Y-99683934D01*
X156539874Y-99683933D01*
X156545901Y-99677274D01*
X156550623Y-99667529D01*
X156605495Y-99554272D01*
X156605495Y-99554271D01*
X156609410Y-99546191D01*
X156633576Y-99402552D01*
X156633729Y-99390000D01*
X156623631Y-99319486D01*
X156614354Y-99254706D01*
X156614353Y-99254703D01*
X156613080Y-99245813D01*
X156598472Y-99213684D01*
X156556508Y-99121390D01*
X156556507Y-99121388D01*
X156552792Y-99113218D01*
X156457713Y-99002873D01*
X156335485Y-98923648D01*
X156195934Y-98881914D01*
X156186958Y-98881859D01*
X156186957Y-98881859D01*
X156125644Y-98881485D01*
X156050279Y-98881024D01*
X155910229Y-98921051D01*
X155902642Y-98925838D01*
X155902640Y-98925839D01*
X155863821Y-98950332D01*
X155787042Y-98998776D01*
X155781100Y-99005504D01*
X155779835Y-99006936D01*
X155690622Y-99107951D01*
X155686808Y-99116074D01*
X155686807Y-99116076D01*
X155656295Y-99181064D01*
X155609238Y-99234226D01*
X155540910Y-99253508D01*
X155473004Y-99232788D01*
X155436664Y-99195682D01*
X155434907Y-99192034D01*
X155370935Y-99111807D01*
X155364689Y-99103261D01*
X155358037Y-99093304D01*
X155358030Y-99093299D01*
X155358027Y-99093295D01*
X155347090Y-99085987D01*
X155327997Y-99070317D01*
X155164865Y-98907184D01*
X155130840Y-98844872D01*
X155135905Y-98774056D01*
X155178452Y-98717221D01*
X155244973Y-98692410D01*
X155253961Y-98692089D01*
X155370626Y-98692089D01*
X155492447Y-98664284D01*
X155563486Y-98630074D01*
X155633539Y-98618540D01*
X155655726Y-98623329D01*
X155658687Y-98624254D01*
X155667864Y-98627121D01*
X155813498Y-98629790D01*
X155923498Y-98599800D01*
X155945363Y-98593839D01*
X155945364Y-98593839D01*
X155954026Y-98591477D01*
X155967701Y-98583081D01*
X156048896Y-98533227D01*
X156078154Y-98515263D01*
X156087571Y-98504860D01*
X156097651Y-98493724D01*
X161586309Y-98493724D01*
X161587473Y-98502626D01*
X161587473Y-98502629D01*
X161596821Y-98574114D01*
X161605195Y-98638152D01*
X161608809Y-98646365D01*
X161608810Y-98646369D01*
X161643883Y-98726076D01*
X161663859Y-98771474D01*
X161669634Y-98778344D01*
X161669635Y-98778346D01*
X161724591Y-98843724D01*
X161757583Y-98882973D01*
X161765060Y-98887950D01*
X161871361Y-98958710D01*
X161871363Y-98958711D01*
X161878834Y-98963684D01*
X161887401Y-98966361D01*
X161887402Y-98966361D01*
X161900346Y-98970405D01*
X162017864Y-99007121D01*
X162163498Y-99009790D01*
X162279521Y-98978158D01*
X162295363Y-98973839D01*
X162295364Y-98973839D01*
X162304026Y-98971477D01*
X162312359Y-98966361D01*
X162373974Y-98928529D01*
X162428154Y-98895263D01*
X162434774Y-98887950D01*
X162519873Y-98793934D01*
X162519874Y-98793933D01*
X162525901Y-98787274D01*
X162532419Y-98773822D01*
X162585495Y-98664272D01*
X162585495Y-98664271D01*
X162589410Y-98656191D01*
X162607161Y-98550680D01*
X162612770Y-98517344D01*
X162612770Y-98517341D01*
X162613576Y-98512552D01*
X162613729Y-98500000D01*
X162604197Y-98433437D01*
X162594354Y-98364706D01*
X162594353Y-98364703D01*
X162593080Y-98355813D01*
X162588247Y-98345183D01*
X162536508Y-98231390D01*
X162536507Y-98231388D01*
X162532792Y-98223218D01*
X162437713Y-98112873D01*
X162315485Y-98033648D01*
X162175934Y-97991914D01*
X162166958Y-97991859D01*
X162166957Y-97991859D01*
X162105644Y-97991485D01*
X162030279Y-97991024D01*
X161890229Y-98031051D01*
X161882642Y-98035838D01*
X161882640Y-98035839D01*
X161816377Y-98077648D01*
X161767042Y-98108776D01*
X161670622Y-98217951D01*
X161666808Y-98226074D01*
X161666807Y-98226076D01*
X161612533Y-98341676D01*
X161608719Y-98349800D01*
X161607339Y-98358665D01*
X161607338Y-98358667D01*
X161588940Y-98476829D01*
X161586309Y-98493724D01*
X156097651Y-98493724D01*
X156169873Y-98413934D01*
X156169874Y-98413933D01*
X156175901Y-98407274D01*
X156181185Y-98396369D01*
X156235495Y-98284272D01*
X156235495Y-98284271D01*
X156239410Y-98276191D01*
X156263576Y-98132552D01*
X156263729Y-98120000D01*
X156251970Y-98037889D01*
X156244354Y-97984706D01*
X156244353Y-97984703D01*
X156243080Y-97975813D01*
X156238393Y-97965504D01*
X156186508Y-97851390D01*
X156186507Y-97851388D01*
X156182792Y-97843218D01*
X156087713Y-97732873D01*
X155965485Y-97653648D01*
X155825934Y-97611914D01*
X155816958Y-97611859D01*
X155816957Y-97611859D01*
X155755644Y-97611485D01*
X155680279Y-97611024D01*
X155540229Y-97651051D01*
X155532642Y-97655838D01*
X155532640Y-97655839D01*
X155475010Y-97692201D01*
X155417042Y-97728776D01*
X155320622Y-97837951D01*
X155316807Y-97846076D01*
X155316806Y-97846078D01*
X155268224Y-97949555D01*
X155221168Y-98002718D01*
X155152840Y-98022000D01*
X155099500Y-98009529D01*
X155047955Y-97984706D01*
X154989652Y-97956629D01*
X154867830Y-97928824D01*
X154742876Y-97928824D01*
X154621054Y-97956629D01*
X154614675Y-97959701D01*
X154514853Y-98007772D01*
X154514849Y-98007774D01*
X154508473Y-98010845D01*
X154473922Y-98038399D01*
X154428415Y-98074690D01*
X154420136Y-98080741D01*
X154420082Y-98080795D01*
X154409735Y-98087709D01*
X154409723Y-98087727D01*
X154409705Y-98087739D01*
X154402789Y-98098093D01*
X154402657Y-98098225D01*
X154396921Y-98106076D01*
X154355862Y-98157579D01*
X154332837Y-98186460D01*
X154320915Y-98211223D01*
X154281707Y-98292664D01*
X154281705Y-98292668D01*
X154278638Y-98299040D01*
X154277064Y-98305940D01*
X154277063Y-98305942D01*
X154252425Y-98413934D01*
X154250845Y-98420858D01*
X154250845Y-98427937D01*
X154250848Y-98467763D01*
X154250852Y-98545805D01*
X154278659Y-98667619D01*
X154332871Y-98780194D01*
X154356932Y-98810368D01*
X154396709Y-98860251D01*
X154402783Y-98868563D01*
X154402832Y-98868612D01*
X154409725Y-98878930D01*
X154420043Y-98885825D01*
X154420667Y-98886242D01*
X154439756Y-98901909D01*
X154602899Y-99065053D01*
X154636924Y-99127365D01*
X154631859Y-99198181D01*
X154589312Y-99255016D01*
X154522791Y-99279827D01*
X154513803Y-99280148D01*
X154397140Y-99280148D01*
X154275319Y-99307953D01*
X154162739Y-99362168D01*
X154157206Y-99366580D01*
X154157205Y-99366581D01*
X154082671Y-99426020D01*
X154074361Y-99432093D01*
X154074315Y-99432139D01*
X154064001Y-99439031D01*
X154057110Y-99449344D01*
X154056695Y-99449965D01*
X154041025Y-99469058D01*
X153846539Y-99663543D01*
X153827447Y-99679212D01*
X153816516Y-99686516D01*
X153802319Y-99707763D01*
X153802316Y-99707766D01*
X153773685Y-99750616D01*
X153760266Y-99770699D01*
X153757845Y-99782872D01*
X153753195Y-99806252D01*
X153751153Y-99816516D01*
X153740514Y-99870000D01*
X153742935Y-99882170D01*
X153743079Y-99882894D01*
X153745500Y-99907476D01*
X153745500Y-100441498D01*
X153743083Y-100466057D01*
X153740514Y-100478985D01*
X153743236Y-100492656D01*
X153743374Y-100493350D01*
X153745003Y-100503820D01*
X153746779Y-100519555D01*
X153755088Y-100593198D01*
X153793067Y-100701681D01*
X153854232Y-100798994D01*
X153935518Y-100880257D01*
X154010631Y-100927440D01*
X154011198Y-100927796D01*
X154058242Y-100980969D01*
X154069071Y-101051135D01*
X154040246Y-101116017D01*
X154011203Y-101141184D01*
X153941528Y-101184956D01*
X153941526Y-101184958D01*
X153935534Y-101188722D01*
X153930532Y-101193724D01*
X153930529Y-101193726D01*
X153865856Y-101258393D01*
X153854259Y-101269989D01*
X153793106Y-101367304D01*
X153755143Y-101475788D01*
X153753148Y-101493491D01*
X153752532Y-101498960D01*
X153725028Y-101564413D01*
X153694561Y-101591413D01*
X153667042Y-101608776D01*
X153661102Y-101615502D01*
X153661096Y-101615507D01*
X153594172Y-101691285D01*
X153534087Y-101729104D01*
X153463093Y-101728434D01*
X153404278Y-101690125D01*
X153343578Y-101619678D01*
X153343572Y-101619673D01*
X153337713Y-101612873D01*
X153215485Y-101533648D01*
X153075934Y-101491914D01*
X153066958Y-101491859D01*
X153066957Y-101491859D01*
X153010159Y-101491512D01*
X152930279Y-101491024D01*
X152922934Y-101493123D01*
X152853391Y-101482651D01*
X152817402Y-101457484D01*
X152786460Y-101426542D01*
X152770790Y-101407450D01*
X152770375Y-101406829D01*
X152763484Y-101396516D01*
X152742237Y-101382319D01*
X152742234Y-101382316D01*
X152679301Y-101340266D01*
X152667132Y-101337846D01*
X152667131Y-101337845D01*
X152592171Y-101322935D01*
X152580000Y-101320514D01*
X152567103Y-101323079D01*
X152542524Y-101325500D01*
X152365503Y-101325500D01*
X152297382Y-101305498D01*
X152276408Y-101288595D01*
X151494991Y-100507178D01*
X151460965Y-100444866D01*
X151466030Y-100374051D01*
X151508577Y-100317215D01*
X151569967Y-100292877D01*
X151583020Y-100291405D01*
X151648615Y-100284008D01*
X151766547Y-100242731D01*
X151856667Y-100186097D01*
X151866347Y-100180014D01*
X151866348Y-100180014D01*
X151872338Y-100176249D01*
X151877339Y-100171247D01*
X151877342Y-100171245D01*
X151955684Y-100092895D01*
X151955686Y-100092893D01*
X151960684Y-100087894D01*
X152027156Y-99982097D01*
X152068420Y-99864161D01*
X152077249Y-99785793D01*
X152079846Y-99762748D01*
X152081475Y-99752274D01*
X152081495Y-99752173D01*
X152081495Y-99752170D01*
X152083916Y-99740000D01*
X152081495Y-99727827D01*
X152081495Y-99727756D01*
X152079917Y-99717611D01*
X152069242Y-99622862D01*
X152068450Y-99615832D01*
X152027183Y-99497890D01*
X151998089Y-99451584D01*
X151978786Y-99383262D01*
X151999484Y-99315350D01*
X152053613Y-99269409D01*
X152107088Y-99258573D01*
X152115320Y-99258724D01*
X152173498Y-99259790D01*
X152269432Y-99233635D01*
X152305363Y-99223839D01*
X152305364Y-99223839D01*
X152314026Y-99221477D01*
X152326719Y-99213684D01*
X152379846Y-99181064D01*
X152438154Y-99145263D01*
X152449279Y-99132973D01*
X152529873Y-99043934D01*
X152529874Y-99043933D01*
X152535901Y-99037274D01*
X152548063Y-99012173D01*
X152595495Y-98914272D01*
X152595495Y-98914271D01*
X152599410Y-98906191D01*
X152619417Y-98787274D01*
X152622770Y-98767344D01*
X152622770Y-98767341D01*
X152623576Y-98762552D01*
X152623729Y-98750000D01*
X152615210Y-98690514D01*
X152604354Y-98614706D01*
X152604353Y-98614703D01*
X152603080Y-98605813D01*
X152599362Y-98597635D01*
X152546508Y-98481390D01*
X152546507Y-98481388D01*
X152542792Y-98473218D01*
X152447713Y-98362873D01*
X152325485Y-98283648D01*
X152185934Y-98241914D01*
X152176958Y-98241859D01*
X152176957Y-98241859D01*
X152115644Y-98241485D01*
X152040279Y-98241024D01*
X151900229Y-98281051D01*
X151892642Y-98285838D01*
X151892640Y-98285839D01*
X151860779Y-98305942D01*
X151777042Y-98358776D01*
X151680622Y-98467951D01*
X151676808Y-98476074D01*
X151676807Y-98476076D01*
X151622533Y-98591676D01*
X151618719Y-98599800D01*
X151617339Y-98608665D01*
X151617338Y-98608667D01*
X151599057Y-98726076D01*
X151596309Y-98743724D01*
X151597473Y-98752626D01*
X151597473Y-98752629D01*
X151605655Y-98815195D01*
X151615195Y-98888152D01*
X151665675Y-99002873D01*
X151667399Y-99006792D01*
X151676527Y-99077199D01*
X151646140Y-99141365D01*
X151585887Y-99178916D01*
X151549035Y-99180304D01*
X151549035Y-99182938D01*
X151536629Y-99182937D01*
X151524456Y-99180514D01*
X151512283Y-99182934D01*
X151512282Y-99182934D01*
X151511540Y-99183081D01*
X151486971Y-99185500D01*
X151242872Y-99185500D01*
X151174751Y-99165498D01*
X151128258Y-99111842D01*
X151118154Y-99041568D01*
X151147648Y-98976988D01*
X151153777Y-98970405D01*
X151236269Y-98887913D01*
X151240039Y-98881914D01*
X151298984Y-98788103D01*
X151302749Y-98782111D01*
X151344019Y-98664169D01*
X151345616Y-98650000D01*
X151355486Y-98562391D01*
X151357064Y-98552241D01*
X151357064Y-98552175D01*
X151359486Y-98540000D01*
X151356921Y-98527103D01*
X151354500Y-98502524D01*
X151354500Y-98357608D01*
X151374502Y-98289487D01*
X151391405Y-98268513D01*
X152518513Y-97141405D01*
X152580825Y-97107379D01*
X152607608Y-97104500D01*
X155240903Y-97104500D01*
X155309024Y-97124502D01*
X155337354Y-97149425D01*
X155407583Y-97232973D01*
X155415060Y-97237950D01*
X155521361Y-97308710D01*
X155521363Y-97308711D01*
X155528834Y-97313684D01*
X155667864Y-97357121D01*
X155813498Y-97359790D01*
X155883762Y-97340633D01*
X155945363Y-97323839D01*
X155945364Y-97323839D01*
X155954026Y-97321477D01*
X155962359Y-97316361D01*
X156016090Y-97283370D01*
X156078154Y-97245263D01*
X156084774Y-97237950D01*
X156169873Y-97143934D01*
X156169874Y-97143933D01*
X156175901Y-97137274D01*
X156222149Y-97041819D01*
X156235495Y-97014272D01*
X156235495Y-97014271D01*
X156239410Y-97006191D01*
X156258464Y-96892935D01*
X156262770Y-96867344D01*
X156262770Y-96867341D01*
X156263576Y-96862552D01*
X156263729Y-96850000D01*
X156255134Y-96789985D01*
X156244354Y-96714706D01*
X156244353Y-96714703D01*
X156243080Y-96705813D01*
X156238865Y-96696542D01*
X156186508Y-96581390D01*
X156186507Y-96581388D01*
X156182792Y-96573218D01*
X156087713Y-96462873D01*
X155965485Y-96383648D01*
X155825934Y-96341914D01*
X155816958Y-96341859D01*
X155816957Y-96341859D01*
X155755644Y-96341485D01*
X155680279Y-96341024D01*
X155540229Y-96381051D01*
X155532642Y-96385838D01*
X155532640Y-96385839D01*
X155528377Y-96388529D01*
X155417042Y-96458776D01*
X155333908Y-96552908D01*
X155273823Y-96590726D01*
X155239467Y-96595500D01*
X152487471Y-96595500D01*
X152462891Y-96593079D01*
X152462172Y-96592936D01*
X152450000Y-96590515D01*
X152437828Y-96592936D01*
X152424942Y-96595499D01*
X152424934Y-96595500D01*
X152424931Y-96595500D01*
X152424926Y-96595501D01*
X152362869Y-96607845D01*
X152362868Y-96607845D01*
X152350699Y-96610266D01*
X152287766Y-96652316D01*
X152287763Y-96652319D01*
X152266516Y-96666516D01*
X152259625Y-96676829D01*
X152259210Y-96677450D01*
X152243540Y-96696542D01*
X151189095Y-97750987D01*
X151126783Y-97785013D01*
X151055968Y-97779948D01*
X151010905Y-97750987D01*
X150256460Y-96996542D01*
X150240790Y-96977450D01*
X150240375Y-96976829D01*
X150233484Y-96966516D01*
X150212237Y-96952319D01*
X150212234Y-96952316D01*
X150149301Y-96910266D01*
X150137132Y-96907846D01*
X150137131Y-96907845D01*
X150062171Y-96892935D01*
X150050000Y-96890514D01*
X150037103Y-96893079D01*
X150012524Y-96895500D01*
X149809745Y-96895500D01*
X149741624Y-96875498D01*
X149714291Y-96851747D01*
X149637713Y-96762873D01*
X149515485Y-96683648D01*
X149375934Y-96641914D01*
X149366958Y-96641859D01*
X149366957Y-96641859D01*
X149305644Y-96641485D01*
X149230279Y-96641024D01*
X149090229Y-96681051D01*
X149082642Y-96685838D01*
X149082640Y-96685839D01*
X149050983Y-96705813D01*
X148967042Y-96758776D01*
X148961100Y-96765504D01*
X148930066Y-96800643D01*
X148870622Y-96867951D01*
X148866808Y-96876074D01*
X148866807Y-96876076D01*
X148814370Y-96987763D01*
X148808719Y-96999800D01*
X148807339Y-97008665D01*
X148807338Y-97008667D01*
X148805463Y-97020714D01*
X148786309Y-97143724D01*
X146783642Y-97143724D01*
X146636460Y-96996542D01*
X146620790Y-96977450D01*
X146620375Y-96976829D01*
X146613484Y-96966516D01*
X146592237Y-96952319D01*
X146592234Y-96952316D01*
X146529301Y-96910266D01*
X146517132Y-96907846D01*
X146517131Y-96907845D01*
X146442171Y-96892935D01*
X146430000Y-96890514D01*
X146417103Y-96893079D01*
X146392524Y-96895500D01*
X144407471Y-96895500D01*
X144382891Y-96893079D01*
X144382172Y-96892936D01*
X144370000Y-96890515D01*
X144357828Y-96892936D01*
X144344942Y-96895499D01*
X144344934Y-96895500D01*
X144344931Y-96895500D01*
X144344926Y-96895501D01*
X144282869Y-96907845D01*
X144282868Y-96907845D01*
X144270699Y-96910266D01*
X144207768Y-96952316D01*
X144186516Y-96966516D01*
X144179622Y-96976834D01*
X144179210Y-96977450D01*
X144163540Y-96996543D01*
X143596539Y-97563543D01*
X143577447Y-97579212D01*
X143566516Y-97586516D01*
X143552319Y-97607763D01*
X143552316Y-97607766D01*
X143510266Y-97670699D01*
X143507846Y-97682868D01*
X143507845Y-97682869D01*
X143498714Y-97728776D01*
X143490514Y-97770000D01*
X143492935Y-97782170D01*
X143493079Y-97782894D01*
X143495500Y-97807476D01*
X143495500Y-98489789D01*
X143475498Y-98557910D01*
X143436736Y-98596350D01*
X143417042Y-98608776D01*
X143411100Y-98615504D01*
X143391873Y-98637274D01*
X143320622Y-98717951D01*
X143316808Y-98726074D01*
X143316807Y-98726076D01*
X143265433Y-98835500D01*
X143258719Y-98849800D01*
X143257339Y-98858665D01*
X143257338Y-98858667D01*
X143237803Y-98984130D01*
X143236309Y-98993724D01*
X143237473Y-99002626D01*
X143237473Y-99002629D01*
X143247472Y-99079094D01*
X143255195Y-99138152D01*
X143258809Y-99146365D01*
X143258810Y-99146369D01*
X143285003Y-99205895D01*
X143313859Y-99271474D01*
X143319634Y-99278344D01*
X143319635Y-99278346D01*
X143401803Y-99376097D01*
X143407583Y-99382973D01*
X143424514Y-99394243D01*
X143470136Y-99448639D01*
X143479108Y-99519067D01*
X143448579Y-99583164D01*
X143431202Y-99597854D01*
X143431470Y-99598168D01*
X143424634Y-99603986D01*
X143417042Y-99608776D01*
X143320622Y-99717951D01*
X143316808Y-99726074D01*
X143316807Y-99726076D01*
X143264611Y-99837251D01*
X143258719Y-99849800D01*
X143257339Y-99858665D01*
X143257338Y-99858667D01*
X143239160Y-99975417D01*
X143236309Y-99993724D01*
X141847001Y-99993724D01*
X141885495Y-99914272D01*
X141885495Y-99914271D01*
X141889410Y-99906191D01*
X141911339Y-99775848D01*
X141912770Y-99767344D01*
X141912770Y-99767341D01*
X141913576Y-99762552D01*
X141913729Y-99750000D01*
X141913039Y-99745179D01*
X141894354Y-99614706D01*
X141894353Y-99614703D01*
X141893080Y-99605813D01*
X141888154Y-99594979D01*
X141836508Y-99481390D01*
X141836507Y-99481388D01*
X141832792Y-99473218D01*
X141737713Y-99362873D01*
X141730179Y-99357990D01*
X141730176Y-99357987D01*
X141647844Y-99304622D01*
X141601560Y-99250786D01*
X141591729Y-99180473D01*
X141611609Y-99128891D01*
X141628857Y-99103076D01*
X141628860Y-99103071D01*
X141632298Y-99097925D01*
X141636185Y-99088542D01*
X141644029Y-99069603D01*
X141645779Y-99065378D01*
X141648149Y-99059656D01*
X141651277Y-99043934D01*
X141657594Y-99012173D01*
X141660015Y-99000002D01*
X141657594Y-98987830D01*
X141657594Y-98984130D01*
X141655895Y-98966880D01*
X141655895Y-98038699D01*
X141656112Y-98031302D01*
X141656521Y-98024340D01*
X141659653Y-98012331D01*
X141657045Y-97993491D01*
X141652159Y-97958209D01*
X141652159Y-97958207D01*
X141651310Y-97952079D01*
X141647283Y-97940472D01*
X141647620Y-97940355D01*
X141644919Y-97934862D01*
X141644033Y-97930406D01*
X141642538Y-97926796D01*
X141637731Y-97912942D01*
X141634867Y-97908057D01*
X141634834Y-97907952D01*
X141633008Y-97904692D01*
X141632545Y-97903825D01*
X141632953Y-97903656D01*
X141632302Y-97902084D01*
X141626709Y-97893712D01*
X141622785Y-97887449D01*
X141619050Y-97881077D01*
X141607970Y-97862179D01*
X141590773Y-97793296D01*
X141611902Y-97728451D01*
X141628854Y-97703081D01*
X141632296Y-97697930D01*
X141634666Y-97692208D01*
X141634670Y-97692201D01*
X141636488Y-97687812D01*
X141639514Y-97681073D01*
X141641602Y-97676767D01*
X141641606Y-97676756D01*
X141644306Y-97671187D01*
X141659653Y-97612331D01*
X141657507Y-97596829D01*
X141657086Y-97593792D01*
X141655895Y-97576510D01*
X141655895Y-97033125D01*
X141657594Y-97015873D01*
X141657594Y-97012173D01*
X141660015Y-97000002D01*
X141648149Y-96940343D01*
X141644029Y-96930396D01*
X141632298Y-96902074D01*
X141628860Y-96896929D01*
X141628857Y-96896923D01*
X141605395Y-96861811D01*
X141598502Y-96851495D01*
X141547926Y-96817702D01*
X141509657Y-96801851D01*
X141450002Y-96789985D01*
X141437830Y-96792406D01*
X141434130Y-96792406D01*
X141416880Y-96794105D01*
X140583125Y-96794105D01*
X140565873Y-96792406D01*
X140562173Y-96792406D01*
X140550002Y-96789985D01*
X140490343Y-96801851D01*
X140480396Y-96805971D01*
X140452074Y-96817702D01*
X140446926Y-96821142D01*
X140443585Y-96822928D01*
X140374079Y-96837400D01*
X140307782Y-96811997D01*
X140265744Y-96754784D01*
X140260674Y-96736711D01*
X140254921Y-96708181D01*
X140253223Y-96699759D01*
X140187560Y-96570888D01*
X140131783Y-96510230D01*
X140095478Y-96470749D01*
X140089660Y-96464422D01*
X140082358Y-96459894D01*
X140082356Y-96459893D01*
X139974035Y-96392731D01*
X139974034Y-96392730D01*
X139966735Y-96388205D01*
X139827842Y-96347853D01*
X139817587Y-96347100D01*
X139713769Y-96347100D01*
X139709523Y-96347682D01*
X139709517Y-96347682D01*
X139635139Y-96357871D01*
X139606703Y-96361766D01*
X139598819Y-96365178D01*
X139598818Y-96365178D01*
X139481847Y-96415796D01*
X139481845Y-96415797D01*
X139473963Y-96419208D01*
X139467285Y-96424616D01*
X139377845Y-96497043D01*
X139361560Y-96510230D01*
X139356584Y-96517232D01*
X139356582Y-96517234D01*
X139282751Y-96621125D01*
X139277775Y-96628127D01*
X139228781Y-96764212D01*
X139228152Y-96772772D01*
X139228152Y-96772774D01*
X139226017Y-96801851D01*
X139218188Y-96908459D01*
X132650610Y-96908459D01*
X132650610Y-96497043D01*
X130889390Y-96497043D01*
X130889390Y-100539614D01*
X130869388Y-100607735D01*
X130815732Y-100654228D01*
X130763390Y-100665614D01*
X129529390Y-100665614D01*
X129529390Y-102493280D01*
X129509388Y-102561401D01*
X129455732Y-102607894D01*
X129385458Y-102617998D01*
X129320878Y-102588504D01*
X129282516Y-102528855D01*
X129232696Y-102359580D01*
X129230956Y-102353668D01*
X129135292Y-102170681D01*
X129005909Y-102009760D01*
X128847732Y-101877034D01*
X128842337Y-101874068D01*
X128842331Y-101874064D01*
X128689506Y-101790048D01*
X128666789Y-101777559D01*
X128469970Y-101715125D01*
X128463853Y-101714439D01*
X128463849Y-101714438D01*
X128388018Y-101705932D01*
X128309276Y-101697100D01*
X128198036Y-101697100D01*
X128044501Y-101712154D01*
X127846829Y-101771835D01*
X127769710Y-101812840D01*
X127669957Y-101865879D01*
X127669954Y-101865881D01*
X127664515Y-101868773D01*
X127659745Y-101872663D01*
X127659741Y-101872666D01*
X127509276Y-101995383D01*
X127509273Y-101995386D01*
X127504501Y-101999278D01*
X127500573Y-102004026D01*
X127500572Y-102004027D01*
X127455683Y-102058288D01*
X127372882Y-102158377D01*
X127274673Y-102340010D01*
X127213614Y-102537261D01*
X127212970Y-102543386D01*
X127212970Y-102543387D01*
X127194595Y-102718222D01*
X127192031Y-102742614D01*
X127198013Y-102808344D01*
X127202167Y-102853986D01*
X127210745Y-102948248D01*
X127212483Y-102954154D01*
X127212484Y-102954158D01*
X127224652Y-102995500D01*
X127269044Y-103146332D01*
X127364708Y-103329319D01*
X127494091Y-103490240D01*
X127652268Y-103622966D01*
X127657663Y-103625932D01*
X127657669Y-103625936D01*
X127763928Y-103684352D01*
X127833211Y-103722441D01*
X128030030Y-103784875D01*
X128036147Y-103785561D01*
X128036151Y-103785562D01*
X128111982Y-103794068D01*
X128190724Y-103802900D01*
X128301964Y-103802900D01*
X128455499Y-103787846D01*
X128653171Y-103728165D01*
X128767933Y-103667145D01*
X128830043Y-103634121D01*
X128830046Y-103634119D01*
X128835485Y-103631227D01*
X128840255Y-103627337D01*
X128840259Y-103627334D01*
X128990724Y-103504617D01*
X128990727Y-103504614D01*
X128995499Y-103500722D01*
X129000896Y-103494199D01*
X129123189Y-103346372D01*
X129127118Y-103341623D01*
X129225327Y-103159990D01*
X129275384Y-102998281D01*
X129283025Y-102973597D01*
X129322276Y-102914437D01*
X129387281Y-102885890D01*
X129457400Y-102897019D01*
X129510371Y-102944290D01*
X129529390Y-103010856D01*
X129529390Y-106993280D01*
X129509388Y-107061401D01*
X129455732Y-107107894D01*
X129385458Y-107117998D01*
X129320878Y-107088504D01*
X129282516Y-107028855D01*
X129272177Y-106993724D01*
X129230956Y-106853668D01*
X129135292Y-106670681D01*
X129005909Y-106509760D01*
X128847732Y-106377034D01*
X128842337Y-106374068D01*
X128842331Y-106374064D01*
X128684460Y-106287274D01*
X128666789Y-106277559D01*
X128510507Y-106227984D01*
X128475843Y-106216988D01*
X128469970Y-106215125D01*
X128463853Y-106214439D01*
X128463849Y-106214438D01*
X128388018Y-106205932D01*
X128309276Y-106197100D01*
X128198036Y-106197100D01*
X128044501Y-106212154D01*
X127846829Y-106271835D01*
X127763088Y-106316361D01*
X127669957Y-106365879D01*
X127669954Y-106365881D01*
X127664515Y-106368773D01*
X127659745Y-106372663D01*
X127659741Y-106372666D01*
X127509276Y-106495383D01*
X127509273Y-106495386D01*
X127504501Y-106499278D01*
X127500573Y-106504026D01*
X127500572Y-106504027D01*
X127470571Y-106540292D01*
X127372882Y-106658377D01*
X127274673Y-106840010D01*
X127213614Y-107037261D01*
X127212970Y-107043386D01*
X127212970Y-107043387D01*
X127201994Y-107147825D01*
X127192031Y-107242614D01*
X126152900Y-107242614D01*
X126152900Y-95778900D01*
X126172902Y-95710779D01*
X126226558Y-95664286D01*
X126278900Y-95652900D01*
X170721100Y-95652900D01*
X170789221Y-95672902D01*
G37*
%TD.AperFunction*%
%TD*%
M02*
