%TF.GenerationSoftware,KiCad,Pcbnew,(6.0.7)*%
%TF.CreationDate,2022-08-11T09:50:47+02:00*%
%TF.ProjectId,cowstick-rp,636f7773-7469-4636-9b2d-72702e6b6963,1*%
%TF.SameCoordinates,Original*%
%TF.FileFunction,Paste,Top*%
%TF.FilePolarity,Positive*%
%FSLAX46Y46*%
G04 Gerber Fmt 4.6, Leading zero omitted, Abs format (unit mm)*
G04 Created by KiCad (PCBNEW (6.0.7)) date 2022-08-11 09:50:47*
%MOMM*%
%LPD*%
G01*
G04 APERTURE LIST*
G04 Aperture macros list*
%AMRotRect*
0 Rectangle, with rotation*
0 The origin of the aperture is its center*
0 $1 length*
0 $2 width*
0 $3 Rotation angle, in degrees counterclockwise*
0 Add horizontal line*
21,1,$1,$2,0,0,$3*%
G04 Aperture macros list end*
%ADD10R,1.143000X0.635000*%
%ADD11R,0.635000X1.143000*%
%ADD12R,1.043000X0.535000*%
%ADD13R,0.100000X0.775000*%
%ADD14R,0.775000X0.100000*%
%ADD15R,1.500000X1.500000*%
%ADD16R,0.900760X0.601040*%
%ADD17R,1.200000X1.000000*%
%ADD18R,1.297000X0.789000*%
%ADD19RotRect,1.200000X1.200000X45.000000*%
%ADD20R,0.889000X1.397000*%
%ADD21R,0.701040X1.000760*%
%ADD22R,1.600000X0.550000*%
%ADD23R,1.600000X1.200000*%
%ADD24R,1.397000X0.889000*%
%ADD25R,1.500000X1.200000*%
G04 APERTURE END LIST*
D10*
%TO.C,C15*%
X152000000Y-109738000D03*
X152000000Y-111262000D03*
%TD*%
D11*
%TO.C,C7*%
X142262000Y-107500000D03*
X140738000Y-107500000D03*
%TD*%
D12*
%TO.C,C2*%
X127750000Y-111238000D03*
X127750000Y-112762000D03*
%TD*%
D13*
%TO.C,U1*%
X151100000Y-101550000D03*
X150700000Y-101550000D03*
X150300000Y-101550000D03*
X149900000Y-101550000D03*
X149500000Y-101550000D03*
X149100000Y-101550000D03*
X148700000Y-101550000D03*
X148300000Y-101550000D03*
X147900000Y-101550000D03*
X147500000Y-101550000D03*
X147100000Y-101550000D03*
X146700000Y-101550000D03*
X146300000Y-101550000D03*
X145900000Y-101550000D03*
D14*
X145050000Y-102400000D03*
X145050000Y-102800000D03*
X145050000Y-103200000D03*
X145050000Y-103600000D03*
X145050000Y-104000000D03*
X145050000Y-104400000D03*
X145050000Y-104800000D03*
X145050000Y-105200000D03*
X145050000Y-105600000D03*
X145050000Y-106000000D03*
X145050000Y-106400000D03*
X145050000Y-106800000D03*
X145050000Y-107200000D03*
X145050000Y-107600000D03*
D13*
X145900000Y-108450000D03*
X146300000Y-108450000D03*
X146700000Y-108450000D03*
X147100000Y-108450000D03*
X147500000Y-108450000D03*
X147900000Y-108450000D03*
X148300000Y-108450000D03*
X148700000Y-108450000D03*
X149100000Y-108450000D03*
X149500000Y-108450000D03*
X149900000Y-108450000D03*
X150300000Y-108450000D03*
X150700000Y-108450000D03*
X151100000Y-108450000D03*
D14*
X151950000Y-107600000D03*
X151950000Y-107200000D03*
X151950000Y-106800000D03*
X151950000Y-106400000D03*
X151950000Y-106000000D03*
X151950000Y-105600000D03*
X151950000Y-105200000D03*
X151950000Y-104800000D03*
X151950000Y-104400000D03*
X151950000Y-104000000D03*
X151950000Y-103600000D03*
X151950000Y-103200000D03*
X151950000Y-102800000D03*
X151950000Y-102400000D03*
D15*
X149300000Y-104200000D03*
X147700000Y-105800000D03*
X147700000Y-104200000D03*
X149300000Y-105800000D03*
%TD*%
D11*
%TO.C,R7*%
X144668000Y-97220000D03*
X146192000Y-97220000D03*
%TD*%
%TO.C,C19*%
X134762000Y-97250000D03*
X133238000Y-97250000D03*
%TD*%
D10*
%TO.C,C14*%
X147500000Y-110238000D03*
X147500000Y-111762000D03*
%TD*%
D16*
%TO.C,U2*%
X131230000Y-111047500D03*
X131230000Y-112000000D03*
X131230000Y-112952500D03*
X133770000Y-112952500D03*
X133770000Y-111047500D03*
%TD*%
D10*
%TO.C,C11*%
X151100000Y-99512000D03*
X151100000Y-97988000D03*
%TD*%
%TO.C,R4*%
X149300000Y-99512000D03*
X149300000Y-97988000D03*
%TD*%
D11*
%TO.C,C13*%
X142262000Y-106000000D03*
X140738000Y-106000000D03*
%TD*%
D17*
%TO.C,SW1*%
X136950000Y-99100000D03*
X142550000Y-99100000D03*
X142550000Y-97400000D03*
X136950000Y-97400000D03*
%TD*%
D10*
%TO.C,R2*%
X133050000Y-101012000D03*
X133050000Y-99488000D03*
%TD*%
%TO.C,R5*%
X136650000Y-102762000D03*
X136650000Y-101238000D03*
%TD*%
D18*
%TO.C,C4*%
X141500000Y-112952500D03*
X141500000Y-111047500D03*
%TD*%
D19*
%TO.C,L1*%
X135690000Y-110840000D03*
X137810000Y-112960000D03*
%TD*%
D11*
%TO.C,C18*%
X161738000Y-97250000D03*
X163262000Y-97250000D03*
%TD*%
D20*
%TO.C,D2*%
X160452500Y-112500000D03*
X158547500Y-112500000D03*
%TD*%
D11*
%TO.C,C6*%
X154738000Y-108500000D03*
X156262000Y-108500000D03*
%TD*%
D21*
%TO.C,D1*%
X134952500Y-102730000D03*
X134000000Y-102730000D03*
X133047500Y-102730000D03*
X133047500Y-105270000D03*
X134000000Y-105270000D03*
X134952500Y-105270000D03*
%TD*%
D10*
%TO.C,R1*%
X135500000Y-106988000D03*
X135500000Y-108512000D03*
%TD*%
D11*
%TO.C,R6*%
X161262000Y-110750000D03*
X159738000Y-110750000D03*
%TD*%
%TO.C,L2*%
X162238000Y-112500000D03*
X163762000Y-112500000D03*
%TD*%
%TO.C,C17*%
X154738000Y-106750000D03*
X156262000Y-106750000D03*
%TD*%
D22*
%TO.C,U3*%
X153500000Y-96845000D03*
X153500000Y-98115000D03*
X153500000Y-99385000D03*
X153500000Y-100655000D03*
X160000000Y-100655000D03*
X160000000Y-99385000D03*
X160000000Y-98115000D03*
X160000000Y-96845000D03*
%TD*%
D10*
%TO.C,C12*%
X147500000Y-99512000D03*
X147500000Y-97988000D03*
%TD*%
%TO.C,C10*%
X138500000Y-105738000D03*
X138500000Y-107262000D03*
%TD*%
D11*
%TO.C,C9*%
X142488000Y-101250000D03*
X144012000Y-101250000D03*
%TD*%
D23*
%TO.C,P1*%
X130600000Y-108500000D03*
X130600000Y-106000000D03*
X130600000Y-104000000D03*
X130600000Y-101500000D03*
%TD*%
D10*
%TO.C,C5*%
X137000000Y-108512000D03*
X137000000Y-106988000D03*
%TD*%
%TO.C,C16*%
X154000000Y-109738000D03*
X154000000Y-111262000D03*
%TD*%
D11*
%TO.C,C8*%
X154738000Y-105000000D03*
X156262000Y-105000000D03*
%TD*%
D18*
%TO.C,C3*%
X139550000Y-112952500D03*
X139550000Y-111047500D03*
%TD*%
D24*
%TO.C,C20*%
X163750000Y-111032500D03*
X163750000Y-109127500D03*
%TD*%
D25*
%TO.C,X1*%
X141000000Y-102250000D03*
X138500000Y-102250000D03*
X138500000Y-104250000D03*
X141000000Y-104250000D03*
%TD*%
D18*
%TO.C,C1*%
X129500000Y-111047500D03*
X129500000Y-112952500D03*
%TD*%
D10*
%TO.C,R3*%
X134950000Y-101012000D03*
X134950000Y-99488000D03*
%TD*%
M02*
