%TF.GenerationSoftware,KiCad,Pcbnew,(6.0.7)*%
%TF.CreationDate,2022-08-11T09:50:48+02:00*%
%TF.ProjectId,cowstick-rp,636f7773-7469-4636-9b2d-72702e6b6963,1*%
%TF.SameCoordinates,Original*%
%TF.FileFunction,Legend,Top*%
%TF.FilePolarity,Positive*%
%FSLAX46Y46*%
G04 Gerber Fmt 4.6, Leading zero omitted, Abs format (unit mm)*
G04 Created by KiCad (PCBNEW (6.0.7)) date 2022-08-11 09:50:48*
%MOMM*%
%LPD*%
G01*
G04 APERTURE LIST*
%ADD10C,0.101600*%
%ADD11C,0.150000*%
%ADD12C,0.076200*%
%ADD13C,0.127000*%
%ADD14C,0.100000*%
%ADD15C,0.120000*%
%ADD16C,0.027940*%
G04 APERTURE END LIST*
D10*
%TO.C,C15*%
X150982142Y-110749857D02*
X151018428Y-110786142D01*
X151054714Y-110895000D01*
X151054714Y-110967571D01*
X151018428Y-111076428D01*
X150945857Y-111149000D01*
X150873285Y-111185285D01*
X150728142Y-111221571D01*
X150619285Y-111221571D01*
X150474142Y-111185285D01*
X150401571Y-111149000D01*
X150329000Y-111076428D01*
X150292714Y-110967571D01*
X150292714Y-110895000D01*
X150329000Y-110786142D01*
X150365285Y-110749857D01*
X151054714Y-110024142D02*
X151054714Y-110459571D01*
X151054714Y-110241857D02*
X150292714Y-110241857D01*
X150401571Y-110314428D01*
X150474142Y-110387000D01*
X150510428Y-110459571D01*
X150292714Y-109334714D02*
X150292714Y-109697571D01*
X150655571Y-109733857D01*
X150619285Y-109697571D01*
X150583000Y-109625000D01*
X150583000Y-109443571D01*
X150619285Y-109371000D01*
X150655571Y-109334714D01*
X150728142Y-109298428D01*
X150909571Y-109298428D01*
X150982142Y-109334714D01*
X151018428Y-109371000D01*
X151054714Y-109443571D01*
X151054714Y-109625000D01*
X151018428Y-109697571D01*
X150982142Y-109733857D01*
%TO.C,C7*%
X140733000Y-109092142D02*
X140696714Y-109128428D01*
X140587857Y-109164714D01*
X140515285Y-109164714D01*
X140406428Y-109128428D01*
X140333857Y-109055857D01*
X140297571Y-108983285D01*
X140261285Y-108838142D01*
X140261285Y-108729285D01*
X140297571Y-108584142D01*
X140333857Y-108511571D01*
X140406428Y-108439000D01*
X140515285Y-108402714D01*
X140587857Y-108402714D01*
X140696714Y-108439000D01*
X140733000Y-108475285D01*
X140987000Y-108402714D02*
X141495000Y-108402714D01*
X141168428Y-109164714D01*
%TO.C,J2*%
X166846000Y-96632714D02*
X166846000Y-97177000D01*
X166809714Y-97285857D01*
X166737142Y-97358428D01*
X166628285Y-97394714D01*
X166555714Y-97394714D01*
X167172571Y-96705285D02*
X167208857Y-96669000D01*
X167281428Y-96632714D01*
X167462857Y-96632714D01*
X167535428Y-96669000D01*
X167571714Y-96705285D01*
X167608000Y-96777857D01*
X167608000Y-96850428D01*
X167571714Y-96959285D01*
X167136285Y-97394714D01*
X167608000Y-97394714D01*
D11*
%TO.C,U1*%
X151192285Y-104419428D02*
X150575428Y-104419428D01*
X150502857Y-104455714D01*
X150466571Y-104492000D01*
X150430285Y-104564571D01*
X150430285Y-104709714D01*
X150466571Y-104782285D01*
X150502857Y-104818571D01*
X150575428Y-104854857D01*
X151192285Y-104854857D01*
X150430285Y-105616857D02*
X150430285Y-105181428D01*
X150430285Y-105399142D02*
X151192285Y-105399142D01*
X151083428Y-105326571D01*
X151010857Y-105254000D01*
X150974571Y-105181428D01*
D10*
%TO.C,C19*%
X131070142Y-97662142D02*
X131033857Y-97698428D01*
X130925000Y-97734714D01*
X130852428Y-97734714D01*
X130743571Y-97698428D01*
X130671000Y-97625857D01*
X130634714Y-97553285D01*
X130598428Y-97408142D01*
X130598428Y-97299285D01*
X130634714Y-97154142D01*
X130671000Y-97081571D01*
X130743571Y-97009000D01*
X130852428Y-96972714D01*
X130925000Y-96972714D01*
X131033857Y-97009000D01*
X131070142Y-97045285D01*
X131795857Y-97734714D02*
X131360428Y-97734714D01*
X131578142Y-97734714D02*
X131578142Y-96972714D01*
X131505571Y-97081571D01*
X131433000Y-97154142D01*
X131360428Y-97190428D01*
X132158714Y-97734714D02*
X132303857Y-97734714D01*
X132376428Y-97698428D01*
X132412714Y-97662142D01*
X132485285Y-97553285D01*
X132521571Y-97408142D01*
X132521571Y-97117857D01*
X132485285Y-97045285D01*
X132449000Y-97009000D01*
X132376428Y-96972714D01*
X132231285Y-96972714D01*
X132158714Y-97009000D01*
X132122428Y-97045285D01*
X132086142Y-97117857D01*
X132086142Y-97299285D01*
X132122428Y-97371857D01*
X132158714Y-97408142D01*
X132231285Y-97444428D01*
X132376428Y-97444428D01*
X132449000Y-97408142D01*
X132485285Y-97371857D01*
X132521571Y-97299285D01*
%TO.C,C14*%
X149022142Y-111489857D02*
X149058428Y-111526142D01*
X149094714Y-111635000D01*
X149094714Y-111707571D01*
X149058428Y-111816428D01*
X148985857Y-111889000D01*
X148913285Y-111925285D01*
X148768142Y-111961571D01*
X148659285Y-111961571D01*
X148514142Y-111925285D01*
X148441571Y-111889000D01*
X148369000Y-111816428D01*
X148332714Y-111707571D01*
X148332714Y-111635000D01*
X148369000Y-111526142D01*
X148405285Y-111489857D01*
X149094714Y-110764142D02*
X149094714Y-111199571D01*
X149094714Y-110981857D02*
X148332714Y-110981857D01*
X148441571Y-111054428D01*
X148514142Y-111127000D01*
X148550428Y-111199571D01*
X148586714Y-110111000D02*
X149094714Y-110111000D01*
X148296428Y-110292428D02*
X148840714Y-110473857D01*
X148840714Y-110002142D01*
D12*
%TO.C,U2*%
X130769428Y-109582714D02*
X130769428Y-110199571D01*
X130805714Y-110272142D01*
X130842000Y-110308428D01*
X130914571Y-110344714D01*
X131059714Y-110344714D01*
X131132285Y-110308428D01*
X131168571Y-110272142D01*
X131204857Y-110199571D01*
X131204857Y-109582714D01*
X131531428Y-109655285D02*
X131567714Y-109619000D01*
X131640285Y-109582714D01*
X131821714Y-109582714D01*
X131894285Y-109619000D01*
X131930571Y-109655285D01*
X131966857Y-109727857D01*
X131966857Y-109800428D01*
X131930571Y-109909285D01*
X131495142Y-110344714D01*
X131966857Y-110344714D01*
D10*
%TO.C,R4*%
X149173000Y-100864714D02*
X148919000Y-100501857D01*
X148737571Y-100864714D02*
X148737571Y-100102714D01*
X149027857Y-100102714D01*
X149100428Y-100139000D01*
X149136714Y-100175285D01*
X149173000Y-100247857D01*
X149173000Y-100356714D01*
X149136714Y-100429285D01*
X149100428Y-100465571D01*
X149027857Y-100501857D01*
X148737571Y-100501857D01*
X149826142Y-100356714D02*
X149826142Y-100864714D01*
X149644714Y-100066428D02*
X149463285Y-100610714D01*
X149935000Y-100610714D01*
%TO.C,C13*%
X143652142Y-106839857D02*
X143688428Y-106876142D01*
X143724714Y-106985000D01*
X143724714Y-107057571D01*
X143688428Y-107166428D01*
X143615857Y-107239000D01*
X143543285Y-107275285D01*
X143398142Y-107311571D01*
X143289285Y-107311571D01*
X143144142Y-107275285D01*
X143071571Y-107239000D01*
X142999000Y-107166428D01*
X142962714Y-107057571D01*
X142962714Y-106985000D01*
X142999000Y-106876142D01*
X143035285Y-106839857D01*
X143724714Y-106114142D02*
X143724714Y-106549571D01*
X143724714Y-106331857D02*
X142962714Y-106331857D01*
X143071571Y-106404428D01*
X143144142Y-106477000D01*
X143180428Y-106549571D01*
X142962714Y-105860142D02*
X142962714Y-105388428D01*
X143253000Y-105642428D01*
X143253000Y-105533571D01*
X143289285Y-105461000D01*
X143325571Y-105424714D01*
X143398142Y-105388428D01*
X143579571Y-105388428D01*
X143652142Y-105424714D01*
X143688428Y-105461000D01*
X143724714Y-105533571D01*
X143724714Y-105751285D01*
X143688428Y-105823857D01*
X143652142Y-105860142D01*
%TO.C,SW1*%
X138734000Y-101008428D02*
X138842857Y-101044714D01*
X139024285Y-101044714D01*
X139096857Y-101008428D01*
X139133142Y-100972142D01*
X139169428Y-100899571D01*
X139169428Y-100827000D01*
X139133142Y-100754428D01*
X139096857Y-100718142D01*
X139024285Y-100681857D01*
X138879142Y-100645571D01*
X138806571Y-100609285D01*
X138770285Y-100573000D01*
X138734000Y-100500428D01*
X138734000Y-100427857D01*
X138770285Y-100355285D01*
X138806571Y-100319000D01*
X138879142Y-100282714D01*
X139060571Y-100282714D01*
X139169428Y-100319000D01*
X139423428Y-100282714D02*
X139604857Y-101044714D01*
X139750000Y-100500428D01*
X139895142Y-101044714D01*
X140076571Y-100282714D01*
X140766000Y-101044714D02*
X140330571Y-101044714D01*
X140548285Y-101044714D02*
X140548285Y-100282714D01*
X140475714Y-100391571D01*
X140403142Y-100464142D01*
X140330571Y-100500428D01*
%TO.C,R2*%
X131114714Y-99157000D02*
X130751857Y-99411000D01*
X131114714Y-99592428D02*
X130352714Y-99592428D01*
X130352714Y-99302142D01*
X130389000Y-99229571D01*
X130425285Y-99193285D01*
X130497857Y-99157000D01*
X130606714Y-99157000D01*
X130679285Y-99193285D01*
X130715571Y-99229571D01*
X130751857Y-99302142D01*
X130751857Y-99592428D01*
X130425285Y-98866714D02*
X130389000Y-98830428D01*
X130352714Y-98757857D01*
X130352714Y-98576428D01*
X130389000Y-98503857D01*
X130425285Y-98467571D01*
X130497857Y-98431285D01*
X130570428Y-98431285D01*
X130679285Y-98467571D01*
X131114714Y-98903000D01*
X131114714Y-98431285D01*
%TO.C,R5*%
X137264714Y-104297000D02*
X136901857Y-104551000D01*
X137264714Y-104732428D02*
X136502714Y-104732428D01*
X136502714Y-104442142D01*
X136539000Y-104369571D01*
X136575285Y-104333285D01*
X136647857Y-104297000D01*
X136756714Y-104297000D01*
X136829285Y-104333285D01*
X136865571Y-104369571D01*
X136901857Y-104442142D01*
X136901857Y-104732428D01*
X136502714Y-103607571D02*
X136502714Y-103970428D01*
X136865571Y-104006714D01*
X136829285Y-103970428D01*
X136793000Y-103897857D01*
X136793000Y-103716428D01*
X136829285Y-103643857D01*
X136865571Y-103607571D01*
X136938142Y-103571285D01*
X137119571Y-103571285D01*
X137192142Y-103607571D01*
X137228428Y-103643857D01*
X137264714Y-103716428D01*
X137264714Y-103897857D01*
X137228428Y-103970428D01*
X137192142Y-104006714D01*
%TO.C,L1*%
X136623000Y-110064714D02*
X136260142Y-110064714D01*
X136260142Y-109302714D01*
X137276142Y-110064714D02*
X136840714Y-110064714D01*
X137058428Y-110064714D02*
X137058428Y-109302714D01*
X136985857Y-109411571D01*
X136913285Y-109484142D01*
X136840714Y-109520428D01*
%TO.C,C18*%
X163130142Y-98772142D02*
X163093857Y-98808428D01*
X162985000Y-98844714D01*
X162912428Y-98844714D01*
X162803571Y-98808428D01*
X162731000Y-98735857D01*
X162694714Y-98663285D01*
X162658428Y-98518142D01*
X162658428Y-98409285D01*
X162694714Y-98264142D01*
X162731000Y-98191571D01*
X162803571Y-98119000D01*
X162912428Y-98082714D01*
X162985000Y-98082714D01*
X163093857Y-98119000D01*
X163130142Y-98155285D01*
X163855857Y-98844714D02*
X163420428Y-98844714D01*
X163638142Y-98844714D02*
X163638142Y-98082714D01*
X163565571Y-98191571D01*
X163493000Y-98264142D01*
X163420428Y-98300428D01*
X164291285Y-98409285D02*
X164218714Y-98373000D01*
X164182428Y-98336714D01*
X164146142Y-98264142D01*
X164146142Y-98227857D01*
X164182428Y-98155285D01*
X164218714Y-98119000D01*
X164291285Y-98082714D01*
X164436428Y-98082714D01*
X164509000Y-98119000D01*
X164545285Y-98155285D01*
X164581571Y-98227857D01*
X164581571Y-98264142D01*
X164545285Y-98336714D01*
X164509000Y-98373000D01*
X164436428Y-98409285D01*
X164291285Y-98409285D01*
X164218714Y-98445571D01*
X164182428Y-98481857D01*
X164146142Y-98554428D01*
X164146142Y-98699571D01*
X164182428Y-98772142D01*
X164218714Y-98808428D01*
X164291285Y-98844714D01*
X164436428Y-98844714D01*
X164509000Y-98808428D01*
X164545285Y-98772142D01*
X164581571Y-98699571D01*
X164581571Y-98554428D01*
X164545285Y-98481857D01*
X164509000Y-98445571D01*
X164436428Y-98409285D01*
%TO.C,D2*%
X156417571Y-113024714D02*
X156417571Y-112262714D01*
X156599000Y-112262714D01*
X156707857Y-112299000D01*
X156780428Y-112371571D01*
X156816714Y-112444142D01*
X156853000Y-112589285D01*
X156853000Y-112698142D01*
X156816714Y-112843285D01*
X156780428Y-112915857D01*
X156707857Y-112988428D01*
X156599000Y-113024714D01*
X156417571Y-113024714D01*
X157143285Y-112335285D02*
X157179571Y-112299000D01*
X157252142Y-112262714D01*
X157433571Y-112262714D01*
X157506142Y-112299000D01*
X157542428Y-112335285D01*
X157578714Y-112407857D01*
X157578714Y-112480428D01*
X157542428Y-112589285D01*
X157107000Y-113024714D01*
X157578714Y-113024714D01*
%TO.C,C6*%
X156563000Y-110232142D02*
X156526714Y-110268428D01*
X156417857Y-110304714D01*
X156345285Y-110304714D01*
X156236428Y-110268428D01*
X156163857Y-110195857D01*
X156127571Y-110123285D01*
X156091285Y-109978142D01*
X156091285Y-109869285D01*
X156127571Y-109724142D01*
X156163857Y-109651571D01*
X156236428Y-109579000D01*
X156345285Y-109542714D01*
X156417857Y-109542714D01*
X156526714Y-109579000D01*
X156563000Y-109615285D01*
X157216142Y-109542714D02*
X157071000Y-109542714D01*
X156998428Y-109579000D01*
X156962142Y-109615285D01*
X156889571Y-109724142D01*
X156853285Y-109869285D01*
X156853285Y-110159571D01*
X156889571Y-110232142D01*
X156925857Y-110268428D01*
X156998428Y-110304714D01*
X157143571Y-110304714D01*
X157216142Y-110268428D01*
X157252428Y-110232142D01*
X157288714Y-110159571D01*
X157288714Y-109978142D01*
X157252428Y-109905571D01*
X157216142Y-109869285D01*
X157143571Y-109833000D01*
X156998428Y-109833000D01*
X156925857Y-109869285D01*
X156889571Y-109905571D01*
X156853285Y-109978142D01*
D12*
%TO.C,D1*%
X132287571Y-106894714D02*
X132287571Y-106132714D01*
X132469000Y-106132714D01*
X132577857Y-106169000D01*
X132650428Y-106241571D01*
X132686714Y-106314142D01*
X132723000Y-106459285D01*
X132723000Y-106568142D01*
X132686714Y-106713285D01*
X132650428Y-106785857D01*
X132577857Y-106858428D01*
X132469000Y-106894714D01*
X132287571Y-106894714D01*
X133448714Y-106894714D02*
X133013285Y-106894714D01*
X133231000Y-106894714D02*
X133231000Y-106132714D01*
X133158428Y-106241571D01*
X133085857Y-106314142D01*
X133013285Y-106350428D01*
D10*
%TO.C,R1*%
X134414714Y-108497000D02*
X134051857Y-108751000D01*
X134414714Y-108932428D02*
X133652714Y-108932428D01*
X133652714Y-108642142D01*
X133689000Y-108569571D01*
X133725285Y-108533285D01*
X133797857Y-108497000D01*
X133906714Y-108497000D01*
X133979285Y-108533285D01*
X134015571Y-108569571D01*
X134051857Y-108642142D01*
X134051857Y-108932428D01*
X134414714Y-107771285D02*
X134414714Y-108206714D01*
X134414714Y-107989000D02*
X133652714Y-107989000D01*
X133761571Y-108061571D01*
X133834142Y-108134142D01*
X133870428Y-108206714D01*
%TO.C,R6*%
X158433000Y-111354714D02*
X158179000Y-110991857D01*
X157997571Y-111354714D02*
X157997571Y-110592714D01*
X158287857Y-110592714D01*
X158360428Y-110629000D01*
X158396714Y-110665285D01*
X158433000Y-110737857D01*
X158433000Y-110846714D01*
X158396714Y-110919285D01*
X158360428Y-110955571D01*
X158287857Y-110991857D01*
X157997571Y-110991857D01*
X159086142Y-110592714D02*
X158941000Y-110592714D01*
X158868428Y-110629000D01*
X158832142Y-110665285D01*
X158759571Y-110774142D01*
X158723285Y-110919285D01*
X158723285Y-111209571D01*
X158759571Y-111282142D01*
X158795857Y-111318428D01*
X158868428Y-111354714D01*
X159013571Y-111354714D01*
X159086142Y-111318428D01*
X159122428Y-111282142D01*
X159158714Y-111209571D01*
X159158714Y-111028142D01*
X159122428Y-110955571D01*
X159086142Y-110919285D01*
X159013571Y-110883000D01*
X158868428Y-110883000D01*
X158795857Y-110919285D01*
X158759571Y-110955571D01*
X158723285Y-111028142D01*
%TO.C,L2*%
X164843000Y-113094714D02*
X164480142Y-113094714D01*
X164480142Y-112332714D01*
X165060714Y-112405285D02*
X165097000Y-112369000D01*
X165169571Y-112332714D01*
X165351000Y-112332714D01*
X165423571Y-112369000D01*
X165459857Y-112405285D01*
X165496142Y-112477857D01*
X165496142Y-112550428D01*
X165459857Y-112659285D01*
X165024428Y-113094714D01*
X165496142Y-113094714D01*
%TO.C,U3*%
X156829428Y-101662714D02*
X156829428Y-102279571D01*
X156865714Y-102352142D01*
X156902000Y-102388428D01*
X156974571Y-102424714D01*
X157119714Y-102424714D01*
X157192285Y-102388428D01*
X157228571Y-102352142D01*
X157264857Y-102279571D01*
X157264857Y-101662714D01*
X157555142Y-101662714D02*
X158026857Y-101662714D01*
X157772857Y-101953000D01*
X157881714Y-101953000D01*
X157954285Y-101989285D01*
X157990571Y-102025571D01*
X158026857Y-102098142D01*
X158026857Y-102279571D01*
X157990571Y-102352142D01*
X157954285Y-102388428D01*
X157881714Y-102424714D01*
X157664000Y-102424714D01*
X157591428Y-102388428D01*
X157555142Y-102352142D01*
%TO.C,C12*%
X145180142Y-100072142D02*
X145143857Y-100108428D01*
X145035000Y-100144714D01*
X144962428Y-100144714D01*
X144853571Y-100108428D01*
X144781000Y-100035857D01*
X144744714Y-99963285D01*
X144708428Y-99818142D01*
X144708428Y-99709285D01*
X144744714Y-99564142D01*
X144781000Y-99491571D01*
X144853571Y-99419000D01*
X144962428Y-99382714D01*
X145035000Y-99382714D01*
X145143857Y-99419000D01*
X145180142Y-99455285D01*
X145905857Y-100144714D02*
X145470428Y-100144714D01*
X145688142Y-100144714D02*
X145688142Y-99382714D01*
X145615571Y-99491571D01*
X145543000Y-99564142D01*
X145470428Y-99600428D01*
X146196142Y-99455285D02*
X146232428Y-99419000D01*
X146305000Y-99382714D01*
X146486428Y-99382714D01*
X146559000Y-99419000D01*
X146595285Y-99455285D01*
X146631571Y-99527857D01*
X146631571Y-99600428D01*
X146595285Y-99709285D01*
X146159857Y-100144714D01*
X146631571Y-100144714D01*
%TO.C,C10*%
X139142142Y-109309857D02*
X139178428Y-109346142D01*
X139214714Y-109455000D01*
X139214714Y-109527571D01*
X139178428Y-109636428D01*
X139105857Y-109709000D01*
X139033285Y-109745285D01*
X138888142Y-109781571D01*
X138779285Y-109781571D01*
X138634142Y-109745285D01*
X138561571Y-109709000D01*
X138489000Y-109636428D01*
X138452714Y-109527571D01*
X138452714Y-109455000D01*
X138489000Y-109346142D01*
X138525285Y-109309857D01*
X139214714Y-108584142D02*
X139214714Y-109019571D01*
X139214714Y-108801857D02*
X138452714Y-108801857D01*
X138561571Y-108874428D01*
X138634142Y-108947000D01*
X138670428Y-109019571D01*
X138452714Y-108112428D02*
X138452714Y-108039857D01*
X138489000Y-107967285D01*
X138525285Y-107931000D01*
X138597857Y-107894714D01*
X138743000Y-107858428D01*
X138924428Y-107858428D01*
X139069571Y-107894714D01*
X139142142Y-107931000D01*
X139178428Y-107967285D01*
X139214714Y-108039857D01*
X139214714Y-108112428D01*
X139178428Y-108185000D01*
X139142142Y-108221285D01*
X139069571Y-108257571D01*
X138924428Y-108293857D01*
X138743000Y-108293857D01*
X138597857Y-108257571D01*
X138525285Y-108221285D01*
X138489000Y-108185000D01*
X138452714Y-108112428D01*
%TO.C,C9*%
X143123000Y-102772142D02*
X143086714Y-102808428D01*
X142977857Y-102844714D01*
X142905285Y-102844714D01*
X142796428Y-102808428D01*
X142723857Y-102735857D01*
X142687571Y-102663285D01*
X142651285Y-102518142D01*
X142651285Y-102409285D01*
X142687571Y-102264142D01*
X142723857Y-102191571D01*
X142796428Y-102119000D01*
X142905285Y-102082714D01*
X142977857Y-102082714D01*
X143086714Y-102119000D01*
X143123000Y-102155285D01*
X143485857Y-102844714D02*
X143631000Y-102844714D01*
X143703571Y-102808428D01*
X143739857Y-102772142D01*
X143812428Y-102663285D01*
X143848714Y-102518142D01*
X143848714Y-102227857D01*
X143812428Y-102155285D01*
X143776142Y-102119000D01*
X143703571Y-102082714D01*
X143558428Y-102082714D01*
X143485857Y-102119000D01*
X143449571Y-102155285D01*
X143413285Y-102227857D01*
X143413285Y-102409285D01*
X143449571Y-102481857D01*
X143485857Y-102518142D01*
X143558428Y-102554428D01*
X143703571Y-102554428D01*
X143776142Y-102518142D01*
X143812428Y-102481857D01*
X143848714Y-102409285D01*
D11*
%TO.C,P1*%
X127761904Y-98452380D02*
X127761904Y-97452380D01*
X128142857Y-97452380D01*
X128238095Y-97500000D01*
X128285714Y-97547619D01*
X128333333Y-97642857D01*
X128333333Y-97785714D01*
X128285714Y-97880952D01*
X128238095Y-97928571D01*
X128142857Y-97976190D01*
X127761904Y-97976190D01*
X129285714Y-98452380D02*
X128714285Y-98452380D01*
X129000000Y-98452380D02*
X129000000Y-97452380D01*
X128904761Y-97595238D01*
X128809523Y-97690476D01*
X128714285Y-97738095D01*
D10*
%TO.C,C5*%
X136362142Y-105827000D02*
X136398428Y-105863285D01*
X136434714Y-105972142D01*
X136434714Y-106044714D01*
X136398428Y-106153571D01*
X136325857Y-106226142D01*
X136253285Y-106262428D01*
X136108142Y-106298714D01*
X135999285Y-106298714D01*
X135854142Y-106262428D01*
X135781571Y-106226142D01*
X135709000Y-106153571D01*
X135672714Y-106044714D01*
X135672714Y-105972142D01*
X135709000Y-105863285D01*
X135745285Y-105827000D01*
X135672714Y-105137571D02*
X135672714Y-105500428D01*
X136035571Y-105536714D01*
X135999285Y-105500428D01*
X135963000Y-105427857D01*
X135963000Y-105246428D01*
X135999285Y-105173857D01*
X136035571Y-105137571D01*
X136108142Y-105101285D01*
X136289571Y-105101285D01*
X136362142Y-105137571D01*
X136398428Y-105173857D01*
X136434714Y-105246428D01*
X136434714Y-105427857D01*
X136398428Y-105500428D01*
X136362142Y-105536714D01*
%TO.C,C16*%
X155542142Y-111229857D02*
X155578428Y-111266142D01*
X155614714Y-111375000D01*
X155614714Y-111447571D01*
X155578428Y-111556428D01*
X155505857Y-111629000D01*
X155433285Y-111665285D01*
X155288142Y-111701571D01*
X155179285Y-111701571D01*
X155034142Y-111665285D01*
X154961571Y-111629000D01*
X154889000Y-111556428D01*
X154852714Y-111447571D01*
X154852714Y-111375000D01*
X154889000Y-111266142D01*
X154925285Y-111229857D01*
X155614714Y-110504142D02*
X155614714Y-110939571D01*
X155614714Y-110721857D02*
X154852714Y-110721857D01*
X154961571Y-110794428D01*
X155034142Y-110867000D01*
X155070428Y-110939571D01*
X154852714Y-109851000D02*
X154852714Y-109996142D01*
X154889000Y-110068714D01*
X154925285Y-110105000D01*
X155034142Y-110177571D01*
X155179285Y-110213857D01*
X155469571Y-110213857D01*
X155542142Y-110177571D01*
X155578428Y-110141285D01*
X155614714Y-110068714D01*
X155614714Y-109923571D01*
X155578428Y-109851000D01*
X155542142Y-109814714D01*
X155469571Y-109778428D01*
X155288142Y-109778428D01*
X155215571Y-109814714D01*
X155179285Y-109851000D01*
X155143000Y-109923571D01*
X155143000Y-110068714D01*
X155179285Y-110141285D01*
X155215571Y-110177571D01*
X155288142Y-110213857D01*
%TO.C,C8*%
X153303000Y-105172142D02*
X153266714Y-105208428D01*
X153157857Y-105244714D01*
X153085285Y-105244714D01*
X152976428Y-105208428D01*
X152903857Y-105135857D01*
X152867571Y-105063285D01*
X152831285Y-104918142D01*
X152831285Y-104809285D01*
X152867571Y-104664142D01*
X152903857Y-104591571D01*
X152976428Y-104519000D01*
X153085285Y-104482714D01*
X153157857Y-104482714D01*
X153266714Y-104519000D01*
X153303000Y-104555285D01*
X153738428Y-104809285D02*
X153665857Y-104773000D01*
X153629571Y-104736714D01*
X153593285Y-104664142D01*
X153593285Y-104627857D01*
X153629571Y-104555285D01*
X153665857Y-104519000D01*
X153738428Y-104482714D01*
X153883571Y-104482714D01*
X153956142Y-104519000D01*
X153992428Y-104555285D01*
X154028714Y-104627857D01*
X154028714Y-104664142D01*
X153992428Y-104736714D01*
X153956142Y-104773000D01*
X153883571Y-104809285D01*
X153738428Y-104809285D01*
X153665857Y-104845571D01*
X153629571Y-104881857D01*
X153593285Y-104954428D01*
X153593285Y-105099571D01*
X153629571Y-105172142D01*
X153665857Y-105208428D01*
X153738428Y-105244714D01*
X153883571Y-105244714D01*
X153956142Y-105208428D01*
X153992428Y-105172142D01*
X154028714Y-105099571D01*
X154028714Y-104954428D01*
X153992428Y-104881857D01*
X153956142Y-104845571D01*
X153883571Y-104809285D01*
D12*
%TO.C,X1*%
X142002714Y-104386857D02*
X142764714Y-103878857D01*
X142002714Y-103878857D02*
X142764714Y-104386857D01*
X142764714Y-103189428D02*
X142764714Y-103624857D01*
X142764714Y-103407142D02*
X142002714Y-103407142D01*
X142111571Y-103479714D01*
X142184142Y-103552285D01*
X142220428Y-103624857D01*
D10*
%TO.C,R3*%
X132154714Y-99157000D02*
X131791857Y-99411000D01*
X132154714Y-99592428D02*
X131392714Y-99592428D01*
X131392714Y-99302142D01*
X131429000Y-99229571D01*
X131465285Y-99193285D01*
X131537857Y-99157000D01*
X131646714Y-99157000D01*
X131719285Y-99193285D01*
X131755571Y-99229571D01*
X131791857Y-99302142D01*
X131791857Y-99592428D01*
X131392714Y-98903000D02*
X131392714Y-98431285D01*
X131683000Y-98685285D01*
X131683000Y-98576428D01*
X131719285Y-98503857D01*
X131755571Y-98467571D01*
X131828142Y-98431285D01*
X132009571Y-98431285D01*
X132082142Y-98467571D01*
X132118428Y-98503857D01*
X132154714Y-98576428D01*
X132154714Y-98794142D01*
X132118428Y-98866714D01*
X132082142Y-98903000D01*
D13*
%TO.C,C15*%
X151365000Y-111643000D02*
X151365000Y-109357000D01*
X152635000Y-109357000D02*
X152635000Y-111643000D01*
X152635000Y-111643000D02*
X151365000Y-111643000D01*
X151365000Y-109357000D02*
X152635000Y-109357000D01*
%TO.C,C7*%
X142643000Y-108135000D02*
X140357000Y-108135000D01*
X140357000Y-108135000D02*
X140357000Y-106865000D01*
X140357000Y-106865000D02*
X142643000Y-106865000D01*
X142643000Y-106865000D02*
X142643000Y-108135000D01*
%TO.C,C2*%
X128385000Y-110857000D02*
X128385000Y-113143000D01*
X127115000Y-110857000D02*
X128385000Y-110857000D01*
X127115000Y-113143000D02*
X127115000Y-110857000D01*
X128385000Y-113143000D02*
X127115000Y-113143000D01*
D11*
%TO.C,J2*%
X178463500Y-112875000D02*
X169953500Y-112875000D01*
X178463500Y-97125000D02*
X169953500Y-97125000D01*
X169953500Y-97125000D02*
X169953500Y-112875000D01*
X178463500Y-97125000D02*
X178463500Y-112875000D01*
D14*
%TO.C,U1*%
X152000000Y-101500000D02*
X152000000Y-102000000D01*
X145000000Y-101500000D02*
X145500000Y-101500000D01*
X152000000Y-101500000D02*
X151500000Y-101500000D01*
X152000000Y-108500000D02*
X151500000Y-108500000D01*
X145500000Y-108500000D02*
X145000000Y-108500000D01*
X152000000Y-108000000D02*
X152000000Y-108500000D01*
X145000000Y-102000000D02*
X145000000Y-101500000D01*
X145000000Y-108500000D02*
X145000000Y-108000000D01*
D15*
X150950000Y-102750000D02*
G75*
G03*
X150950000Y-102750000I-200000J0D01*
G01*
D16*
%TO.C,agilack-11.5*%
X164032920Y-105754760D02*
X164032920Y-104662560D01*
X163550320Y-102376560D02*
X163550320Y-102097160D01*
X162915320Y-104357760D02*
X162915320Y-104103760D01*
X163753520Y-99912760D02*
X163753520Y-99557160D01*
X163093120Y-104357760D02*
X163093120Y-104103760D01*
X163677320Y-104357760D02*
X163677320Y-104103760D01*
X163829720Y-100344560D02*
X163829720Y-100090560D01*
X163931320Y-104357760D02*
X163931320Y-104103760D01*
X163270920Y-104357760D02*
X163270920Y-104103760D01*
X164185320Y-100344560D02*
X164185320Y-100090560D01*
X162839120Y-106973960D02*
X162839120Y-106491360D01*
X163905920Y-104357760D02*
X163905920Y-104103760D01*
X163575720Y-102935360D02*
X163575720Y-102681360D01*
X163804320Y-105907160D02*
X163804320Y-105576960D01*
X163677320Y-103925960D02*
X163677320Y-103671960D01*
X164007520Y-101716160D02*
X164007520Y-100725560D01*
X163575720Y-101868560D02*
X163575720Y-101589160D01*
X163143920Y-102782960D02*
X163143920Y-102249560D01*
X162864520Y-106973960D02*
X162864520Y-106491360D01*
X163880520Y-100344560D02*
X163880520Y-100090560D01*
X163550320Y-103925960D02*
X163550320Y-103671960D01*
X162889920Y-104357760D02*
X162889920Y-104103760D01*
X163702720Y-105932560D02*
X163702720Y-105627760D01*
X164159920Y-104357760D02*
X164159920Y-104103760D01*
X164185320Y-99531760D02*
X164185320Y-99176160D01*
X163448720Y-102427360D02*
X163448720Y-102147960D01*
X164134520Y-101538360D02*
X164134520Y-100674760D01*
X163804320Y-103011560D02*
X163804320Y-102020960D01*
X162458120Y-106770760D02*
X162458120Y-106694560D01*
X163093120Y-107100960D02*
X163093120Y-106745360D01*
X163855120Y-100344560D02*
X163855120Y-100090560D01*
X163677320Y-102986160D02*
X163677320Y-102071760D01*
X162864520Y-103925960D02*
X162864520Y-103671960D01*
X163169320Y-100344560D02*
X163169320Y-100090560D01*
X163677320Y-105932560D02*
X163677320Y-105627760D01*
X163855120Y-104916560D02*
X163855120Y-104662560D01*
X163220120Y-101843160D02*
X163220120Y-101512960D01*
X162864520Y-101487560D02*
X162864520Y-100750960D01*
X163702720Y-104357760D02*
X163702720Y-104103760D01*
X163474120Y-102909960D02*
X163474120Y-102630560D01*
X164185320Y-103925960D02*
X164185320Y-102884560D01*
X164134520Y-103925960D02*
X164134520Y-102859160D01*
X164032920Y-102224160D02*
X164032920Y-101919360D01*
X163575720Y-100344560D02*
X163575720Y-100090560D01*
X163575720Y-100065160D02*
X163575720Y-99734960D01*
X163499520Y-101868560D02*
X163499520Y-101589160D01*
X164185320Y-104357760D02*
X164185320Y-104103760D01*
X164185320Y-105576960D02*
X164185320Y-104840360D01*
X162864520Y-104357760D02*
X162864520Y-104103760D01*
X163423320Y-100344560D02*
X163423320Y-99785760D01*
X164540920Y-106008760D02*
X164540920Y-105627760D01*
X163423320Y-107253360D02*
X163423320Y-106897760D01*
X162813720Y-100344560D02*
X162813720Y-100090560D01*
X163220120Y-103925960D02*
X163220120Y-103671960D01*
X164032920Y-104357760D02*
X164032920Y-104103760D01*
X163016920Y-104357760D02*
X163016920Y-104103760D01*
X163728120Y-105907160D02*
X163728120Y-105627760D01*
X162889920Y-102681360D02*
X162889920Y-102351160D01*
X162534320Y-106821560D02*
X162534320Y-106643760D01*
X163220120Y-102808360D02*
X163220120Y-102554360D01*
X163423320Y-102427360D02*
X163423320Y-102147960D01*
X163753520Y-103925960D02*
X163753520Y-103671960D01*
X163524920Y-100344560D02*
X163524920Y-99760360D01*
X163651920Y-106440560D02*
X163651920Y-106084960D01*
X164058320Y-103925960D02*
X164058320Y-102833760D01*
X163829720Y-103036960D02*
X163829720Y-101995560D01*
X163448720Y-103925960D02*
X163448720Y-103671960D01*
X163778920Y-106389760D02*
X163778920Y-106008760D01*
X162991520Y-104357760D02*
X162991520Y-104103760D01*
X163118520Y-105830960D02*
X163118520Y-105424560D01*
X163829720Y-103925960D02*
X163829720Y-103671960D01*
X163728120Y-104916560D02*
X163728120Y-104662560D01*
X163601120Y-100039760D02*
X163601120Y-99709560D01*
X162991520Y-105729360D02*
X162991520Y-104713360D01*
X163880520Y-106338960D02*
X163880520Y-105957960D01*
X163347120Y-107227960D02*
X163347120Y-106846960D01*
X163042320Y-100344560D02*
X163042320Y-100090560D01*
X163093120Y-100344560D02*
X163093120Y-100090560D01*
X163728120Y-100344560D02*
X163728120Y-100090560D01*
X163651920Y-107380360D02*
X163651920Y-106999360D01*
X163474120Y-103925960D02*
X163474120Y-103671960D01*
X163778920Y-100344560D02*
X163778920Y-100090560D01*
X163651920Y-101868560D02*
X163651920Y-101563760D01*
X162864520Y-100344560D02*
X162864520Y-100090560D01*
X163347120Y-102859160D02*
X163347120Y-102605160D01*
X162559720Y-106821560D02*
X162559720Y-106643760D01*
X163245520Y-103925960D02*
X163245520Y-103671960D01*
X163880520Y-102274960D02*
X163880520Y-101995560D01*
X163956720Y-100928760D02*
X163956720Y-100750960D01*
X163143920Y-101792360D02*
X163143920Y-101436760D01*
X163651920Y-100344560D02*
X163651920Y-100090560D01*
X163982120Y-106288160D02*
X163982120Y-105907160D01*
X163550320Y-104357760D02*
X163550320Y-104103760D01*
X163169320Y-102782960D02*
X163169320Y-102528960D01*
X162915320Y-106999360D02*
X162915320Y-106465960D01*
X163474120Y-104357760D02*
X163474120Y-104103760D01*
X163448720Y-105932560D02*
X163448720Y-105653160D01*
X163347120Y-102452760D02*
X163347120Y-102173360D01*
X164134520Y-104357760D02*
X164134520Y-104103760D01*
X163575720Y-107329560D02*
X163575720Y-106948560D01*
X163601120Y-106465960D02*
X163601120Y-106110360D01*
X163067720Y-107075560D02*
X163067720Y-106389760D01*
X163905920Y-99785760D02*
X163905920Y-99430160D01*
X163855120Y-101817760D02*
X163855120Y-101436760D01*
X163270920Y-105907160D02*
X163270920Y-105602360D01*
X163499520Y-104357760D02*
X163499520Y-104103760D01*
X163169320Y-105856360D02*
X163169320Y-105500760D01*
X163702720Y-107405760D02*
X163702720Y-107024760D01*
X163423320Y-101868560D02*
X163423320Y-101589160D01*
X163778920Y-105907160D02*
X163778920Y-105576960D01*
X163550320Y-107329560D02*
X163550320Y-106948560D01*
X163931320Y-106313560D02*
X163931320Y-105932560D01*
X164337720Y-107862960D02*
X164337720Y-106389760D01*
X163956720Y-101741560D02*
X163956720Y-101258960D01*
X164464720Y-106034160D02*
X164464720Y-105653160D01*
X163270920Y-101843160D02*
X163270920Y-101538360D01*
X162432720Y-106770760D02*
X162432720Y-106694560D01*
X163702720Y-103925960D02*
X163702720Y-103671960D01*
X163651920Y-105297560D02*
X163651920Y-104662560D01*
X163169320Y-103925960D02*
X163169320Y-103671960D01*
X163220120Y-102503560D02*
X163220120Y-102224160D01*
X163042320Y-103925960D02*
X163042320Y-103671960D01*
X163042320Y-102732160D02*
X163042320Y-102300360D01*
X164109120Y-106211960D02*
X164109120Y-105856360D01*
X163829720Y-99836560D02*
X163829720Y-99506360D01*
X163982120Y-105043560D02*
X163982120Y-104662560D01*
X163778920Y-101843160D02*
X163778920Y-101512960D01*
X162991520Y-100344560D02*
X162991520Y-100090560D01*
X163956720Y-103925960D02*
X163956720Y-103671960D01*
X163372520Y-100065160D02*
X163372520Y-99734960D01*
X163245520Y-106643760D02*
X163245520Y-106288160D01*
X163118520Y-106719960D02*
X163118520Y-106364360D01*
X163372520Y-104357760D02*
X163372520Y-104103760D01*
X163855120Y-102274960D02*
X163855120Y-101995560D01*
X163474120Y-106542160D02*
X163474120Y-106161160D01*
X163118520Y-102782960D02*
X163118520Y-102274960D01*
X163474120Y-102401960D02*
X163474120Y-102122560D01*
X164363120Y-107862960D02*
X164363120Y-106389760D01*
X163372520Y-102859160D02*
X163372520Y-102605160D01*
X163245520Y-102808360D02*
X163245520Y-102554360D01*
X163296320Y-100344560D02*
X163296320Y-100090560D01*
X163372520Y-105932560D02*
X163372520Y-105627760D01*
X163524920Y-104357760D02*
X163524920Y-104103760D01*
X163169320Y-104357760D02*
X163169320Y-104103760D01*
X163499520Y-102401960D02*
X163499520Y-102122560D01*
X164439320Y-106059560D02*
X164439320Y-105678560D01*
X164083720Y-102198760D02*
X164083720Y-101919360D01*
X162966120Y-107024760D02*
X162966120Y-106440560D01*
X163169320Y-106694560D02*
X163169320Y-106338960D01*
X163118520Y-101792360D02*
X163118520Y-101385960D01*
X163855120Y-105881760D02*
X163855120Y-105526160D01*
X163626520Y-100344560D02*
X163626520Y-100090560D01*
X163296320Y-105907160D02*
X163296320Y-105602360D01*
X163829720Y-104916560D02*
X163829720Y-104662560D01*
X162813720Y-104357760D02*
X162813720Y-104103760D01*
X164083720Y-103925960D02*
X164083720Y-102859160D01*
X163524920Y-105932560D02*
X163524920Y-105653160D01*
X164109120Y-99607960D02*
X164109120Y-99252360D01*
X164718720Y-105907160D02*
X164718720Y-105526160D01*
X163347120Y-100344560D02*
X163347120Y-100090560D01*
X164159920Y-101512960D02*
X164159920Y-100750960D01*
X163677320Y-106440560D02*
X163677320Y-106059560D01*
X163778920Y-99887360D02*
X163778920Y-99531760D01*
X163118520Y-100344560D02*
X163118520Y-100090560D01*
X164032920Y-106262760D02*
X164032920Y-105881760D01*
X163550320Y-100344560D02*
X163550320Y-99734960D01*
X163651920Y-99988960D02*
X163651920Y-99658760D01*
X163702720Y-104916560D02*
X163702720Y-104662560D01*
X163397920Y-107253360D02*
X163397920Y-106872360D01*
X163880520Y-103925960D02*
X163880520Y-103671960D01*
X163093120Y-105043560D02*
X163093120Y-104764160D01*
X163423320Y-103925960D02*
X163423320Y-103671960D01*
X163626520Y-107354960D02*
X163626520Y-106973960D01*
X163931320Y-102249560D02*
X163931320Y-101970160D01*
X163067720Y-104357760D02*
X163067720Y-104103760D01*
X163321720Y-100014360D02*
X163321720Y-99684160D01*
X163042320Y-105780160D02*
X163042320Y-104738760D01*
X163905920Y-103062360D02*
X163905920Y-102782960D01*
X163194720Y-100344560D02*
X163194720Y-100090560D01*
X163270920Y-106643760D02*
X163270920Y-106288160D01*
X163601120Y-107354960D02*
X163601120Y-106973960D01*
X163880520Y-101792360D02*
X163880520Y-101411360D01*
X163296320Y-99988960D02*
X163296320Y-99658760D01*
X164007520Y-100344560D02*
X164007520Y-100090560D01*
X163982120Y-105805560D02*
X163982120Y-105322960D01*
X163143920Y-105856360D02*
X163143920Y-105449960D01*
X163855120Y-107481960D02*
X163855120Y-106491360D01*
X163474120Y-107278760D02*
X163474120Y-106923160D01*
X163753520Y-100344560D02*
X163753520Y-100090560D01*
X164083720Y-99633360D02*
X164083720Y-99277760D01*
X163042320Y-104357760D02*
X163042320Y-104103760D01*
X163143920Y-103925960D02*
X163143920Y-103671960D01*
X163270920Y-102478160D02*
X163270920Y-102198760D01*
X164286920Y-106135760D02*
X164286920Y-105754760D01*
X163245520Y-104357760D02*
X163245520Y-104103760D01*
X164083720Y-100344560D02*
X164083720Y-100090560D01*
X164109120Y-104357760D02*
X164109120Y-104103760D01*
X162762920Y-106923160D02*
X162762920Y-106542160D01*
X162661320Y-106872360D02*
X162661320Y-106592960D01*
X164210720Y-105500760D02*
X164210720Y-104916560D01*
X162940720Y-104357760D02*
X162940720Y-104103760D01*
X163575720Y-104357760D02*
X163575720Y-104103760D01*
X164134520Y-105653160D02*
X164134520Y-104764160D01*
X162889920Y-105576960D02*
X162889920Y-104840360D01*
X163042320Y-101716160D02*
X163042320Y-100750960D01*
X163448720Y-104357760D02*
X163448720Y-104103760D01*
X163575720Y-106491360D02*
X163575720Y-106110360D01*
X162839120Y-100344560D02*
X162839120Y-100090560D01*
X163321720Y-104357760D02*
X163321720Y-104103760D01*
X162712120Y-106897760D02*
X162712120Y-106567560D01*
X163626520Y-101868560D02*
X163626520Y-101589160D01*
X163194720Y-106669160D02*
X163194720Y-106313560D01*
X164490120Y-106034160D02*
X164490120Y-105653160D01*
X164159920Y-99557160D02*
X164159920Y-99201560D01*
X163956720Y-106288160D02*
X163956720Y-105932560D01*
X162991520Y-103925960D02*
X162991520Y-103671960D01*
X164159920Y-103925960D02*
X164159920Y-102884560D01*
X163524920Y-105297560D02*
X163524920Y-104662560D01*
X163296320Y-104357760D02*
X163296320Y-104103760D01*
X163448720Y-107278760D02*
X163448720Y-106897760D01*
X164236120Y-105424560D02*
X164236120Y-104992760D01*
X163728120Y-101843160D02*
X163728120Y-101538360D01*
X163982120Y-101716160D02*
X163982120Y-100725560D01*
X163601120Y-102376560D02*
X163601120Y-102097160D01*
X164337720Y-106110360D02*
X164337720Y-105729360D01*
X162889920Y-100344560D02*
X162889920Y-100090560D01*
X163194720Y-103925960D02*
X163194720Y-103671960D01*
X164515520Y-106008760D02*
X164515520Y-105627760D01*
X163778920Y-103011560D02*
X163778920Y-102020960D01*
X164007520Y-103925960D02*
X164007520Y-102833760D01*
X163601120Y-104357760D02*
X163601120Y-104103760D01*
X163245520Y-107177160D02*
X163245520Y-106796160D01*
X163397920Y-104357760D02*
X163397920Y-104103760D01*
X163880520Y-105856360D02*
X163880520Y-105500760D01*
X162940720Y-101614560D02*
X162940720Y-100700160D01*
X164261520Y-106135760D02*
X164261520Y-105780160D01*
X163474120Y-105297560D02*
X163474120Y-104662560D01*
X163601120Y-105297560D02*
X163601120Y-104662560D01*
X163321720Y-102452760D02*
X163321720Y-102198760D01*
X162889920Y-106999360D02*
X162889920Y-106465960D01*
X162991520Y-107050160D02*
X162991520Y-106415160D01*
X163880520Y-103062360D02*
X163880520Y-102782960D01*
X163651920Y-102960760D02*
X163651920Y-102071760D01*
X163956720Y-103087760D02*
X163956720Y-102808360D01*
X163347120Y-105932560D02*
X163347120Y-105627760D01*
X163982120Y-104357760D02*
X163982120Y-104103760D01*
X163220120Y-105881760D02*
X163220120Y-105551560D01*
X163169320Y-104840360D02*
X163169320Y-104814960D01*
X163601120Y-103925960D02*
X163601120Y-103671960D01*
X162940720Y-107024760D02*
X162940720Y-106440560D01*
X163524920Y-102909960D02*
X163524920Y-102655960D01*
X163905920Y-106313560D02*
X163905920Y-105957960D01*
X163321720Y-105907160D02*
X163321720Y-105627760D01*
X163118520Y-99836560D02*
X163118520Y-99480960D01*
X163651920Y-105932560D02*
X163651920Y-105653160D01*
X164109120Y-107583560D02*
X164109120Y-106389760D01*
X162889920Y-99633360D02*
X162889920Y-99277760D01*
X163093120Y-103925960D02*
X163093120Y-103671960D01*
X163321720Y-103925960D02*
X163321720Y-103671960D01*
X163296320Y-106618360D02*
X163296320Y-106262760D01*
X163931320Y-100852560D02*
X163931320Y-100750960D01*
X163778920Y-104357760D02*
X163778920Y-104103760D01*
X163093120Y-99811160D02*
X163093120Y-99480960D01*
X164210720Y-106161160D02*
X164210720Y-105805560D01*
X163956720Y-104357760D02*
X163956720Y-104103760D01*
X162839120Y-99582560D02*
X162839120Y-99226960D01*
X163956720Y-100344560D02*
X163956720Y-100090560D01*
X163550320Y-105297560D02*
X163550320Y-104662560D01*
X163880520Y-104916560D02*
X163880520Y-104662560D01*
X163067720Y-101741560D02*
X163067720Y-101284360D01*
X163575720Y-105297560D02*
X163575720Y-104662560D01*
X163753520Y-107431160D02*
X163753520Y-107050160D01*
X163753520Y-105907160D02*
X163753520Y-105602360D01*
X163067720Y-99785760D02*
X163067720Y-99455560D01*
X163601120Y-102960760D02*
X163601120Y-102681360D01*
X163093120Y-101766960D02*
X163093120Y-101335160D01*
X163220120Y-104357760D02*
X163220120Y-104103760D01*
X164312320Y-107862960D02*
X164312320Y-106389760D01*
X162788320Y-106948560D02*
X162788320Y-106516760D01*
X164134520Y-99582560D02*
X164134520Y-99226960D01*
X163397920Y-103925960D02*
X163397920Y-103671960D01*
X164642520Y-105957960D02*
X164642520Y-105576960D01*
X163956720Y-107532760D02*
X163956720Y-106440560D01*
X164515520Y-107862960D02*
X164515520Y-106389760D01*
X163855120Y-106338960D02*
X163855120Y-105983360D01*
X163931320Y-107507360D02*
X163931320Y-106465960D01*
X162940720Y-105653160D02*
X162940720Y-104738760D01*
X163804320Y-100344560D02*
X163804320Y-100090560D01*
X164490120Y-107862960D02*
X164490120Y-106389760D01*
X163016920Y-100344560D02*
X163016920Y-100090560D01*
X163245520Y-100344560D02*
X163245520Y-100090560D01*
X163143920Y-99861960D02*
X163143920Y-99506360D01*
X163474120Y-100344560D02*
X163474120Y-99811160D01*
X163651920Y-103925960D02*
X163651920Y-103671960D01*
X163067720Y-100928760D02*
X163067720Y-100750960D01*
X163220120Y-106669160D02*
X163220120Y-106313560D01*
X164007520Y-105780160D02*
X164007520Y-104662560D01*
X164667920Y-105932560D02*
X164667920Y-105551560D01*
X163245520Y-101843160D02*
X163245520Y-101512960D01*
X164007520Y-102224160D02*
X164007520Y-101944760D01*
X163626520Y-100014360D02*
X163626520Y-99684160D01*
X162966120Y-105703960D02*
X162966120Y-104713360D01*
X163931320Y-105830960D02*
X163931320Y-105449960D01*
X163245520Y-102478160D02*
X163245520Y-102224160D01*
X163651920Y-104357760D02*
X163651920Y-104103760D01*
X163474120Y-105932560D02*
X163474120Y-105653160D01*
X163524920Y-103925960D02*
X163524920Y-103671960D01*
X164083720Y-106237360D02*
X164083720Y-105856360D01*
X163347120Y-104357760D02*
X163347120Y-104103760D01*
X164058320Y-102198760D02*
X164058320Y-101919360D01*
X164109120Y-101589160D02*
X164109120Y-100674760D01*
X162610520Y-106846960D02*
X162610520Y-106618360D01*
X162889920Y-101538360D02*
X162889920Y-100700160D01*
X163575720Y-105932560D02*
X163575720Y-105653160D01*
X162991520Y-102732160D02*
X162991520Y-102300360D01*
X163524920Y-102401960D02*
X163524920Y-102122560D01*
X163778920Y-103925960D02*
X163778920Y-103671960D01*
X162864520Y-105526160D02*
X162864520Y-104916560D01*
X163626520Y-104357760D02*
X163626520Y-104103760D01*
X163499520Y-103925960D02*
X163499520Y-103671960D01*
X164032920Y-101690760D02*
X164032920Y-100700160D01*
X163601120Y-101868560D02*
X163601120Y-101589160D01*
X164109120Y-105678560D02*
X164109120Y-104713360D01*
X163804320Y-103925960D02*
X163804320Y-103671960D01*
X163550320Y-102935360D02*
X163550320Y-102655960D01*
X163423320Y-104357760D02*
X163423320Y-104103760D01*
X163194720Y-99887360D02*
X163194720Y-99557160D01*
X163067720Y-105805560D02*
X163067720Y-104764160D01*
X163093120Y-100852560D02*
X163093120Y-100776360D01*
X163372520Y-106592960D02*
X163372520Y-106211960D01*
X162940720Y-99684160D02*
X162940720Y-99328560D01*
X163905920Y-105856360D02*
X163905920Y-105475360D01*
X164032920Y-103925960D02*
X164032920Y-102833760D01*
X163499520Y-106516760D02*
X163499520Y-106161160D01*
X163372520Y-102452760D02*
X163372520Y-102173360D01*
X162635920Y-106872360D02*
X162635920Y-106592960D01*
X163270920Y-107177160D02*
X163270920Y-106821560D01*
X163194720Y-105881760D02*
X163194720Y-105526160D01*
X162813720Y-102655960D02*
X162813720Y-102376560D01*
X163626520Y-106465960D02*
X163626520Y-106084960D01*
X162483520Y-106796160D02*
X162483520Y-106669160D01*
X163270920Y-100344560D02*
X163270920Y-100090560D01*
X162839120Y-104357760D02*
X162839120Y-104103760D01*
X163550320Y-105932560D02*
X163550320Y-105653160D01*
X163626520Y-103925960D02*
X163626520Y-103671960D01*
X164032920Y-107558160D02*
X164032920Y-106415160D01*
X162813720Y-99557160D02*
X162813720Y-99201560D01*
X162839120Y-101436760D02*
X162839120Y-100801760D01*
X162915320Y-101589160D02*
X162915320Y-100700160D01*
X163702720Y-102986160D02*
X163702720Y-102046360D01*
X162915320Y-99658760D02*
X162915320Y-99303160D01*
X164159920Y-102173360D02*
X164159920Y-101893960D01*
X163220120Y-107151760D02*
X163220120Y-106796160D01*
X163143920Y-107126360D02*
X163143920Y-106770760D01*
X162940720Y-102706760D02*
X162940720Y-102325760D01*
X164591720Y-105983360D02*
X164591720Y-105602360D01*
X163753520Y-101843160D02*
X163753520Y-101538360D01*
X163829720Y-101817760D02*
X163829720Y-101462160D01*
X163372520Y-101868560D02*
X163372520Y-101589160D01*
X162940720Y-103925960D02*
X162940720Y-103671960D01*
X163118520Y-107100960D02*
X163118520Y-106745360D01*
X164032920Y-100344560D02*
X164032920Y-100090560D01*
X164236120Y-106161160D02*
X164236120Y-105780160D01*
X163855120Y-99836560D02*
X163855120Y-99480960D01*
X162991520Y-101690760D02*
X162991520Y-100725560D01*
X163220120Y-100344560D02*
X163220120Y-100090560D01*
X162966120Y-99709560D02*
X162966120Y-99353960D01*
X163905920Y-103925960D02*
X163905920Y-103671960D01*
X163042320Y-107075560D02*
X163042320Y-106389760D01*
X164058320Y-105729360D02*
X164058320Y-104662560D01*
X163448720Y-100344560D02*
X163448720Y-99811160D01*
X163296320Y-107202560D02*
X163296320Y-106821560D01*
X163829720Y-104357760D02*
X163829720Y-104103760D01*
X164109120Y-102198760D02*
X164109120Y-101893960D01*
X163067720Y-100344560D02*
X163067720Y-100090560D01*
X163728120Y-99938160D02*
X163728120Y-99582560D01*
X162585120Y-106846960D02*
X162585120Y-106618360D01*
X163448720Y-101868560D02*
X163448720Y-101589160D01*
X163677320Y-104916560D02*
X163677320Y-104662560D01*
X164363120Y-106084960D02*
X164363120Y-105729360D01*
X163016920Y-101716160D02*
X163016920Y-100750960D01*
X163169320Y-99887360D02*
X163169320Y-99531760D01*
X164058320Y-99658760D02*
X164058320Y-99277760D01*
X163448720Y-102884560D02*
X163448720Y-102630560D01*
X163677320Y-99988960D02*
X163677320Y-99633360D01*
X164058320Y-104357760D02*
X164058320Y-104103760D01*
X164185320Y-106186560D02*
X164185320Y-105805560D01*
X163956720Y-105830960D02*
X163956720Y-105399160D01*
X163347120Y-100039760D02*
X163347120Y-99709560D01*
X164388520Y-106084960D02*
X164388520Y-105703960D01*
X163347120Y-103925960D02*
X163347120Y-103671960D01*
X163880520Y-99811160D02*
X163880520Y-99455560D01*
X163372520Y-100344560D02*
X163372520Y-100090560D01*
X163270920Y-102833760D02*
X163270920Y-102579760D01*
X163448720Y-105297560D02*
X163448720Y-104662560D01*
X163982120Y-102249560D02*
X163982120Y-101944760D01*
X163169320Y-107126360D02*
X163169320Y-106770760D01*
X164058320Y-106237360D02*
X164058320Y-105881760D01*
X163397920Y-106567560D02*
X163397920Y-106211960D01*
X164159920Y-105627760D02*
X164159920Y-104789560D01*
X163956720Y-102249560D02*
X163956720Y-101944760D01*
X164617120Y-105957960D02*
X164617120Y-105576960D01*
X163728120Y-102986160D02*
X163728120Y-102046360D01*
X163118520Y-104941960D02*
X163118520Y-104789560D01*
X163499520Y-105932560D02*
X163499520Y-105653160D01*
X163499520Y-100344560D02*
X163499520Y-99785760D01*
X163194720Y-107151760D02*
X163194720Y-106796160D01*
X164007520Y-104357760D02*
X164007520Y-104103760D01*
X162737520Y-106923160D02*
X162737520Y-106542160D01*
X163702720Y-100344560D02*
X163702720Y-100090560D01*
X164083720Y-105729360D02*
X164083720Y-104687960D01*
X164159920Y-106186560D02*
X164159920Y-105830960D01*
X163931320Y-103062360D02*
X163931320Y-102782960D01*
X162686720Y-106897760D02*
X162686720Y-106567560D01*
X163804320Y-99861960D02*
X163804320Y-99506360D01*
X162966120Y-103925960D02*
X162966120Y-103671960D01*
X163677320Y-107380360D02*
X163677320Y-106999360D01*
X162839120Y-103925960D02*
X162839120Y-103671960D01*
X162966120Y-100344560D02*
X162966120Y-100090560D01*
X163118520Y-103925960D02*
X163118520Y-103671960D01*
X163728120Y-107405760D02*
X163728120Y-107024760D01*
X163804320Y-101817760D02*
X163804320Y-101487560D01*
X163016920Y-99734960D02*
X163016920Y-99404760D01*
X163270920Y-99963560D02*
X163270920Y-99633360D01*
X163143920Y-104357760D02*
X163143920Y-104103760D01*
X163423320Y-106567560D02*
X163423320Y-106186560D01*
X163931320Y-99760360D02*
X163931320Y-99404760D01*
X164185320Y-102147960D02*
X164185320Y-101868560D01*
X164464720Y-107862960D02*
X164464720Y-106389760D01*
X163194720Y-102808360D02*
X163194720Y-102554360D01*
X163982120Y-103925960D02*
X163982120Y-102808360D01*
X163143920Y-106694560D02*
X163143920Y-106338960D01*
X163093120Y-105805560D02*
X163093120Y-105348360D01*
X163397920Y-100065160D02*
X163397920Y-99760360D01*
X163220120Y-99912760D02*
X163220120Y-99582560D01*
X164134520Y-100344560D02*
X164134520Y-100090560D01*
X163855120Y-103036960D02*
X163855120Y-102757560D01*
X164566320Y-105983360D02*
X164566320Y-105602360D01*
X163601120Y-105932560D02*
X163601120Y-105653160D01*
X164083720Y-101614560D02*
X164083720Y-100700160D01*
X162813720Y-101360560D02*
X162813720Y-100903360D01*
X163372520Y-107227960D02*
X163372520Y-106872360D01*
X163702720Y-99963560D02*
X163702720Y-99607960D01*
X164388520Y-107862960D02*
X164388520Y-106389760D01*
X163804320Y-106364360D02*
X163804320Y-106008760D01*
X164286920Y-107862960D02*
X164286920Y-106389760D01*
X164083720Y-104357760D02*
X164083720Y-104103760D01*
X163905920Y-101766960D02*
X163905920Y-101385960D01*
X163778920Y-104916560D02*
X163778920Y-104662560D01*
X163499520Y-105297560D02*
X163499520Y-104662560D01*
X163321720Y-107202560D02*
X163321720Y-106846960D01*
X163550320Y-106491360D02*
X163550320Y-106135760D01*
X163169320Y-101817760D02*
X163169320Y-101462160D01*
X163016920Y-103925960D02*
X163016920Y-103671960D01*
X163855120Y-104357760D02*
X163855120Y-104103760D01*
X162940720Y-100344560D02*
X162940720Y-100090560D01*
X164032920Y-99658760D02*
X164032920Y-99303160D01*
X163296320Y-101843160D02*
X163296320Y-101538360D01*
X163905920Y-100344560D02*
X163905920Y-100090560D01*
X163905920Y-102274960D02*
X163905920Y-101970160D01*
X162915320Y-100344560D02*
X162915320Y-100090560D01*
X163143920Y-100344560D02*
X163143920Y-100090560D01*
X163753520Y-103011560D02*
X163753520Y-102020960D01*
X163296320Y-103925960D02*
X163296320Y-103671960D01*
X163474120Y-101868560D02*
X163474120Y-101589160D01*
X164159920Y-100344560D02*
X164159920Y-100090560D01*
X163804320Y-104357760D02*
X163804320Y-104103760D01*
X163626520Y-102960760D02*
X163626520Y-102071760D01*
X163143920Y-104891160D02*
X163143920Y-104789560D01*
X163829720Y-106364360D02*
X163829720Y-105983360D01*
X164413920Y-106059560D02*
X164413920Y-105678560D01*
X163931320Y-100344560D02*
X163931320Y-100090560D01*
X163321720Y-106618360D02*
X163321720Y-106237360D01*
X164413920Y-107862960D02*
X164413920Y-106389760D01*
X163728120Y-104357760D02*
X163728120Y-104103760D01*
X163956720Y-104967360D02*
X163956720Y-104662560D01*
X163753520Y-104916560D02*
X163753520Y-104662560D01*
X163194720Y-102503560D02*
X163194720Y-102224160D01*
X162966120Y-101665360D02*
X162966120Y-100725560D01*
X164007520Y-106262760D02*
X164007520Y-105907160D01*
X163118520Y-104357760D02*
X163118520Y-104103760D01*
X163982120Y-99709560D02*
X163982120Y-99353960D01*
X163575720Y-102376560D02*
X163575720Y-102097160D01*
X163270920Y-103925960D02*
X163270920Y-103671960D01*
X163905920Y-107507360D02*
X163905920Y-106465960D01*
X162813720Y-106948560D02*
X162813720Y-106516760D01*
X163524920Y-101868560D02*
X163524920Y-101589160D01*
X163499520Y-102909960D02*
X163499520Y-102655960D01*
X164058320Y-100344560D02*
X164058320Y-100090560D01*
X163677320Y-101868560D02*
X163677320Y-101563760D01*
X163524920Y-107304160D02*
X163524920Y-106948560D01*
X163829720Y-107456560D02*
X163829720Y-106516760D01*
X163931320Y-101766960D02*
X163931320Y-101335160D01*
X163956720Y-99734960D02*
X163956720Y-99379360D01*
X163397920Y-101868560D02*
X163397920Y-101589160D01*
X163728120Y-106415160D02*
X163728120Y-106034160D01*
X163804320Y-107456560D02*
X163804320Y-106516760D01*
X163067720Y-103925960D02*
X163067720Y-103671960D01*
X163423320Y-102884560D02*
X163423320Y-102630560D01*
X163169320Y-102503560D02*
X163169320Y-102249560D01*
X163550320Y-101868560D02*
X163550320Y-101589160D01*
X164134520Y-106211960D02*
X164134520Y-105830960D01*
X163753520Y-104357760D02*
X163753520Y-104103760D01*
X162839120Y-102681360D02*
X162839120Y-102376560D01*
X163321720Y-102859160D02*
X163321720Y-102579760D01*
X163524920Y-106516760D02*
X163524920Y-106135760D01*
X163804320Y-104916560D02*
X163804320Y-104662560D01*
X163296320Y-102833760D02*
X163296320Y-102579760D01*
X163067720Y-102757560D02*
X163067720Y-102274960D01*
X162966120Y-102706760D02*
X162966120Y-102325760D01*
X163905920Y-104916560D02*
X163905920Y-104662560D01*
X163982120Y-100344560D02*
X163982120Y-100090560D01*
X162864520Y-102681360D02*
X162864520Y-102351160D01*
X163728120Y-103925960D02*
X163728120Y-103671960D01*
X164083720Y-107583560D02*
X164083720Y-106389760D01*
X162864520Y-99607960D02*
X162864520Y-99252360D01*
X164109120Y-100344560D02*
X164109120Y-100090560D01*
X163194720Y-101817760D02*
X163194720Y-101487560D01*
X163575720Y-103925960D02*
X163575720Y-103671960D01*
X163626520Y-105932560D02*
X163626520Y-105653160D01*
X164185320Y-101436760D02*
X164185320Y-100827160D01*
X162966120Y-104357760D02*
X162966120Y-104103760D01*
X162915320Y-105627760D02*
X162915320Y-104789560D01*
X163423320Y-105932560D02*
X163423320Y-105653160D01*
X163016920Y-105754760D02*
X163016920Y-104713360D01*
X163296320Y-102478160D02*
X163296320Y-102198760D01*
X162915320Y-103925960D02*
X162915320Y-103671960D01*
X163829720Y-105881760D02*
X163829720Y-105551560D01*
X163321720Y-101868560D02*
X163321720Y-101563760D01*
X163245520Y-105907160D02*
X163245520Y-105576960D01*
X162915320Y-102706760D02*
X162915320Y-102351160D01*
X163753520Y-106389760D02*
X163753520Y-106034160D01*
X163016920Y-107050160D02*
X163016920Y-106415160D01*
X164210720Y-101360560D02*
X164210720Y-100928760D01*
X163880520Y-104357760D02*
X163880520Y-104103760D01*
X162889920Y-103925960D02*
X162889920Y-103671960D01*
X164058320Y-101665360D02*
X164058320Y-100700160D01*
X164134520Y-102173360D02*
X164134520Y-101893960D01*
X163397920Y-102884560D02*
X163397920Y-102605160D01*
X162407320Y-106745360D02*
X162407320Y-106719960D01*
X163347120Y-106592960D02*
X163347120Y-106237360D01*
X163397920Y-100344560D02*
X163397920Y-100090560D01*
X163397920Y-102427360D02*
X163397920Y-102173360D01*
X163778920Y-107431160D02*
X163778920Y-107050160D01*
X163448720Y-106542160D02*
X163448720Y-106186560D01*
X162813720Y-103925960D02*
X162813720Y-103671960D01*
X163626520Y-105297560D02*
X163626520Y-104662560D01*
X164693320Y-105932560D02*
X164693320Y-105551560D01*
X163702720Y-101868560D02*
X163702720Y-101563760D01*
X164109120Y-103925960D02*
X164109120Y-102859160D01*
X163194720Y-104357760D02*
X163194720Y-104103760D01*
X164007520Y-99684160D02*
X164007520Y-99328560D01*
X162991520Y-99709560D02*
X162991520Y-99379360D01*
X163499520Y-107304160D02*
X163499520Y-106923160D01*
X162508920Y-106796160D02*
X162508920Y-106669160D01*
X163702720Y-106415160D02*
X163702720Y-106059560D01*
X163931320Y-103925960D02*
X163931320Y-103671960D01*
X163245520Y-99938160D02*
X163245520Y-99607960D01*
X163880520Y-107481960D02*
X163880520Y-106491360D01*
X164007520Y-107558160D02*
X164007520Y-106415160D01*
X164058320Y-107583560D02*
X164058320Y-106389760D01*
X164312320Y-106110360D02*
X164312320Y-105754760D01*
X163677320Y-100344560D02*
X163677320Y-100090560D01*
X163321720Y-100344560D02*
X163321720Y-100090560D01*
X163855120Y-103925960D02*
X163855120Y-103671960D01*
X163093120Y-106719960D02*
X163093120Y-106364360D01*
X163601120Y-100344560D02*
X163601120Y-100090560D01*
X163397920Y-105932560D02*
X163397920Y-105653160D01*
X163042320Y-99760360D02*
X163042320Y-99430160D01*
X163093120Y-102757560D02*
X163093120Y-102274960D01*
X163982120Y-107532760D02*
X163982120Y-106440560D01*
X163931320Y-104941960D02*
X163931320Y-104662560D01*
X163347120Y-101868560D02*
X163347120Y-101563760D01*
X162839120Y-105424560D02*
X162839120Y-104992760D01*
X164439320Y-107862960D02*
X164439320Y-106389760D01*
X163016920Y-102732160D02*
X163016920Y-102300360D01*
X163372520Y-103925960D02*
X163372520Y-103671960D01*
D13*
%TO.C,R7*%
X146573000Y-96585000D02*
X146573000Y-97855000D01*
X144287000Y-97855000D02*
X144287000Y-96585000D01*
X146573000Y-97855000D02*
X144287000Y-97855000D01*
X144287000Y-96585000D02*
X146573000Y-96585000D01*
%TO.C,C19*%
X132857000Y-97885000D02*
X132857000Y-96615000D01*
X135143000Y-97885000D02*
X132857000Y-97885000D01*
X135143000Y-96615000D02*
X135143000Y-97885000D01*
X132857000Y-96615000D02*
X135143000Y-96615000D01*
%TO.C,C14*%
X148135000Y-112143000D02*
X146865000Y-112143000D01*
X146865000Y-112143000D02*
X146865000Y-109857000D01*
X148135000Y-109857000D02*
X148135000Y-112143000D01*
X146865000Y-109857000D02*
X148135000Y-109857000D01*
%TO.C,U2*%
X133262000Y-113270000D02*
X131738000Y-113270000D01*
X131738000Y-113270000D02*
X131738000Y-110666500D01*
X133262000Y-110666500D02*
X133262000Y-113270000D01*
X131738000Y-110666500D02*
X133262000Y-110666500D01*
X131738000Y-111492000D02*
X132246000Y-110730000D01*
%TO.C,C11*%
X150465000Y-97607000D02*
X151735000Y-97607000D01*
X151735000Y-97607000D02*
X151735000Y-99893000D01*
X150465000Y-99893000D02*
X150465000Y-97607000D01*
X151735000Y-99893000D02*
X150465000Y-99893000D01*
%TO.C,R4*%
X149935000Y-99893000D02*
X148665000Y-99893000D01*
X149935000Y-97607000D02*
X149935000Y-99893000D01*
X148665000Y-99893000D02*
X148665000Y-97607000D01*
X148665000Y-97607000D02*
X149935000Y-97607000D01*
%TO.C,C13*%
X140357000Y-105365000D02*
X142643000Y-105365000D01*
X140357000Y-106635000D02*
X140357000Y-105365000D01*
X142643000Y-106635000D02*
X140357000Y-106635000D01*
X142643000Y-105365000D02*
X142643000Y-106635000D01*
D14*
%TO.C,SW1*%
X141500000Y-96500000D02*
X138000000Y-96500000D01*
X142100000Y-100000000D02*
X137400000Y-100000000D01*
D11*
X140600000Y-95500000D02*
X138900000Y-95500000D01*
D13*
%TO.C,R2*%
X133685000Y-101393000D02*
X132415000Y-101393000D01*
X133685000Y-99107000D02*
X133685000Y-101393000D01*
X132415000Y-101393000D02*
X132415000Y-99107000D01*
X132415000Y-99107000D02*
X133685000Y-99107000D01*
%TO.C,R5*%
X136015000Y-103143000D02*
X136015000Y-100857000D01*
X136015000Y-100857000D02*
X137285000Y-100857000D01*
X137285000Y-100857000D02*
X137285000Y-103143000D01*
X137285000Y-103143000D02*
X136015000Y-103143000D01*
%TO.C,C4*%
X140738000Y-111492000D02*
X140738000Y-110476000D01*
X142262000Y-110476000D02*
X142262000Y-111492000D01*
X140738000Y-113524000D02*
X140738000Y-112508000D01*
X142262000Y-112508000D02*
X142262000Y-113524000D01*
X140738000Y-110476000D02*
X142262000Y-110476000D01*
X142262000Y-113524000D02*
X140738000Y-113524000D01*
D14*
%TO.C,L1*%
X137750000Y-110400000D02*
X138250000Y-110900000D01*
X135250000Y-113400000D02*
X137250000Y-113400000D01*
X136250000Y-110400000D02*
X137750000Y-110400000D01*
X138250000Y-110900000D02*
X138250000Y-112400000D01*
X135250000Y-111400000D02*
X135250000Y-113400000D01*
D13*
%TO.C,C18*%
X161357000Y-97885000D02*
X161357000Y-96615000D01*
X161357000Y-96615000D02*
X163643000Y-96615000D01*
X163643000Y-96615000D02*
X163643000Y-97885000D01*
X163643000Y-97885000D02*
X161357000Y-97885000D01*
%TO.C,D2*%
X160008000Y-111738000D02*
X161024000Y-111738000D01*
X157976000Y-113262000D02*
X157976000Y-111738000D01*
X157976000Y-111738000D02*
X158992000Y-111738000D01*
X161024000Y-111738000D02*
X161024000Y-113262000D01*
X161024000Y-113262000D02*
X160008000Y-113262000D01*
X158992000Y-113262000D02*
X157976000Y-113262000D01*
%TO.C,C6*%
X154357000Y-109135000D02*
X154357000Y-107865000D01*
X154357000Y-107865000D02*
X156643000Y-107865000D01*
X156643000Y-109135000D02*
X154357000Y-109135000D01*
X156643000Y-107865000D02*
X156643000Y-109135000D01*
%TO.C,D1*%
X132675000Y-104600000D02*
X132675000Y-103400000D01*
X134725000Y-103400000D02*
X135325000Y-104000000D01*
X135325000Y-103400000D02*
X135325000Y-104600000D01*
%TO.C,R1*%
X136135000Y-108893000D02*
X134865000Y-108893000D01*
X134865000Y-108893000D02*
X134865000Y-106607000D01*
X136135000Y-106607000D02*
X136135000Y-108893000D01*
X134865000Y-106607000D02*
X136135000Y-106607000D01*
%TO.C,R6*%
X159357000Y-110115000D02*
X161643000Y-110115000D01*
X161643000Y-110115000D02*
X161643000Y-111385000D01*
X159357000Y-111385000D02*
X159357000Y-110115000D01*
X161643000Y-111385000D02*
X159357000Y-111385000D01*
%TO.C,L2*%
X164143000Y-113135000D02*
X161857000Y-113135000D01*
X161857000Y-111865000D02*
X164143000Y-111865000D01*
X161857000Y-113135000D02*
X161857000Y-111865000D01*
X164143000Y-111865000D02*
X164143000Y-113135000D01*
%TO.C,C17*%
X156643000Y-106115000D02*
X156643000Y-107385000D01*
X154357000Y-106115000D02*
X156643000Y-106115000D01*
X156643000Y-107385000D02*
X154357000Y-107385000D01*
X154357000Y-107385000D02*
X154357000Y-106115000D01*
%TO.C,U3*%
X157258000Y-96083000D02*
X157258000Y-96591000D01*
X154972000Y-96083000D02*
X154845000Y-96083000D01*
X154845000Y-96083000D02*
X154845000Y-101417000D01*
X158655000Y-96083000D02*
X154972000Y-96083000D01*
X158655000Y-101417000D02*
X158655000Y-96083000D01*
X156242000Y-96591000D02*
X156242000Y-96083000D01*
X158655000Y-101417000D02*
X154845000Y-101417000D01*
X157258000Y-96591000D02*
X156242000Y-96591000D01*
%TO.C,C12*%
X146865000Y-97607000D02*
X148135000Y-97607000D01*
X146865000Y-99893000D02*
X146865000Y-97607000D01*
X148135000Y-97607000D02*
X148135000Y-99893000D01*
X148135000Y-99893000D02*
X146865000Y-99893000D01*
%TO.C,C10*%
X139135000Y-105357000D02*
X139135000Y-107643000D01*
X139135000Y-107643000D02*
X137865000Y-107643000D01*
X137865000Y-107643000D02*
X137865000Y-105357000D01*
X137865000Y-105357000D02*
X139135000Y-105357000D01*
%TO.C,C9*%
X142107000Y-100615000D02*
X144393000Y-100615000D01*
X144393000Y-101885000D02*
X142107000Y-101885000D01*
X142107000Y-101885000D02*
X142107000Y-100615000D01*
X144393000Y-100615000D02*
X144393000Y-101885000D01*
D10*
%TO.C,P1*%
X125750000Y-111025000D02*
X125750000Y-110100000D01*
X110750000Y-111025000D02*
X125750000Y-111025000D01*
X110750000Y-98975000D02*
X110750000Y-111025000D01*
X125750000Y-98975000D02*
X125750000Y-99900000D01*
X125750000Y-98975000D02*
X110750000Y-98975000D01*
X129550000Y-99900000D02*
X129550000Y-110100000D01*
X125750000Y-99900000D02*
X129550000Y-99900000D01*
X125750000Y-110100000D02*
X129550000Y-110100000D01*
D13*
%TO.C,C5*%
X137635000Y-106607000D02*
X137635000Y-108893000D01*
X137635000Y-108893000D02*
X136365000Y-108893000D01*
X136365000Y-106607000D02*
X137635000Y-106607000D01*
X136365000Y-108893000D02*
X136365000Y-106607000D01*
%TO.C,C16*%
X153365000Y-109357000D02*
X154635000Y-109357000D01*
X154635000Y-109357000D02*
X154635000Y-111643000D01*
X154635000Y-111643000D02*
X153365000Y-111643000D01*
X153365000Y-111643000D02*
X153365000Y-109357000D01*
%TO.C,C8*%
X156643000Y-104365000D02*
X156643000Y-105635000D01*
X154357000Y-104365000D02*
X156643000Y-104365000D01*
X154357000Y-105635000D02*
X154357000Y-104365000D01*
X156643000Y-105635000D02*
X154357000Y-105635000D01*
%TO.C,C3*%
X138788000Y-113524000D02*
X138788000Y-112508000D01*
X140312000Y-113524000D02*
X138788000Y-113524000D01*
X138788000Y-110476000D02*
X140312000Y-110476000D01*
X138788000Y-111492000D02*
X138788000Y-110476000D01*
X140312000Y-110476000D02*
X140312000Y-111492000D01*
X140312000Y-112508000D02*
X140312000Y-113524000D01*
D16*
%TO.C,ohw_logo*%
X159557100Y-105491800D02*
X160242900Y-105491800D01*
X160522300Y-107752400D02*
X162249500Y-107752400D01*
X160141300Y-108235000D02*
X161538300Y-108235000D01*
X159734900Y-105288600D02*
X159988900Y-105288600D01*
X157575900Y-107346000D02*
X159328500Y-107346000D01*
X159480900Y-105822000D02*
X160293700Y-105822000D01*
X158185500Y-109225600D02*
X158947500Y-109225600D01*
X160522300Y-107498400D02*
X162224100Y-107498400D01*
X158160100Y-108895400D02*
X159455500Y-108895400D01*
X158185500Y-108031800D02*
X159455500Y-108031800D01*
X160522300Y-107574600D02*
X162249500Y-107574600D01*
X158160100Y-106355400D02*
X161614500Y-106355400D01*
X160268300Y-108108000D02*
X161589100Y-108108000D01*
X158414100Y-105822000D02*
X158617300Y-105822000D01*
X158134700Y-106330000D02*
X161639900Y-106330000D01*
X160471500Y-109098600D02*
X161716100Y-109098600D01*
X157550500Y-107727000D02*
X159277700Y-107727000D01*
X158134700Y-106304600D02*
X161665300Y-106304600D01*
X160420700Y-107269800D02*
X162198700Y-107269800D01*
X160344500Y-108743000D02*
X161639900Y-108743000D01*
X160344500Y-108768400D02*
X161639900Y-108768400D01*
X157575900Y-107523800D02*
X159277700Y-107523800D01*
X160141300Y-108184200D02*
X161563700Y-108184200D01*
X160420700Y-107955600D02*
X161716100Y-107955600D01*
X159506300Y-105720400D02*
X160293700Y-105720400D01*
X161030300Y-109251000D02*
X161589100Y-109251000D01*
X159480900Y-105847400D02*
X160319100Y-105847400D01*
X161004900Y-105923600D02*
X161512900Y-105923600D01*
X158363300Y-108616000D02*
X159557100Y-108616000D01*
X158337900Y-109479600D02*
X158591900Y-109479600D01*
X161055700Y-109301800D02*
X161614500Y-109301800D01*
X158312500Y-109428800D02*
X158642700Y-109428800D01*
X160522300Y-107727000D02*
X162249500Y-107727000D01*
X157575900Y-107777800D02*
X159303100Y-107777800D01*
X161258900Y-109428800D02*
X161589100Y-109428800D01*
X158439500Y-109581200D02*
X158541100Y-109581200D01*
X157575900Y-107879400D02*
X159328500Y-107879400D01*
X158363300Y-109505000D02*
X158591900Y-109505000D01*
X158134700Y-108920800D02*
X159430100Y-108920800D01*
X158210900Y-108819200D02*
X159480900Y-108819200D01*
X158236300Y-108158800D02*
X159607900Y-108158800D01*
X159557100Y-105441000D02*
X160242900Y-105441000D01*
X159531700Y-105517200D02*
X160268300Y-105517200D01*
X158236300Y-107092000D02*
X159557100Y-107092000D01*
X158236300Y-108209600D02*
X159684100Y-108209600D01*
X158210900Y-109251000D02*
X158896700Y-109251000D01*
X158210900Y-108057200D02*
X159455500Y-108057200D01*
X160395300Y-108920800D02*
X161766900Y-108920800D01*
X161436700Y-109581200D02*
X161487500Y-109581200D01*
X160242900Y-108133400D02*
X161589100Y-108133400D01*
X160446100Y-107930200D02*
X161893900Y-107930200D01*
X159252300Y-109301800D02*
X159303100Y-109301800D01*
X158312500Y-109352600D02*
X158744300Y-109352600D01*
X157728300Y-107269800D02*
X159379300Y-107269800D01*
X158134700Y-106076000D02*
X158972900Y-106076000D01*
X160217500Y-108412800D02*
X161462100Y-108412800D01*
X157550500Y-107701600D02*
X159277700Y-107701600D01*
X158312500Y-109378000D02*
X158693500Y-109378000D01*
X160954100Y-105949000D02*
X161538300Y-105949000D01*
X157575900Y-107828600D02*
X159328500Y-107828600D01*
X161233500Y-105771200D02*
X161335100Y-105771200D01*
X157575900Y-107447600D02*
X159303100Y-107447600D01*
X160496900Y-107803200D02*
X162224100Y-107803200D01*
X158388700Y-109530400D02*
X158566500Y-109530400D01*
X158109300Y-106101400D02*
X158998300Y-106101400D01*
X159303100Y-105974400D02*
X160496900Y-105974400D01*
X161157300Y-109378000D02*
X161614500Y-109378000D01*
X160293700Y-108641400D02*
X161563700Y-108641400D01*
X160319100Y-108717600D02*
X161614500Y-108717600D01*
X160522300Y-107650800D02*
X162249500Y-107650800D01*
X159531700Y-105618800D02*
X160268300Y-105618800D01*
X161106500Y-105847400D02*
X161436700Y-105847400D01*
X157550500Y-107650800D02*
X159277700Y-107650800D01*
X159557100Y-105390200D02*
X160242900Y-105390200D01*
X160192100Y-108158800D02*
X161563700Y-108158800D01*
X158058500Y-109047800D02*
X159404700Y-109047800D01*
X161335100Y-109479600D02*
X161563700Y-109479600D01*
X159506300Y-105771200D02*
X160293700Y-105771200D01*
X158236300Y-106457000D02*
X161563700Y-106457000D01*
X158261700Y-105949000D02*
X158795100Y-105949000D01*
X159023700Y-106101400D02*
X161690700Y-106101400D01*
X158464900Y-109606600D02*
X158541100Y-109606600D01*
X158109300Y-108971600D02*
X159430100Y-108971600D01*
X159150700Y-109251000D02*
X159328500Y-109251000D01*
X157575900Y-107803200D02*
X159303100Y-107803200D01*
X158261700Y-108260400D02*
X159684100Y-108260400D01*
X159074500Y-109225600D02*
X159328500Y-109225600D01*
X160522300Y-109225600D02*
X160725500Y-109225600D01*
X158287100Y-108717600D02*
X159506300Y-108717600D01*
X160395300Y-107219000D02*
X162097100Y-107219000D01*
X160217500Y-107066600D02*
X161563700Y-107066600D01*
X159557100Y-105364800D02*
X160242900Y-105364800D01*
X160522300Y-109200200D02*
X160776300Y-109200200D01*
X160496900Y-107447600D02*
X162224100Y-107447600D01*
X158287100Y-109327200D02*
X158769700Y-109327200D01*
X161182700Y-105796600D02*
X161360500Y-105796600D01*
X161157300Y-105822000D02*
X161385900Y-105822000D01*
X157575900Y-107422200D02*
X159303100Y-107422200D01*
X160446100Y-107295200D02*
X162224100Y-107295200D01*
X158236300Y-108768400D02*
X159506300Y-108768400D01*
X158363300Y-108489000D02*
X159582500Y-108489000D01*
X160471500Y-109124000D02*
X161690700Y-109124000D01*
X158312500Y-109403400D02*
X158668100Y-109403400D01*
X159557100Y-105415600D02*
X160242900Y-105415600D01*
X158210900Y-107117400D02*
X159506300Y-107117400D01*
X158261700Y-108743000D02*
X159506300Y-108743000D01*
X160166700Y-108311200D02*
X161512900Y-108311200D01*
X159125300Y-106050600D02*
X160674700Y-106050600D01*
X158058500Y-109073200D02*
X159379300Y-109073200D01*
X160522300Y-107625400D02*
X162249500Y-107625400D01*
X160395300Y-107981000D02*
X161614500Y-107981000D01*
X160522300Y-107473000D02*
X162224100Y-107473000D01*
X158033100Y-107219000D02*
X159404700Y-107219000D01*
X160166700Y-108336600D02*
X161512900Y-108336600D01*
X160293700Y-107117400D02*
X161589100Y-107117400D01*
X160446100Y-108997000D02*
X161792300Y-108997000D01*
X159531700Y-105568000D02*
X160268300Y-105568000D01*
X158210900Y-108133400D02*
X159557100Y-108133400D01*
X158160100Y-109200200D02*
X159353900Y-109200200D01*
X158083900Y-106253800D02*
X161690700Y-106253800D01*
X158337900Y-106838000D02*
X161462100Y-106838000D01*
X158337900Y-108641400D02*
X159531700Y-108641400D01*
X159506300Y-105695000D02*
X160293700Y-105695000D01*
X161055700Y-109276400D02*
X161614500Y-109276400D01*
X157575900Y-107854000D02*
X159328500Y-107854000D01*
X160268300Y-108590600D02*
X161538300Y-108590600D01*
X160166700Y-108285800D02*
X161512900Y-108285800D01*
X158337900Y-105872800D02*
X158693500Y-105872800D01*
X159582500Y-105314000D02*
X160217500Y-105314000D01*
X158312500Y-106558600D02*
X161487500Y-106558600D01*
X157550500Y-107600000D02*
X159277700Y-107600000D01*
X158388700Y-108514400D02*
X159582500Y-108514400D01*
X160395300Y-107244400D02*
X162198700Y-107244400D01*
X158312500Y-108666800D02*
X159531700Y-108666800D01*
X157550500Y-107625400D02*
X159277700Y-107625400D01*
X161385900Y-109530400D02*
X161538300Y-109530400D01*
X160776300Y-106076000D02*
X161665300Y-106076000D01*
X158312500Y-108387400D02*
X159633300Y-108387400D01*
X158261700Y-108235000D02*
X159684100Y-108235000D01*
X157550500Y-107752400D02*
X159303100Y-107752400D01*
X161208100Y-109403400D02*
X161614500Y-109403400D01*
X158083900Y-106126800D02*
X161690700Y-106126800D01*
X160369900Y-108006400D02*
X161614500Y-108006400D01*
X158388700Y-108539800D02*
X159582500Y-108539800D01*
X161309700Y-109454200D02*
X161589100Y-109454200D01*
X161030300Y-105898200D02*
X161487500Y-105898200D01*
X159379300Y-105949000D02*
X160420700Y-105949000D01*
X160369900Y-108844600D02*
X161690700Y-108844600D01*
X160166700Y-107041200D02*
X161563700Y-107041200D01*
X160496900Y-107777800D02*
X162249500Y-107777800D01*
X158363300Y-106761800D02*
X161436700Y-106761800D01*
X160217500Y-108463600D02*
X161436700Y-108463600D01*
X157575900Y-107904800D02*
X159353900Y-107904800D01*
X158363300Y-106660200D02*
X161411300Y-106660200D01*
X160369900Y-108819200D02*
X161690700Y-108819200D01*
X158109300Y-108946200D02*
X159430100Y-108946200D01*
X161411300Y-109555800D02*
X161512900Y-109555800D01*
X159226900Y-105999800D02*
X160547700Y-105999800D01*
X158210900Y-107142800D02*
X159480900Y-107142800D01*
X160293700Y-108616000D02*
X161538300Y-108616000D01*
X159506300Y-105669600D02*
X160293700Y-105669600D01*
X157804500Y-107955600D02*
X159379300Y-107955600D01*
X159557100Y-105466400D02*
X160242900Y-105466400D01*
X158337900Y-108438200D02*
X159607900Y-108438200D01*
X160319100Y-107142800D02*
X161665300Y-107142800D01*
X160496900Y-107396800D02*
X162224100Y-107396800D01*
X160496900Y-107828600D02*
X162224100Y-107828600D01*
X158312500Y-106888800D02*
X161487500Y-106888800D01*
X160268300Y-108539800D02*
X161487500Y-108539800D01*
X160319100Y-108692200D02*
X161589100Y-108692200D01*
X160192100Y-108387400D02*
X161487500Y-108387400D01*
X158312500Y-106863400D02*
X161487500Y-106863400D01*
X160420700Y-108946200D02*
X161766900Y-108946200D01*
X160268300Y-108565200D02*
X161512900Y-108565200D01*
X160242900Y-108514400D02*
X161462100Y-108514400D01*
X160344500Y-108057200D02*
X161589100Y-108057200D01*
X159531700Y-105542600D02*
X160268300Y-105542600D01*
X160242900Y-108489000D02*
X161462100Y-108489000D01*
X158083900Y-109124000D02*
X159379300Y-109124000D01*
X157956900Y-107981000D02*
X159404700Y-107981000D01*
X160522300Y-107523800D02*
X162249500Y-107523800D01*
X158337900Y-106812600D02*
X161462100Y-106812600D01*
X160446100Y-107904800D02*
X162046300Y-107904800D01*
X158287100Y-108336600D02*
X159658700Y-108336600D01*
X158109300Y-109149400D02*
X159353900Y-109149400D01*
X158261700Y-106965000D02*
X161512900Y-106965000D01*
X158210900Y-107168200D02*
X159455500Y-107168200D01*
X160446100Y-107320600D02*
X162224100Y-107320600D01*
X158363300Y-106787200D02*
X161436700Y-106787200D01*
X158185500Y-108844600D02*
X159455500Y-108844600D01*
X158083900Y-106152200D02*
X161716100Y-106152200D01*
X158261700Y-106507800D02*
X161512900Y-106507800D01*
X160471500Y-107879400D02*
X162198700Y-107879400D01*
X158287100Y-105923600D02*
X158744300Y-105923600D01*
X158083900Y-108006400D02*
X159430100Y-108006400D01*
X157575900Y-107498400D02*
X159277700Y-107498400D01*
X160141300Y-108209600D02*
X161563700Y-108209600D01*
X160522300Y-107676200D02*
X162249500Y-107676200D01*
X160369900Y-107193600D02*
X161944700Y-107193600D01*
X160141300Y-108260400D02*
X161538300Y-108260400D01*
X158210900Y-108108000D02*
X159531700Y-108108000D01*
X160522300Y-107600000D02*
X162249500Y-107600000D01*
X157575900Y-107371400D02*
X159328500Y-107371400D01*
X158185500Y-108870000D02*
X159455500Y-108870000D01*
X160979500Y-109200200D02*
X161639900Y-109200200D01*
X158287100Y-106939600D02*
X161512900Y-106939600D01*
X159480900Y-105796600D02*
X160293700Y-105796600D01*
X158210900Y-106406200D02*
X161589100Y-106406200D01*
X160344500Y-108793800D02*
X161665300Y-108793800D01*
X159506300Y-105745800D02*
X160293700Y-105745800D01*
X160395300Y-108895400D02*
X161741500Y-108895400D01*
X160522300Y-109251000D02*
X160674700Y-109251000D01*
X158236300Y-107066600D02*
X159582500Y-107066600D01*
X159455500Y-105923600D02*
X160319100Y-105923600D01*
X160446100Y-109047800D02*
X161766900Y-109047800D01*
X158134700Y-109174800D02*
X159353900Y-109174800D01*
X158414100Y-109555800D02*
X158566500Y-109555800D01*
X160547700Y-109276400D02*
X160623900Y-109276400D01*
X160217500Y-108438200D02*
X161462100Y-108438200D01*
X157550500Y-107676200D02*
X159277700Y-107676200D01*
X160090500Y-107015800D02*
X161538300Y-107015800D01*
X159531700Y-105593400D02*
X160268300Y-105593400D01*
X159582500Y-105339400D02*
X160217500Y-105339400D01*
X158388700Y-108590600D02*
X159557100Y-108590600D01*
X160496900Y-109149400D02*
X161690700Y-109149400D01*
X160903300Y-109174800D02*
X161665300Y-109174800D01*
X158287100Y-106914200D02*
X161512900Y-106914200D01*
X158083900Y-108997000D02*
X159404700Y-108997000D01*
X158058500Y-106177600D02*
X161716100Y-106177600D01*
X158363300Y-105847400D02*
X158642700Y-105847400D01*
X158210900Y-105999800D02*
X158871300Y-105999800D01*
X160344500Y-107168200D02*
X161817700Y-107168200D01*
X158337900Y-106609400D02*
X161436700Y-106609400D01*
X160192100Y-108362000D02*
X161487500Y-108362000D01*
X161360500Y-109505000D02*
X161563700Y-109505000D01*
X158261700Y-106990400D02*
X159785700Y-106990400D01*
X160293700Y-108082600D02*
X161589100Y-108082600D01*
X161004900Y-109225600D02*
X161614500Y-109225600D01*
X157550500Y-107574600D02*
X159277700Y-107574600D01*
X160522300Y-107701600D02*
X162249500Y-107701600D01*
X159480900Y-105872800D02*
X160319100Y-105872800D01*
X158312500Y-105898200D02*
X158718900Y-105898200D01*
X158363300Y-108463600D02*
X159607900Y-108463600D01*
X160014300Y-106990400D02*
X161538300Y-106990400D01*
X160395300Y-108870000D02*
X161716100Y-108870000D01*
X160877900Y-105999800D02*
X161589100Y-105999800D01*
X158363300Y-106634800D02*
X161411300Y-106634800D01*
X157550500Y-107549200D02*
X159277700Y-107549200D01*
X158236300Y-109276400D02*
X158845900Y-109276400D01*
X160369900Y-108031800D02*
X161614500Y-108031800D01*
X157575900Y-107473000D02*
X159303100Y-107473000D01*
X160471500Y-107854000D02*
X162224100Y-107854000D01*
X158388700Y-106736400D02*
X161411300Y-106736400D01*
X160547700Y-109301800D02*
X160573100Y-109301800D01*
X160852500Y-106025200D02*
X161614500Y-106025200D01*
X158464900Y-105771200D02*
X158541100Y-105771200D01*
X157601300Y-107295200D02*
X159353900Y-107295200D01*
X158261700Y-107015800D02*
X159709500Y-107015800D01*
X160471500Y-107346000D02*
X162224100Y-107346000D01*
X158261700Y-108285800D02*
X159658700Y-108285800D01*
X158388700Y-106685600D02*
X161385900Y-106685600D01*
X159480900Y-105898200D02*
X160319100Y-105898200D01*
X158388700Y-108565200D02*
X159557100Y-108565200D01*
X161106500Y-109327200D02*
X161614500Y-109327200D01*
X159176100Y-106025200D02*
X160623900Y-106025200D01*
X160827100Y-106050600D02*
X161639900Y-106050600D01*
X157575900Y-107320600D02*
X159353900Y-107320600D01*
X160242900Y-107092000D02*
X161563700Y-107092000D01*
X160928700Y-105974400D02*
X161563700Y-105974400D01*
X158058500Y-106203000D02*
X161716100Y-106203000D01*
X160446100Y-109022400D02*
X161792300Y-109022400D01*
X159201500Y-109276400D02*
X159303100Y-109276400D01*
X158388700Y-106711000D02*
X161385900Y-106711000D01*
X158337900Y-109454200D02*
X158617300Y-109454200D01*
X160420700Y-108971600D02*
X161792300Y-108971600D01*
X157575900Y-107396800D02*
X159303100Y-107396800D01*
X158261700Y-106482400D02*
X161538300Y-106482400D01*
X161081100Y-105872800D02*
X161462100Y-105872800D01*
X158261700Y-109301800D02*
X158820500Y-109301800D01*
X158058500Y-109022400D02*
X159404700Y-109022400D01*
X160496900Y-107422200D02*
X162224100Y-107422200D01*
X158312500Y-106584000D02*
X161462100Y-106584000D01*
X158210900Y-108082600D02*
X159506300Y-108082600D01*
X158287100Y-108311200D02*
X159658700Y-108311200D01*
X158287100Y-106533200D02*
X161487500Y-106533200D01*
X159074500Y-106076000D02*
X160725500Y-106076000D01*
X157880700Y-107244400D02*
X159404700Y-107244400D01*
X158185500Y-106380800D02*
X161614500Y-106380800D01*
X160471500Y-109073200D02*
X161741500Y-109073200D01*
X158439500Y-105796600D02*
X158566500Y-105796600D01*
X158058500Y-109098600D02*
X159379300Y-109098600D01*
X160522300Y-107549200D02*
X162249500Y-107549200D01*
X158337900Y-108412800D02*
X159607900Y-108412800D01*
X159506300Y-105644200D02*
X160268300Y-105644200D01*
X160471500Y-107371400D02*
X162224100Y-107371400D01*
X158210900Y-106431600D02*
X161563700Y-106431600D01*
X158109300Y-106279200D02*
X161690700Y-106279200D01*
X158236300Y-108793800D02*
X159480900Y-108793800D01*
X158160100Y-106050600D02*
X158922100Y-106050600D01*
X158083900Y-106228400D02*
X161716100Y-106228400D01*
X158236300Y-107041200D02*
X159633300Y-107041200D01*
X157677500Y-107930200D02*
X159379300Y-107930200D01*
X158236300Y-108184200D02*
X159658700Y-108184200D01*
X158312500Y-108362000D02*
X159633300Y-108362000D01*
X160293700Y-108666800D02*
X161589100Y-108666800D01*
X158236300Y-105974400D02*
X158820500Y-105974400D01*
X161131900Y-109352600D02*
X161614500Y-109352600D01*
X158185500Y-107193600D02*
X159430100Y-107193600D01*
X158312500Y-108692200D02*
X159531700Y-108692200D01*
X160496900Y-109174800D02*
X160852500Y-109174800D01*
X158185500Y-106025200D02*
X158896700Y-106025200D01*
D13*
%TO.C,C20*%
X162988000Y-108556000D02*
X164512000Y-108556000D01*
X164512000Y-110588000D02*
X164512000Y-111604000D01*
X164512000Y-108556000D02*
X164512000Y-109572000D01*
X164512000Y-111604000D02*
X162988000Y-111604000D01*
X162988000Y-109572000D02*
X162988000Y-108556000D01*
X162988000Y-111604000D02*
X162988000Y-110588000D01*
D14*
%TO.C,X1*%
X141350000Y-102950000D02*
X141350000Y-103550000D01*
X138150000Y-103550000D02*
X138150000Y-102950000D01*
X140150000Y-104500000D02*
X139350000Y-104500000D01*
X140150000Y-102000000D02*
X139350000Y-102000000D01*
D13*
%TO.C,C1*%
X130262000Y-112508000D02*
X130262000Y-113524000D01*
X128738000Y-111492000D02*
X128738000Y-110476000D01*
X128738000Y-110476000D02*
X130262000Y-110476000D01*
X130262000Y-113524000D02*
X128738000Y-113524000D01*
X128738000Y-113524000D02*
X128738000Y-112508000D01*
X130262000Y-110476000D02*
X130262000Y-111492000D01*
%TO.C,R3*%
X134315000Y-101393000D02*
X134315000Y-99107000D01*
X134315000Y-99107000D02*
X135585000Y-99107000D01*
X135585000Y-99107000D02*
X135585000Y-101393000D01*
X135585000Y-101393000D02*
X134315000Y-101393000D01*
%TD*%
M02*
