%TF.GenerationSoftware,KiCad,Pcbnew,(6.0.7)*%
%TF.CreationDate,2022-08-11T09:50:47+02:00*%
%TF.ProjectId,cowstick-rp,636f7773-7469-4636-9b2d-72702e6b6963,1*%
%TF.SameCoordinates,Original*%
%TF.FileFunction,Copper,L2,Inr*%
%TF.FilePolarity,Positive*%
%FSLAX46Y46*%
G04 Gerber Fmt 4.6, Leading zero omitted, Abs format (unit mm)*
G04 Created by KiCad (PCBNEW (6.0.7)) date 2022-08-11 09:50:47*
%MOMM*%
%LPD*%
G01*
G04 APERTURE LIST*
%TA.AperFunction,ComponentPad*%
%ADD10R,1.750000X1.750000*%
%TD*%
%TA.AperFunction,ComponentPad*%
%ADD11C,1.750000*%
%TD*%
%TA.AperFunction,ComponentPad*%
%ADD12C,2.000000*%
%TD*%
%TA.AperFunction,ViaPad*%
%ADD13C,0.711200*%
%TD*%
%TA.AperFunction,Conductor*%
%ADD14C,0.304800*%
%TD*%
%TA.AperFunction,Conductor*%
%ADD15C,0.406400*%
%TD*%
G04 APERTURE END LIST*
D10*
%TO.N,PMOD_CTS*%
%TO.C,J2*%
X165836500Y-98650000D03*
D11*
%TO.N,PMOD_TX*%
X165836500Y-101190000D03*
%TO.N,PMOD_RX*%
X165836500Y-103730000D03*
%TO.N,PMOD_RTS*%
X165836500Y-106270000D03*
%TO.N,GND*%
X165836500Y-108810000D03*
%TO.N,+PMOD*%
X165836500Y-111350000D03*
D12*
%TO.N,PMOD_IO5*%
X168376500Y-98650000D03*
%TO.N,PMOD_IO6*%
X168376500Y-101190000D03*
%TO.N,PMOD_IO7*%
X168376500Y-103730000D03*
%TO.N,PMOD_IO8*%
X168376500Y-106270000D03*
%TO.N,GND*%
X168376500Y-108810000D03*
%TO.N,+PMOD*%
X168376500Y-111350000D03*
%TD*%
D13*
%TO.N,PMOD_CTS*%
X143750000Y-99000000D03*
%TO.N,PMOD_TX*%
X145430000Y-98850000D03*
%TO.N,GND*%
X160500000Y-113900000D03*
X149300000Y-105800000D03*
X126600000Y-98000000D03*
X144500000Y-96100000D03*
X158830000Y-101770000D03*
X152150000Y-100660000D03*
X164500000Y-96100000D03*
X164100000Y-97250000D03*
X164500000Y-113900000D03*
X148500000Y-113900000D03*
X134000000Y-101700000D03*
X156500000Y-96100000D03*
X137010000Y-111500000D03*
X148500000Y-96100000D03*
X154500000Y-113900000D03*
X158500000Y-113900000D03*
X134500000Y-96100000D03*
X139900000Y-106000000D03*
X170400000Y-113900000D03*
X132500000Y-96100000D03*
X128500000Y-96100000D03*
X133750000Y-109750000D03*
X162500000Y-113900000D03*
X151100000Y-97150000D03*
X137000000Y-106100000D03*
X136500000Y-113900000D03*
X136500000Y-96100000D03*
X126600000Y-102000000D03*
X162500000Y-96100000D03*
X134500000Y-113900000D03*
X144500000Y-113900000D03*
X147700000Y-104200000D03*
X128250000Y-105000000D03*
X150500000Y-96100000D03*
X139550000Y-110000000D03*
X168500000Y-113900000D03*
X147700000Y-105800000D03*
X157100000Y-108500000D03*
X132500000Y-113900000D03*
X130500000Y-113900000D03*
X129150000Y-100250000D03*
X138500000Y-96100000D03*
X154500000Y-96100000D03*
X126600000Y-100000000D03*
X126600000Y-110000000D03*
X157100000Y-106750000D03*
X163750000Y-108170000D03*
X146150000Y-111760000D03*
X140500000Y-96100000D03*
X129150000Y-101500000D03*
X139900000Y-107500000D03*
X166500000Y-113900000D03*
X170400000Y-104000000D03*
X126600000Y-112000000D03*
X158500000Y-96100000D03*
X170400000Y-100000000D03*
X138500000Y-102250000D03*
X141500000Y-110000000D03*
X149300000Y-104200000D03*
X128500000Y-113900000D03*
X126600000Y-96100000D03*
X141000000Y-104250000D03*
X156500000Y-113900000D03*
X150500000Y-113900000D03*
X136950000Y-99100000D03*
X145000000Y-101250000D03*
X153000000Y-110600000D03*
X170400000Y-98000000D03*
X147500000Y-97150000D03*
X130500000Y-96100000D03*
X126600000Y-106000000D03*
X170400000Y-106000000D03*
X138600000Y-113900000D03*
X170400000Y-102000000D03*
X168500000Y-96100000D03*
X146500000Y-96100000D03*
X126600000Y-104000000D03*
X166500000Y-96100000D03*
X132500000Y-112000000D03*
X126600000Y-108000000D03*
X157100000Y-105000000D03*
X142550000Y-99100000D03*
X142500000Y-113900000D03*
X170400000Y-112000000D03*
X140500000Y-113900000D03*
X170400000Y-110000000D03*
X170400000Y-96100000D03*
X142500000Y-96100000D03*
X126600000Y-113900000D03*
X152500000Y-96100000D03*
X146500000Y-113900000D03*
X130600000Y-100250000D03*
X170400000Y-108000000D03*
X152500000Y-113900000D03*
%TO.N,PMOD_RX*%
X144550000Y-98350000D03*
%TO.N,PMOD_RTS*%
X143750000Y-100000000D03*
%TO.N,+3.3V*%
X153000000Y-109000000D03*
X152110000Y-98750000D03*
X143050000Y-104900000D03*
X162250000Y-111250000D03*
X146270000Y-98350000D03*
X147500000Y-109410000D03*
X144000000Y-113000000D03*
X143000000Y-113000000D03*
X155500000Y-107600000D03*
X162100000Y-98500000D03*
X143500000Y-112250000D03*
X134350000Y-107000000D03*
%TO.N,USB_D-*%
X133050000Y-98500000D03*
X153700000Y-106850000D03*
%TO.N,USB_D+*%
X134950000Y-98500000D03*
X153300000Y-106000000D03*
%TO.N,Net-(C6-Pad1)*%
X155500000Y-109350000D03*
X155500000Y-105850000D03*
X142250000Y-108600000D03*
%TO.N,Net-(TP4-Pad1)*%
X143000000Y-109250000D03*
%TO.N,Net-(TP5-Pad1)*%
X143750000Y-108600000D03*
%TO.N,RST*%
X144500000Y-109250000D03*
%TO.N,FL_D0*%
X158600000Y-100650000D03*
X156000000Y-102000000D03*
%TO.N,FL_D2*%
X155000000Y-102000000D03*
X156120000Y-99390000D03*
%TO.N,FL_D1*%
X155750000Y-98120000D03*
X154000000Y-102000000D03*
%TO.N,BUTTON*%
X139750000Y-98250000D03*
X144000000Y-103250000D03*
%TO.N,LED*%
X145900000Y-109410000D03*
X162250000Y-110250000D03*
%TO.N,UB*%
X155750000Y-96850000D03*
X153000000Y-102000000D03*
X149300000Y-97150000D03*
%TO.N,Net-(R7-Pad1)*%
X141400000Y-99750000D03*
%TD*%
D14*
%TO.N,GND*%
X137010000Y-111500000D02*
X135500000Y-111500000D01*
D15*
X139900000Y-106000000D02*
X138420000Y-106000000D01*
D14*
X151100000Y-97150000D02*
X150270000Y-97980000D01*
D15*
X163750000Y-108170000D02*
X161590000Y-108170000D01*
D14*
X160180000Y-97250000D02*
X158230000Y-99200000D01*
X149300000Y-104200000D02*
X149300000Y-102370000D01*
X157100000Y-105000000D02*
X157100000Y-106750000D01*
X138500000Y-100650000D02*
X136950000Y-99100000D01*
X151540000Y-109140000D02*
X153000000Y-110600000D01*
X139990000Y-103240000D02*
X141000000Y-104250000D01*
X147700000Y-104200000D02*
X149300000Y-104200000D01*
D15*
X130600000Y-100250000D02*
X132550000Y-100250000D01*
D14*
X139900000Y-105350000D02*
X141000000Y-104250000D01*
X151540000Y-108040000D02*
X151540000Y-109140000D01*
X164100000Y-97250000D02*
X160180000Y-97250000D01*
D15*
X158230000Y-99200000D02*
X156770000Y-100660000D01*
D14*
X147700000Y-104200000D02*
X146610000Y-104200000D01*
X139490000Y-103240000D02*
X138500000Y-102250000D01*
X146610000Y-104200000D02*
X145000000Y-102590000D01*
D15*
X161590000Y-108170000D02*
X161260000Y-108500000D01*
X132550000Y-100250000D02*
X134000000Y-101700000D01*
X137000000Y-106100000D02*
X138320000Y-106100000D01*
X146350000Y-107150000D02*
X147700000Y-105800000D01*
D14*
X147500000Y-97150000D02*
X147500000Y-102740000D01*
X139900000Y-107500000D02*
X139900000Y-106000000D01*
X147500000Y-102740000D02*
X147700000Y-102940000D01*
D15*
X141940000Y-107150000D02*
X140745000Y-108345000D01*
D14*
X145000000Y-102590000D02*
X145000000Y-101250000D01*
X149300000Y-105800000D02*
X147700000Y-105800000D01*
X157100000Y-106750000D02*
X157100000Y-108500000D01*
X139990000Y-103240000D02*
X139490000Y-103240000D01*
D15*
X141500000Y-109100000D02*
X140745000Y-108345000D01*
X161260000Y-108500000D02*
X157100000Y-108500000D01*
D14*
X149300000Y-102370000D02*
X151010000Y-100660000D01*
X148330000Y-97980000D02*
X147500000Y-97150000D01*
X138500000Y-102250000D02*
X138500000Y-100650000D01*
D15*
X142550000Y-100310000D02*
X142550000Y-99100000D01*
X143490000Y-101250000D02*
X142550000Y-100310000D01*
X156770000Y-100660000D02*
X152150000Y-100660000D01*
X141500000Y-110000000D02*
X141500000Y-109100000D01*
D14*
X164500000Y-96100000D02*
X164500000Y-96850000D01*
D15*
X128850000Y-109750000D02*
X126600000Y-112000000D01*
D14*
X142550000Y-99100000D02*
X142550000Y-98050000D01*
D15*
X138420000Y-106000000D02*
X138320000Y-106100000D01*
D14*
X149300000Y-104200000D02*
X149300000Y-105800000D01*
X142550000Y-98050000D02*
X144500000Y-96100000D01*
X149300000Y-105800000D02*
X151540000Y-108040000D01*
D15*
X140745000Y-108345000D02*
X139900000Y-107500000D01*
D14*
X151010000Y-100660000D02*
X152150000Y-100660000D01*
X164500000Y-96850000D02*
X164100000Y-97250000D01*
D15*
X133750000Y-109750000D02*
X128850000Y-109750000D01*
X158830000Y-101770000D02*
X158830000Y-103270000D01*
D14*
X147700000Y-102940000D02*
X147700000Y-104200000D01*
X135500000Y-111500000D02*
X133750000Y-109750000D01*
X150270000Y-97980000D02*
X148330000Y-97980000D01*
D15*
X146350000Y-107150000D02*
X141940000Y-107150000D01*
X145000000Y-101250000D02*
X143490000Y-101250000D01*
D14*
X139900000Y-106000000D02*
X139900000Y-105350000D01*
D15*
X158830000Y-103270000D02*
X157100000Y-105000000D01*
%TD*%
%TA.AperFunction,Conductor*%
%TO.N,GND*%
G36*
X170789221Y-95672902D02*
G01*
X170835714Y-95726558D01*
X170847100Y-95778900D01*
X170847100Y-114221100D01*
X170827098Y-114289221D01*
X170773442Y-114335714D01*
X170721100Y-114347100D01*
X126278900Y-114347100D01*
X126210779Y-114327098D01*
X126164286Y-114273442D01*
X126152900Y-114221100D01*
X126152900Y-112993724D01*
X142486309Y-112993724D01*
X142487473Y-113002626D01*
X142487473Y-113002629D01*
X142499096Y-113091514D01*
X142505195Y-113138152D01*
X142508809Y-113146365D01*
X142508810Y-113146369D01*
X142509237Y-113147339D01*
X142563859Y-113271474D01*
X142569634Y-113278344D01*
X142569635Y-113278346D01*
X142577140Y-113287274D01*
X142657583Y-113382973D01*
X142665060Y-113387950D01*
X142771361Y-113458710D01*
X142771363Y-113458711D01*
X142778834Y-113463684D01*
X142917864Y-113507121D01*
X143063498Y-113509790D01*
X143133762Y-113490634D01*
X143195363Y-113473839D01*
X143195364Y-113473839D01*
X143204026Y-113471477D01*
X143212359Y-113466361D01*
X143320502Y-113399961D01*
X143328154Y-113395263D01*
X143407391Y-113307723D01*
X143467934Y-113270643D01*
X143538913Y-113272181D01*
X143597256Y-113311205D01*
X143657583Y-113382973D01*
X143665060Y-113387950D01*
X143771361Y-113458710D01*
X143771363Y-113458711D01*
X143778834Y-113463684D01*
X143917864Y-113507121D01*
X144063498Y-113509790D01*
X144133762Y-113490634D01*
X144195363Y-113473839D01*
X144195364Y-113473839D01*
X144204026Y-113471477D01*
X144212359Y-113466361D01*
X144320502Y-113399961D01*
X144328154Y-113395263D01*
X144334774Y-113387950D01*
X144419873Y-113293934D01*
X144419874Y-113293933D01*
X144425901Y-113287274D01*
X144433214Y-113272181D01*
X144485495Y-113164272D01*
X144485495Y-113164271D01*
X144489410Y-113156191D01*
X144513576Y-113012552D01*
X144513729Y-113000000D01*
X144493080Y-112855813D01*
X144489362Y-112847635D01*
X144436508Y-112731390D01*
X144436507Y-112731388D01*
X144432792Y-112723218D01*
X144337713Y-112612873D01*
X144215485Y-112533648D01*
X144206888Y-112531077D01*
X144206886Y-112531076D01*
X144086438Y-112495055D01*
X144026904Y-112456374D01*
X143997734Y-112391646D01*
X143998286Y-112353433D01*
X144012770Y-112267344D01*
X144012770Y-112267341D01*
X144013576Y-112262552D01*
X144013729Y-112250000D01*
X144002617Y-112172407D01*
X143994354Y-112114706D01*
X143994353Y-112114703D01*
X143993080Y-112105813D01*
X143987397Y-112093314D01*
X143936508Y-111981390D01*
X143936507Y-111981388D01*
X143932792Y-111973218D01*
X143837713Y-111862873D01*
X143715485Y-111783648D01*
X143575934Y-111741914D01*
X143566958Y-111741859D01*
X143566957Y-111741859D01*
X143505644Y-111741485D01*
X143430279Y-111741024D01*
X143290229Y-111781051D01*
X143282642Y-111785838D01*
X143282640Y-111785839D01*
X143227015Y-111820936D01*
X143167042Y-111858776D01*
X143070622Y-111967951D01*
X143066808Y-111976074D01*
X143066807Y-111976076D01*
X143012533Y-112091676D01*
X143008719Y-112099800D01*
X143007339Y-112108665D01*
X143007338Y-112108667D01*
X142989679Y-112222084D01*
X142986309Y-112243724D01*
X142987473Y-112252626D01*
X142987473Y-112252629D01*
X143001386Y-112359026D01*
X142990386Y-112429165D01*
X142943211Y-112482223D01*
X142911076Y-112496512D01*
X142877792Y-112506025D01*
X142790229Y-112531051D01*
X142667042Y-112608776D01*
X142570622Y-112717951D01*
X142508719Y-112849800D01*
X142486309Y-112993724D01*
X126152900Y-112993724D01*
X126152900Y-111243724D01*
X161736309Y-111243724D01*
X161737473Y-111252626D01*
X161737473Y-111252629D01*
X161745493Y-111313956D01*
X161755195Y-111388152D01*
X161758809Y-111396365D01*
X161758810Y-111396369D01*
X161766688Y-111414272D01*
X161813859Y-111521474D01*
X161819634Y-111528344D01*
X161819635Y-111528346D01*
X161901521Y-111625761D01*
X161907583Y-111632973D01*
X161915060Y-111637950D01*
X162021361Y-111708710D01*
X162021363Y-111708711D01*
X162028834Y-111713684D01*
X162167864Y-111757121D01*
X162313498Y-111759790D01*
X162421936Y-111730226D01*
X162445363Y-111723839D01*
X162445364Y-111723839D01*
X162454026Y-111721477D01*
X162462359Y-111716361D01*
X162570502Y-111649961D01*
X162578154Y-111645263D01*
X162584774Y-111637950D01*
X162669873Y-111543934D01*
X162669874Y-111543933D01*
X162675901Y-111537274D01*
X162681675Y-111525358D01*
X162735495Y-111414272D01*
X162735495Y-111414271D01*
X162739410Y-111406191D01*
X162751290Y-111335579D01*
X164803727Y-111335579D01*
X164820595Y-111536454D01*
X164822294Y-111542378D01*
X164874327Y-111723839D01*
X164876158Y-111730226D01*
X164881736Y-111741079D01*
X164941820Y-111857989D01*
X164968301Y-111909516D01*
X164983680Y-111928919D01*
X165089684Y-112062665D01*
X165089689Y-112062670D01*
X165093513Y-112067495D01*
X165098207Y-112071489D01*
X165098207Y-112071490D01*
X165207233Y-112164278D01*
X165247025Y-112198144D01*
X165252403Y-112201150D01*
X165252405Y-112201151D01*
X165328581Y-112243724D01*
X165422990Y-112296487D01*
X165614705Y-112358779D01*
X165814869Y-112382647D01*
X165821004Y-112382175D01*
X165821006Y-112382175D01*
X165881978Y-112377483D01*
X166015857Y-112367182D01*
X166210013Y-112312973D01*
X166234682Y-112300512D01*
X166347102Y-112243724D01*
X166389942Y-112222084D01*
X166453526Y-112172407D01*
X166543934Y-112101772D01*
X166548790Y-112097978D01*
X166680508Y-111945382D01*
X166683551Y-111940025D01*
X166683554Y-111940021D01*
X166769612Y-111788529D01*
X166780077Y-111770108D01*
X166783510Y-111759790D01*
X166811790Y-111674776D01*
X166843706Y-111578832D01*
X166868971Y-111378840D01*
X166869374Y-111350000D01*
X166866402Y-111319691D01*
X167219058Y-111319691D01*
X167232916Y-111531126D01*
X167285073Y-111736495D01*
X167373782Y-111928919D01*
X167496072Y-112101956D01*
X167500206Y-112105983D01*
X167641601Y-112243724D01*
X167647848Y-112249810D01*
X167652644Y-112253015D01*
X167652647Y-112253017D01*
X167723729Y-112300512D01*
X167824027Y-112367529D01*
X167829335Y-112369810D01*
X167829336Y-112369810D01*
X168013405Y-112448892D01*
X168013408Y-112448893D01*
X168018708Y-112451170D01*
X168024338Y-112452444D01*
X168219088Y-112496512D01*
X168225372Y-112497934D01*
X168231141Y-112498161D01*
X168231144Y-112498161D01*
X168311272Y-112501309D01*
X168437097Y-112506252D01*
X168537048Y-112491760D01*
X168641078Y-112476677D01*
X168641083Y-112476676D01*
X168646792Y-112475848D01*
X168652256Y-112473993D01*
X168652261Y-112473992D01*
X168841964Y-112409597D01*
X168841969Y-112409595D01*
X168847436Y-112407739D01*
X168882411Y-112388152D01*
X169027269Y-112307027D01*
X169027273Y-112307024D01*
X169032307Y-112304205D01*
X169036744Y-112300514D01*
X169036748Y-112300512D01*
X169190778Y-112172407D01*
X169195216Y-112168716D01*
X169247390Y-112105983D01*
X169327012Y-112010248D01*
X169327014Y-112010244D01*
X169330705Y-112005807D01*
X169333524Y-112000773D01*
X169333527Y-112000769D01*
X169431416Y-111825977D01*
X169431417Y-111825976D01*
X169434239Y-111820936D01*
X169436095Y-111815469D01*
X169436097Y-111815464D01*
X169500492Y-111625761D01*
X169500493Y-111625756D01*
X169502348Y-111620292D01*
X169503176Y-111614583D01*
X169503177Y-111614578D01*
X169532219Y-111414271D01*
X169532752Y-111410597D01*
X169534339Y-111350000D01*
X169514951Y-111139001D01*
X169512239Y-111129383D01*
X169466710Y-110967951D01*
X169457436Y-110935068D01*
X169363720Y-110745031D01*
X169346132Y-110721477D01*
X169240395Y-110579878D01*
X169240394Y-110579877D01*
X169236942Y-110575254D01*
X169217777Y-110557538D01*
X169085589Y-110435345D01*
X169085587Y-110435343D01*
X169081348Y-110431425D01*
X169052604Y-110413289D01*
X168907028Y-110321437D01*
X168902148Y-110318358D01*
X168896788Y-110316220D01*
X168896785Y-110316218D01*
X168728206Y-110248962D01*
X168672346Y-110205141D01*
X168649046Y-110138077D01*
X168665702Y-110069062D01*
X168717026Y-110020007D01*
X168742285Y-110010225D01*
X168801722Y-109994299D01*
X168812014Y-109990553D01*
X169000914Y-109902467D01*
X169010400Y-109896989D01*
X169156413Y-109794751D01*
X169164788Y-109784273D01*
X169157720Y-109770825D01*
X168389312Y-109002417D01*
X168375368Y-108994803D01*
X168373535Y-108994934D01*
X168366920Y-108999185D01*
X167594558Y-109771547D01*
X167588128Y-109783321D01*
X167597425Y-109795337D01*
X167742600Y-109896989D01*
X167752086Y-109902467D01*
X167940986Y-109990553D01*
X167951278Y-109994299D01*
X168013545Y-110010983D01*
X168074168Y-110047935D01*
X168105189Y-110111795D01*
X168096761Y-110182290D01*
X168051558Y-110237037D01*
X168024546Y-110250901D01*
X167878037Y-110304952D01*
X167873076Y-110307904D01*
X167873075Y-110307904D01*
X167707870Y-110406191D01*
X167695939Y-110413289D01*
X167536633Y-110552996D01*
X167405455Y-110719396D01*
X167306796Y-110906914D01*
X167243963Y-111109272D01*
X167219058Y-111319691D01*
X166866402Y-111319691D01*
X166849703Y-111149380D01*
X166791440Y-110956402D01*
X166725913Y-110833164D01*
X166699697Y-110783858D01*
X166699695Y-110783855D01*
X166696803Y-110778416D01*
X166692913Y-110773646D01*
X166692910Y-110773642D01*
X166629010Y-110695294D01*
X166569397Y-110622202D01*
X166414076Y-110493709D01*
X166236755Y-110397832D01*
X166044188Y-110338222D01*
X166038067Y-110337579D01*
X166038064Y-110337578D01*
X165849839Y-110317795D01*
X165849838Y-110317795D01*
X165843711Y-110317151D01*
X165759984Y-110324771D01*
X165649098Y-110334862D01*
X165649095Y-110334863D01*
X165642959Y-110335421D01*
X165637053Y-110337159D01*
X165637049Y-110337160D01*
X165495981Y-110378679D01*
X165449579Y-110392336D01*
X165270936Y-110485728D01*
X165113836Y-110612040D01*
X164984262Y-110766460D01*
X164981298Y-110771852D01*
X164981295Y-110771856D01*
X164929812Y-110865504D01*
X164887149Y-110943108D01*
X164885288Y-110948975D01*
X164885287Y-110948977D01*
X164834439Y-111109272D01*
X164826197Y-111135253D01*
X164803727Y-111335579D01*
X162751290Y-111335579D01*
X162763576Y-111262552D01*
X162763729Y-111250000D01*
X162750198Y-111155513D01*
X162744354Y-111114706D01*
X162744353Y-111114703D01*
X162743080Y-111105813D01*
X162739362Y-111097635D01*
X162686508Y-110981390D01*
X162686507Y-110981388D01*
X162682792Y-110973218D01*
X162587713Y-110862873D01*
X162577836Y-110856471D01*
X162576030Y-110854371D01*
X162573416Y-110852090D01*
X162573745Y-110851713D01*
X162531553Y-110802635D01*
X162521722Y-110732322D01*
X162551466Y-110667857D01*
X162565885Y-110653794D01*
X162570500Y-110649963D01*
X162578154Y-110645263D01*
X162675901Y-110537274D01*
X162695107Y-110497634D01*
X162735495Y-110414272D01*
X162735495Y-110414271D01*
X162739410Y-110406191D01*
X162763576Y-110262552D01*
X162763729Y-110250000D01*
X162743080Y-110105813D01*
X162739362Y-110097635D01*
X162686508Y-109981390D01*
X162686507Y-109981388D01*
X162682792Y-109973218D01*
X162587713Y-109862873D01*
X162465485Y-109783648D01*
X162325934Y-109741914D01*
X162316958Y-109741859D01*
X162316957Y-109741859D01*
X162255644Y-109741485D01*
X162180279Y-109741024D01*
X162040229Y-109781051D01*
X162032642Y-109785838D01*
X162032640Y-109785839D01*
X161994409Y-109809961D01*
X161917042Y-109858776D01*
X161820622Y-109967951D01*
X161816808Y-109976074D01*
X161816807Y-109976076D01*
X161773150Y-110069062D01*
X161758719Y-110099800D01*
X161757339Y-110108665D01*
X161757338Y-110108667D01*
X161738195Y-110231613D01*
X161736309Y-110243724D01*
X161737473Y-110252626D01*
X161737473Y-110252629D01*
X161745984Y-110317710D01*
X161755195Y-110388152D01*
X161758809Y-110396365D01*
X161758810Y-110396369D01*
X161796874Y-110482874D01*
X161813859Y-110521474D01*
X161819634Y-110528344D01*
X161819635Y-110528346D01*
X161859065Y-110575254D01*
X161907583Y-110632973D01*
X161924514Y-110644243D01*
X161970136Y-110698639D01*
X161979108Y-110769067D01*
X161948579Y-110833164D01*
X161931202Y-110847854D01*
X161931470Y-110848168D01*
X161924634Y-110853986D01*
X161917042Y-110858776D01*
X161820622Y-110967951D01*
X161758719Y-111099800D01*
X161757339Y-111108665D01*
X161757338Y-111108667D01*
X161751719Y-111144758D01*
X161736309Y-111243724D01*
X126152900Y-111243724D01*
X126152900Y-108593724D01*
X141736309Y-108593724D01*
X141737473Y-108602626D01*
X141737473Y-108602629D01*
X141746970Y-108675251D01*
X141755195Y-108738152D01*
X141758809Y-108746365D01*
X141758810Y-108746369D01*
X141781172Y-108797188D01*
X141813859Y-108871474D01*
X141907583Y-108982973D01*
X141915060Y-108987950D01*
X142021361Y-109058710D01*
X142021363Y-109058711D01*
X142028834Y-109063684D01*
X142037401Y-109066361D01*
X142037402Y-109066361D01*
X142053777Y-109071477D01*
X142167864Y-109107121D01*
X142313498Y-109109790D01*
X142328632Y-109105664D01*
X142399615Y-109107044D01*
X142458584Y-109146581D01*
X142486816Y-109211723D01*
X142487765Y-109228766D01*
X142487691Y-109234850D01*
X142486309Y-109243724D01*
X142505195Y-109388152D01*
X142508809Y-109396365D01*
X142508810Y-109396369D01*
X142522440Y-109427344D01*
X142563859Y-109521474D01*
X142569634Y-109528344D01*
X142569635Y-109528346D01*
X142622486Y-109591220D01*
X142657583Y-109632973D01*
X142665060Y-109637950D01*
X142771361Y-109708710D01*
X142771363Y-109708711D01*
X142778834Y-109713684D01*
X142917864Y-109757121D01*
X143063498Y-109759790D01*
X143161860Y-109732973D01*
X143195363Y-109723839D01*
X143195364Y-109723839D01*
X143204026Y-109721477D01*
X143212359Y-109716361D01*
X143320502Y-109649961D01*
X143328154Y-109645263D01*
X143334774Y-109637950D01*
X143419873Y-109543934D01*
X143419874Y-109543933D01*
X143425901Y-109537274D01*
X143437046Y-109514272D01*
X143485495Y-109414272D01*
X143485495Y-109414271D01*
X143489410Y-109406191D01*
X143513576Y-109262552D01*
X143513729Y-109250000D01*
X143513039Y-109245183D01*
X143512723Y-109240331D01*
X143514125Y-109240240D01*
X143523377Y-109176206D01*
X143569908Y-109122583D01*
X143638043Y-109102629D01*
X143658102Y-109104250D01*
X143659292Y-109104443D01*
X143667864Y-109107121D01*
X143676838Y-109107285D01*
X143676841Y-109107286D01*
X143740681Y-109108455D01*
X143813498Y-109109790D01*
X143828632Y-109105664D01*
X143899615Y-109107044D01*
X143958584Y-109146581D01*
X143986816Y-109211723D01*
X143987765Y-109228766D01*
X143987691Y-109234850D01*
X143986309Y-109243724D01*
X144005195Y-109388152D01*
X144008809Y-109396365D01*
X144008810Y-109396369D01*
X144022440Y-109427344D01*
X144063859Y-109521474D01*
X144069634Y-109528344D01*
X144069635Y-109528346D01*
X144122486Y-109591220D01*
X144157583Y-109632973D01*
X144165060Y-109637950D01*
X144271361Y-109708710D01*
X144271363Y-109708711D01*
X144278834Y-109713684D01*
X144417864Y-109757121D01*
X144563498Y-109759790D01*
X144661860Y-109732973D01*
X144695363Y-109723839D01*
X144695364Y-109723839D01*
X144704026Y-109721477D01*
X144712359Y-109716361D01*
X144820502Y-109649961D01*
X144828154Y-109645263D01*
X144834774Y-109637950D01*
X144919873Y-109543934D01*
X144919874Y-109543933D01*
X144925901Y-109537274D01*
X144937046Y-109514272D01*
X144985495Y-109414272D01*
X144985495Y-109414271D01*
X144989410Y-109406191D01*
X144989825Y-109403724D01*
X145386309Y-109403724D01*
X145387473Y-109412626D01*
X145387473Y-109412629D01*
X145399013Y-109500878D01*
X145405195Y-109548152D01*
X145408809Y-109556365D01*
X145408810Y-109556369D01*
X145433843Y-109613258D01*
X145463859Y-109681474D01*
X145469634Y-109688344D01*
X145469635Y-109688346D01*
X145550270Y-109784273D01*
X145557583Y-109792973D01*
X145576046Y-109805263D01*
X145671361Y-109868710D01*
X145671363Y-109868711D01*
X145678834Y-109873684D01*
X145817864Y-109917121D01*
X145963498Y-109919790D01*
X146074166Y-109889618D01*
X146095363Y-109883839D01*
X146095364Y-109883839D01*
X146104026Y-109881477D01*
X146112359Y-109876361D01*
X146166712Y-109842988D01*
X146228154Y-109805263D01*
X146234774Y-109797950D01*
X146319873Y-109703934D01*
X146319874Y-109703933D01*
X146325901Y-109697274D01*
X146333474Y-109681645D01*
X146385495Y-109574272D01*
X146385495Y-109574271D01*
X146389410Y-109566191D01*
X146409434Y-109447173D01*
X146412770Y-109427344D01*
X146412770Y-109427341D01*
X146413576Y-109422552D01*
X146413729Y-109410000D01*
X146412830Y-109403724D01*
X146986309Y-109403724D01*
X146987473Y-109412626D01*
X146987473Y-109412629D01*
X146999013Y-109500878D01*
X147005195Y-109548152D01*
X147008809Y-109556365D01*
X147008810Y-109556369D01*
X147033843Y-109613258D01*
X147063859Y-109681474D01*
X147069634Y-109688344D01*
X147069635Y-109688346D01*
X147150270Y-109784273D01*
X147157583Y-109792973D01*
X147176046Y-109805263D01*
X147271361Y-109868710D01*
X147271363Y-109868711D01*
X147278834Y-109873684D01*
X147417864Y-109917121D01*
X147563498Y-109919790D01*
X147674166Y-109889618D01*
X147695363Y-109883839D01*
X147695364Y-109883839D01*
X147704026Y-109881477D01*
X147712359Y-109876361D01*
X147766712Y-109842988D01*
X147828154Y-109805263D01*
X147834774Y-109797950D01*
X147919873Y-109703934D01*
X147919874Y-109703933D01*
X147925901Y-109697274D01*
X147933474Y-109681645D01*
X147985495Y-109574272D01*
X147985495Y-109574271D01*
X147989410Y-109566191D01*
X148009434Y-109447173D01*
X148012770Y-109427344D01*
X148012770Y-109427341D01*
X148013576Y-109422552D01*
X148013729Y-109410000D01*
X148005513Y-109352629D01*
X147994354Y-109274706D01*
X147994353Y-109274703D01*
X147993080Y-109265813D01*
X147987086Y-109252630D01*
X147936508Y-109141390D01*
X147936507Y-109141388D01*
X147932792Y-109133218D01*
X147837713Y-109022873D01*
X147792742Y-108993724D01*
X152486309Y-108993724D01*
X152487473Y-109002626D01*
X152487473Y-109002629D01*
X152491010Y-109029675D01*
X152505195Y-109138152D01*
X152508809Y-109146365D01*
X152508810Y-109146369D01*
X152538880Y-109214706D01*
X152563859Y-109271474D01*
X152569634Y-109278344D01*
X152569635Y-109278346D01*
X152648084Y-109371673D01*
X152657583Y-109382973D01*
X152665060Y-109387950D01*
X152771361Y-109458710D01*
X152771363Y-109458711D01*
X152778834Y-109463684D01*
X152917864Y-109507121D01*
X153063498Y-109509790D01*
X153142864Y-109488152D01*
X153195363Y-109473839D01*
X153195364Y-109473839D01*
X153204026Y-109471477D01*
X153212359Y-109466361D01*
X153304152Y-109410000D01*
X153328154Y-109395263D01*
X153334774Y-109387950D01*
X153374805Y-109343724D01*
X154986309Y-109343724D01*
X154987473Y-109352626D01*
X154987473Y-109352629D01*
X154995319Y-109412629D01*
X155005195Y-109488152D01*
X155008809Y-109496365D01*
X155008810Y-109496369D01*
X155043089Y-109574272D01*
X155063859Y-109621474D01*
X155069634Y-109628344D01*
X155069635Y-109628346D01*
X155149905Y-109723839D01*
X155157583Y-109732973D01*
X155165060Y-109737950D01*
X155271361Y-109808710D01*
X155271363Y-109808711D01*
X155278834Y-109813684D01*
X155417864Y-109857121D01*
X155563498Y-109859790D01*
X155633762Y-109840633D01*
X155695363Y-109823839D01*
X155695364Y-109823839D01*
X155704026Y-109821477D01*
X155712359Y-109816361D01*
X155820502Y-109749961D01*
X155828154Y-109745263D01*
X155834774Y-109737950D01*
X155874106Y-109694497D01*
X165136759Y-109694497D01*
X165146639Y-109706984D01*
X165290679Y-109803227D01*
X165300784Y-109808714D01*
X165480818Y-109886063D01*
X165491761Y-109889618D01*
X165682868Y-109932862D01*
X165694278Y-109934364D01*
X165890072Y-109942056D01*
X165901554Y-109941454D01*
X166095475Y-109913338D01*
X166106658Y-109910653D01*
X166292201Y-109847670D01*
X166302716Y-109842988D01*
X166473673Y-109747247D01*
X166483148Y-109740736D01*
X166526261Y-109704880D01*
X166534714Y-109692294D01*
X166528540Y-109681645D01*
X165849312Y-109002417D01*
X165835368Y-108994803D01*
X165833535Y-108994934D01*
X165826920Y-108999185D01*
X165142955Y-109683150D01*
X165136759Y-109694497D01*
X155874106Y-109694497D01*
X155919873Y-109643934D01*
X155919874Y-109643933D01*
X155925901Y-109637274D01*
X155931317Y-109626097D01*
X155985495Y-109514272D01*
X155985495Y-109514271D01*
X155989410Y-109506191D01*
X156011297Y-109376097D01*
X156012770Y-109367344D01*
X156012770Y-109367341D01*
X156013576Y-109362552D01*
X156013729Y-109350000D01*
X156003588Y-109279190D01*
X155994354Y-109214706D01*
X155994353Y-109214703D01*
X155993080Y-109205813D01*
X155987586Y-109193730D01*
X155936508Y-109081390D01*
X155936507Y-109081388D01*
X155932792Y-109073218D01*
X155837713Y-108962873D01*
X155715485Y-108883648D01*
X155575934Y-108841914D01*
X155566958Y-108841859D01*
X155566957Y-108841859D01*
X155505644Y-108841485D01*
X155430279Y-108841024D01*
X155290229Y-108881051D01*
X155282642Y-108885838D01*
X155282640Y-108885839D01*
X155253085Y-108904487D01*
X155167042Y-108958776D01*
X155070622Y-109067951D01*
X155066808Y-109076074D01*
X155066807Y-109076076D01*
X155012533Y-109191676D01*
X155008719Y-109199800D01*
X155007339Y-109208665D01*
X155007338Y-109208667D01*
X154994062Y-109293934D01*
X154986309Y-109343724D01*
X153374805Y-109343724D01*
X153419873Y-109293934D01*
X153419874Y-109293933D01*
X153425901Y-109287274D01*
X153441606Y-109254860D01*
X153485495Y-109164272D01*
X153485495Y-109164271D01*
X153489410Y-109156191D01*
X153504523Y-109066361D01*
X153512770Y-109017344D01*
X153512770Y-109017341D01*
X153513576Y-109012552D01*
X153513729Y-109000000D01*
X153499682Y-108901914D01*
X153494354Y-108864706D01*
X153494353Y-108864703D01*
X153493080Y-108855813D01*
X153489362Y-108847635D01*
X153461377Y-108786086D01*
X164703430Y-108786086D01*
X164716244Y-108981602D01*
X164718045Y-108992974D01*
X164766276Y-109182883D01*
X164770117Y-109193730D01*
X164852150Y-109371673D01*
X164857901Y-109381634D01*
X164941591Y-109500054D01*
X164952181Y-109508442D01*
X164965481Y-109501414D01*
X165644083Y-108822812D01*
X165650461Y-108811132D01*
X166021303Y-108811132D01*
X166021434Y-108812965D01*
X166025685Y-108819580D01*
X166706983Y-109500878D01*
X166720292Y-109508145D01*
X166730327Y-109501026D01*
X166767236Y-109456648D01*
X166773747Y-109447173D01*
X166869488Y-109276216D01*
X166874170Y-109265701D01*
X166922954Y-109121986D01*
X166963791Y-109063910D01*
X167029544Y-109037131D01*
X167099336Y-109050152D01*
X167151009Y-109098839D01*
X167163974Y-109129876D01*
X167192201Y-109235222D01*
X167195947Y-109245514D01*
X167284033Y-109434414D01*
X167289511Y-109443900D01*
X167391749Y-109589913D01*
X167402227Y-109598288D01*
X167415675Y-109591220D01*
X168184083Y-108822812D01*
X168190461Y-108811132D01*
X168561303Y-108811132D01*
X168561434Y-108812965D01*
X168565685Y-108819580D01*
X169338047Y-109591942D01*
X169349821Y-109598372D01*
X169361837Y-109589075D01*
X169463489Y-109443900D01*
X169468967Y-109434414D01*
X169557053Y-109245514D01*
X169560799Y-109235222D01*
X169614742Y-109033902D01*
X169616645Y-109023107D01*
X169634811Y-108815475D01*
X169634811Y-108804525D01*
X169616645Y-108596893D01*
X169614742Y-108586098D01*
X169560799Y-108384778D01*
X169557053Y-108374486D01*
X169468967Y-108185586D01*
X169463489Y-108176100D01*
X169361251Y-108030087D01*
X169350773Y-108021712D01*
X169337325Y-108028780D01*
X168568917Y-108797188D01*
X168561303Y-108811132D01*
X168190461Y-108811132D01*
X168191697Y-108808868D01*
X168191566Y-108807035D01*
X168187315Y-108800420D01*
X167414953Y-108028058D01*
X167403179Y-108021628D01*
X167391163Y-108030925D01*
X167289511Y-108176100D01*
X167284033Y-108185586D01*
X167195947Y-108374486D01*
X167192201Y-108384778D01*
X167163419Y-108492194D01*
X167126467Y-108552817D01*
X167062606Y-108583838D01*
X166992112Y-108575410D01*
X166937365Y-108530207D01*
X166920443Y-108493784D01*
X166896597Y-108409230D01*
X166892474Y-108398489D01*
X166805810Y-108222753D01*
X166799800Y-108212945D01*
X166730850Y-108120609D01*
X166719592Y-108112160D01*
X166707173Y-108118932D01*
X166028917Y-108797188D01*
X166021303Y-108811132D01*
X165650461Y-108811132D01*
X165651697Y-108808868D01*
X165651566Y-108807035D01*
X165647315Y-108800420D01*
X164966185Y-108119290D01*
X164953344Y-108112278D01*
X164942655Y-108120073D01*
X164889162Y-108187929D01*
X164882891Y-108197586D01*
X164791663Y-108370982D01*
X164787258Y-108381616D01*
X164729153Y-108568747D01*
X164726761Y-108579998D01*
X164703731Y-108774585D01*
X164703430Y-108786086D01*
X153461377Y-108786086D01*
X153436508Y-108731390D01*
X153436507Y-108731388D01*
X153432792Y-108723218D01*
X153337713Y-108612873D01*
X153215485Y-108533648D01*
X153075934Y-108491914D01*
X153066958Y-108491859D01*
X153066957Y-108491859D01*
X153005644Y-108491485D01*
X152930279Y-108491024D01*
X152790229Y-108531051D01*
X152667042Y-108608776D01*
X152661100Y-108615504D01*
X152652655Y-108625066D01*
X152570622Y-108717951D01*
X152566808Y-108726074D01*
X152566807Y-108726076D01*
X152512533Y-108841676D01*
X152508719Y-108849800D01*
X152507339Y-108858665D01*
X152507338Y-108858667D01*
X152489054Y-108976097D01*
X152486309Y-108993724D01*
X147792742Y-108993724D01*
X147715485Y-108943648D01*
X147575934Y-108901914D01*
X147566958Y-108901859D01*
X147566957Y-108901859D01*
X147505644Y-108901485D01*
X147430279Y-108901024D01*
X147290229Y-108941051D01*
X147282642Y-108945838D01*
X147282640Y-108945839D01*
X147239247Y-108973218D01*
X147167042Y-109018776D01*
X147070622Y-109127951D01*
X147066808Y-109136074D01*
X147066807Y-109136076D01*
X147015426Y-109245514D01*
X147008719Y-109259800D01*
X147007339Y-109268665D01*
X147007338Y-109268667D01*
X146988734Y-109388152D01*
X146986309Y-109403724D01*
X146412830Y-109403724D01*
X146405513Y-109352629D01*
X146394354Y-109274706D01*
X146394353Y-109274703D01*
X146393080Y-109265813D01*
X146387086Y-109252630D01*
X146336508Y-109141390D01*
X146336507Y-109141388D01*
X146332792Y-109133218D01*
X146237713Y-109022873D01*
X146115485Y-108943648D01*
X145975934Y-108901914D01*
X145966958Y-108901859D01*
X145966957Y-108901859D01*
X145905644Y-108901485D01*
X145830279Y-108901024D01*
X145690229Y-108941051D01*
X145682642Y-108945838D01*
X145682640Y-108945839D01*
X145639247Y-108973218D01*
X145567042Y-109018776D01*
X145470622Y-109127951D01*
X145466808Y-109136074D01*
X145466807Y-109136076D01*
X145415426Y-109245514D01*
X145408719Y-109259800D01*
X145407339Y-109268665D01*
X145407338Y-109268667D01*
X145388734Y-109388152D01*
X145386309Y-109403724D01*
X144989825Y-109403724D01*
X145013576Y-109262552D01*
X145013729Y-109250000D01*
X145005671Y-109193730D01*
X144994354Y-109114706D01*
X144994353Y-109114703D01*
X144993080Y-109105813D01*
X144989362Y-109097635D01*
X144936508Y-108981390D01*
X144936507Y-108981388D01*
X144932792Y-108973218D01*
X144837713Y-108862873D01*
X144715485Y-108783648D01*
X144575934Y-108741914D01*
X144566958Y-108741859D01*
X144566957Y-108741859D01*
X144505644Y-108741485D01*
X144430279Y-108741024D01*
X144421647Y-108743491D01*
X144412756Y-108744709D01*
X144412506Y-108742882D01*
X144352508Y-108742451D01*
X144293059Y-108703639D01*
X144264031Y-108638848D01*
X144263442Y-108613346D01*
X144263576Y-108612552D01*
X144263729Y-108600000D01*
X144253502Y-108528585D01*
X144244354Y-108464706D01*
X144244353Y-108464703D01*
X144243080Y-108455813D01*
X144239362Y-108447635D01*
X144186508Y-108331390D01*
X144186507Y-108331388D01*
X144182792Y-108323218D01*
X144087713Y-108212873D01*
X143965485Y-108133648D01*
X143825934Y-108091914D01*
X143816958Y-108091859D01*
X143816957Y-108091859D01*
X143755644Y-108091485D01*
X143680279Y-108091024D01*
X143540229Y-108131051D01*
X143417042Y-108208776D01*
X143320622Y-108317951D01*
X143316808Y-108326074D01*
X143316807Y-108326076D01*
X143262533Y-108441676D01*
X143258719Y-108449800D01*
X143257339Y-108458665D01*
X143257338Y-108458667D01*
X143239161Y-108575410D01*
X143236309Y-108593724D01*
X143237473Y-108602626D01*
X143237473Y-108602629D01*
X143237798Y-108605112D01*
X143237413Y-108607564D01*
X143237364Y-108611599D01*
X143236781Y-108611592D01*
X143226794Y-108675251D01*
X143179618Y-108728306D01*
X143111246Y-108747434D01*
X143093572Y-108744729D01*
X143093410Y-108745813D01*
X143084536Y-108744487D01*
X143075934Y-108741914D01*
X143066958Y-108741859D01*
X143066957Y-108741859D01*
X143005644Y-108741485D01*
X142930279Y-108741024D01*
X142921647Y-108743491D01*
X142912756Y-108744709D01*
X142912506Y-108742882D01*
X142852508Y-108742451D01*
X142793059Y-108703639D01*
X142764031Y-108638848D01*
X142763442Y-108613346D01*
X142763576Y-108612552D01*
X142763729Y-108600000D01*
X142753502Y-108528585D01*
X142744354Y-108464706D01*
X142744353Y-108464703D01*
X142743080Y-108455813D01*
X142739362Y-108447635D01*
X142686508Y-108331390D01*
X142686507Y-108331388D01*
X142682792Y-108323218D01*
X142587713Y-108212873D01*
X142465485Y-108133648D01*
X142325934Y-108091914D01*
X142316958Y-108091859D01*
X142316957Y-108091859D01*
X142255644Y-108091485D01*
X142180279Y-108091024D01*
X142040229Y-108131051D01*
X141917042Y-108208776D01*
X141820622Y-108317951D01*
X141816808Y-108326074D01*
X141816807Y-108326076D01*
X141762533Y-108441676D01*
X141758719Y-108449800D01*
X141757339Y-108458665D01*
X141757338Y-108458667D01*
X141739161Y-108575410D01*
X141736309Y-108593724D01*
X126152900Y-108593724D01*
X126152900Y-107242614D01*
X127192031Y-107242614D01*
X127198887Y-107317951D01*
X127206351Y-107399961D01*
X127210745Y-107448248D01*
X127212483Y-107454154D01*
X127212484Y-107454158D01*
X127258529Y-107610606D01*
X127269044Y-107646332D01*
X127364708Y-107829319D01*
X127494091Y-107990240D01*
X127652268Y-108122966D01*
X127657663Y-108125932D01*
X127657669Y-108125936D01*
X127770434Y-108187929D01*
X127833211Y-108222441D01*
X128030030Y-108284875D01*
X128036147Y-108285561D01*
X128036151Y-108285562D01*
X128111982Y-108294068D01*
X128190724Y-108302900D01*
X128301964Y-108302900D01*
X128455499Y-108287846D01*
X128653171Y-108228165D01*
X128751091Y-108176100D01*
X128830043Y-108134121D01*
X128830046Y-108134119D01*
X128835485Y-108131227D01*
X128840255Y-108127337D01*
X128840259Y-108127334D01*
X128990724Y-108004617D01*
X128990727Y-108004614D01*
X128995499Y-108000722D01*
X129000896Y-107994199D01*
X129120870Y-107849175D01*
X129127118Y-107841623D01*
X129225327Y-107659990D01*
X129245840Y-107593724D01*
X154986309Y-107593724D01*
X154987473Y-107602626D01*
X154987473Y-107602629D01*
X154990490Y-107625700D01*
X155005195Y-107738152D01*
X155008809Y-107746365D01*
X155008810Y-107746369D01*
X155009237Y-107747339D01*
X155063859Y-107871474D01*
X155069634Y-107878344D01*
X155069635Y-107878346D01*
X155151803Y-107976097D01*
X155157583Y-107982973D01*
X155165060Y-107987950D01*
X155271361Y-108058710D01*
X155271363Y-108058711D01*
X155278834Y-108063684D01*
X155417864Y-108107121D01*
X155563498Y-108109790D01*
X155633762Y-108090634D01*
X155695363Y-108073839D01*
X155695364Y-108073839D01*
X155704026Y-108071477D01*
X155712359Y-108066361D01*
X155773566Y-108028780D01*
X155828154Y-107995263D01*
X155834774Y-107987950D01*
X155889687Y-107927283D01*
X165137319Y-107927283D01*
X165143153Y-107937048D01*
X165823688Y-108617583D01*
X165837632Y-108625197D01*
X165839465Y-108625066D01*
X165846080Y-108620815D01*
X166529353Y-107937542D01*
X166536967Y-107923598D01*
X166536930Y-107923081D01*
X166531300Y-107914686D01*
X166530981Y-107914391D01*
X166521848Y-107907383D01*
X166356131Y-107802823D01*
X166345888Y-107797604D01*
X166163896Y-107724997D01*
X166152859Y-107721728D01*
X165960684Y-107683501D01*
X165949239Y-107682298D01*
X165753322Y-107679734D01*
X165741842Y-107680637D01*
X165548731Y-107713820D01*
X165537623Y-107716797D01*
X165353790Y-107784616D01*
X165343408Y-107789568D01*
X165175015Y-107889751D01*
X165165703Y-107896517D01*
X165145715Y-107914046D01*
X165137319Y-107927283D01*
X155889687Y-107927283D01*
X155919873Y-107893934D01*
X155919874Y-107893933D01*
X155925901Y-107887274D01*
X155950876Y-107835727D01*
X155985495Y-107764272D01*
X155985495Y-107764271D01*
X155989410Y-107756191D01*
X156007893Y-107646332D01*
X156012770Y-107617344D01*
X156012770Y-107617341D01*
X156013576Y-107612552D01*
X156013729Y-107600000D01*
X156000810Y-107509790D01*
X155994354Y-107464706D01*
X155994353Y-107464703D01*
X155993080Y-107455813D01*
X155986849Y-107442109D01*
X155936508Y-107331390D01*
X155936507Y-107331388D01*
X155932792Y-107323218D01*
X155837713Y-107212873D01*
X155715485Y-107133648D01*
X155575934Y-107091914D01*
X155566958Y-107091859D01*
X155566957Y-107091859D01*
X155505644Y-107091485D01*
X155430279Y-107091024D01*
X155290229Y-107131051D01*
X155282642Y-107135838D01*
X155282640Y-107135839D01*
X155223717Y-107173017D01*
X155167042Y-107208776D01*
X155070622Y-107317951D01*
X155066808Y-107326074D01*
X155066807Y-107326076D01*
X155034324Y-107395263D01*
X155008719Y-107449800D01*
X155007339Y-107458665D01*
X155007338Y-107458667D01*
X154989745Y-107571658D01*
X154986309Y-107593724D01*
X129245840Y-107593724D01*
X129286386Y-107462739D01*
X129287909Y-107448248D01*
X129307325Y-107263515D01*
X129307325Y-107263513D01*
X129307969Y-107257386D01*
X129297038Y-107137274D01*
X129289814Y-107057891D01*
X129289813Y-107057888D01*
X129289255Y-107051752D01*
X129280432Y-107021772D01*
X129272177Y-106993724D01*
X133836309Y-106993724D01*
X133837473Y-107002626D01*
X133837473Y-107002629D01*
X133842002Y-107037261D01*
X133855195Y-107138152D01*
X133858809Y-107146365D01*
X133858810Y-107146369D01*
X133895697Y-107230198D01*
X133913859Y-107271474D01*
X133919634Y-107278344D01*
X133919635Y-107278346D01*
X134001803Y-107376097D01*
X134007583Y-107382973D01*
X134015060Y-107387950D01*
X134121361Y-107458710D01*
X134121363Y-107458711D01*
X134128834Y-107463684D01*
X134137401Y-107466361D01*
X134137402Y-107466361D01*
X134153777Y-107471477D01*
X134267864Y-107507121D01*
X134413498Y-107509790D01*
X134542777Y-107474544D01*
X134545363Y-107473839D01*
X134545364Y-107473839D01*
X134554026Y-107471477D01*
X134562359Y-107466361D01*
X134670502Y-107399961D01*
X134678154Y-107395263D01*
X134684774Y-107387950D01*
X134769873Y-107293934D01*
X134769874Y-107293933D01*
X134775901Y-107287274D01*
X134780940Y-107276875D01*
X134835495Y-107164272D01*
X134835495Y-107164271D01*
X134839410Y-107156191D01*
X134860409Y-107031376D01*
X134862770Y-107017344D01*
X134862770Y-107017341D01*
X134863576Y-107012552D01*
X134863729Y-107000000D01*
X134853104Y-106925807D01*
X134844354Y-106864706D01*
X134844353Y-106864703D01*
X134843080Y-106855813D01*
X134839362Y-106847635D01*
X134786508Y-106731390D01*
X134786507Y-106731388D01*
X134782792Y-106723218D01*
X134687713Y-106612873D01*
X134565485Y-106533648D01*
X134425934Y-106491914D01*
X134416958Y-106491859D01*
X134416957Y-106491859D01*
X134355644Y-106491485D01*
X134280279Y-106491024D01*
X134140229Y-106531051D01*
X134132642Y-106535838D01*
X134132640Y-106535839D01*
X134081746Y-106567951D01*
X134017042Y-106608776D01*
X133920622Y-106717951D01*
X133916808Y-106726074D01*
X133916807Y-106726076D01*
X133868242Y-106829516D01*
X133858719Y-106849800D01*
X133857339Y-106858665D01*
X133857338Y-106858667D01*
X133838563Y-106979249D01*
X133836309Y-106993724D01*
X129272177Y-106993724D01*
X129232696Y-106859580D01*
X129230956Y-106853668D01*
X129135292Y-106670681D01*
X129005909Y-106509760D01*
X128847732Y-106377034D01*
X128842337Y-106374068D01*
X128842331Y-106374064D01*
X128684460Y-106287274D01*
X128666789Y-106277559D01*
X128526235Y-106232973D01*
X128475843Y-106216988D01*
X128469970Y-106215125D01*
X128463853Y-106214439D01*
X128463849Y-106214438D01*
X128388018Y-106205932D01*
X128309276Y-106197100D01*
X128198036Y-106197100D01*
X128044501Y-106212154D01*
X127846829Y-106271835D01*
X127763088Y-106316361D01*
X127669957Y-106365879D01*
X127669954Y-106365881D01*
X127664515Y-106368773D01*
X127659745Y-106372663D01*
X127659741Y-106372666D01*
X127509276Y-106495383D01*
X127509273Y-106495386D01*
X127504501Y-106499278D01*
X127500573Y-106504026D01*
X127500572Y-106504027D01*
X127470571Y-106540292D01*
X127372882Y-106658377D01*
X127274673Y-106840010D01*
X127213614Y-107037261D01*
X127212970Y-107043386D01*
X127212970Y-107043387D01*
X127202045Y-107147339D01*
X127192031Y-107242614D01*
X126152900Y-107242614D01*
X126152900Y-105993724D01*
X152786309Y-105993724D01*
X152787473Y-106002626D01*
X152787473Y-106002629D01*
X152793587Y-106049383D01*
X152805195Y-106138152D01*
X152808809Y-106146365D01*
X152808810Y-106146369D01*
X152831306Y-106197493D01*
X152863859Y-106271474D01*
X152869634Y-106278344D01*
X152869635Y-106278346D01*
X152933602Y-106354444D01*
X152957583Y-106382973D01*
X152965060Y-106387950D01*
X153071361Y-106458710D01*
X153071363Y-106458711D01*
X153078834Y-106463684D01*
X153150916Y-106486204D01*
X153209972Y-106525610D01*
X153238349Y-106590689D01*
X153227396Y-106660019D01*
X153208719Y-106699800D01*
X153207339Y-106708665D01*
X153207338Y-106708667D01*
X153187731Y-106834592D01*
X153186309Y-106843724D01*
X153187473Y-106852626D01*
X153187473Y-106852629D01*
X153197623Y-106930248D01*
X153205195Y-106988152D01*
X153208809Y-106996365D01*
X153208810Y-106996369D01*
X153233180Y-107051752D01*
X153263859Y-107121474D01*
X153269634Y-107128344D01*
X153269635Y-107128346D01*
X153350213Y-107224205D01*
X153357583Y-107232973D01*
X153365060Y-107237950D01*
X153471361Y-107308710D01*
X153471363Y-107308711D01*
X153478834Y-107313684D01*
X153487401Y-107316361D01*
X153487402Y-107316361D01*
X153503777Y-107321477D01*
X153617864Y-107357121D01*
X153763498Y-107359790D01*
X153881058Y-107327739D01*
X153895363Y-107323839D01*
X153895364Y-107323839D01*
X153904026Y-107321477D01*
X153912266Y-107316418D01*
X153998846Y-107263258D01*
X154028154Y-107245263D01*
X154034774Y-107237950D01*
X154119873Y-107143934D01*
X154119874Y-107143933D01*
X154125901Y-107137274D01*
X154135170Y-107118144D01*
X154185495Y-107014272D01*
X154185495Y-107014271D01*
X154189410Y-107006191D01*
X154213576Y-106862552D01*
X154213729Y-106850000D01*
X154198110Y-106740936D01*
X154194354Y-106714706D01*
X154194353Y-106714703D01*
X154193080Y-106705813D01*
X154188377Y-106695469D01*
X154136508Y-106581390D01*
X154136507Y-106581388D01*
X154132792Y-106573218D01*
X154037713Y-106462873D01*
X153915485Y-106383648D01*
X153883438Y-106374064D01*
X153850953Y-106364349D01*
X153791419Y-106325668D01*
X153762249Y-106260941D01*
X153773662Y-106188696D01*
X153789410Y-106156191D01*
X153805008Y-106063478D01*
X153812770Y-106017344D01*
X153812770Y-106017341D01*
X153813576Y-106012552D01*
X153813729Y-106000000D01*
X153808056Y-105960385D01*
X153794354Y-105864706D01*
X153794353Y-105864703D01*
X153793080Y-105855813D01*
X153788247Y-105845183D01*
X153787584Y-105843724D01*
X154986309Y-105843724D01*
X154987473Y-105852626D01*
X154987473Y-105852629D01*
X154989611Y-105868977D01*
X155005195Y-105988152D01*
X155008809Y-105996365D01*
X155008810Y-105996369D01*
X155036370Y-106059001D01*
X155063859Y-106121474D01*
X155069634Y-106128344D01*
X155069635Y-106128346D01*
X155120362Y-106188693D01*
X155157583Y-106232973D01*
X155165060Y-106237950D01*
X155271361Y-106308710D01*
X155271363Y-106308711D01*
X155278834Y-106313684D01*
X155417864Y-106357121D01*
X155563498Y-106359790D01*
X155670575Y-106330597D01*
X155695363Y-106323839D01*
X155695364Y-106323839D01*
X155704026Y-106321477D01*
X155712359Y-106316361D01*
X155781833Y-106273704D01*
X155811353Y-106255579D01*
X164803727Y-106255579D01*
X164804243Y-106261723D01*
X164814843Y-106387950D01*
X164820595Y-106456454D01*
X164835674Y-106509041D01*
X164867398Y-106619675D01*
X164876158Y-106650226D01*
X164968301Y-106829516D01*
X164981284Y-106845897D01*
X165089684Y-106982665D01*
X165089689Y-106982670D01*
X165093513Y-106987495D01*
X165098207Y-106991489D01*
X165098207Y-106991490D01*
X165207233Y-107084278D01*
X165247025Y-107118144D01*
X165252403Y-107121150D01*
X165252405Y-107121151D01*
X165315102Y-107156191D01*
X165422990Y-107216487D01*
X165614705Y-107278779D01*
X165814869Y-107302647D01*
X165821004Y-107302175D01*
X165821006Y-107302175D01*
X165881978Y-107297483D01*
X166015857Y-107287182D01*
X166210013Y-107232973D01*
X166223626Y-107226097D01*
X166362015Y-107156191D01*
X166389942Y-107142084D01*
X166397936Y-107135839D01*
X166543934Y-107021772D01*
X166548790Y-107017978D01*
X166567443Y-106996369D01*
X166676480Y-106870048D01*
X166680508Y-106865382D01*
X166683551Y-106860025D01*
X166683554Y-106860021D01*
X166754311Y-106735464D01*
X166780077Y-106690108D01*
X166786540Y-106670681D01*
X166829914Y-106540292D01*
X166843706Y-106498832D01*
X166868971Y-106298840D01*
X166869257Y-106278346D01*
X166869325Y-106273523D01*
X166869325Y-106273519D01*
X166869374Y-106270000D01*
X166866402Y-106239691D01*
X167219058Y-106239691D01*
X167232916Y-106451126D01*
X167285073Y-106656495D01*
X167373782Y-106848919D01*
X167496072Y-107021956D01*
X167520592Y-107045842D01*
X167621286Y-107143934D01*
X167647848Y-107169810D01*
X167652644Y-107173015D01*
X167652647Y-107173017D01*
X167756807Y-107242614D01*
X167824027Y-107287529D01*
X167829335Y-107289810D01*
X167829336Y-107289810D01*
X167986722Y-107357428D01*
X168018708Y-107371170D01*
X168018325Y-107372061D01*
X168072552Y-107409146D01*
X168100185Y-107474544D01*
X168088074Y-107544500D01*
X168040064Y-107596803D01*
X168007615Y-107610606D01*
X167951280Y-107625700D01*
X167940986Y-107629447D01*
X167752086Y-107717533D01*
X167742600Y-107723011D01*
X167596587Y-107825249D01*
X167588212Y-107835727D01*
X167595280Y-107849175D01*
X168363688Y-108617583D01*
X168377632Y-108625197D01*
X168379465Y-108625066D01*
X168386080Y-108620815D01*
X169158442Y-107848453D01*
X169164872Y-107836679D01*
X169155575Y-107824663D01*
X169010400Y-107723011D01*
X169000914Y-107717533D01*
X168812014Y-107629447D01*
X168801722Y-107625701D01*
X168737932Y-107608609D01*
X168677309Y-107571658D01*
X168646288Y-107507797D01*
X168654716Y-107437303D01*
X168699919Y-107382555D01*
X168730042Y-107367589D01*
X168841964Y-107329597D01*
X168841969Y-107329595D01*
X168847436Y-107327739D01*
X168855509Y-107323218D01*
X169027269Y-107227027D01*
X169027273Y-107227024D01*
X169032307Y-107224205D01*
X169036744Y-107220514D01*
X169036748Y-107220512D01*
X169190778Y-107092407D01*
X169195216Y-107088716D01*
X169220853Y-107057891D01*
X169327012Y-106930248D01*
X169327014Y-106930244D01*
X169330705Y-106925807D01*
X169333524Y-106920773D01*
X169333527Y-106920769D01*
X169431416Y-106745977D01*
X169431417Y-106745976D01*
X169434239Y-106740936D01*
X169436095Y-106735469D01*
X169436097Y-106735464D01*
X169500492Y-106545761D01*
X169500493Y-106545756D01*
X169502348Y-106540292D01*
X169503176Y-106534583D01*
X169503177Y-106534578D01*
X169532219Y-106334271D01*
X169532752Y-106330597D01*
X169534339Y-106270000D01*
X169514951Y-106059001D01*
X169512239Y-106049383D01*
X169460154Y-105864706D01*
X169457436Y-105855068D01*
X169363720Y-105665031D01*
X169297295Y-105576076D01*
X169240395Y-105499878D01*
X169240394Y-105499877D01*
X169236942Y-105495254D01*
X169232706Y-105491338D01*
X169085589Y-105355345D01*
X169085587Y-105355343D01*
X169081348Y-105351425D01*
X169064951Y-105341079D01*
X168907028Y-105241437D01*
X168902148Y-105238358D01*
X168896788Y-105236220D01*
X168896785Y-105236218D01*
X168710708Y-105161981D01*
X168705344Y-105159841D01*
X168515899Y-105122158D01*
X168452990Y-105089252D01*
X168417858Y-105027557D01*
X168421658Y-104956662D01*
X168463183Y-104899076D01*
X168522401Y-104873884D01*
X168641078Y-104856677D01*
X168641083Y-104856676D01*
X168646792Y-104855848D01*
X168652256Y-104853993D01*
X168652261Y-104853992D01*
X168841964Y-104789597D01*
X168841969Y-104789595D01*
X168847436Y-104787739D01*
X168888564Y-104764706D01*
X169027269Y-104687027D01*
X169027273Y-104687024D01*
X169032307Y-104684205D01*
X169036744Y-104680514D01*
X169036748Y-104680512D01*
X169190778Y-104552407D01*
X169195216Y-104548716D01*
X169250739Y-104481956D01*
X169327012Y-104390248D01*
X169327014Y-104390244D01*
X169330705Y-104385807D01*
X169333524Y-104380773D01*
X169333527Y-104380769D01*
X169431416Y-104205977D01*
X169431417Y-104205976D01*
X169434239Y-104200936D01*
X169436095Y-104195469D01*
X169436097Y-104195464D01*
X169500492Y-104005761D01*
X169500493Y-104005756D01*
X169502348Y-104000292D01*
X169503176Y-103994583D01*
X169503177Y-103994578D01*
X169532219Y-103794271D01*
X169532752Y-103790597D01*
X169534339Y-103730000D01*
X169514951Y-103519001D01*
X169513332Y-103513258D01*
X169475537Y-103379249D01*
X169457436Y-103315068D01*
X169363720Y-103125031D01*
X169351501Y-103108667D01*
X169240395Y-102959878D01*
X169240394Y-102959877D01*
X169236942Y-102955254D01*
X169217777Y-102937538D01*
X169085589Y-102815345D01*
X169085587Y-102815343D01*
X169081348Y-102811425D01*
X169052604Y-102793289D01*
X168907028Y-102701437D01*
X168902148Y-102698358D01*
X168896788Y-102696220D01*
X168896785Y-102696218D01*
X168710708Y-102621981D01*
X168705344Y-102619841D01*
X168515899Y-102582158D01*
X168452990Y-102549252D01*
X168417858Y-102487557D01*
X168421658Y-102416662D01*
X168463183Y-102359076D01*
X168522401Y-102333884D01*
X168641078Y-102316677D01*
X168641083Y-102316676D01*
X168646792Y-102315848D01*
X168652256Y-102313993D01*
X168652261Y-102313992D01*
X168841964Y-102249597D01*
X168841969Y-102249595D01*
X168847436Y-102247739D01*
X168852477Y-102244916D01*
X169027269Y-102147027D01*
X169027273Y-102147024D01*
X169032307Y-102144205D01*
X169036744Y-102140514D01*
X169036748Y-102140512D01*
X169190778Y-102012407D01*
X169195216Y-102008716D01*
X169250739Y-101941956D01*
X169327012Y-101850248D01*
X169327014Y-101850244D01*
X169330705Y-101845807D01*
X169333524Y-101840773D01*
X169333527Y-101840769D01*
X169431416Y-101665977D01*
X169431417Y-101665976D01*
X169434239Y-101660936D01*
X169436095Y-101655469D01*
X169436097Y-101655464D01*
X169500492Y-101465761D01*
X169500493Y-101465756D01*
X169502348Y-101460292D01*
X169503176Y-101454583D01*
X169503177Y-101454578D01*
X169532219Y-101254271D01*
X169532752Y-101250597D01*
X169534339Y-101190000D01*
X169514951Y-100979001D01*
X169512239Y-100969383D01*
X169468493Y-100814272D01*
X169457436Y-100775068D01*
X169363720Y-100585031D01*
X169275418Y-100466779D01*
X169240395Y-100419878D01*
X169240394Y-100419877D01*
X169236942Y-100415254D01*
X169215316Y-100395263D01*
X169085589Y-100275345D01*
X169085587Y-100275343D01*
X169081348Y-100271425D01*
X169052604Y-100253289D01*
X168907028Y-100161437D01*
X168902148Y-100158358D01*
X168896788Y-100156220D01*
X168896785Y-100156218D01*
X168710708Y-100081981D01*
X168705344Y-100079841D01*
X168515899Y-100042158D01*
X168452990Y-100009252D01*
X168417858Y-99947557D01*
X168421658Y-99876662D01*
X168463183Y-99819076D01*
X168522401Y-99793884D01*
X168641078Y-99776677D01*
X168641083Y-99776676D01*
X168646792Y-99775848D01*
X168652256Y-99773993D01*
X168652261Y-99773992D01*
X168841964Y-99709597D01*
X168841969Y-99709595D01*
X168847436Y-99707739D01*
X168861080Y-99700098D01*
X169027269Y-99607027D01*
X169027273Y-99607024D01*
X169032307Y-99604205D01*
X169036744Y-99600514D01*
X169036748Y-99600512D01*
X169190778Y-99472407D01*
X169195216Y-99468716D01*
X169247390Y-99405983D01*
X169327012Y-99310248D01*
X169327014Y-99310244D01*
X169330705Y-99305807D01*
X169333524Y-99300773D01*
X169333527Y-99300769D01*
X169431416Y-99125977D01*
X169431417Y-99125976D01*
X169434239Y-99120936D01*
X169436095Y-99115469D01*
X169436097Y-99115464D01*
X169500492Y-98925761D01*
X169500493Y-98925756D01*
X169502348Y-98920292D01*
X169503176Y-98914583D01*
X169503177Y-98914578D01*
X169526334Y-98754860D01*
X169532752Y-98710597D01*
X169534339Y-98650000D01*
X169514951Y-98439001D01*
X169507882Y-98413934D01*
X169475074Y-98297609D01*
X169457436Y-98235068D01*
X169363720Y-98045031D01*
X169325234Y-97993491D01*
X169240395Y-97879878D01*
X169240394Y-97879877D01*
X169236942Y-97875254D01*
X169230907Y-97869675D01*
X169085589Y-97735345D01*
X169085587Y-97735343D01*
X169081348Y-97731425D01*
X169052604Y-97713289D01*
X168907028Y-97621437D01*
X168902148Y-97618358D01*
X168896788Y-97616220D01*
X168896785Y-97616218D01*
X168710708Y-97541981D01*
X168705344Y-97539841D01*
X168699684Y-97538715D01*
X168699680Y-97538714D01*
X168503195Y-97499631D01*
X168503190Y-97499631D01*
X168497527Y-97498504D01*
X168491752Y-97498428D01*
X168491748Y-97498428D01*
X168385375Y-97497036D01*
X168285657Y-97495730D01*
X168279960Y-97496709D01*
X168279959Y-97496709D01*
X168269955Y-97498428D01*
X168076829Y-97531613D01*
X167878037Y-97604952D01*
X167873076Y-97607904D01*
X167873075Y-97607904D01*
X167709830Y-97705025D01*
X167695939Y-97713289D01*
X167536633Y-97852996D01*
X167405455Y-98019396D01*
X167306796Y-98206914D01*
X167259887Y-98357989D01*
X167247094Y-98399190D01*
X167243963Y-98409272D01*
X167219058Y-98619691D01*
X167232916Y-98831126D01*
X167285073Y-99036495D01*
X167373782Y-99228919D01*
X167496072Y-99401956D01*
X167543993Y-99448639D01*
X167616290Y-99519067D01*
X167647848Y-99549810D01*
X167652644Y-99553015D01*
X167652647Y-99553017D01*
X167729256Y-99604205D01*
X167824027Y-99667529D01*
X167829335Y-99669810D01*
X167829336Y-99669810D01*
X168013405Y-99748892D01*
X168013408Y-99748893D01*
X168018708Y-99751170D01*
X168221903Y-99797149D01*
X168225372Y-99797934D01*
X168225218Y-99798616D01*
X168286171Y-99825584D01*
X168325259Y-99884851D01*
X168326100Y-99955843D01*
X168288426Y-100016020D01*
X168226131Y-100045958D01*
X168076829Y-100071613D01*
X167878037Y-100144952D01*
X167873076Y-100147904D01*
X167873075Y-100147904D01*
X167716997Y-100240761D01*
X167695939Y-100253289D01*
X167536633Y-100392996D01*
X167405455Y-100559396D01*
X167306796Y-100746914D01*
X167243963Y-100949272D01*
X167219058Y-101159691D01*
X167232916Y-101371126D01*
X167285073Y-101576495D01*
X167373782Y-101768919D01*
X167496072Y-101941956D01*
X167500206Y-101945983D01*
X167619387Y-102062084D01*
X167647848Y-102089810D01*
X167652644Y-102093015D01*
X167652647Y-102093017D01*
X167733479Y-102147027D01*
X167824027Y-102207529D01*
X167829335Y-102209810D01*
X167829336Y-102209810D01*
X168013405Y-102288892D01*
X168013408Y-102288893D01*
X168018708Y-102291170D01*
X168221903Y-102337149D01*
X168225372Y-102337934D01*
X168225218Y-102338616D01*
X168286171Y-102365584D01*
X168325259Y-102424851D01*
X168326100Y-102495843D01*
X168288426Y-102556020D01*
X168226131Y-102585958D01*
X168076829Y-102611613D01*
X167878037Y-102684952D01*
X167873076Y-102687904D01*
X167873075Y-102687904D01*
X167716466Y-102781077D01*
X167695939Y-102793289D01*
X167536633Y-102932996D01*
X167405455Y-103099396D01*
X167306796Y-103286914D01*
X167243963Y-103489272D01*
X167219058Y-103699691D01*
X167232916Y-103911126D01*
X167285073Y-104116495D01*
X167373782Y-104308919D01*
X167496072Y-104481956D01*
X167527809Y-104512873D01*
X167619387Y-104602084D01*
X167647848Y-104629810D01*
X167652644Y-104633015D01*
X167652647Y-104633017D01*
X167723729Y-104680512D01*
X167824027Y-104747529D01*
X167829335Y-104749810D01*
X167829336Y-104749810D01*
X168013405Y-104828892D01*
X168013408Y-104828893D01*
X168018708Y-104831170D01*
X168221903Y-104877149D01*
X168225372Y-104877934D01*
X168225218Y-104878616D01*
X168286171Y-104905584D01*
X168325259Y-104964851D01*
X168326100Y-105035843D01*
X168288426Y-105096020D01*
X168226131Y-105125958D01*
X168076829Y-105151613D01*
X167878037Y-105224952D01*
X167873076Y-105227904D01*
X167873075Y-105227904D01*
X167716997Y-105320761D01*
X167695939Y-105333289D01*
X167536633Y-105472996D01*
X167405455Y-105639396D01*
X167306796Y-105826914D01*
X167243963Y-106029272D01*
X167219058Y-106239691D01*
X166866402Y-106239691D01*
X166849703Y-106069380D01*
X166791440Y-105876402D01*
X166711510Y-105726076D01*
X166699697Y-105703858D01*
X166699695Y-105703855D01*
X166696803Y-105698416D01*
X166692913Y-105693646D01*
X166692910Y-105693642D01*
X166594693Y-105573218D01*
X166569397Y-105542202D01*
X166414076Y-105413709D01*
X166236755Y-105317832D01*
X166044188Y-105258222D01*
X166038067Y-105257579D01*
X166038064Y-105257578D01*
X165849839Y-105237795D01*
X165849838Y-105237795D01*
X165843711Y-105237151D01*
X165759984Y-105244771D01*
X165649098Y-105254862D01*
X165649095Y-105254863D01*
X165642959Y-105255421D01*
X165637053Y-105257159D01*
X165637049Y-105257160D01*
X165532435Y-105287950D01*
X165449579Y-105312336D01*
X165270936Y-105405728D01*
X165113836Y-105532040D01*
X164984262Y-105686460D01*
X164981298Y-105691852D01*
X164981295Y-105691856D01*
X164909859Y-105821798D01*
X164887149Y-105863108D01*
X164885288Y-105868975D01*
X164885287Y-105868977D01*
X164839197Y-106014272D01*
X164826197Y-106055253D01*
X164803727Y-106255579D01*
X155811353Y-106255579D01*
X155828154Y-106245263D01*
X155834774Y-106237950D01*
X155919873Y-106143934D01*
X155919874Y-106143933D01*
X155925901Y-106137274D01*
X155958796Y-106069380D01*
X155985495Y-106014272D01*
X155985495Y-106014271D01*
X155989410Y-106006191D01*
X156003178Y-105924359D01*
X156012770Y-105867344D01*
X156012770Y-105867341D01*
X156013576Y-105862552D01*
X156013729Y-105850000D01*
X155995573Y-105723218D01*
X155994354Y-105714706D01*
X155994353Y-105714703D01*
X155993080Y-105705813D01*
X155986734Y-105691856D01*
X155936508Y-105581390D01*
X155936507Y-105581388D01*
X155932792Y-105573218D01*
X155837713Y-105462873D01*
X155715485Y-105383648D01*
X155575934Y-105341914D01*
X155566958Y-105341859D01*
X155566957Y-105341859D01*
X155505644Y-105341485D01*
X155430279Y-105341024D01*
X155290229Y-105381051D01*
X155282642Y-105385838D01*
X155282640Y-105385839D01*
X155248424Y-105407428D01*
X155167042Y-105458776D01*
X155070622Y-105567951D01*
X155066808Y-105576074D01*
X155066807Y-105576076D01*
X155017197Y-105681742D01*
X155008719Y-105699800D01*
X155007339Y-105708665D01*
X155007338Y-105708667D01*
X155004628Y-105726076D01*
X154986309Y-105843724D01*
X153787584Y-105843724D01*
X153736508Y-105731390D01*
X153736507Y-105731388D01*
X153732792Y-105723218D01*
X153637713Y-105612873D01*
X153515485Y-105533648D01*
X153375934Y-105491914D01*
X153366958Y-105491859D01*
X153366957Y-105491859D01*
X153305644Y-105491485D01*
X153230279Y-105491024D01*
X153090229Y-105531051D01*
X153082642Y-105535838D01*
X153082640Y-105535839D01*
X153016377Y-105577648D01*
X152967042Y-105608776D01*
X152870622Y-105717951D01*
X152808719Y-105849800D01*
X152807339Y-105858665D01*
X152807338Y-105858667D01*
X152788563Y-105979249D01*
X152786309Y-105993724D01*
X126152900Y-105993724D01*
X126152900Y-104893724D01*
X142536309Y-104893724D01*
X142537473Y-104902626D01*
X142537473Y-104902629D01*
X142544539Y-104956662D01*
X142555195Y-105038152D01*
X142558809Y-105046365D01*
X142558810Y-105046369D01*
X142593832Y-105125959D01*
X142613859Y-105171474D01*
X142619634Y-105178344D01*
X142619635Y-105178346D01*
X142683953Y-105254862D01*
X142707583Y-105282973D01*
X142715060Y-105287950D01*
X142821361Y-105358710D01*
X142821363Y-105358711D01*
X142828834Y-105363684D01*
X142967864Y-105407121D01*
X143113498Y-105409790D01*
X143209384Y-105383648D01*
X143245363Y-105373839D01*
X143245364Y-105373839D01*
X143254026Y-105371477D01*
X143262359Y-105366361D01*
X143345699Y-105315190D01*
X143378154Y-105295263D01*
X143384774Y-105287950D01*
X143469873Y-105193934D01*
X143469874Y-105193933D01*
X143475901Y-105187274D01*
X143488156Y-105161981D01*
X143535495Y-105064272D01*
X143535495Y-105064271D01*
X143539410Y-105056191D01*
X143563576Y-104912552D01*
X143563729Y-104900000D01*
X143553546Y-104828892D01*
X143544354Y-104764706D01*
X143544353Y-104764703D01*
X143543080Y-104755813D01*
X143539362Y-104747635D01*
X143486508Y-104631390D01*
X143486507Y-104631388D01*
X143482792Y-104623218D01*
X143387713Y-104512873D01*
X143265485Y-104433648D01*
X143125934Y-104391914D01*
X143116958Y-104391859D01*
X143116957Y-104391859D01*
X143055644Y-104391485D01*
X142980279Y-104391024D01*
X142840229Y-104431051D01*
X142832642Y-104435838D01*
X142832640Y-104435839D01*
X142807835Y-104451490D01*
X142717042Y-104508776D01*
X142620622Y-104617951D01*
X142616808Y-104626074D01*
X142616807Y-104626076D01*
X142589516Y-104684205D01*
X142558719Y-104749800D01*
X142557339Y-104758665D01*
X142557338Y-104758667D01*
X142538768Y-104877934D01*
X142536309Y-104893724D01*
X126152900Y-104893724D01*
X126152900Y-102742614D01*
X127192031Y-102742614D01*
X127198013Y-102808344D01*
X127202167Y-102853986D01*
X127210745Y-102948248D01*
X127212483Y-102954154D01*
X127212484Y-102954158D01*
X127225023Y-102996761D01*
X127269044Y-103146332D01*
X127364708Y-103329319D01*
X127494091Y-103490240D01*
X127652268Y-103622966D01*
X127657663Y-103625932D01*
X127657669Y-103625936D01*
X127779025Y-103692652D01*
X127833211Y-103722441D01*
X128030030Y-103784875D01*
X128036147Y-103785561D01*
X128036151Y-103785562D01*
X128111982Y-103794068D01*
X128190724Y-103802900D01*
X128301964Y-103802900D01*
X128455499Y-103787846D01*
X128653171Y-103728165D01*
X128744328Y-103679696D01*
X128830043Y-103634121D01*
X128830046Y-103634119D01*
X128835485Y-103631227D01*
X128840255Y-103627337D01*
X128840259Y-103627334D01*
X128990724Y-103504617D01*
X128990727Y-103504614D01*
X128995499Y-103500722D01*
X129000896Y-103494199D01*
X129081828Y-103396369D01*
X129127118Y-103341623D01*
X129180052Y-103243724D01*
X143486309Y-103243724D01*
X143487473Y-103252626D01*
X143487473Y-103252629D01*
X143496787Y-103323854D01*
X143505195Y-103388152D01*
X143508809Y-103396365D01*
X143508810Y-103396369D01*
X143509237Y-103397339D01*
X143563859Y-103521474D01*
X143569634Y-103528344D01*
X143569635Y-103528346D01*
X143649171Y-103622966D01*
X143657583Y-103632973D01*
X143665060Y-103637950D01*
X143771361Y-103708710D01*
X143771363Y-103708711D01*
X143778834Y-103713684D01*
X143917864Y-103757121D01*
X144063498Y-103759790D01*
X144172963Y-103729946D01*
X144195363Y-103723839D01*
X144195364Y-103723839D01*
X144204026Y-103721477D01*
X144212359Y-103716361D01*
X144213633Y-103715579D01*
X164803727Y-103715579D01*
X164804243Y-103721723D01*
X164811060Y-103802900D01*
X164820595Y-103916454D01*
X164876158Y-104110226D01*
X164968301Y-104289516D01*
X164983680Y-104308919D01*
X165089684Y-104442665D01*
X165089689Y-104442670D01*
X165093513Y-104447495D01*
X165098207Y-104451489D01*
X165098207Y-104451490D01*
X165207233Y-104544278D01*
X165247025Y-104578144D01*
X165252403Y-104581150D01*
X165252405Y-104581151D01*
X165289861Y-104602084D01*
X165422990Y-104676487D01*
X165614705Y-104738779D01*
X165814869Y-104762647D01*
X165821004Y-104762175D01*
X165821006Y-104762175D01*
X165881978Y-104757483D01*
X166015857Y-104747182D01*
X166210013Y-104692973D01*
X166234682Y-104680512D01*
X166348104Y-104623218D01*
X166389942Y-104602084D01*
X166453526Y-104552407D01*
X166543934Y-104481772D01*
X166548790Y-104477978D01*
X166680508Y-104325382D01*
X166683551Y-104320025D01*
X166683554Y-104320021D01*
X166754311Y-104195464D01*
X166780077Y-104150108D01*
X166789514Y-104121741D01*
X166841759Y-103964684D01*
X166843706Y-103958832D01*
X166868971Y-103758840D01*
X166869374Y-103730000D01*
X166849703Y-103529380D01*
X166791440Y-103336402D01*
X166696803Y-103158416D01*
X166692913Y-103153646D01*
X166692910Y-103153642D01*
X166629010Y-103075294D01*
X166569397Y-103002202D01*
X166414076Y-102873709D01*
X166236755Y-102777832D01*
X166044188Y-102718222D01*
X166038067Y-102717579D01*
X166038064Y-102717578D01*
X165849839Y-102697795D01*
X165849838Y-102697795D01*
X165843711Y-102697151D01*
X165759984Y-102704771D01*
X165649098Y-102714862D01*
X165649095Y-102714863D01*
X165642959Y-102715421D01*
X165637053Y-102717159D01*
X165637049Y-102717160D01*
X165521236Y-102751246D01*
X165449579Y-102772336D01*
X165270936Y-102865728D01*
X165113836Y-102992040D01*
X164984262Y-103146460D01*
X164981298Y-103151852D01*
X164981295Y-103151856D01*
X164923111Y-103257693D01*
X164887149Y-103323108D01*
X164885288Y-103328975D01*
X164885287Y-103328977D01*
X164829571Y-103504617D01*
X164826197Y-103515253D01*
X164803727Y-103715579D01*
X144213633Y-103715579D01*
X144320502Y-103649961D01*
X144328154Y-103645263D01*
X144334774Y-103637950D01*
X144419873Y-103543934D01*
X144419874Y-103543933D01*
X144425901Y-103537274D01*
X144433606Y-103521372D01*
X144485495Y-103414272D01*
X144485495Y-103414271D01*
X144489410Y-103406191D01*
X144513576Y-103262552D01*
X144513729Y-103250000D01*
X144500839Y-103159990D01*
X144494354Y-103114706D01*
X144494353Y-103114703D01*
X144493080Y-103105813D01*
X144488100Y-103094860D01*
X144436508Y-102981390D01*
X144436507Y-102981388D01*
X144432792Y-102973218D01*
X144337713Y-102862873D01*
X144215485Y-102783648D01*
X144075934Y-102741914D01*
X144066958Y-102741859D01*
X144066957Y-102741859D01*
X144005644Y-102741485D01*
X143930279Y-102741024D01*
X143790229Y-102781051D01*
X143782642Y-102785838D01*
X143782640Y-102785839D01*
X143770833Y-102793289D01*
X143667042Y-102858776D01*
X143570622Y-102967951D01*
X143566808Y-102976074D01*
X143566807Y-102976076D01*
X143556382Y-102998281D01*
X143508719Y-103099800D01*
X143507339Y-103108665D01*
X143507338Y-103108667D01*
X143498745Y-103163858D01*
X143486309Y-103243724D01*
X129180052Y-103243724D01*
X129225327Y-103159990D01*
X129286386Y-102962739D01*
X129297313Y-102858776D01*
X129307325Y-102763515D01*
X129307325Y-102763513D01*
X129307969Y-102757386D01*
X129289255Y-102551752D01*
X129276857Y-102509625D01*
X129232696Y-102359580D01*
X129230956Y-102353668D01*
X129135292Y-102170681D01*
X129005909Y-102009760D01*
X128986798Y-101993724D01*
X152486309Y-101993724D01*
X152487473Y-102002626D01*
X152487473Y-102002629D01*
X152495248Y-102062084D01*
X152505195Y-102138152D01*
X152508809Y-102146365D01*
X152508810Y-102146369D01*
X152542374Y-102222647D01*
X152563859Y-102271474D01*
X152569634Y-102278344D01*
X152569635Y-102278346D01*
X152637919Y-102359580D01*
X152657583Y-102382973D01*
X152665060Y-102387950D01*
X152771361Y-102458710D01*
X152771363Y-102458711D01*
X152778834Y-102463684D01*
X152917864Y-102507121D01*
X153063498Y-102509790D01*
X153145046Y-102487557D01*
X153195363Y-102473839D01*
X153195364Y-102473839D01*
X153204026Y-102471477D01*
X153212359Y-102466361D01*
X153320502Y-102399961D01*
X153328154Y-102395263D01*
X153407391Y-102307723D01*
X153467934Y-102270643D01*
X153538913Y-102272181D01*
X153597256Y-102311205D01*
X153637496Y-102359076D01*
X153657583Y-102382973D01*
X153665060Y-102387950D01*
X153771361Y-102458710D01*
X153771363Y-102458711D01*
X153778834Y-102463684D01*
X153917864Y-102507121D01*
X154063498Y-102509790D01*
X154145046Y-102487557D01*
X154195363Y-102473839D01*
X154195364Y-102473839D01*
X154204026Y-102471477D01*
X154212359Y-102466361D01*
X154320502Y-102399961D01*
X154328154Y-102395263D01*
X154407391Y-102307723D01*
X154467934Y-102270643D01*
X154538913Y-102272181D01*
X154597256Y-102311205D01*
X154637496Y-102359076D01*
X154657583Y-102382973D01*
X154665060Y-102387950D01*
X154771361Y-102458710D01*
X154771363Y-102458711D01*
X154778834Y-102463684D01*
X154917864Y-102507121D01*
X155063498Y-102509790D01*
X155145046Y-102487557D01*
X155195363Y-102473839D01*
X155195364Y-102473839D01*
X155204026Y-102471477D01*
X155212359Y-102466361D01*
X155320502Y-102399961D01*
X155328154Y-102395263D01*
X155407391Y-102307723D01*
X155467934Y-102270643D01*
X155538913Y-102272181D01*
X155597256Y-102311205D01*
X155637496Y-102359076D01*
X155657583Y-102382973D01*
X155665060Y-102387950D01*
X155771361Y-102458710D01*
X155771363Y-102458711D01*
X155778834Y-102463684D01*
X155917864Y-102507121D01*
X156063498Y-102509790D01*
X156145046Y-102487557D01*
X156195363Y-102473839D01*
X156195364Y-102473839D01*
X156204026Y-102471477D01*
X156212359Y-102466361D01*
X156320502Y-102399961D01*
X156328154Y-102395263D01*
X156334774Y-102387950D01*
X156419873Y-102293934D01*
X156419874Y-102293933D01*
X156425901Y-102287274D01*
X156433214Y-102272181D01*
X156485495Y-102164272D01*
X156485495Y-102164271D01*
X156489410Y-102156191D01*
X156505881Y-102058288D01*
X156512770Y-102017344D01*
X156512770Y-102017341D01*
X156513576Y-102012552D01*
X156513729Y-102000000D01*
X156504179Y-101933314D01*
X156494354Y-101864706D01*
X156494353Y-101864703D01*
X156493080Y-101855813D01*
X156489362Y-101847635D01*
X156436508Y-101731390D01*
X156436507Y-101731388D01*
X156432792Y-101723218D01*
X156337713Y-101612873D01*
X156215485Y-101533648D01*
X156075934Y-101491914D01*
X156066958Y-101491859D01*
X156066957Y-101491859D01*
X156005644Y-101491485D01*
X155930279Y-101491024D01*
X155790229Y-101531051D01*
X155667042Y-101608776D01*
X155661102Y-101615502D01*
X155661096Y-101615507D01*
X155594172Y-101691285D01*
X155534087Y-101729104D01*
X155463093Y-101728434D01*
X155404278Y-101690125D01*
X155343578Y-101619678D01*
X155343572Y-101619673D01*
X155337713Y-101612873D01*
X155215485Y-101533648D01*
X155075934Y-101491914D01*
X155066958Y-101491859D01*
X155066957Y-101491859D01*
X155005644Y-101491485D01*
X154930279Y-101491024D01*
X154790229Y-101531051D01*
X154667042Y-101608776D01*
X154661102Y-101615502D01*
X154661096Y-101615507D01*
X154594172Y-101691285D01*
X154534087Y-101729104D01*
X154463093Y-101728434D01*
X154404278Y-101690125D01*
X154343578Y-101619678D01*
X154343572Y-101619673D01*
X154337713Y-101612873D01*
X154215485Y-101533648D01*
X154075934Y-101491914D01*
X154066958Y-101491859D01*
X154066957Y-101491859D01*
X154005644Y-101491485D01*
X153930279Y-101491024D01*
X153790229Y-101531051D01*
X153667042Y-101608776D01*
X153661102Y-101615502D01*
X153661096Y-101615507D01*
X153594172Y-101691285D01*
X153534087Y-101729104D01*
X153463093Y-101728434D01*
X153404278Y-101690125D01*
X153343578Y-101619678D01*
X153343572Y-101619673D01*
X153337713Y-101612873D01*
X153215485Y-101533648D01*
X153075934Y-101491914D01*
X153066958Y-101491859D01*
X153066957Y-101491859D01*
X153005644Y-101491485D01*
X152930279Y-101491024D01*
X152790229Y-101531051D01*
X152667042Y-101608776D01*
X152570622Y-101717951D01*
X152566808Y-101726074D01*
X152566807Y-101726076D01*
X152512959Y-101840769D01*
X152508719Y-101849800D01*
X152507339Y-101858665D01*
X152507338Y-101858667D01*
X152493743Y-101945983D01*
X152486309Y-101993724D01*
X128986798Y-101993724D01*
X128847732Y-101877034D01*
X128842337Y-101874068D01*
X128842331Y-101874064D01*
X128689506Y-101790048D01*
X128666789Y-101777559D01*
X128469970Y-101715125D01*
X128463853Y-101714439D01*
X128463849Y-101714438D01*
X128388018Y-101705932D01*
X128309276Y-101697100D01*
X128198036Y-101697100D01*
X128044501Y-101712154D01*
X127846829Y-101771835D01*
X127755672Y-101820304D01*
X127669957Y-101865879D01*
X127669954Y-101865881D01*
X127664515Y-101868773D01*
X127659745Y-101872663D01*
X127659741Y-101872666D01*
X127509276Y-101995383D01*
X127509273Y-101995386D01*
X127504501Y-101999278D01*
X127500573Y-102004026D01*
X127500572Y-102004027D01*
X127489555Y-102017344D01*
X127372882Y-102158377D01*
X127274673Y-102340010D01*
X127213614Y-102537261D01*
X127212970Y-102543386D01*
X127212970Y-102543387D01*
X127194595Y-102718222D01*
X127192031Y-102742614D01*
X126152900Y-102742614D01*
X126152900Y-101175579D01*
X164803727Y-101175579D01*
X164820595Y-101376454D01*
X164822294Y-101382378D01*
X164866298Y-101535839D01*
X164876158Y-101570226D01*
X164878977Y-101575711D01*
X164957811Y-101729104D01*
X164968301Y-101749516D01*
X164992479Y-101780021D01*
X165089684Y-101902665D01*
X165089689Y-101902670D01*
X165093513Y-101907495D01*
X165098207Y-101911489D01*
X165098207Y-101911490D01*
X165216955Y-102012552D01*
X165247025Y-102038144D01*
X165252403Y-102041150D01*
X165252405Y-102041151D01*
X165289861Y-102062084D01*
X165422990Y-102136487D01*
X165614705Y-102198779D01*
X165814869Y-102222647D01*
X165821004Y-102222175D01*
X165821006Y-102222175D01*
X165881978Y-102217483D01*
X166015857Y-102207182D01*
X166210013Y-102152973D01*
X166221167Y-102147339D01*
X166343026Y-102085783D01*
X166389942Y-102062084D01*
X166447207Y-102017344D01*
X166543934Y-101941772D01*
X166548790Y-101937978D01*
X166680508Y-101785382D01*
X166683551Y-101780025D01*
X166683554Y-101780021D01*
X166754311Y-101655464D01*
X166780077Y-101610108D01*
X166789514Y-101581741D01*
X166841759Y-101424684D01*
X166843706Y-101418832D01*
X166868971Y-101218840D01*
X166869374Y-101190000D01*
X166849703Y-100989380D01*
X166791440Y-100796402D01*
X166716181Y-100654860D01*
X166699697Y-100623858D01*
X166699695Y-100623855D01*
X166696803Y-100618416D01*
X166692913Y-100613646D01*
X166692910Y-100613642D01*
X166629010Y-100535294D01*
X166569397Y-100462202D01*
X166414076Y-100333709D01*
X166236755Y-100237832D01*
X166077484Y-100188529D01*
X166050071Y-100180043D01*
X166050070Y-100180043D01*
X166044188Y-100178222D01*
X166038067Y-100177579D01*
X166038064Y-100177578D01*
X165849839Y-100157795D01*
X165849838Y-100157795D01*
X165843711Y-100157151D01*
X165765465Y-100164272D01*
X165649098Y-100174862D01*
X165649095Y-100174863D01*
X165642959Y-100175421D01*
X165637053Y-100177159D01*
X165637049Y-100177160D01*
X165529853Y-100208710D01*
X165449579Y-100232336D01*
X165386134Y-100265504D01*
X165331753Y-100293934D01*
X165270936Y-100325728D01*
X165113836Y-100452040D01*
X164984262Y-100606460D01*
X164981298Y-100611852D01*
X164981295Y-100611856D01*
X164909859Y-100741798D01*
X164887149Y-100783108D01*
X164885288Y-100788975D01*
X164885287Y-100788977D01*
X164877263Y-100814272D01*
X164826197Y-100975253D01*
X164803727Y-101175579D01*
X126152900Y-101175579D01*
X126152900Y-100643724D01*
X158086309Y-100643724D01*
X158087473Y-100652626D01*
X158087473Y-100652629D01*
X158099096Y-100741514D01*
X158105195Y-100788152D01*
X158108809Y-100796365D01*
X158108810Y-100796369D01*
X158113132Y-100806191D01*
X158163859Y-100921474D01*
X158169634Y-100928344D01*
X158169635Y-100928346D01*
X158226095Y-100995513D01*
X158257583Y-101032973D01*
X158265060Y-101037950D01*
X158371361Y-101108710D01*
X158371363Y-101108711D01*
X158378834Y-101113684D01*
X158517864Y-101157121D01*
X158663498Y-101159790D01*
X158733762Y-101140633D01*
X158795363Y-101123839D01*
X158795364Y-101123839D01*
X158804026Y-101121477D01*
X158812359Y-101116361D01*
X158920502Y-101049961D01*
X158928154Y-101045263D01*
X158934774Y-101037950D01*
X159019873Y-100943934D01*
X159019874Y-100943933D01*
X159025901Y-100937274D01*
X159089410Y-100806191D01*
X159113576Y-100662552D01*
X159113729Y-100650000D01*
X159103762Y-100580404D01*
X159094354Y-100514706D01*
X159094353Y-100514703D01*
X159093080Y-100505813D01*
X159089362Y-100497635D01*
X159036508Y-100381390D01*
X159036507Y-100381388D01*
X159032792Y-100373218D01*
X158937713Y-100262873D01*
X158815485Y-100183648D01*
X158675934Y-100141914D01*
X158666958Y-100141859D01*
X158666957Y-100141859D01*
X158605644Y-100141485D01*
X158530279Y-100141024D01*
X158390229Y-100181051D01*
X158267042Y-100258776D01*
X158261100Y-100265504D01*
X158252409Y-100275345D01*
X158170622Y-100367951D01*
X158166808Y-100376074D01*
X158166807Y-100376076D01*
X158112533Y-100491676D01*
X158108719Y-100499800D01*
X158107339Y-100508665D01*
X158107338Y-100508667D01*
X158090250Y-100618416D01*
X158086309Y-100643724D01*
X126152900Y-100643724D01*
X126152900Y-99693953D01*
X139246630Y-99693953D01*
X139249097Y-99702584D01*
X139249097Y-99702586D01*
X139282390Y-99819076D01*
X139286215Y-99832461D01*
X139363084Y-99954291D01*
X139471057Y-100049649D01*
X139515753Y-100070634D01*
X139593332Y-100107058D01*
X139593334Y-100107059D01*
X139601454Y-100110871D01*
X139710825Y-100127900D01*
X139786107Y-100127900D01*
X139847435Y-100119117D01*
X139883712Y-100113922D01*
X139883714Y-100113921D01*
X139892599Y-100112649D01*
X140023734Y-100053026D01*
X140030533Y-100047168D01*
X140030537Y-100047165D01*
X140126066Y-99964851D01*
X140126068Y-99964849D01*
X140132864Y-99958993D01*
X140211215Y-99838111D01*
X140239443Y-99743724D01*
X140886309Y-99743724D01*
X140887473Y-99752626D01*
X140887473Y-99752629D01*
X140899096Y-99841514D01*
X140905195Y-99888152D01*
X140908809Y-99896365D01*
X140908810Y-99896369D01*
X140931334Y-99947557D01*
X140963859Y-100021474D01*
X140969634Y-100028344D01*
X140969635Y-100028346D01*
X141012921Y-100079841D01*
X141057583Y-100132973D01*
X141065060Y-100137950D01*
X141171361Y-100208710D01*
X141171363Y-100208711D01*
X141178834Y-100213684D01*
X141317864Y-100257121D01*
X141463498Y-100259790D01*
X141553728Y-100235190D01*
X141595363Y-100223839D01*
X141595364Y-100223839D01*
X141604026Y-100221477D01*
X141612359Y-100216361D01*
X141697194Y-100164272D01*
X141728154Y-100145263D01*
X141734774Y-100137950D01*
X141819873Y-100043934D01*
X141819874Y-100043933D01*
X141825901Y-100037274D01*
X141836199Y-100016020D01*
X141847001Y-99993724D01*
X143236309Y-99993724D01*
X143237473Y-100002626D01*
X143237473Y-100002629D01*
X143244121Y-100053464D01*
X143255195Y-100138152D01*
X143258809Y-100146365D01*
X143258810Y-100146369D01*
X143286242Y-100208710D01*
X143313859Y-100271474D01*
X143319634Y-100278344D01*
X143319635Y-100278346D01*
X143401803Y-100376097D01*
X143407583Y-100382973D01*
X143415060Y-100387950D01*
X143521361Y-100458710D01*
X143521363Y-100458711D01*
X143528834Y-100463684D01*
X143537401Y-100466361D01*
X143537402Y-100466361D01*
X143553777Y-100471477D01*
X143667864Y-100507121D01*
X143813498Y-100509790D01*
X143883762Y-100490633D01*
X143945363Y-100473839D01*
X143945364Y-100473839D01*
X143954026Y-100471477D01*
X143962359Y-100466361D01*
X144070502Y-100399961D01*
X144078154Y-100395263D01*
X144084774Y-100387950D01*
X144169873Y-100293934D01*
X144169874Y-100293933D01*
X144175901Y-100287274D01*
X144185073Y-100268344D01*
X144235495Y-100164272D01*
X144235495Y-100164271D01*
X144239410Y-100156191D01*
X144263576Y-100012552D01*
X144263729Y-100000000D01*
X144249378Y-99899790D01*
X144244354Y-99864706D01*
X144244353Y-99864703D01*
X144243080Y-99855813D01*
X144238456Y-99845643D01*
X144186508Y-99731390D01*
X144186507Y-99731388D01*
X144182792Y-99723218D01*
X144087713Y-99612873D01*
X144077836Y-99606471D01*
X144076030Y-99604371D01*
X144073416Y-99602090D01*
X144073745Y-99601713D01*
X144031553Y-99552635D01*
X144021722Y-99482322D01*
X144051466Y-99417857D01*
X144065885Y-99403794D01*
X144070500Y-99399963D01*
X144078154Y-99395263D01*
X144088599Y-99383724D01*
X155606309Y-99383724D01*
X155607473Y-99392626D01*
X155607473Y-99392629D01*
X155617122Y-99466418D01*
X155625195Y-99528152D01*
X155628809Y-99536365D01*
X155628810Y-99536369D01*
X155658733Y-99604371D01*
X155683859Y-99661474D01*
X155689634Y-99668344D01*
X155689635Y-99668346D01*
X155764739Y-99757693D01*
X155777583Y-99772973D01*
X155785060Y-99777950D01*
X155891361Y-99848710D01*
X155891363Y-99848711D01*
X155898834Y-99853684D01*
X156037864Y-99897121D01*
X156183498Y-99899790D01*
X156268329Y-99876662D01*
X156315363Y-99863839D01*
X156315364Y-99863839D01*
X156324026Y-99861477D01*
X156332359Y-99856361D01*
X156386090Y-99823370D01*
X156448154Y-99785263D01*
X156454774Y-99777950D01*
X156539873Y-99683934D01*
X156539874Y-99683933D01*
X156545901Y-99677274D01*
X156550623Y-99667529D01*
X156605495Y-99554272D01*
X156605495Y-99554271D01*
X156609410Y-99546191D01*
X156633576Y-99402552D01*
X156633729Y-99390000D01*
X156622308Y-99310248D01*
X156614354Y-99254706D01*
X156614353Y-99254703D01*
X156613080Y-99245813D01*
X156607242Y-99232973D01*
X156556508Y-99121390D01*
X156556507Y-99121388D01*
X156552792Y-99113218D01*
X156457713Y-99002873D01*
X156335485Y-98923648D01*
X156195934Y-98881914D01*
X156186958Y-98881859D01*
X156186957Y-98881859D01*
X156125644Y-98881485D01*
X156050279Y-98881024D01*
X155910229Y-98921051D01*
X155902642Y-98925838D01*
X155902640Y-98925839D01*
X155898377Y-98928529D01*
X155787042Y-98998776D01*
X155690622Y-99107951D01*
X155686808Y-99116074D01*
X155686807Y-99116076D01*
X155632533Y-99231676D01*
X155628719Y-99239800D01*
X155627339Y-99248665D01*
X155627338Y-99248667D01*
X155608497Y-99369675D01*
X155606309Y-99383724D01*
X144088599Y-99383724D01*
X144175901Y-99287274D01*
X144190362Y-99257428D01*
X144235495Y-99164272D01*
X144235495Y-99164271D01*
X144239410Y-99156191D01*
X144263576Y-99012552D01*
X144263729Y-99000000D01*
X144261058Y-98981346D01*
X144271198Y-98911081D01*
X144317719Y-98857450D01*
X144385850Y-98837484D01*
X144423357Y-98843217D01*
X144459292Y-98854444D01*
X144459300Y-98854445D01*
X144467864Y-98857121D01*
X144613498Y-98859790D01*
X144698087Y-98836728D01*
X144745367Y-98823838D01*
X144745369Y-98823837D01*
X144754026Y-98821477D01*
X144755182Y-98820767D01*
X144821839Y-98812540D01*
X144885817Y-98843319D01*
X144922999Y-98903800D01*
X144926353Y-98920536D01*
X144927240Y-98927316D01*
X144935195Y-98988152D01*
X144938809Y-98996365D01*
X144938810Y-98996369D01*
X144958775Y-99041741D01*
X144993859Y-99121474D01*
X144999634Y-99128344D01*
X144999635Y-99128346D01*
X145079766Y-99223674D01*
X145087583Y-99232973D01*
X145095060Y-99237950D01*
X145201361Y-99308710D01*
X145201363Y-99308711D01*
X145208834Y-99313684D01*
X145347864Y-99357121D01*
X145493498Y-99359790D01*
X145563762Y-99340633D01*
X145625363Y-99323839D01*
X145625364Y-99323839D01*
X145634026Y-99321477D01*
X145642359Y-99316361D01*
X145750502Y-99249961D01*
X145758154Y-99245263D01*
X145764774Y-99237950D01*
X145849873Y-99143934D01*
X145849874Y-99143933D01*
X145855901Y-99137274D01*
X145861317Y-99126097D01*
X145915495Y-99014272D01*
X145915495Y-99014271D01*
X145919410Y-99006191D01*
X145932680Y-98927316D01*
X145963707Y-98863458D01*
X146024333Y-98826512D01*
X146094508Y-98827954D01*
X146187864Y-98857121D01*
X146333498Y-98859790D01*
X146418087Y-98836728D01*
X146465363Y-98823839D01*
X146465364Y-98823839D01*
X146474026Y-98821477D01*
X146486719Y-98813684D01*
X146574763Y-98759625D01*
X146598154Y-98745263D01*
X146599547Y-98743724D01*
X151596309Y-98743724D01*
X151597473Y-98752626D01*
X151597473Y-98752629D01*
X151605308Y-98812540D01*
X151615195Y-98888152D01*
X151618809Y-98896365D01*
X151618810Y-98896369D01*
X151646242Y-98958710D01*
X151673859Y-99021474D01*
X151679634Y-99028344D01*
X151679635Y-99028346D01*
X151757917Y-99121474D01*
X151767583Y-99132973D01*
X151775060Y-99137950D01*
X151881361Y-99208710D01*
X151881363Y-99208711D01*
X151888834Y-99213684D01*
X152027864Y-99257121D01*
X152173498Y-99259790D01*
X152286730Y-99228919D01*
X152305363Y-99223839D01*
X152305364Y-99223839D01*
X152314026Y-99221477D01*
X152322359Y-99216361D01*
X152407194Y-99164272D01*
X152438154Y-99145263D01*
X152444774Y-99137950D01*
X152529873Y-99043934D01*
X152529874Y-99043933D01*
X152535901Y-99037274D01*
X152547046Y-99014272D01*
X152595495Y-98914272D01*
X152595495Y-98914271D01*
X152599410Y-98906191D01*
X152614453Y-98816779D01*
X152622770Y-98767344D01*
X152622770Y-98767341D01*
X152623576Y-98762552D01*
X152623729Y-98750000D01*
X152610158Y-98655238D01*
X152604354Y-98614706D01*
X152604353Y-98614703D01*
X152603080Y-98605813D01*
X152597636Y-98593839D01*
X152546508Y-98481390D01*
X152546507Y-98481388D01*
X152542792Y-98473218D01*
X152447713Y-98362873D01*
X152325485Y-98283648D01*
X152185934Y-98241914D01*
X152176958Y-98241859D01*
X152176957Y-98241859D01*
X152115644Y-98241485D01*
X152040279Y-98241024D01*
X151900229Y-98281051D01*
X151777042Y-98358776D01*
X151680622Y-98467951D01*
X151676808Y-98476074D01*
X151676807Y-98476076D01*
X151622533Y-98591676D01*
X151618719Y-98599800D01*
X151617339Y-98608665D01*
X151617338Y-98608667D01*
X151599057Y-98726076D01*
X151596309Y-98743724D01*
X146599547Y-98743724D01*
X146609279Y-98732973D01*
X146689873Y-98643934D01*
X146689874Y-98643933D01*
X146695901Y-98637274D01*
X146700672Y-98627428D01*
X146755495Y-98514272D01*
X146755495Y-98514271D01*
X146759410Y-98506191D01*
X146780027Y-98383648D01*
X146782770Y-98367344D01*
X146782770Y-98367341D01*
X146783576Y-98362552D01*
X146783729Y-98350000D01*
X146771206Y-98262552D01*
X146764354Y-98214706D01*
X146764353Y-98214703D01*
X146763080Y-98205813D01*
X146759362Y-98197635D01*
X146721210Y-98113724D01*
X155236309Y-98113724D01*
X155237473Y-98122626D01*
X155237473Y-98122629D01*
X155247565Y-98199800D01*
X155255195Y-98258152D01*
X155258809Y-98266365D01*
X155258810Y-98266369D01*
X155292052Y-98341914D01*
X155313859Y-98391474D01*
X155319634Y-98398344D01*
X155319635Y-98398346D01*
X155399808Y-98493724D01*
X155407583Y-98502973D01*
X155415060Y-98507950D01*
X155521361Y-98578710D01*
X155521363Y-98578711D01*
X155528834Y-98583684D01*
X155667864Y-98627121D01*
X155813498Y-98629790D01*
X155901443Y-98605813D01*
X155945363Y-98593839D01*
X155945364Y-98593839D01*
X155954026Y-98591477D01*
X155962359Y-98586361D01*
X156044642Y-98535839D01*
X156078154Y-98515263D01*
X156084774Y-98507950D01*
X156097651Y-98493724D01*
X161586309Y-98493724D01*
X161587473Y-98502626D01*
X161587473Y-98502629D01*
X161598423Y-98586361D01*
X161605195Y-98638152D01*
X161608809Y-98646365D01*
X161608810Y-98646369D01*
X161642899Y-98723839D01*
X161663859Y-98771474D01*
X161669634Y-98778344D01*
X161669635Y-98778346D01*
X161733602Y-98854444D01*
X161757583Y-98882973D01*
X161765060Y-98887950D01*
X161871361Y-98958710D01*
X161871363Y-98958711D01*
X161878834Y-98963684D01*
X162017864Y-99007121D01*
X162163498Y-99009790D01*
X162267813Y-98981350D01*
X162295363Y-98973839D01*
X162295364Y-98973839D01*
X162304026Y-98971477D01*
X162312359Y-98966361D01*
X162375950Y-98927316D01*
X162428154Y-98895263D01*
X162434774Y-98887950D01*
X162519873Y-98793934D01*
X162519874Y-98793933D01*
X162525901Y-98787274D01*
X162540362Y-98757428D01*
X162585495Y-98664272D01*
X162585495Y-98664271D01*
X162589410Y-98656191D01*
X162613576Y-98512552D01*
X162613729Y-98500000D01*
X162604197Y-98433437D01*
X162594354Y-98364706D01*
X162594353Y-98364703D01*
X162593080Y-98355813D01*
X162588247Y-98345183D01*
X162536508Y-98231390D01*
X162536507Y-98231388D01*
X162532792Y-98223218D01*
X162437713Y-98112873D01*
X162315485Y-98033648D01*
X162175934Y-97991914D01*
X162166958Y-97991859D01*
X162166957Y-97991859D01*
X162105644Y-97991485D01*
X162030279Y-97991024D01*
X161890229Y-98031051D01*
X161882642Y-98035838D01*
X161882640Y-98035839D01*
X161816377Y-98077648D01*
X161767042Y-98108776D01*
X161670622Y-98217951D01*
X161666808Y-98226074D01*
X161666807Y-98226076D01*
X161612533Y-98341676D01*
X161608719Y-98349800D01*
X161607339Y-98358665D01*
X161607338Y-98358667D01*
X161589057Y-98476076D01*
X161586309Y-98493724D01*
X156097651Y-98493724D01*
X156169873Y-98413934D01*
X156169874Y-98413933D01*
X156175901Y-98407274D01*
X156180715Y-98397339D01*
X156235495Y-98284272D01*
X156235495Y-98284271D01*
X156239410Y-98276191D01*
X156263576Y-98132552D01*
X156263729Y-98120000D01*
X156252062Y-98038529D01*
X156244354Y-97984706D01*
X156244353Y-97984703D01*
X156243080Y-97975813D01*
X156239362Y-97967635D01*
X156186508Y-97851390D01*
X156186507Y-97851388D01*
X156182792Y-97843218D01*
X156111038Y-97759943D01*
X164808600Y-97759943D01*
X164808601Y-99540056D01*
X164811913Y-99556710D01*
X164813567Y-99565022D01*
X164817472Y-99584658D01*
X164824366Y-99594975D01*
X164824368Y-99594979D01*
X164838083Y-99615504D01*
X164851266Y-99635234D01*
X164861582Y-99642127D01*
X164891525Y-99662135D01*
X164891528Y-99662136D01*
X164901842Y-99669028D01*
X164914009Y-99671448D01*
X164914011Y-99671449D01*
X164932243Y-99675075D01*
X164946443Y-99677900D01*
X165836356Y-99677900D01*
X166726556Y-99677899D01*
X166743210Y-99674587D01*
X166758983Y-99671450D01*
X166758985Y-99671449D01*
X166771158Y-99669028D01*
X166782464Y-99661474D01*
X166811418Y-99642127D01*
X166821734Y-99635234D01*
X166834917Y-99615504D01*
X166848635Y-99594975D01*
X166848636Y-99594972D01*
X166855528Y-99584658D01*
X166864400Y-99540057D01*
X166864399Y-97759944D01*
X166859538Y-97735504D01*
X166857950Y-97727517D01*
X166857948Y-97727511D01*
X166855528Y-97715342D01*
X166821734Y-97664766D01*
X166801247Y-97651077D01*
X166781475Y-97637865D01*
X166781472Y-97637864D01*
X166771158Y-97630972D01*
X166758991Y-97628552D01*
X166758989Y-97628551D01*
X166735299Y-97623839D01*
X166726557Y-97622100D01*
X165836644Y-97622100D01*
X164946444Y-97622101D01*
X164929790Y-97625413D01*
X164914017Y-97628550D01*
X164914015Y-97628551D01*
X164901842Y-97630972D01*
X164851266Y-97664766D01*
X164844373Y-97675082D01*
X164824365Y-97705025D01*
X164824364Y-97705028D01*
X164817472Y-97715342D01*
X164815052Y-97727509D01*
X164815051Y-97727511D01*
X164813493Y-97735345D01*
X164808600Y-97759943D01*
X156111038Y-97759943D01*
X156087713Y-97732873D01*
X155965485Y-97653648D01*
X155825934Y-97611914D01*
X155816958Y-97611859D01*
X155816957Y-97611859D01*
X155755644Y-97611485D01*
X155680279Y-97611024D01*
X155540229Y-97651051D01*
X155532642Y-97655838D01*
X155532640Y-97655839D01*
X155528377Y-97658529D01*
X155417042Y-97728776D01*
X155411100Y-97735504D01*
X155394878Y-97753872D01*
X155320622Y-97837951D01*
X155316808Y-97846074D01*
X155316807Y-97846076D01*
X155264264Y-97957989D01*
X155258719Y-97969800D01*
X155257339Y-97978665D01*
X155257338Y-97978667D01*
X155241344Y-98081390D01*
X155236309Y-98113724D01*
X146721210Y-98113724D01*
X146706508Y-98081390D01*
X146706507Y-98081388D01*
X146702792Y-98073218D01*
X146607713Y-97962873D01*
X146485485Y-97883648D01*
X146345934Y-97841914D01*
X146336958Y-97841859D01*
X146336957Y-97841859D01*
X146275644Y-97841485D01*
X146200279Y-97841024D01*
X146060229Y-97881051D01*
X145937042Y-97958776D01*
X145840622Y-98067951D01*
X145836808Y-98076074D01*
X145836807Y-98076076D01*
X145813903Y-98124860D01*
X145778719Y-98199800D01*
X145777338Y-98208667D01*
X145777338Y-98208668D01*
X145767660Y-98270824D01*
X145737415Y-98335057D01*
X145677246Y-98372741D01*
X145607058Y-98372156D01*
X145558492Y-98357632D01*
X145505934Y-98341914D01*
X145496958Y-98341859D01*
X145496957Y-98341859D01*
X145435644Y-98341485D01*
X145360279Y-98341024D01*
X145220229Y-98381051D01*
X145219774Y-98379460D01*
X145159661Y-98387626D01*
X145095311Y-98357632D01*
X145057393Y-98297609D01*
X145053838Y-98280931D01*
X145043080Y-98205813D01*
X145039362Y-98197635D01*
X144986508Y-98081390D01*
X144986507Y-98081388D01*
X144982792Y-98073218D01*
X144887713Y-97962873D01*
X144765485Y-97883648D01*
X144625934Y-97841914D01*
X144616958Y-97841859D01*
X144616957Y-97841859D01*
X144555644Y-97841485D01*
X144480279Y-97841024D01*
X144340229Y-97881051D01*
X144217042Y-97958776D01*
X144120622Y-98067951D01*
X144116808Y-98076074D01*
X144116807Y-98076076D01*
X144093903Y-98124860D01*
X144058719Y-98199800D01*
X144057339Y-98208665D01*
X144057338Y-98208667D01*
X144046064Y-98281077D01*
X144036309Y-98343724D01*
X144039833Y-98370671D01*
X144028831Y-98440808D01*
X143981656Y-98493865D01*
X143913285Y-98512995D01*
X143878795Y-98507722D01*
X143834539Y-98494487D01*
X143834536Y-98494487D01*
X143825934Y-98491914D01*
X143816958Y-98491859D01*
X143816957Y-98491859D01*
X143755644Y-98491485D01*
X143680279Y-98491024D01*
X143540229Y-98531051D01*
X143532642Y-98535838D01*
X143532640Y-98535839D01*
X143516991Y-98545713D01*
X143417042Y-98608776D01*
X143411100Y-98615504D01*
X143402310Y-98625457D01*
X143320622Y-98717951D01*
X143316808Y-98726074D01*
X143316807Y-98726076D01*
X143267486Y-98831126D01*
X143258719Y-98849800D01*
X143257339Y-98858665D01*
X143257338Y-98858667D01*
X143238236Y-98981350D01*
X143236309Y-98993724D01*
X143237473Y-99002626D01*
X143237473Y-99002629D01*
X143249096Y-99091514D01*
X143255195Y-99138152D01*
X143258809Y-99146365D01*
X143258810Y-99146369D01*
X143286242Y-99208710D01*
X143313859Y-99271474D01*
X143319634Y-99278344D01*
X143319635Y-99278346D01*
X143401803Y-99376097D01*
X143407583Y-99382973D01*
X143424514Y-99394243D01*
X143470136Y-99448639D01*
X143479108Y-99519067D01*
X143448579Y-99583164D01*
X143431202Y-99597854D01*
X143431470Y-99598168D01*
X143424634Y-99603986D01*
X143417042Y-99608776D01*
X143320622Y-99717951D01*
X143316808Y-99726074D01*
X143316807Y-99726076D01*
X143264207Y-99838111D01*
X143258719Y-99849800D01*
X143257339Y-99858665D01*
X143257338Y-99858667D01*
X143240805Y-99964851D01*
X143236309Y-99993724D01*
X141847001Y-99993724D01*
X141885495Y-99914272D01*
X141885495Y-99914271D01*
X141889410Y-99906191D01*
X141910875Y-99778606D01*
X141912770Y-99767344D01*
X141912770Y-99767341D01*
X141913576Y-99762552D01*
X141913729Y-99750000D01*
X141903404Y-99677900D01*
X141894354Y-99614706D01*
X141894353Y-99614703D01*
X141893080Y-99605813D01*
X141888154Y-99594979D01*
X141836508Y-99481390D01*
X141836507Y-99481388D01*
X141832792Y-99473218D01*
X141737713Y-99362873D01*
X141615485Y-99283648D01*
X141475934Y-99241914D01*
X141466958Y-99241859D01*
X141466957Y-99241859D01*
X141405644Y-99241485D01*
X141330279Y-99241024D01*
X141190229Y-99281051D01*
X141182642Y-99285838D01*
X141182640Y-99285839D01*
X141154965Y-99303301D01*
X141067042Y-99358776D01*
X140970622Y-99467951D01*
X140966808Y-99476074D01*
X140966807Y-99476076D01*
X140915828Y-99584658D01*
X140908719Y-99599800D01*
X140907339Y-99608665D01*
X140907338Y-99608667D01*
X140889057Y-99726076D01*
X140886309Y-99743724D01*
X140239443Y-99743724D01*
X140252490Y-99700098D01*
X140252583Y-99684978D01*
X140253048Y-99608776D01*
X140253370Y-99556047D01*
X140250437Y-99545783D01*
X140216253Y-99426173D01*
X140216252Y-99426170D01*
X140213785Y-99417539D01*
X140136916Y-99295709D01*
X140123260Y-99283648D01*
X140035672Y-99206294D01*
X140028943Y-99200351D01*
X139952098Y-99164272D01*
X139906668Y-99142942D01*
X139906666Y-99142941D01*
X139898546Y-99139129D01*
X139789175Y-99122100D01*
X139713893Y-99122100D01*
X139652565Y-99130883D01*
X139616288Y-99136078D01*
X139616286Y-99136079D01*
X139607401Y-99137351D01*
X139476266Y-99196974D01*
X139469467Y-99202832D01*
X139469463Y-99202835D01*
X139373934Y-99285149D01*
X139373932Y-99285151D01*
X139367136Y-99291007D01*
X139288785Y-99411889D01*
X139247510Y-99549902D01*
X139247455Y-99558878D01*
X139247455Y-99558879D01*
X139247372Y-99572483D01*
X139246630Y-99693953D01*
X126152900Y-99693953D01*
X126152900Y-98493724D01*
X132536309Y-98493724D01*
X132537473Y-98502626D01*
X132537473Y-98502629D01*
X132548423Y-98586361D01*
X132555195Y-98638152D01*
X132558809Y-98646365D01*
X132558810Y-98646369D01*
X132592899Y-98723839D01*
X132613859Y-98771474D01*
X132619634Y-98778344D01*
X132619635Y-98778346D01*
X132683602Y-98854444D01*
X132707583Y-98882973D01*
X132715060Y-98887950D01*
X132821361Y-98958710D01*
X132821363Y-98958711D01*
X132828834Y-98963684D01*
X132967864Y-99007121D01*
X133113498Y-99009790D01*
X133217813Y-98981350D01*
X133245363Y-98973839D01*
X133245364Y-98973839D01*
X133254026Y-98971477D01*
X133262359Y-98966361D01*
X133325950Y-98927316D01*
X133378154Y-98895263D01*
X133384774Y-98887950D01*
X133469873Y-98793934D01*
X133469874Y-98793933D01*
X133475901Y-98787274D01*
X133490362Y-98757428D01*
X133535495Y-98664272D01*
X133535495Y-98664271D01*
X133539410Y-98656191D01*
X133563576Y-98512552D01*
X133563729Y-98500000D01*
X133562830Y-98493724D01*
X134436309Y-98493724D01*
X134437473Y-98502626D01*
X134437473Y-98502629D01*
X134448423Y-98586361D01*
X134455195Y-98638152D01*
X134458809Y-98646365D01*
X134458810Y-98646369D01*
X134492899Y-98723839D01*
X134513859Y-98771474D01*
X134519634Y-98778344D01*
X134519635Y-98778346D01*
X134583602Y-98854444D01*
X134607583Y-98882973D01*
X134615060Y-98887950D01*
X134721361Y-98958710D01*
X134721363Y-98958711D01*
X134728834Y-98963684D01*
X134867864Y-99007121D01*
X135013498Y-99009790D01*
X135117813Y-98981350D01*
X135145363Y-98973839D01*
X135145364Y-98973839D01*
X135154026Y-98971477D01*
X135162359Y-98966361D01*
X135225950Y-98927316D01*
X135278154Y-98895263D01*
X135284774Y-98887950D01*
X135369873Y-98793934D01*
X135369874Y-98793933D01*
X135375901Y-98787274D01*
X135390362Y-98757428D01*
X135435495Y-98664272D01*
X135435495Y-98664271D01*
X135439410Y-98656191D01*
X135463576Y-98512552D01*
X135463729Y-98500000D01*
X135454197Y-98433437D01*
X135444354Y-98364706D01*
X135444353Y-98364703D01*
X135443080Y-98355813D01*
X135438247Y-98345183D01*
X135392116Y-98243724D01*
X139236309Y-98243724D01*
X139237473Y-98252626D01*
X139237473Y-98252629D01*
X139241611Y-98284272D01*
X139255195Y-98388152D01*
X139258809Y-98396365D01*
X139258810Y-98396369D01*
X139293883Y-98476076D01*
X139313859Y-98521474D01*
X139319634Y-98528344D01*
X139319635Y-98528346D01*
X139392228Y-98614706D01*
X139407583Y-98632973D01*
X139427708Y-98646369D01*
X139521361Y-98708710D01*
X139521363Y-98708711D01*
X139528834Y-98713684D01*
X139537401Y-98716361D01*
X139537402Y-98716361D01*
X139553777Y-98721477D01*
X139667864Y-98757121D01*
X139813498Y-98759790D01*
X139915088Y-98732093D01*
X139945363Y-98723839D01*
X139945364Y-98723839D01*
X139954026Y-98721477D01*
X139962359Y-98716361D01*
X140047194Y-98664272D01*
X140078154Y-98645263D01*
X140084774Y-98637950D01*
X140169873Y-98543934D01*
X140169874Y-98543933D01*
X140175901Y-98537274D01*
X140186566Y-98515263D01*
X140235495Y-98414272D01*
X140235495Y-98414271D01*
X140239410Y-98406191D01*
X140260879Y-98278585D01*
X140262770Y-98267344D01*
X140262770Y-98267341D01*
X140263576Y-98262552D01*
X140263729Y-98250000D01*
X140256230Y-98197635D01*
X140244354Y-98114706D01*
X140244353Y-98114703D01*
X140243080Y-98105813D01*
X140239362Y-98097635D01*
X140186508Y-97981390D01*
X140186507Y-97981388D01*
X140182792Y-97973218D01*
X140087713Y-97862873D01*
X139965485Y-97783648D01*
X139825934Y-97741914D01*
X139816958Y-97741859D01*
X139816957Y-97741859D01*
X139755644Y-97741485D01*
X139680279Y-97741024D01*
X139540229Y-97781051D01*
X139417042Y-97858776D01*
X139320622Y-97967951D01*
X139316808Y-97976074D01*
X139316807Y-97976076D01*
X139276831Y-98061223D01*
X139258719Y-98099800D01*
X139257339Y-98108665D01*
X139257338Y-98108667D01*
X139238464Y-98229885D01*
X139236309Y-98243724D01*
X135392116Y-98243724D01*
X135386508Y-98231390D01*
X135386507Y-98231388D01*
X135382792Y-98223218D01*
X135287713Y-98112873D01*
X135165485Y-98033648D01*
X135025934Y-97991914D01*
X135016958Y-97991859D01*
X135016957Y-97991859D01*
X134955644Y-97991485D01*
X134880279Y-97991024D01*
X134740229Y-98031051D01*
X134732642Y-98035838D01*
X134732640Y-98035839D01*
X134666377Y-98077648D01*
X134617042Y-98108776D01*
X134520622Y-98217951D01*
X134516808Y-98226074D01*
X134516807Y-98226076D01*
X134462533Y-98341676D01*
X134458719Y-98349800D01*
X134457339Y-98358665D01*
X134457338Y-98358667D01*
X134439057Y-98476076D01*
X134436309Y-98493724D01*
X133562830Y-98493724D01*
X133554197Y-98433437D01*
X133544354Y-98364706D01*
X133544353Y-98364703D01*
X133543080Y-98355813D01*
X133538247Y-98345183D01*
X133486508Y-98231390D01*
X133486507Y-98231388D01*
X133482792Y-98223218D01*
X133387713Y-98112873D01*
X133265485Y-98033648D01*
X133125934Y-97991914D01*
X133116958Y-97991859D01*
X133116957Y-97991859D01*
X133055644Y-97991485D01*
X132980279Y-97991024D01*
X132840229Y-98031051D01*
X132832642Y-98035838D01*
X132832640Y-98035839D01*
X132766377Y-98077648D01*
X132717042Y-98108776D01*
X132620622Y-98217951D01*
X132616808Y-98226074D01*
X132616807Y-98226076D01*
X132562533Y-98341676D01*
X132558719Y-98349800D01*
X132557339Y-98358665D01*
X132557338Y-98358667D01*
X132539057Y-98476076D01*
X132536309Y-98493724D01*
X126152900Y-98493724D01*
X126152900Y-96908459D01*
X139218188Y-96908459D01*
X139246777Y-97050241D01*
X139312440Y-97179112D01*
X139318253Y-97185434D01*
X139318254Y-97185435D01*
X139373190Y-97245178D01*
X139410340Y-97285578D01*
X139417642Y-97290106D01*
X139417644Y-97290107D01*
X139525965Y-97357269D01*
X139533265Y-97361795D01*
X139672158Y-97402147D01*
X139682413Y-97402900D01*
X139786231Y-97402900D01*
X139790477Y-97402318D01*
X139790483Y-97402318D01*
X139864861Y-97392129D01*
X139893297Y-97388234D01*
X139959027Y-97359790D01*
X140018153Y-97334204D01*
X140018155Y-97334203D01*
X140026037Y-97330792D01*
X140138440Y-97239770D01*
X140143416Y-97232768D01*
X140143418Y-97232766D01*
X140206696Y-97143724D01*
X148786309Y-97143724D01*
X148787473Y-97152626D01*
X148787473Y-97152629D01*
X148789936Y-97171461D01*
X148805195Y-97288152D01*
X148808809Y-97296365D01*
X148808810Y-97296369D01*
X148836644Y-97359625D01*
X148863859Y-97421474D01*
X148869634Y-97428344D01*
X148869635Y-97428346D01*
X148877140Y-97437274D01*
X148957583Y-97532973D01*
X148965060Y-97537950D01*
X149071361Y-97608710D01*
X149071363Y-97608711D01*
X149078834Y-97613684D01*
X149087401Y-97616361D01*
X149087402Y-97616361D01*
X149109635Y-97623307D01*
X149217864Y-97657121D01*
X149363498Y-97659790D01*
X149443917Y-97637865D01*
X149495363Y-97623839D01*
X149495364Y-97623839D01*
X149504026Y-97621477D01*
X149512359Y-97616361D01*
X149620502Y-97549961D01*
X149628154Y-97545263D01*
X149634774Y-97537950D01*
X149719873Y-97443934D01*
X149719874Y-97443933D01*
X149725901Y-97437274D01*
X149742638Y-97402730D01*
X149785495Y-97314272D01*
X149785495Y-97314271D01*
X149789410Y-97306191D01*
X149813576Y-97162552D01*
X149813729Y-97150000D01*
X149799443Y-97050241D01*
X149794354Y-97014706D01*
X149794353Y-97014703D01*
X149793080Y-97005813D01*
X149788786Y-96996369D01*
X149736508Y-96881390D01*
X149736507Y-96881388D01*
X149732792Y-96873218D01*
X149707378Y-96843724D01*
X155236309Y-96843724D01*
X155237473Y-96852626D01*
X155237473Y-96852629D01*
X155240539Y-96876076D01*
X155255195Y-96988152D01*
X155258809Y-96996365D01*
X155258810Y-96996369D01*
X155266688Y-97014272D01*
X155313859Y-97121474D01*
X155319634Y-97128344D01*
X155319635Y-97128346D01*
X155344304Y-97157693D01*
X155407583Y-97232973D01*
X155415060Y-97237950D01*
X155521361Y-97308710D01*
X155521363Y-97308711D01*
X155528834Y-97313684D01*
X155667864Y-97357121D01*
X155813498Y-97359790D01*
X155939696Y-97325384D01*
X155945363Y-97323839D01*
X155945364Y-97323839D01*
X155954026Y-97321477D01*
X155962359Y-97316361D01*
X156016090Y-97283370D01*
X156078154Y-97245263D01*
X156084774Y-97237950D01*
X156169873Y-97143934D01*
X156169874Y-97143933D01*
X156175901Y-97137274D01*
X156179971Y-97128875D01*
X156235495Y-97014272D01*
X156235495Y-97014271D01*
X156239410Y-97006191D01*
X156263576Y-96862552D01*
X156263729Y-96850000D01*
X156258056Y-96810385D01*
X156244354Y-96714706D01*
X156244353Y-96714703D01*
X156243080Y-96705813D01*
X156239362Y-96697635D01*
X156186508Y-96581390D01*
X156186507Y-96581388D01*
X156182792Y-96573218D01*
X156087713Y-96462873D01*
X155965485Y-96383648D01*
X155825934Y-96341914D01*
X155816958Y-96341859D01*
X155816957Y-96341859D01*
X155755644Y-96341485D01*
X155680279Y-96341024D01*
X155540229Y-96381051D01*
X155532642Y-96385838D01*
X155532640Y-96385839D01*
X155528377Y-96388529D01*
X155417042Y-96458776D01*
X155320622Y-96567951D01*
X155316808Y-96576074D01*
X155316807Y-96576076D01*
X155264011Y-96688529D01*
X155258719Y-96699800D01*
X155257339Y-96708665D01*
X155257338Y-96708667D01*
X155237960Y-96833122D01*
X155236309Y-96843724D01*
X149707378Y-96843724D01*
X149637713Y-96762873D01*
X149515485Y-96683648D01*
X149375934Y-96641914D01*
X149366958Y-96641859D01*
X149366957Y-96641859D01*
X149305644Y-96641485D01*
X149230279Y-96641024D01*
X149090229Y-96681051D01*
X149082642Y-96685838D01*
X149082640Y-96685839D01*
X149050983Y-96705813D01*
X148967042Y-96758776D01*
X148870622Y-96867951D01*
X148866808Y-96876074D01*
X148866807Y-96876076D01*
X148814188Y-96988152D01*
X148808719Y-96999800D01*
X148807339Y-97008665D01*
X148807338Y-97008667D01*
X148790970Y-97113792D01*
X148786309Y-97143724D01*
X140206696Y-97143724D01*
X140217249Y-97128875D01*
X140222225Y-97121873D01*
X140271219Y-96985788D01*
X140281812Y-96841541D01*
X140253223Y-96699759D01*
X140187560Y-96570888D01*
X140131783Y-96510230D01*
X140095478Y-96470749D01*
X140089660Y-96464422D01*
X140082358Y-96459894D01*
X140082356Y-96459893D01*
X139974035Y-96392731D01*
X139974034Y-96392730D01*
X139966735Y-96388205D01*
X139827842Y-96347853D01*
X139817587Y-96347100D01*
X139713769Y-96347100D01*
X139709523Y-96347682D01*
X139709517Y-96347682D01*
X139635139Y-96357871D01*
X139606703Y-96361766D01*
X139598819Y-96365178D01*
X139598818Y-96365178D01*
X139481847Y-96415796D01*
X139481845Y-96415797D01*
X139473963Y-96419208D01*
X139361560Y-96510230D01*
X139356584Y-96517232D01*
X139356582Y-96517234D01*
X139313015Y-96578539D01*
X139277775Y-96628127D01*
X139228781Y-96764212D01*
X139218188Y-96908459D01*
X126152900Y-96908459D01*
X126152900Y-95778900D01*
X126172902Y-95710779D01*
X126226558Y-95664286D01*
X126278900Y-95652900D01*
X170721100Y-95652900D01*
X170789221Y-95672902D01*
G37*
%TD.AperFunction*%
%TD*%
M02*
