%TF.GenerationSoftware,KiCad,Pcbnew,(6.0.7)*%
%TF.CreationDate,2022-08-11T09:50:48+02:00*%
%TF.ProjectId,cowstick-rp,636f7773-7469-4636-9b2d-72702e6b6963,1*%
%TF.SameCoordinates,Original*%
%TF.FileFunction,Soldermask,Top*%
%TF.FilePolarity,Negative*%
%FSLAX46Y46*%
G04 Gerber Fmt 4.6, Leading zero omitted, Abs format (unit mm)*
G04 Created by KiCad (PCBNEW (6.0.7)) date 2022-08-11 09:50:48*
%MOMM*%
%LPD*%
G01*
G04 APERTURE LIST*
G04 Aperture macros list*
%AMRoundRect*
0 Rectangle with rounded corners*
0 $1 Rounding radius*
0 $2 $3 $4 $5 $6 $7 $8 $9 X,Y pos of 4 corners*
0 Add a 4 corners polygon primitive as box body*
4,1,4,$2,$3,$4,$5,$6,$7,$8,$9,$2,$3,0*
0 Add four circle primitives for the rounded corners*
1,1,$1+$1,$2,$3*
1,1,$1+$1,$4,$5*
1,1,$1+$1,$6,$7*
1,1,$1+$1,$8,$9*
0 Add four rect primitives between the rounded corners*
20,1,$1+$1,$2,$3,$4,$5,0*
20,1,$1+$1,$4,$5,$6,$7,0*
20,1,$1+$1,$6,$7,$8,$9,0*
20,1,$1+$1,$8,$9,$2,$3,0*%
G04 Aperture macros list end*
%ADD10R,1.143000X0.635000*%
%ADD11R,0.635000X1.143000*%
%ADD12RoundRect,0.050000X-0.571500X0.317500X-0.571500X-0.317500X0.571500X-0.317500X0.571500X0.317500X0*%
%ADD13R,1.750000X1.750000*%
%ADD14C,1.750000*%
%ADD15C,2.000000*%
%ADD16RoundRect,0.050000X-0.100000X0.437500X-0.100000X-0.437500X0.100000X-0.437500X0.100000X0.437500X0*%
%ADD17RoundRect,0.050000X-0.437500X-0.100000X0.437500X-0.100000X0.437500X0.100000X-0.437500X0.100000X0*%
%ADD18RoundRect,0.050000X0.100000X-0.437500X0.100000X0.437500X-0.100000X0.437500X-0.100000X-0.437500X0*%
%ADD19RoundRect,0.050000X0.437500X0.100000X-0.437500X0.100000X-0.437500X-0.100000X0.437500X-0.100000X0*%
%ADD20RoundRect,0.050000X-0.800000X0.800000X-0.800000X-0.800000X0.800000X-0.800000X0.800000X0.800000X0*%
%ADD21RoundRect,0.050000X-0.500380X0.350520X-0.500380X-0.350520X0.500380X-0.350520X0.500380X0.350520X0*%
%ADD22C,0.750000*%
%ADD23C,0.700000*%
%ADD24R,1.200000X1.000000*%
%ADD25RoundRect,0.050000X0.698500X-0.444500X0.698500X0.444500X-0.698500X0.444500X-0.698500X-0.444500X0*%
%ADD26RoundRect,0.050000X0.000000X-0.919239X0.919239X0.000000X0.000000X0.919239X-0.919239X0.000000X0*%
%ADD27R,0.889000X1.397000*%
%ADD28R,0.701040X1.000760*%
%ADD29R,1.600000X0.550000*%
%ADD30C,1.900000*%
%ADD31RoundRect,0.050000X-0.850000X-0.650000X0.850000X-0.650000X0.850000X0.650000X-0.850000X0.650000X0*%
%ADD32R,1.397000X0.889000*%
%ADD33R,1.500000X1.200000*%
%ADD34RoundRect,0.050000X-0.698500X0.444500X-0.698500X-0.444500X0.698500X-0.444500X0.698500X0.444500X0*%
G04 APERTURE END LIST*
D10*
%TO.C,C15*%
X152000000Y-109738000D03*
X152000000Y-111262000D03*
%TD*%
D11*
%TO.C,C7*%
X142262000Y-107500000D03*
X140738000Y-107500000D03*
%TD*%
D12*
%TO.C,C2*%
X127750000Y-111238000D03*
X127750000Y-112762000D03*
%TD*%
D13*
%TO.C,J2*%
X165836500Y-98650000D03*
D14*
X165836500Y-101190000D03*
X165836500Y-103730000D03*
X165836500Y-106270000D03*
X165836500Y-108810000D03*
X165836500Y-111350000D03*
D15*
X168376500Y-98650000D03*
X168376500Y-101190000D03*
X168376500Y-103730000D03*
X168376500Y-106270000D03*
X168376500Y-108810000D03*
X168376500Y-111350000D03*
%TD*%
D16*
%TO.C,U1*%
X151100000Y-101550000D03*
X150700000Y-101550000D03*
X150300000Y-101550000D03*
X149900000Y-101550000D03*
X149500000Y-101550000D03*
X149100000Y-101550000D03*
X148700000Y-101550000D03*
X148300000Y-101550000D03*
X147900000Y-101550000D03*
X147500000Y-101550000D03*
X147100000Y-101550000D03*
X146700000Y-101550000D03*
X146300000Y-101550000D03*
X145900000Y-101550000D03*
D17*
X145050000Y-102400000D03*
X145050000Y-102800000D03*
X145050000Y-103200000D03*
X145050000Y-103600000D03*
X145050000Y-104000000D03*
X145050000Y-104400000D03*
X145050000Y-104800000D03*
X145050000Y-105200000D03*
X145050000Y-105600000D03*
X145050000Y-106000000D03*
X145050000Y-106400000D03*
X145050000Y-106800000D03*
X145050000Y-107200000D03*
X145050000Y-107600000D03*
D18*
X145900000Y-108450000D03*
X146300000Y-108450000D03*
X146700000Y-108450000D03*
X147100000Y-108450000D03*
X147500000Y-108450000D03*
X147900000Y-108450000D03*
X148300000Y-108450000D03*
X148700000Y-108450000D03*
X149100000Y-108450000D03*
X149500000Y-108450000D03*
X149900000Y-108450000D03*
X150300000Y-108450000D03*
X150700000Y-108450000D03*
X151100000Y-108450000D03*
D19*
X151950000Y-107600000D03*
X151950000Y-107200000D03*
X151950000Y-106800000D03*
X151950000Y-106400000D03*
X151950000Y-106000000D03*
X151950000Y-105600000D03*
X151950000Y-105200000D03*
X151950000Y-104800000D03*
X151950000Y-104400000D03*
X151950000Y-104000000D03*
X151950000Y-103600000D03*
X151950000Y-103200000D03*
X151950000Y-102800000D03*
X151950000Y-102400000D03*
D20*
X149300000Y-104200000D03*
X147700000Y-105800000D03*
X147700000Y-104200000D03*
X149300000Y-105800000D03*
%TD*%
D11*
%TO.C,R7*%
X144668000Y-97220000D03*
X146192000Y-97220000D03*
%TD*%
%TO.C,C19*%
X134762000Y-97250000D03*
X133238000Y-97250000D03*
%TD*%
D10*
%TO.C,C14*%
X147500000Y-110238000D03*
X147500000Y-111762000D03*
%TD*%
D21*
%TO.C,U2*%
X131230000Y-111047500D03*
X131230000Y-112000000D03*
X131230000Y-112952500D03*
X133770000Y-112952500D03*
X133770000Y-111047500D03*
%TD*%
D10*
%TO.C,C11*%
X151100000Y-99512000D03*
X151100000Y-97988000D03*
%TD*%
%TO.C,R4*%
X149300000Y-99512000D03*
X149300000Y-97988000D03*
%TD*%
D11*
%TO.C,C13*%
X142262000Y-106000000D03*
X140738000Y-106000000D03*
%TD*%
D22*
%TO.C,SW1*%
X139750000Y-96875000D03*
D23*
X139750000Y-99625000D03*
D24*
X136950000Y-99100000D03*
X142550000Y-99100000D03*
X142550000Y-97400000D03*
X136950000Y-97400000D03*
%TD*%
D10*
%TO.C,R2*%
X133050000Y-101012000D03*
X133050000Y-99488000D03*
%TD*%
%TO.C,R5*%
X136650000Y-102762000D03*
X136650000Y-101238000D03*
%TD*%
D25*
%TO.C,C4*%
X141500000Y-112952500D03*
X141500000Y-111047500D03*
%TD*%
D26*
%TO.C,L1*%
X135690000Y-110840000D03*
X137810000Y-112960000D03*
%TD*%
D11*
%TO.C,C18*%
X161738000Y-97250000D03*
X163262000Y-97250000D03*
%TD*%
D27*
%TO.C,D2*%
X160452500Y-112500000D03*
X158547500Y-112500000D03*
%TD*%
D11*
%TO.C,C6*%
X154738000Y-108500000D03*
X156262000Y-108500000D03*
%TD*%
D28*
%TO.C,D1*%
X134952500Y-102730000D03*
X134000000Y-102730000D03*
X133047500Y-102730000D03*
X133047500Y-105270000D03*
X134000000Y-105270000D03*
X134952500Y-105270000D03*
%TD*%
D10*
%TO.C,R1*%
X135500000Y-106988000D03*
X135500000Y-108512000D03*
%TD*%
D11*
%TO.C,R6*%
X161262000Y-110750000D03*
X159738000Y-110750000D03*
%TD*%
%TO.C,L2*%
X162238000Y-112500000D03*
X163762000Y-112500000D03*
%TD*%
%TO.C,C17*%
X154738000Y-106750000D03*
X156262000Y-106750000D03*
%TD*%
D29*
%TO.C,U3*%
X153500000Y-96845000D03*
X153500000Y-98115000D03*
X153500000Y-99385000D03*
X153500000Y-100655000D03*
X160000000Y-100655000D03*
X160000000Y-99385000D03*
X160000000Y-98115000D03*
X160000000Y-96845000D03*
%TD*%
D10*
%TO.C,C12*%
X147500000Y-99512000D03*
X147500000Y-97988000D03*
%TD*%
%TO.C,C10*%
X138500000Y-105738000D03*
X138500000Y-107262000D03*
%TD*%
D11*
%TO.C,C9*%
X142488000Y-101250000D03*
X144012000Y-101250000D03*
%TD*%
D30*
%TO.C,P1*%
X128250000Y-102750000D03*
X128250000Y-107250000D03*
D31*
X130600000Y-108500000D03*
X130600000Y-106000000D03*
X130600000Y-104000000D03*
X130600000Y-101500000D03*
%TD*%
D10*
%TO.C,C5*%
X137000000Y-108512000D03*
X137000000Y-106988000D03*
%TD*%
%TO.C,C16*%
X154000000Y-109738000D03*
X154000000Y-111262000D03*
%TD*%
D11*
%TO.C,C8*%
X154738000Y-105000000D03*
X156262000Y-105000000D03*
%TD*%
D25*
%TO.C,C3*%
X139550000Y-112952500D03*
X139550000Y-111047500D03*
%TD*%
D32*
%TO.C,C20*%
X163750000Y-111032500D03*
X163750000Y-109127500D03*
%TD*%
D33*
%TO.C,X1*%
X141000000Y-102250000D03*
X138500000Y-102250000D03*
X138500000Y-104250000D03*
X141000000Y-104250000D03*
%TD*%
D34*
%TO.C,C1*%
X129500000Y-111047500D03*
X129500000Y-112952500D03*
%TD*%
D10*
%TO.C,R3*%
X134950000Y-101012000D03*
X134950000Y-99488000D03*
%TD*%
M02*
