G04 #@! TF.FileFunction,Paste,Top*
%FSLAX46Y46*%
G04 Gerber Fmt 4.6, Leading zero omitted, Abs format (unit mm)*
G04 Created by KiCad (PCBNEW 4.0.2+dfsg1-stable) date jeu. 11 mai 2017 22:37:16 CEST*
%MOMM*%
G01*
G04 APERTURE LIST*
%ADD10C,0.100000*%
%ADD11R,0.889000X1.397000*%
%ADD12R,1.397000X0.889000*%
%ADD13R,0.701040X1.000760*%
%ADD14R,1.000000X0.500000*%
%ADD15R,0.500000X1.000000*%
%ADD16R,0.635000X1.143000*%
%ADD17R,1.143000X0.635000*%
%ADD18R,1.780540X0.304800*%
%ADD19R,1.780540X0.299720*%
%ADD20R,1.700000X1.300000*%
%ADD21R,1.400000X1.050000*%
%ADD22R,1.100000X0.450000*%
G04 APERTURE END LIST*
D10*
D11*
X131635500Y-88963500D03*
X133540500Y-88963500D03*
D12*
X134874000Y-91249500D03*
X134874000Y-93154500D03*
X133032500Y-93154500D03*
X133032500Y-91249500D03*
D13*
X131508500Y-93154500D03*
X129603500Y-93154500D03*
X129603500Y-90614500D03*
X130556000Y-90614500D03*
X131508500Y-90614500D03*
D14*
X142553000Y-87318500D03*
X142553000Y-86518500D03*
X142553000Y-85718500D03*
X142553000Y-84918500D03*
X142553000Y-84118500D03*
X142553000Y-83318500D03*
X142553000Y-82518500D03*
X142553000Y-81718500D03*
D15*
X141103000Y-80268500D03*
X140303000Y-80268500D03*
X139503000Y-80268500D03*
X138703000Y-80268500D03*
X137903000Y-80268500D03*
X137103000Y-80268500D03*
X136303000Y-80268500D03*
X135503000Y-80268500D03*
D14*
X134053000Y-81718500D03*
X134053000Y-82518500D03*
X134053000Y-83318500D03*
X134053000Y-84118500D03*
X134053000Y-84918500D03*
X134053000Y-85718500D03*
X134053000Y-86518500D03*
X134053000Y-87318500D03*
D15*
X135503000Y-88768500D03*
X136303000Y-88768500D03*
X137103000Y-88768500D03*
X137903000Y-88768500D03*
X138703000Y-88768500D03*
X139503000Y-88768500D03*
X140303000Y-88768500D03*
X141103000Y-88768500D03*
D16*
X138620500Y-90297000D03*
X137096500Y-90297000D03*
D17*
X139509500Y-91757500D03*
X139509500Y-93281500D03*
X142557500Y-91757500D03*
X142557500Y-93281500D03*
X141033500Y-91757500D03*
X141033500Y-93281500D03*
D16*
X142240000Y-78994000D03*
X143764000Y-78994000D03*
D18*
X155780740Y-82225000D03*
X155780740Y-82875000D03*
X155780740Y-83525000D03*
X155780740Y-84175000D03*
X155780740Y-84825000D03*
X155780740Y-85475000D03*
X155780740Y-86125000D03*
X155780740Y-86775000D03*
D19*
X161719260Y-86775000D03*
X161719260Y-86125000D03*
X161719260Y-85475000D03*
X161719260Y-84825000D03*
X161719260Y-84175000D03*
X161719260Y-83525000D03*
X161719260Y-82875000D03*
X161719260Y-82225000D03*
D18*
X155778200Y-81575000D03*
X155778200Y-87425000D03*
X161719260Y-87425000D03*
D19*
X161719260Y-81575000D03*
D17*
X157759400Y-80467200D03*
X157759400Y-78943200D03*
D16*
X157988000Y-88925400D03*
X159512000Y-88925400D03*
D17*
X159740600Y-80467200D03*
X159740600Y-78943200D03*
X144957800Y-89052400D03*
X144957800Y-90576400D03*
D11*
X154139900Y-92329000D03*
X156044900Y-92329000D03*
D17*
X152527000Y-90576400D03*
X152527000Y-89052400D03*
D20*
X129850000Y-81000000D03*
X129850000Y-83500000D03*
X129850000Y-85500000D03*
X129850000Y-88000000D03*
D12*
X132080000Y-81470500D03*
X132080000Y-83375500D03*
D16*
X132080000Y-79971900D03*
X133604000Y-79971900D03*
D21*
X146917000Y-91807200D03*
X150517000Y-91807200D03*
X146917000Y-93257200D03*
X150517000Y-93257200D03*
D22*
X148717000Y-90832200D03*
M02*
