G04 #@! TF.FileFunction,Copper,L2,Bot,Signal*
%FSLAX46Y46*%
G04 Gerber Fmt 4.6, Leading zero omitted, Abs format (unit mm)*
G04 Created by KiCad (PCBNEW 4.0.2+dfsg1-stable) date jeu. 11 mai 2017 22:37:16 CEST*
%MOMM*%
G01*
G04 APERTURE LIST*
%ADD10C,0.100000*%
%ADD11C,1.198880*%
%ADD12C,1.524000*%
%ADD13C,0.711200*%
%ADD14C,0.406400*%
%ADD15C,0.304800*%
%ADD16C,0.203200*%
%ADD17C,0.254000*%
G04 APERTURE END LIST*
D10*
D11*
X140335000Y-87185500D03*
X140335000Y-90297000D03*
D12*
X137340000Y-92075000D03*
X127180000Y-92075000D03*
X127180000Y-76835000D03*
X144960000Y-92075000D03*
X132260000Y-76835000D03*
X129720000Y-76835000D03*
X134800000Y-76835000D03*
X137340000Y-76835000D03*
X144960000Y-76835000D03*
X147500000Y-76835000D03*
X142420000Y-76835000D03*
X139880000Y-76835000D03*
X147500000Y-79375000D03*
X147500000Y-81915000D03*
X147500000Y-84455000D03*
X147500000Y-86995000D03*
X167820000Y-76835000D03*
X167820000Y-79375000D03*
X167820000Y-81915000D03*
X167820000Y-84455000D03*
X167820000Y-86995000D03*
X167820000Y-89535000D03*
X167820000Y-92075000D03*
D11*
X136525000Y-85344000D03*
D13*
X128447800Y-75641200D03*
X125907800Y-75641200D03*
X148767800Y-75641200D03*
X143687800Y-75641200D03*
X138607800Y-75641200D03*
X133527800Y-75641200D03*
X130962400Y-75641200D03*
X136067800Y-75641200D03*
X141147800Y-75641200D03*
X146227800Y-75641200D03*
X159740600Y-78028800D03*
X132080000Y-84582000D03*
X125704600Y-93345000D03*
X153924000Y-86131400D03*
X157251400Y-92329000D03*
X163220400Y-87426800D03*
X152222200Y-93345000D03*
X160477200Y-88925400D03*
X143764000Y-80162400D03*
X140296900Y-81534000D03*
X129850000Y-81000000D03*
X143713200Y-93345000D03*
X138303000Y-93345000D03*
X137922000Y-87566500D03*
X134620000Y-88963500D03*
X136207500Y-90297000D03*
X136207500Y-93345000D03*
X130111500Y-89344500D03*
X132842000Y-87312500D03*
X127647700Y-84493100D03*
X131381500Y-85496400D03*
X140335000Y-87185500D03*
X140335000Y-90297000D03*
X136296400Y-87553800D03*
X142557500Y-90855800D03*
X135305800Y-84124800D03*
X136042400Y-83312000D03*
X136779000Y-82524600D03*
X137515600Y-81711800D03*
X138696700Y-81534000D03*
X139496800Y-82334100D03*
X143637000Y-89001600D03*
X143637000Y-90728800D03*
X136525000Y-85344000D03*
D14*
X152222200Y-93345000D02*
X151028400Y-93345000D01*
X145910300Y-93345000D02*
X143713200Y-93345000D01*
X146723100Y-92532200D02*
X145910300Y-93345000D01*
X150215600Y-92532200D02*
X146723100Y-92532200D01*
X151028400Y-93345000D02*
X150215600Y-92532200D01*
D15*
X125907800Y-75641200D02*
X125907800Y-78409800D01*
D16*
X126390400Y-75641200D02*
X126555500Y-75476100D01*
X126555500Y-75476100D02*
X127800100Y-75476100D01*
X127965200Y-75641200D02*
X127800100Y-75476100D01*
X128447800Y-75641200D02*
X127965200Y-75641200D01*
X125907800Y-75641200D02*
X126390400Y-75641200D01*
D15*
X125704600Y-78613000D02*
X125704600Y-79400400D01*
X125907800Y-78409800D02*
X125704600Y-78613000D01*
D16*
X128447800Y-75641200D02*
X128447800Y-77343000D01*
X129850000Y-78745200D02*
X129850000Y-81000000D01*
X128447800Y-77343000D02*
X129850000Y-78745200D01*
X128930400Y-75641200D02*
X129095500Y-75476100D01*
X129095500Y-75476100D02*
X130314700Y-75476100D01*
X148285200Y-75641200D02*
X148767800Y-75641200D01*
X146227800Y-75641200D02*
X146710400Y-75641200D01*
X145745200Y-75641200D02*
X145580100Y-75476100D01*
X145580100Y-75476100D02*
X144335500Y-75476100D01*
X144170400Y-75641200D02*
X144335500Y-75476100D01*
X143687800Y-75641200D02*
X143205200Y-75641200D01*
X141147800Y-75641200D02*
X141630400Y-75641200D01*
X140665200Y-75641200D02*
X140500100Y-75476100D01*
X140500100Y-75476100D02*
X139255500Y-75476100D01*
X139090400Y-75641200D02*
X139255500Y-75476100D01*
X138607800Y-75641200D02*
X138125200Y-75641200D01*
X136067800Y-75641200D02*
X136550400Y-75641200D01*
X135585200Y-75641200D02*
X135420100Y-75476100D01*
X135420100Y-75476100D02*
X134175500Y-75476100D01*
X134010400Y-75641200D02*
X134175500Y-75476100D01*
X133527800Y-75641200D02*
X133045200Y-75641200D01*
X130962400Y-75641200D02*
X131445000Y-75641200D01*
X130479800Y-75641200D02*
X130314700Y-75476100D01*
X130962400Y-75641200D02*
X130479800Y-75641200D01*
X131445000Y-75641200D02*
X131610100Y-75476100D01*
X132880100Y-75476100D02*
X131610100Y-75476100D01*
X133045200Y-75641200D02*
X132880100Y-75476100D01*
X133527800Y-75641200D02*
X134010400Y-75641200D01*
X136067800Y-75641200D02*
X135585200Y-75641200D01*
X136550400Y-75641200D02*
X136715500Y-75476100D01*
X137960100Y-75476100D02*
X136715500Y-75476100D01*
X138125200Y-75641200D02*
X137960100Y-75476100D01*
X138607800Y-75641200D02*
X139090400Y-75641200D01*
X141147800Y-75641200D02*
X140665200Y-75641200D01*
X141630400Y-75641200D02*
X141795500Y-75476100D01*
X143040100Y-75476100D02*
X141795500Y-75476100D01*
X143205200Y-75641200D02*
X143040100Y-75476100D01*
X143687800Y-75641200D02*
X144170400Y-75641200D01*
X146227800Y-75641200D02*
X145745200Y-75641200D01*
X146710400Y-75641200D02*
X146875500Y-75476100D01*
X148120100Y-75476100D02*
X147726400Y-75476100D01*
X147269200Y-75476100D02*
X146875500Y-75476100D01*
X148285200Y-75641200D02*
X148120100Y-75476100D01*
D14*
X147269200Y-75476100D02*
X147726400Y-75476100D01*
D16*
X128447800Y-75641200D02*
X128930400Y-75641200D01*
D15*
X159740600Y-78028800D02*
X151323040Y-78028800D01*
X132080000Y-84582000D02*
X133108700Y-84582000D01*
X133337300Y-84810600D02*
X134061200Y-84810600D01*
X133108700Y-84582000D02*
X133337300Y-84810600D01*
D14*
X125704600Y-79400400D02*
X128250400Y-79400400D01*
X128250400Y-79400400D02*
X129850000Y-81000000D01*
X130111500Y-89344500D02*
X125704600Y-89344500D01*
X125704600Y-93345000D02*
X125704600Y-89344500D01*
X125704600Y-89344500D02*
X125704600Y-79400400D01*
X140296900Y-81534000D02*
X140296900Y-83527900D01*
X140296900Y-83527900D02*
X137083800Y-86741000D01*
X129850000Y-81000000D02*
X131165000Y-81000000D01*
X134061200Y-83896200D02*
X134061200Y-84810600D01*
X131165000Y-81000000D02*
X134061200Y-83896200D01*
X134061200Y-84810600D02*
X134061200Y-84836000D01*
X134061200Y-84836000D02*
X135966200Y-86741000D01*
X153924000Y-86131400D02*
X153924000Y-91643200D01*
X153924000Y-91643200D02*
X152222200Y-93345000D01*
X157251400Y-92329000D02*
X157251400Y-93345000D01*
X157251400Y-92329000D02*
X158038800Y-92329000D01*
X160477200Y-88925400D02*
X160477200Y-89890600D01*
X158038800Y-92329000D02*
X160477200Y-89890600D01*
D16*
X163220400Y-87426800D02*
X163220400Y-88315800D01*
X162610800Y-88925400D02*
X160477200Y-88925400D01*
X163220400Y-88315800D02*
X162610800Y-88925400D01*
D14*
X152222200Y-93345000D02*
X157251400Y-93345000D01*
X157251400Y-93345000D02*
X166550000Y-93345000D01*
X166550000Y-93345000D02*
X167820000Y-92075000D01*
D15*
X143764000Y-80162400D02*
X141668500Y-80162400D01*
X141668500Y-80162400D02*
X140296900Y-81534000D01*
D14*
X143713200Y-93345000D02*
X139166600Y-93345000D01*
X139166600Y-93345000D02*
X138734800Y-92913200D01*
X136207500Y-90297000D02*
X137515600Y-90297000D01*
X138734800Y-91516200D02*
X138734800Y-92913200D01*
X137515600Y-90297000D02*
X138734800Y-91516200D01*
X138734800Y-92913200D02*
X138303000Y-93345000D01*
X136207500Y-90297000D02*
X136207500Y-88900000D01*
X136207500Y-88900000D02*
X135445500Y-88138000D01*
X135445500Y-87249000D02*
X135445500Y-88138000D01*
X135445500Y-87249000D02*
X135953500Y-86741000D01*
X135966200Y-86741000D02*
X135953500Y-86741000D01*
X137096500Y-86741000D02*
X137083800Y-86741000D01*
X137922000Y-87566500D02*
X137096500Y-86741000D01*
X137083800Y-86741000D02*
X135966200Y-86741000D01*
X135445500Y-88138000D02*
X134620000Y-88963500D01*
X136207500Y-93345000D02*
X132461000Y-93345000D01*
X132461000Y-93345000D02*
X130111500Y-90995500D01*
X130111500Y-90995500D02*
X130111500Y-89344500D01*
D15*
X132207000Y-86677500D02*
X129832100Y-86677500D01*
X129832100Y-86677500D02*
X127647700Y-84493100D01*
X132207000Y-86677500D02*
X132842000Y-87312500D01*
X137083800Y-88341200D02*
X137083800Y-88811100D01*
X136296400Y-87553800D02*
X137083800Y-88341200D01*
X142011400Y-91401900D02*
X142557500Y-90855800D01*
X139674600Y-91401900D02*
X142011400Y-91401900D01*
X137083800Y-88811100D02*
X139674600Y-91401900D01*
X135305800Y-84124800D02*
X135305800Y-79400400D01*
X131879000Y-78994000D02*
X129720000Y-76835000D01*
X134899400Y-78994000D02*
X131879000Y-78994000D01*
X135305800Y-79400400D02*
X134899400Y-78994000D01*
X136042400Y-83312000D02*
X136042400Y-79222600D01*
X133809400Y-78384400D02*
X132260000Y-76835000D01*
X135204200Y-78384400D02*
X133809400Y-78384400D01*
X136042400Y-79222600D02*
X135204200Y-78384400D01*
X136779000Y-82524600D02*
X136779000Y-78814000D01*
X136779000Y-78814000D02*
X134800000Y-76835000D01*
X137515600Y-81711800D02*
X137515600Y-78155800D01*
X137340000Y-77980200D02*
X137340000Y-76835000D01*
X137515600Y-78155800D02*
X137340000Y-77980200D01*
X138696700Y-81534000D02*
X138696700Y-79298800D01*
X143486800Y-78308200D02*
X144960000Y-76835000D01*
X139687300Y-78308200D02*
X143486800Y-78308200D01*
X138696700Y-79298800D02*
X139687300Y-78308200D01*
X139496800Y-82334100D02*
X139496800Y-79883000D01*
X145468000Y-78867000D02*
X147500000Y-76835000D01*
X140512800Y-78867000D02*
X145468000Y-78867000D01*
X139496800Y-79883000D02*
X140512800Y-78867000D01*
X143637000Y-89001600D02*
X143637000Y-90728800D01*
D17*
G36*
X147294600Y-75745820D02*
X147284335Y-75745811D01*
X146883937Y-75911252D01*
X146577329Y-76217326D01*
X146411189Y-76617434D01*
X146410811Y-77050665D01*
X146467986Y-77189040D01*
X145269426Y-78387600D01*
X144085374Y-78387600D01*
X144605870Y-77867104D01*
X144742434Y-77923811D01*
X145175665Y-77924189D01*
X145576063Y-77758748D01*
X145882671Y-77452674D01*
X146048811Y-77052566D01*
X146049189Y-76619335D01*
X145883748Y-76218937D01*
X145577674Y-75912329D01*
X145177566Y-75746189D01*
X144744335Y-75745811D01*
X144343937Y-75911252D01*
X144037329Y-76217326D01*
X143871189Y-76617434D01*
X143870811Y-77050665D01*
X143927986Y-77189040D01*
X143288226Y-77828800D01*
X142866524Y-77828800D01*
X143036063Y-77758748D01*
X143342671Y-77452674D01*
X143508811Y-77052566D01*
X143509189Y-76619335D01*
X143343748Y-76218937D01*
X143037674Y-75912329D01*
X142637566Y-75746189D01*
X142204335Y-75745811D01*
X141803937Y-75911252D01*
X141497329Y-76217326D01*
X141331189Y-76617434D01*
X141330811Y-77050665D01*
X141496252Y-77451063D01*
X141802326Y-77757671D01*
X141973623Y-77828800D01*
X140326524Y-77828800D01*
X140496063Y-77758748D01*
X140802671Y-77452674D01*
X140968811Y-77052566D01*
X140969189Y-76619335D01*
X140803748Y-76218937D01*
X140497674Y-75912329D01*
X140097566Y-75746189D01*
X139664335Y-75745811D01*
X139263937Y-75911252D01*
X138957329Y-76217326D01*
X138791189Y-76617434D01*
X138790811Y-77050665D01*
X138956252Y-77451063D01*
X139262326Y-77757671D01*
X139515784Y-77862916D01*
X139503841Y-77865292D01*
X139348313Y-77969213D01*
X138357713Y-78959813D01*
X138253792Y-79115341D01*
X138232457Y-79222600D01*
X138217300Y-79298800D01*
X138217300Y-81048062D01*
X138118357Y-81146833D01*
X138058947Y-81289910D01*
X137995000Y-81225851D01*
X137995000Y-78155800D01*
X137988822Y-78124741D01*
X137958508Y-77972341D01*
X137854587Y-77816813D01*
X137843169Y-77805395D01*
X137956063Y-77758748D01*
X138262671Y-77452674D01*
X138428811Y-77052566D01*
X138429189Y-76619335D01*
X138263748Y-76218937D01*
X137957674Y-75912329D01*
X137557566Y-75746189D01*
X137124335Y-75745811D01*
X136723937Y-75911252D01*
X136417329Y-76217326D01*
X136251189Y-76617434D01*
X136250811Y-77050665D01*
X136416252Y-77451063D01*
X136722326Y-77757671D01*
X136860600Y-77815088D01*
X136860600Y-77980200D01*
X136897092Y-78163659D01*
X137001013Y-78319187D01*
X137036200Y-78354374D01*
X137036200Y-78393226D01*
X135832104Y-77189130D01*
X135888811Y-77052566D01*
X135889189Y-76619335D01*
X135723748Y-76218937D01*
X135417674Y-75912329D01*
X135017566Y-75746189D01*
X134584335Y-75745811D01*
X134183937Y-75911252D01*
X133877329Y-76217326D01*
X133711189Y-76617434D01*
X133710811Y-77050665D01*
X133876252Y-77451063D01*
X134182326Y-77757671D01*
X134537132Y-77905000D01*
X134007974Y-77905000D01*
X133292104Y-77189130D01*
X133348811Y-77052566D01*
X133349189Y-76619335D01*
X133183748Y-76218937D01*
X132877674Y-75912329D01*
X132477566Y-75746189D01*
X132044335Y-75745811D01*
X131643937Y-75911252D01*
X131337329Y-76217326D01*
X131171189Y-76617434D01*
X131170811Y-77050665D01*
X131336252Y-77451063D01*
X131642326Y-77757671D01*
X132042434Y-77923811D01*
X132475665Y-77924189D01*
X132614040Y-77867014D01*
X133261626Y-78514600D01*
X132077574Y-78514600D01*
X130752104Y-77189130D01*
X130808811Y-77052566D01*
X130809189Y-76619335D01*
X130643748Y-76218937D01*
X130337674Y-75912329D01*
X129937566Y-75746189D01*
X129504335Y-75745811D01*
X129103937Y-75911252D01*
X128797329Y-76217326D01*
X128631189Y-76617434D01*
X128630811Y-77050665D01*
X128796252Y-77451063D01*
X129102326Y-77757671D01*
X129502434Y-77923811D01*
X129935665Y-77924189D01*
X130074040Y-77867014D01*
X131540013Y-79332987D01*
X131695541Y-79436908D01*
X131879000Y-79473400D01*
X134700826Y-79473400D01*
X134826400Y-79598974D01*
X134826400Y-83638862D01*
X134727457Y-83737633D01*
X134623319Y-83988427D01*
X134623082Y-84259982D01*
X134726782Y-84510957D01*
X134918633Y-84703143D01*
X135169427Y-84807281D01*
X135440982Y-84807518D01*
X135691957Y-84703818D01*
X135884143Y-84511967D01*
X135988281Y-84261173D01*
X135988514Y-83994553D01*
X136177582Y-83994718D01*
X136428557Y-83891018D01*
X136620743Y-83699167D01*
X136724881Y-83448373D01*
X136725092Y-83207153D01*
X136914182Y-83207318D01*
X137165157Y-83103618D01*
X137357343Y-82911767D01*
X137461481Y-82660973D01*
X137461714Y-82394353D01*
X137650782Y-82394518D01*
X137901757Y-82290818D01*
X138093943Y-82098967D01*
X138153353Y-81955890D01*
X138309533Y-82112343D01*
X138560327Y-82216481D01*
X138814302Y-82216703D01*
X138814082Y-82469282D01*
X138917782Y-82720257D01*
X139109633Y-82912443D01*
X139360427Y-83016581D01*
X139631982Y-83016818D01*
X139882957Y-82913118D01*
X140075143Y-82721267D01*
X140179281Y-82470473D01*
X140179518Y-82198918D01*
X140075818Y-81947943D01*
X139976200Y-81848151D01*
X139976200Y-80081574D01*
X140711374Y-79346400D01*
X145468000Y-79346400D01*
X145651459Y-79309908D01*
X145806987Y-79205987D01*
X147145870Y-77867104D01*
X147282434Y-77923811D01*
X147294600Y-77923822D01*
X147294600Y-78285820D01*
X147284335Y-78285811D01*
X146883937Y-78451252D01*
X146577329Y-78757326D01*
X146411189Y-79157434D01*
X146410811Y-79590665D01*
X146576252Y-79991063D01*
X146882326Y-80297671D01*
X147282434Y-80463811D01*
X147294600Y-80463822D01*
X147294600Y-80825820D01*
X147284335Y-80825811D01*
X146883937Y-80991252D01*
X146577329Y-81297326D01*
X146411189Y-81697434D01*
X146410811Y-82130665D01*
X146576252Y-82531063D01*
X146882326Y-82837671D01*
X147282434Y-83003811D01*
X147294600Y-83003822D01*
X147294600Y-83365820D01*
X147284335Y-83365811D01*
X146883937Y-83531252D01*
X146577329Y-83837326D01*
X146411189Y-84237434D01*
X146410811Y-84670665D01*
X146576252Y-85071063D01*
X146882326Y-85377671D01*
X147282434Y-85543811D01*
X147294600Y-85543822D01*
X147294600Y-85905820D01*
X147284335Y-85905811D01*
X146883937Y-86071252D01*
X146577329Y-86377326D01*
X146411189Y-86777434D01*
X146410811Y-87210665D01*
X146576252Y-87611063D01*
X146882326Y-87917671D01*
X147282434Y-88083811D01*
X147294600Y-88083822D01*
X147294600Y-93598000D01*
X125402000Y-93598000D01*
X125402000Y-92290665D01*
X126090811Y-92290665D01*
X126256252Y-92691063D01*
X126562326Y-92997671D01*
X126962434Y-93163811D01*
X127395665Y-93164189D01*
X127796063Y-92998748D01*
X128102671Y-92692674D01*
X128268811Y-92292566D01*
X128268812Y-92290665D01*
X136250811Y-92290665D01*
X136416252Y-92691063D01*
X136722326Y-92997671D01*
X137122434Y-93163811D01*
X137555665Y-93164189D01*
X137956063Y-92998748D01*
X138262671Y-92692674D01*
X138428811Y-92292566D01*
X138428812Y-92290665D01*
X143870811Y-92290665D01*
X144036252Y-92691063D01*
X144342326Y-92997671D01*
X144742434Y-93163811D01*
X145175665Y-93164189D01*
X145576063Y-92998748D01*
X145882671Y-92692674D01*
X146048811Y-92292566D01*
X146049189Y-91859335D01*
X145883748Y-91458937D01*
X145577674Y-91152329D01*
X145177566Y-90986189D01*
X144744335Y-90985811D01*
X144343937Y-91151252D01*
X144037329Y-91457326D01*
X143871189Y-91857434D01*
X143870811Y-92290665D01*
X138428812Y-92290665D01*
X138429189Y-91859335D01*
X138263748Y-91458937D01*
X137957674Y-91152329D01*
X137557566Y-90986189D01*
X137124335Y-90985811D01*
X136723937Y-91151252D01*
X136417329Y-91457326D01*
X136251189Y-91857434D01*
X136250811Y-92290665D01*
X128268812Y-92290665D01*
X128269189Y-91859335D01*
X128103748Y-91458937D01*
X127797674Y-91152329D01*
X127397566Y-90986189D01*
X126964335Y-90985811D01*
X126563937Y-91151252D01*
X126257329Y-91457326D01*
X126091189Y-91857434D01*
X126090811Y-92290665D01*
X125402000Y-92290665D01*
X125402000Y-86992995D01*
X126272788Y-86992995D01*
X126459194Y-87444131D01*
X126804053Y-87789593D01*
X127254864Y-87976786D01*
X127742995Y-87977212D01*
X128194131Y-87790806D01*
X128539593Y-87445947D01*
X128726786Y-86995136D01*
X128727212Y-86507005D01*
X128546658Y-86070032D01*
X129493113Y-87016487D01*
X129648641Y-87120408D01*
X129832100Y-87156900D01*
X132008426Y-87156900D01*
X132159404Y-87307878D01*
X132159282Y-87447682D01*
X132262982Y-87698657D01*
X132454833Y-87890843D01*
X132705627Y-87994981D01*
X132977182Y-87995218D01*
X133228157Y-87891518D01*
X133420343Y-87699667D01*
X133424779Y-87688982D01*
X135613682Y-87688982D01*
X135717382Y-87939957D01*
X135909233Y-88132143D01*
X136160027Y-88236281D01*
X136301030Y-88236404D01*
X136604400Y-88539774D01*
X136604400Y-88811100D01*
X136640892Y-88994559D01*
X136744813Y-89150087D01*
X139335613Y-91740887D01*
X139491142Y-91844808D01*
X139674600Y-91881300D01*
X142011400Y-91881300D01*
X142194859Y-91844808D01*
X142350387Y-91740887D01*
X142552878Y-91538396D01*
X142692682Y-91538518D01*
X142943657Y-91434818D01*
X143135843Y-91242967D01*
X143150509Y-91207646D01*
X143249833Y-91307143D01*
X143500627Y-91411281D01*
X143772182Y-91411518D01*
X144023157Y-91307818D01*
X144215343Y-91115967D01*
X144319481Y-90865173D01*
X144319718Y-90593618D01*
X144216018Y-90342643D01*
X144116400Y-90242851D01*
X144116400Y-89487538D01*
X144215343Y-89388767D01*
X144319481Y-89137973D01*
X144319718Y-88866418D01*
X144216018Y-88615443D01*
X144024167Y-88423257D01*
X143773373Y-88319119D01*
X143501818Y-88318882D01*
X143250843Y-88422582D01*
X143058657Y-88614433D01*
X142954519Y-88865227D01*
X142954282Y-89136782D01*
X143057982Y-89387757D01*
X143157600Y-89487549D01*
X143157600Y-90242862D01*
X143058657Y-90341633D01*
X143043991Y-90376954D01*
X142944667Y-90277457D01*
X142693873Y-90173319D01*
X142422318Y-90173082D01*
X142171343Y-90276782D01*
X141979157Y-90468633D01*
X141875019Y-90719427D01*
X141874896Y-90860430D01*
X141812826Y-90922500D01*
X141019736Y-90922500D01*
X141119940Y-90822471D01*
X141261279Y-90482089D01*
X141261600Y-90113528D01*
X141120856Y-89772900D01*
X140860471Y-89512060D01*
X140520089Y-89370721D01*
X140151528Y-89370400D01*
X139810900Y-89511144D01*
X139550060Y-89771529D01*
X139408721Y-90111911D01*
X139408420Y-90457746D01*
X137563200Y-88612526D01*
X137563200Y-88341200D01*
X137558761Y-88318882D01*
X137526708Y-88157741D01*
X137422787Y-88002213D01*
X136978996Y-87558422D01*
X136979118Y-87418618D01*
X136958605Y-87368972D01*
X139408400Y-87368972D01*
X139549144Y-87709600D01*
X139809529Y-87970440D01*
X140149911Y-88111779D01*
X140518472Y-88112100D01*
X140859100Y-87971356D01*
X141119940Y-87710971D01*
X141261279Y-87370589D01*
X141261600Y-87002028D01*
X141120856Y-86661400D01*
X140860471Y-86400560D01*
X140520089Y-86259221D01*
X140151528Y-86258900D01*
X139810900Y-86399644D01*
X139550060Y-86660029D01*
X139408721Y-87000411D01*
X139408400Y-87368972D01*
X136958605Y-87368972D01*
X136875418Y-87167643D01*
X136683567Y-86975457D01*
X136432773Y-86871319D01*
X136161218Y-86871082D01*
X135910243Y-86974782D01*
X135718057Y-87166633D01*
X135613919Y-87417427D01*
X135613682Y-87688982D01*
X133424779Y-87688982D01*
X133524481Y-87448873D01*
X133524718Y-87177318D01*
X133421018Y-86926343D01*
X133229167Y-86734157D01*
X132978373Y-86630019D01*
X132837370Y-86629896D01*
X132545987Y-86338513D01*
X132390459Y-86234592D01*
X132207000Y-86198100D01*
X130030674Y-86198100D01*
X129464156Y-85631582D01*
X130698782Y-85631582D01*
X130802482Y-85882557D01*
X130994333Y-86074743D01*
X131245127Y-86178881D01*
X131516682Y-86179118D01*
X131767657Y-86075418D01*
X131959843Y-85883567D01*
X132063981Y-85632773D01*
X132064072Y-85527472D01*
X135598400Y-85527472D01*
X135739144Y-85868100D01*
X135999529Y-86128940D01*
X136339911Y-86270279D01*
X136708472Y-86270600D01*
X137049100Y-86129856D01*
X137309940Y-85869471D01*
X137451279Y-85529089D01*
X137451600Y-85160528D01*
X137310856Y-84819900D01*
X137050471Y-84559060D01*
X136710089Y-84417721D01*
X136341528Y-84417400D01*
X136000900Y-84558144D01*
X135740060Y-84818529D01*
X135598721Y-85158911D01*
X135598400Y-85527472D01*
X132064072Y-85527472D01*
X132064218Y-85361218D01*
X131960518Y-85110243D01*
X131768667Y-84918057D01*
X131517873Y-84813919D01*
X131246318Y-84813682D01*
X130995343Y-84917382D01*
X130803157Y-85109233D01*
X130699019Y-85360027D01*
X130698782Y-85631582D01*
X129464156Y-85631582D01*
X128330296Y-84497722D01*
X128330418Y-84357918D01*
X128226718Y-84106943D01*
X128034867Y-83914757D01*
X127784073Y-83810619D01*
X127512518Y-83810382D01*
X127261543Y-83914082D01*
X127069357Y-84105933D01*
X126965219Y-84356727D01*
X126964982Y-84628282D01*
X127068682Y-84879257D01*
X127260533Y-85071443D01*
X127511327Y-85175581D01*
X127652330Y-85175704D01*
X128180703Y-85704077D01*
X127745136Y-85523214D01*
X127257005Y-85522788D01*
X126805869Y-85709194D01*
X126460407Y-86054053D01*
X126273214Y-86504864D01*
X126272788Y-86992995D01*
X125402000Y-86992995D01*
X125402000Y-82492995D01*
X126272788Y-82492995D01*
X126459194Y-82944131D01*
X126804053Y-83289593D01*
X127254864Y-83476786D01*
X127742995Y-83477212D01*
X128194131Y-83290806D01*
X128539593Y-82945947D01*
X128726786Y-82495136D01*
X128727212Y-82007005D01*
X128540806Y-81555869D01*
X128195947Y-81210407D01*
X127745136Y-81023214D01*
X127257005Y-81022788D01*
X126805869Y-81209194D01*
X126460407Y-81554053D01*
X126273214Y-82004864D01*
X126272788Y-82492995D01*
X125402000Y-82492995D01*
X125402000Y-77815213D01*
X126379392Y-77815213D01*
X126448857Y-78057397D01*
X126972302Y-78244144D01*
X127527368Y-78216362D01*
X127911143Y-78057397D01*
X127980608Y-77815213D01*
X127180000Y-77014605D01*
X126379392Y-77815213D01*
X125402000Y-77815213D01*
X125402000Y-76627302D01*
X125770856Y-76627302D01*
X125798638Y-77182368D01*
X125957603Y-77566143D01*
X126199787Y-77635608D01*
X127000395Y-76835000D01*
X127359605Y-76835000D01*
X128160213Y-77635608D01*
X128402397Y-77566143D01*
X128589144Y-77042698D01*
X128561362Y-76487632D01*
X128402397Y-76103857D01*
X128160213Y-76034392D01*
X127359605Y-76835000D01*
X127000395Y-76835000D01*
X126199787Y-76034392D01*
X125957603Y-76103857D01*
X125770856Y-76627302D01*
X125402000Y-76627302D01*
X125402000Y-75854787D01*
X126379392Y-75854787D01*
X127180000Y-76655395D01*
X127980608Y-75854787D01*
X127911143Y-75612603D01*
X127387698Y-75425856D01*
X126832632Y-75453638D01*
X126448857Y-75612603D01*
X126379392Y-75854787D01*
X125402000Y-75854787D01*
X125402000Y-75402000D01*
X147294600Y-75402000D01*
X147294600Y-75745820D01*
X147294600Y-75745820D01*
G37*
X147294600Y-75745820D02*
X147284335Y-75745811D01*
X146883937Y-75911252D01*
X146577329Y-76217326D01*
X146411189Y-76617434D01*
X146410811Y-77050665D01*
X146467986Y-77189040D01*
X145269426Y-78387600D01*
X144085374Y-78387600D01*
X144605870Y-77867104D01*
X144742434Y-77923811D01*
X145175665Y-77924189D01*
X145576063Y-77758748D01*
X145882671Y-77452674D01*
X146048811Y-77052566D01*
X146049189Y-76619335D01*
X145883748Y-76218937D01*
X145577674Y-75912329D01*
X145177566Y-75746189D01*
X144744335Y-75745811D01*
X144343937Y-75911252D01*
X144037329Y-76217326D01*
X143871189Y-76617434D01*
X143870811Y-77050665D01*
X143927986Y-77189040D01*
X143288226Y-77828800D01*
X142866524Y-77828800D01*
X143036063Y-77758748D01*
X143342671Y-77452674D01*
X143508811Y-77052566D01*
X143509189Y-76619335D01*
X143343748Y-76218937D01*
X143037674Y-75912329D01*
X142637566Y-75746189D01*
X142204335Y-75745811D01*
X141803937Y-75911252D01*
X141497329Y-76217326D01*
X141331189Y-76617434D01*
X141330811Y-77050665D01*
X141496252Y-77451063D01*
X141802326Y-77757671D01*
X141973623Y-77828800D01*
X140326524Y-77828800D01*
X140496063Y-77758748D01*
X140802671Y-77452674D01*
X140968811Y-77052566D01*
X140969189Y-76619335D01*
X140803748Y-76218937D01*
X140497674Y-75912329D01*
X140097566Y-75746189D01*
X139664335Y-75745811D01*
X139263937Y-75911252D01*
X138957329Y-76217326D01*
X138791189Y-76617434D01*
X138790811Y-77050665D01*
X138956252Y-77451063D01*
X139262326Y-77757671D01*
X139515784Y-77862916D01*
X139503841Y-77865292D01*
X139348313Y-77969213D01*
X138357713Y-78959813D01*
X138253792Y-79115341D01*
X138232457Y-79222600D01*
X138217300Y-79298800D01*
X138217300Y-81048062D01*
X138118357Y-81146833D01*
X138058947Y-81289910D01*
X137995000Y-81225851D01*
X137995000Y-78155800D01*
X137988822Y-78124741D01*
X137958508Y-77972341D01*
X137854587Y-77816813D01*
X137843169Y-77805395D01*
X137956063Y-77758748D01*
X138262671Y-77452674D01*
X138428811Y-77052566D01*
X138429189Y-76619335D01*
X138263748Y-76218937D01*
X137957674Y-75912329D01*
X137557566Y-75746189D01*
X137124335Y-75745811D01*
X136723937Y-75911252D01*
X136417329Y-76217326D01*
X136251189Y-76617434D01*
X136250811Y-77050665D01*
X136416252Y-77451063D01*
X136722326Y-77757671D01*
X136860600Y-77815088D01*
X136860600Y-77980200D01*
X136897092Y-78163659D01*
X137001013Y-78319187D01*
X137036200Y-78354374D01*
X137036200Y-78393226D01*
X135832104Y-77189130D01*
X135888811Y-77052566D01*
X135889189Y-76619335D01*
X135723748Y-76218937D01*
X135417674Y-75912329D01*
X135017566Y-75746189D01*
X134584335Y-75745811D01*
X134183937Y-75911252D01*
X133877329Y-76217326D01*
X133711189Y-76617434D01*
X133710811Y-77050665D01*
X133876252Y-77451063D01*
X134182326Y-77757671D01*
X134537132Y-77905000D01*
X134007974Y-77905000D01*
X133292104Y-77189130D01*
X133348811Y-77052566D01*
X133349189Y-76619335D01*
X133183748Y-76218937D01*
X132877674Y-75912329D01*
X132477566Y-75746189D01*
X132044335Y-75745811D01*
X131643937Y-75911252D01*
X131337329Y-76217326D01*
X131171189Y-76617434D01*
X131170811Y-77050665D01*
X131336252Y-77451063D01*
X131642326Y-77757671D01*
X132042434Y-77923811D01*
X132475665Y-77924189D01*
X132614040Y-77867014D01*
X133261626Y-78514600D01*
X132077574Y-78514600D01*
X130752104Y-77189130D01*
X130808811Y-77052566D01*
X130809189Y-76619335D01*
X130643748Y-76218937D01*
X130337674Y-75912329D01*
X129937566Y-75746189D01*
X129504335Y-75745811D01*
X129103937Y-75911252D01*
X128797329Y-76217326D01*
X128631189Y-76617434D01*
X128630811Y-77050665D01*
X128796252Y-77451063D01*
X129102326Y-77757671D01*
X129502434Y-77923811D01*
X129935665Y-77924189D01*
X130074040Y-77867014D01*
X131540013Y-79332987D01*
X131695541Y-79436908D01*
X131879000Y-79473400D01*
X134700826Y-79473400D01*
X134826400Y-79598974D01*
X134826400Y-83638862D01*
X134727457Y-83737633D01*
X134623319Y-83988427D01*
X134623082Y-84259982D01*
X134726782Y-84510957D01*
X134918633Y-84703143D01*
X135169427Y-84807281D01*
X135440982Y-84807518D01*
X135691957Y-84703818D01*
X135884143Y-84511967D01*
X135988281Y-84261173D01*
X135988514Y-83994553D01*
X136177582Y-83994718D01*
X136428557Y-83891018D01*
X136620743Y-83699167D01*
X136724881Y-83448373D01*
X136725092Y-83207153D01*
X136914182Y-83207318D01*
X137165157Y-83103618D01*
X137357343Y-82911767D01*
X137461481Y-82660973D01*
X137461714Y-82394353D01*
X137650782Y-82394518D01*
X137901757Y-82290818D01*
X138093943Y-82098967D01*
X138153353Y-81955890D01*
X138309533Y-82112343D01*
X138560327Y-82216481D01*
X138814302Y-82216703D01*
X138814082Y-82469282D01*
X138917782Y-82720257D01*
X139109633Y-82912443D01*
X139360427Y-83016581D01*
X139631982Y-83016818D01*
X139882957Y-82913118D01*
X140075143Y-82721267D01*
X140179281Y-82470473D01*
X140179518Y-82198918D01*
X140075818Y-81947943D01*
X139976200Y-81848151D01*
X139976200Y-80081574D01*
X140711374Y-79346400D01*
X145468000Y-79346400D01*
X145651459Y-79309908D01*
X145806987Y-79205987D01*
X147145870Y-77867104D01*
X147282434Y-77923811D01*
X147294600Y-77923822D01*
X147294600Y-78285820D01*
X147284335Y-78285811D01*
X146883937Y-78451252D01*
X146577329Y-78757326D01*
X146411189Y-79157434D01*
X146410811Y-79590665D01*
X146576252Y-79991063D01*
X146882326Y-80297671D01*
X147282434Y-80463811D01*
X147294600Y-80463822D01*
X147294600Y-80825820D01*
X147284335Y-80825811D01*
X146883937Y-80991252D01*
X146577329Y-81297326D01*
X146411189Y-81697434D01*
X146410811Y-82130665D01*
X146576252Y-82531063D01*
X146882326Y-82837671D01*
X147282434Y-83003811D01*
X147294600Y-83003822D01*
X147294600Y-83365820D01*
X147284335Y-83365811D01*
X146883937Y-83531252D01*
X146577329Y-83837326D01*
X146411189Y-84237434D01*
X146410811Y-84670665D01*
X146576252Y-85071063D01*
X146882326Y-85377671D01*
X147282434Y-85543811D01*
X147294600Y-85543822D01*
X147294600Y-85905820D01*
X147284335Y-85905811D01*
X146883937Y-86071252D01*
X146577329Y-86377326D01*
X146411189Y-86777434D01*
X146410811Y-87210665D01*
X146576252Y-87611063D01*
X146882326Y-87917671D01*
X147282434Y-88083811D01*
X147294600Y-88083822D01*
X147294600Y-93598000D01*
X125402000Y-93598000D01*
X125402000Y-92290665D01*
X126090811Y-92290665D01*
X126256252Y-92691063D01*
X126562326Y-92997671D01*
X126962434Y-93163811D01*
X127395665Y-93164189D01*
X127796063Y-92998748D01*
X128102671Y-92692674D01*
X128268811Y-92292566D01*
X128268812Y-92290665D01*
X136250811Y-92290665D01*
X136416252Y-92691063D01*
X136722326Y-92997671D01*
X137122434Y-93163811D01*
X137555665Y-93164189D01*
X137956063Y-92998748D01*
X138262671Y-92692674D01*
X138428811Y-92292566D01*
X138428812Y-92290665D01*
X143870811Y-92290665D01*
X144036252Y-92691063D01*
X144342326Y-92997671D01*
X144742434Y-93163811D01*
X145175665Y-93164189D01*
X145576063Y-92998748D01*
X145882671Y-92692674D01*
X146048811Y-92292566D01*
X146049189Y-91859335D01*
X145883748Y-91458937D01*
X145577674Y-91152329D01*
X145177566Y-90986189D01*
X144744335Y-90985811D01*
X144343937Y-91151252D01*
X144037329Y-91457326D01*
X143871189Y-91857434D01*
X143870811Y-92290665D01*
X138428812Y-92290665D01*
X138429189Y-91859335D01*
X138263748Y-91458937D01*
X137957674Y-91152329D01*
X137557566Y-90986189D01*
X137124335Y-90985811D01*
X136723937Y-91151252D01*
X136417329Y-91457326D01*
X136251189Y-91857434D01*
X136250811Y-92290665D01*
X128268812Y-92290665D01*
X128269189Y-91859335D01*
X128103748Y-91458937D01*
X127797674Y-91152329D01*
X127397566Y-90986189D01*
X126964335Y-90985811D01*
X126563937Y-91151252D01*
X126257329Y-91457326D01*
X126091189Y-91857434D01*
X126090811Y-92290665D01*
X125402000Y-92290665D01*
X125402000Y-86992995D01*
X126272788Y-86992995D01*
X126459194Y-87444131D01*
X126804053Y-87789593D01*
X127254864Y-87976786D01*
X127742995Y-87977212D01*
X128194131Y-87790806D01*
X128539593Y-87445947D01*
X128726786Y-86995136D01*
X128727212Y-86507005D01*
X128546658Y-86070032D01*
X129493113Y-87016487D01*
X129648641Y-87120408D01*
X129832100Y-87156900D01*
X132008426Y-87156900D01*
X132159404Y-87307878D01*
X132159282Y-87447682D01*
X132262982Y-87698657D01*
X132454833Y-87890843D01*
X132705627Y-87994981D01*
X132977182Y-87995218D01*
X133228157Y-87891518D01*
X133420343Y-87699667D01*
X133424779Y-87688982D01*
X135613682Y-87688982D01*
X135717382Y-87939957D01*
X135909233Y-88132143D01*
X136160027Y-88236281D01*
X136301030Y-88236404D01*
X136604400Y-88539774D01*
X136604400Y-88811100D01*
X136640892Y-88994559D01*
X136744813Y-89150087D01*
X139335613Y-91740887D01*
X139491142Y-91844808D01*
X139674600Y-91881300D01*
X142011400Y-91881300D01*
X142194859Y-91844808D01*
X142350387Y-91740887D01*
X142552878Y-91538396D01*
X142692682Y-91538518D01*
X142943657Y-91434818D01*
X143135843Y-91242967D01*
X143150509Y-91207646D01*
X143249833Y-91307143D01*
X143500627Y-91411281D01*
X143772182Y-91411518D01*
X144023157Y-91307818D01*
X144215343Y-91115967D01*
X144319481Y-90865173D01*
X144319718Y-90593618D01*
X144216018Y-90342643D01*
X144116400Y-90242851D01*
X144116400Y-89487538D01*
X144215343Y-89388767D01*
X144319481Y-89137973D01*
X144319718Y-88866418D01*
X144216018Y-88615443D01*
X144024167Y-88423257D01*
X143773373Y-88319119D01*
X143501818Y-88318882D01*
X143250843Y-88422582D01*
X143058657Y-88614433D01*
X142954519Y-88865227D01*
X142954282Y-89136782D01*
X143057982Y-89387757D01*
X143157600Y-89487549D01*
X143157600Y-90242862D01*
X143058657Y-90341633D01*
X143043991Y-90376954D01*
X142944667Y-90277457D01*
X142693873Y-90173319D01*
X142422318Y-90173082D01*
X142171343Y-90276782D01*
X141979157Y-90468633D01*
X141875019Y-90719427D01*
X141874896Y-90860430D01*
X141812826Y-90922500D01*
X141019736Y-90922500D01*
X141119940Y-90822471D01*
X141261279Y-90482089D01*
X141261600Y-90113528D01*
X141120856Y-89772900D01*
X140860471Y-89512060D01*
X140520089Y-89370721D01*
X140151528Y-89370400D01*
X139810900Y-89511144D01*
X139550060Y-89771529D01*
X139408721Y-90111911D01*
X139408420Y-90457746D01*
X137563200Y-88612526D01*
X137563200Y-88341200D01*
X137558761Y-88318882D01*
X137526708Y-88157741D01*
X137422787Y-88002213D01*
X136978996Y-87558422D01*
X136979118Y-87418618D01*
X136958605Y-87368972D01*
X139408400Y-87368972D01*
X139549144Y-87709600D01*
X139809529Y-87970440D01*
X140149911Y-88111779D01*
X140518472Y-88112100D01*
X140859100Y-87971356D01*
X141119940Y-87710971D01*
X141261279Y-87370589D01*
X141261600Y-87002028D01*
X141120856Y-86661400D01*
X140860471Y-86400560D01*
X140520089Y-86259221D01*
X140151528Y-86258900D01*
X139810900Y-86399644D01*
X139550060Y-86660029D01*
X139408721Y-87000411D01*
X139408400Y-87368972D01*
X136958605Y-87368972D01*
X136875418Y-87167643D01*
X136683567Y-86975457D01*
X136432773Y-86871319D01*
X136161218Y-86871082D01*
X135910243Y-86974782D01*
X135718057Y-87166633D01*
X135613919Y-87417427D01*
X135613682Y-87688982D01*
X133424779Y-87688982D01*
X133524481Y-87448873D01*
X133524718Y-87177318D01*
X133421018Y-86926343D01*
X133229167Y-86734157D01*
X132978373Y-86630019D01*
X132837370Y-86629896D01*
X132545987Y-86338513D01*
X132390459Y-86234592D01*
X132207000Y-86198100D01*
X130030674Y-86198100D01*
X129464156Y-85631582D01*
X130698782Y-85631582D01*
X130802482Y-85882557D01*
X130994333Y-86074743D01*
X131245127Y-86178881D01*
X131516682Y-86179118D01*
X131767657Y-86075418D01*
X131959843Y-85883567D01*
X132063981Y-85632773D01*
X132064072Y-85527472D01*
X135598400Y-85527472D01*
X135739144Y-85868100D01*
X135999529Y-86128940D01*
X136339911Y-86270279D01*
X136708472Y-86270600D01*
X137049100Y-86129856D01*
X137309940Y-85869471D01*
X137451279Y-85529089D01*
X137451600Y-85160528D01*
X137310856Y-84819900D01*
X137050471Y-84559060D01*
X136710089Y-84417721D01*
X136341528Y-84417400D01*
X136000900Y-84558144D01*
X135740060Y-84818529D01*
X135598721Y-85158911D01*
X135598400Y-85527472D01*
X132064072Y-85527472D01*
X132064218Y-85361218D01*
X131960518Y-85110243D01*
X131768667Y-84918057D01*
X131517873Y-84813919D01*
X131246318Y-84813682D01*
X130995343Y-84917382D01*
X130803157Y-85109233D01*
X130699019Y-85360027D01*
X130698782Y-85631582D01*
X129464156Y-85631582D01*
X128330296Y-84497722D01*
X128330418Y-84357918D01*
X128226718Y-84106943D01*
X128034867Y-83914757D01*
X127784073Y-83810619D01*
X127512518Y-83810382D01*
X127261543Y-83914082D01*
X127069357Y-84105933D01*
X126965219Y-84356727D01*
X126964982Y-84628282D01*
X127068682Y-84879257D01*
X127260533Y-85071443D01*
X127511327Y-85175581D01*
X127652330Y-85175704D01*
X128180703Y-85704077D01*
X127745136Y-85523214D01*
X127257005Y-85522788D01*
X126805869Y-85709194D01*
X126460407Y-86054053D01*
X126273214Y-86504864D01*
X126272788Y-86992995D01*
X125402000Y-86992995D01*
X125402000Y-82492995D01*
X126272788Y-82492995D01*
X126459194Y-82944131D01*
X126804053Y-83289593D01*
X127254864Y-83476786D01*
X127742995Y-83477212D01*
X128194131Y-83290806D01*
X128539593Y-82945947D01*
X128726786Y-82495136D01*
X128727212Y-82007005D01*
X128540806Y-81555869D01*
X128195947Y-81210407D01*
X127745136Y-81023214D01*
X127257005Y-81022788D01*
X126805869Y-81209194D01*
X126460407Y-81554053D01*
X126273214Y-82004864D01*
X126272788Y-82492995D01*
X125402000Y-82492995D01*
X125402000Y-77815213D01*
X126379392Y-77815213D01*
X126448857Y-78057397D01*
X126972302Y-78244144D01*
X127527368Y-78216362D01*
X127911143Y-78057397D01*
X127980608Y-77815213D01*
X127180000Y-77014605D01*
X126379392Y-77815213D01*
X125402000Y-77815213D01*
X125402000Y-76627302D01*
X125770856Y-76627302D01*
X125798638Y-77182368D01*
X125957603Y-77566143D01*
X126199787Y-77635608D01*
X127000395Y-76835000D01*
X127359605Y-76835000D01*
X128160213Y-77635608D01*
X128402397Y-77566143D01*
X128589144Y-77042698D01*
X128561362Y-76487632D01*
X128402397Y-76103857D01*
X128160213Y-76034392D01*
X127359605Y-76835000D01*
X127000395Y-76835000D01*
X126199787Y-76034392D01*
X125957603Y-76103857D01*
X125770856Y-76627302D01*
X125402000Y-76627302D01*
X125402000Y-75854787D01*
X126379392Y-75854787D01*
X127180000Y-76655395D01*
X127980608Y-75854787D01*
X127911143Y-75612603D01*
X127387698Y-75425856D01*
X126832632Y-75453638D01*
X126448857Y-75612603D01*
X126379392Y-75854787D01*
X125402000Y-75854787D01*
X125402000Y-75402000D01*
X147294600Y-75402000D01*
X147294600Y-75745820D01*
G36*
X169598000Y-93598000D02*
X149381198Y-93598000D01*
X149393882Y-93567454D01*
X149394117Y-93298127D01*
X149293747Y-93055213D01*
X167019392Y-93055213D01*
X167088857Y-93297397D01*
X167612302Y-93484144D01*
X168167368Y-93456362D01*
X168551143Y-93297397D01*
X168620608Y-93055213D01*
X167820000Y-92254605D01*
X167019392Y-93055213D01*
X149293747Y-93055213D01*
X149291267Y-93049211D01*
X149100990Y-92858602D01*
X148852254Y-92755318D01*
X148582927Y-92755083D01*
X148334011Y-92857933D01*
X148143402Y-93048210D01*
X148040118Y-93296946D01*
X148039883Y-93566273D01*
X148052992Y-93598000D01*
X147701000Y-93598000D01*
X147701000Y-91766273D01*
X148039883Y-91766273D01*
X148142733Y-92015189D01*
X148333010Y-92205798D01*
X148581746Y-92309082D01*
X148851073Y-92309317D01*
X149099989Y-92206467D01*
X149290598Y-92016190D01*
X149352421Y-91867302D01*
X166410856Y-91867302D01*
X166438638Y-92422368D01*
X166597603Y-92806143D01*
X166839787Y-92875608D01*
X167640395Y-92075000D01*
X167999605Y-92075000D01*
X168800213Y-92875608D01*
X169042397Y-92806143D01*
X169229144Y-92282698D01*
X169201362Y-91727632D01*
X169042397Y-91343857D01*
X168800213Y-91274392D01*
X167999605Y-92075000D01*
X167640395Y-92075000D01*
X166839787Y-91274392D01*
X166597603Y-91343857D01*
X166410856Y-91867302D01*
X149352421Y-91867302D01*
X149393882Y-91767454D01*
X149394117Y-91498127D01*
X149291267Y-91249211D01*
X149137112Y-91094787D01*
X167019392Y-91094787D01*
X167820000Y-91895395D01*
X168620608Y-91094787D01*
X168551143Y-90852603D01*
X168027698Y-90665856D01*
X167472632Y-90693638D01*
X167088857Y-90852603D01*
X167019392Y-91094787D01*
X149137112Y-91094787D01*
X149100990Y-91058602D01*
X148852254Y-90955318D01*
X148582927Y-90955083D01*
X148334011Y-91057933D01*
X148143402Y-91248210D01*
X148040118Y-91496946D01*
X148039883Y-91766273D01*
X147701000Y-91766273D01*
X147701000Y-89750665D01*
X166730811Y-89750665D01*
X166896252Y-90151063D01*
X167202326Y-90457671D01*
X167602434Y-90623811D01*
X168035665Y-90624189D01*
X168436063Y-90458748D01*
X168742671Y-90152674D01*
X168908811Y-89752566D01*
X168909189Y-89319335D01*
X168743748Y-88918937D01*
X168437674Y-88612329D01*
X168037566Y-88446189D01*
X167604335Y-88445811D01*
X167203937Y-88611252D01*
X166897329Y-88917326D01*
X166731189Y-89317434D01*
X166730811Y-89750665D01*
X147701000Y-89750665D01*
X147701000Y-88084176D01*
X147715665Y-88084189D01*
X148116063Y-87918748D01*
X148422671Y-87612674D01*
X148588811Y-87212566D01*
X148588812Y-87210665D01*
X166730811Y-87210665D01*
X166896252Y-87611063D01*
X167202326Y-87917671D01*
X167602434Y-88083811D01*
X168035665Y-88084189D01*
X168436063Y-87918748D01*
X168742671Y-87612674D01*
X168908811Y-87212566D01*
X168909189Y-86779335D01*
X168743748Y-86378937D01*
X168437674Y-86072329D01*
X168037566Y-85906189D01*
X167604335Y-85905811D01*
X167203937Y-86071252D01*
X166897329Y-86377326D01*
X166731189Y-86777434D01*
X166730811Y-87210665D01*
X148588812Y-87210665D01*
X148589189Y-86779335D01*
X148423748Y-86378937D01*
X148117674Y-86072329D01*
X147717566Y-85906189D01*
X147701000Y-85906175D01*
X147701000Y-85544176D01*
X147715665Y-85544189D01*
X148116063Y-85378748D01*
X148422671Y-85072674D01*
X148588811Y-84672566D01*
X148588812Y-84670665D01*
X166730811Y-84670665D01*
X166896252Y-85071063D01*
X167202326Y-85377671D01*
X167602434Y-85543811D01*
X168035665Y-85544189D01*
X168436063Y-85378748D01*
X168742671Y-85072674D01*
X168908811Y-84672566D01*
X168909189Y-84239335D01*
X168743748Y-83838937D01*
X168437674Y-83532329D01*
X168037566Y-83366189D01*
X167604335Y-83365811D01*
X167203937Y-83531252D01*
X166897329Y-83837326D01*
X166731189Y-84237434D01*
X166730811Y-84670665D01*
X148588812Y-84670665D01*
X148589189Y-84239335D01*
X148423748Y-83838937D01*
X148117674Y-83532329D01*
X147717566Y-83366189D01*
X147701000Y-83366175D01*
X147701000Y-83004176D01*
X147715665Y-83004189D01*
X148116063Y-82838748D01*
X148422671Y-82532674D01*
X148588811Y-82132566D01*
X148588812Y-82130665D01*
X166730811Y-82130665D01*
X166896252Y-82531063D01*
X167202326Y-82837671D01*
X167602434Y-83003811D01*
X168035665Y-83004189D01*
X168436063Y-82838748D01*
X168742671Y-82532674D01*
X168908811Y-82132566D01*
X168909189Y-81699335D01*
X168743748Y-81298937D01*
X168437674Y-80992329D01*
X168037566Y-80826189D01*
X167604335Y-80825811D01*
X167203937Y-80991252D01*
X166897329Y-81297326D01*
X166731189Y-81697434D01*
X166730811Y-82130665D01*
X148588812Y-82130665D01*
X148589189Y-81699335D01*
X148423748Y-81298937D01*
X148117674Y-80992329D01*
X147717566Y-80826189D01*
X147701000Y-80826175D01*
X147701000Y-80464176D01*
X147715665Y-80464189D01*
X148116063Y-80298748D01*
X148422671Y-79992674D01*
X148588811Y-79592566D01*
X148588812Y-79590665D01*
X166730811Y-79590665D01*
X166896252Y-79991063D01*
X167202326Y-80297671D01*
X167602434Y-80463811D01*
X168035665Y-80464189D01*
X168436063Y-80298748D01*
X168742671Y-79992674D01*
X168908811Y-79592566D01*
X168909189Y-79159335D01*
X168743748Y-78758937D01*
X168437674Y-78452329D01*
X168037566Y-78286189D01*
X167604335Y-78285811D01*
X167203937Y-78451252D01*
X166897329Y-78757326D01*
X166731189Y-79157434D01*
X166730811Y-79590665D01*
X148588812Y-79590665D01*
X148589189Y-79159335D01*
X148423748Y-78758937D01*
X148117674Y-78452329D01*
X147717566Y-78286189D01*
X147701000Y-78286175D01*
X147701000Y-77924176D01*
X147715665Y-77924189D01*
X148116063Y-77758748D01*
X148422671Y-77452674D01*
X148588811Y-77052566D01*
X148588812Y-77050665D01*
X166730811Y-77050665D01*
X166896252Y-77451063D01*
X167202326Y-77757671D01*
X167602434Y-77923811D01*
X168035665Y-77924189D01*
X168436063Y-77758748D01*
X168742671Y-77452674D01*
X168908811Y-77052566D01*
X168909189Y-76619335D01*
X168743748Y-76218937D01*
X168437674Y-75912329D01*
X168037566Y-75746189D01*
X167604335Y-75745811D01*
X167203937Y-75911252D01*
X166897329Y-76217326D01*
X166731189Y-76617434D01*
X166730811Y-77050665D01*
X148588812Y-77050665D01*
X148589189Y-76619335D01*
X148423748Y-76218937D01*
X148117674Y-75912329D01*
X147717566Y-75746189D01*
X147701000Y-75746175D01*
X147701000Y-75402000D01*
X169598000Y-75402000D01*
X169598000Y-93598000D01*
X169598000Y-93598000D01*
G37*
X169598000Y-93598000D02*
X149381198Y-93598000D01*
X149393882Y-93567454D01*
X149394117Y-93298127D01*
X149293747Y-93055213D01*
X167019392Y-93055213D01*
X167088857Y-93297397D01*
X167612302Y-93484144D01*
X168167368Y-93456362D01*
X168551143Y-93297397D01*
X168620608Y-93055213D01*
X167820000Y-92254605D01*
X167019392Y-93055213D01*
X149293747Y-93055213D01*
X149291267Y-93049211D01*
X149100990Y-92858602D01*
X148852254Y-92755318D01*
X148582927Y-92755083D01*
X148334011Y-92857933D01*
X148143402Y-93048210D01*
X148040118Y-93296946D01*
X148039883Y-93566273D01*
X148052992Y-93598000D01*
X147701000Y-93598000D01*
X147701000Y-91766273D01*
X148039883Y-91766273D01*
X148142733Y-92015189D01*
X148333010Y-92205798D01*
X148581746Y-92309082D01*
X148851073Y-92309317D01*
X149099989Y-92206467D01*
X149290598Y-92016190D01*
X149352421Y-91867302D01*
X166410856Y-91867302D01*
X166438638Y-92422368D01*
X166597603Y-92806143D01*
X166839787Y-92875608D01*
X167640395Y-92075000D01*
X167999605Y-92075000D01*
X168800213Y-92875608D01*
X169042397Y-92806143D01*
X169229144Y-92282698D01*
X169201362Y-91727632D01*
X169042397Y-91343857D01*
X168800213Y-91274392D01*
X167999605Y-92075000D01*
X167640395Y-92075000D01*
X166839787Y-91274392D01*
X166597603Y-91343857D01*
X166410856Y-91867302D01*
X149352421Y-91867302D01*
X149393882Y-91767454D01*
X149394117Y-91498127D01*
X149291267Y-91249211D01*
X149137112Y-91094787D01*
X167019392Y-91094787D01*
X167820000Y-91895395D01*
X168620608Y-91094787D01*
X168551143Y-90852603D01*
X168027698Y-90665856D01*
X167472632Y-90693638D01*
X167088857Y-90852603D01*
X167019392Y-91094787D01*
X149137112Y-91094787D01*
X149100990Y-91058602D01*
X148852254Y-90955318D01*
X148582927Y-90955083D01*
X148334011Y-91057933D01*
X148143402Y-91248210D01*
X148040118Y-91496946D01*
X148039883Y-91766273D01*
X147701000Y-91766273D01*
X147701000Y-89750665D01*
X166730811Y-89750665D01*
X166896252Y-90151063D01*
X167202326Y-90457671D01*
X167602434Y-90623811D01*
X168035665Y-90624189D01*
X168436063Y-90458748D01*
X168742671Y-90152674D01*
X168908811Y-89752566D01*
X168909189Y-89319335D01*
X168743748Y-88918937D01*
X168437674Y-88612329D01*
X168037566Y-88446189D01*
X167604335Y-88445811D01*
X167203937Y-88611252D01*
X166897329Y-88917326D01*
X166731189Y-89317434D01*
X166730811Y-89750665D01*
X147701000Y-89750665D01*
X147701000Y-88084176D01*
X147715665Y-88084189D01*
X148116063Y-87918748D01*
X148422671Y-87612674D01*
X148588811Y-87212566D01*
X148588812Y-87210665D01*
X166730811Y-87210665D01*
X166896252Y-87611063D01*
X167202326Y-87917671D01*
X167602434Y-88083811D01*
X168035665Y-88084189D01*
X168436063Y-87918748D01*
X168742671Y-87612674D01*
X168908811Y-87212566D01*
X168909189Y-86779335D01*
X168743748Y-86378937D01*
X168437674Y-86072329D01*
X168037566Y-85906189D01*
X167604335Y-85905811D01*
X167203937Y-86071252D01*
X166897329Y-86377326D01*
X166731189Y-86777434D01*
X166730811Y-87210665D01*
X148588812Y-87210665D01*
X148589189Y-86779335D01*
X148423748Y-86378937D01*
X148117674Y-86072329D01*
X147717566Y-85906189D01*
X147701000Y-85906175D01*
X147701000Y-85544176D01*
X147715665Y-85544189D01*
X148116063Y-85378748D01*
X148422671Y-85072674D01*
X148588811Y-84672566D01*
X148588812Y-84670665D01*
X166730811Y-84670665D01*
X166896252Y-85071063D01*
X167202326Y-85377671D01*
X167602434Y-85543811D01*
X168035665Y-85544189D01*
X168436063Y-85378748D01*
X168742671Y-85072674D01*
X168908811Y-84672566D01*
X168909189Y-84239335D01*
X168743748Y-83838937D01*
X168437674Y-83532329D01*
X168037566Y-83366189D01*
X167604335Y-83365811D01*
X167203937Y-83531252D01*
X166897329Y-83837326D01*
X166731189Y-84237434D01*
X166730811Y-84670665D01*
X148588812Y-84670665D01*
X148589189Y-84239335D01*
X148423748Y-83838937D01*
X148117674Y-83532329D01*
X147717566Y-83366189D01*
X147701000Y-83366175D01*
X147701000Y-83004176D01*
X147715665Y-83004189D01*
X148116063Y-82838748D01*
X148422671Y-82532674D01*
X148588811Y-82132566D01*
X148588812Y-82130665D01*
X166730811Y-82130665D01*
X166896252Y-82531063D01*
X167202326Y-82837671D01*
X167602434Y-83003811D01*
X168035665Y-83004189D01*
X168436063Y-82838748D01*
X168742671Y-82532674D01*
X168908811Y-82132566D01*
X168909189Y-81699335D01*
X168743748Y-81298937D01*
X168437674Y-80992329D01*
X168037566Y-80826189D01*
X167604335Y-80825811D01*
X167203937Y-80991252D01*
X166897329Y-81297326D01*
X166731189Y-81697434D01*
X166730811Y-82130665D01*
X148588812Y-82130665D01*
X148589189Y-81699335D01*
X148423748Y-81298937D01*
X148117674Y-80992329D01*
X147717566Y-80826189D01*
X147701000Y-80826175D01*
X147701000Y-80464176D01*
X147715665Y-80464189D01*
X148116063Y-80298748D01*
X148422671Y-79992674D01*
X148588811Y-79592566D01*
X148588812Y-79590665D01*
X166730811Y-79590665D01*
X166896252Y-79991063D01*
X167202326Y-80297671D01*
X167602434Y-80463811D01*
X168035665Y-80464189D01*
X168436063Y-80298748D01*
X168742671Y-79992674D01*
X168908811Y-79592566D01*
X168909189Y-79159335D01*
X168743748Y-78758937D01*
X168437674Y-78452329D01*
X168037566Y-78286189D01*
X167604335Y-78285811D01*
X167203937Y-78451252D01*
X166897329Y-78757326D01*
X166731189Y-79157434D01*
X166730811Y-79590665D01*
X148588812Y-79590665D01*
X148589189Y-79159335D01*
X148423748Y-78758937D01*
X148117674Y-78452329D01*
X147717566Y-78286189D01*
X147701000Y-78286175D01*
X147701000Y-77924176D01*
X147715665Y-77924189D01*
X148116063Y-77758748D01*
X148422671Y-77452674D01*
X148588811Y-77052566D01*
X148588812Y-77050665D01*
X166730811Y-77050665D01*
X166896252Y-77451063D01*
X167202326Y-77757671D01*
X167602434Y-77923811D01*
X168035665Y-77924189D01*
X168436063Y-77758748D01*
X168742671Y-77452674D01*
X168908811Y-77052566D01*
X168909189Y-76619335D01*
X168743748Y-76218937D01*
X168437674Y-75912329D01*
X168037566Y-75746189D01*
X167604335Y-75745811D01*
X167203937Y-75911252D01*
X166897329Y-76217326D01*
X166731189Y-76617434D01*
X166730811Y-77050665D01*
X148588812Y-77050665D01*
X148589189Y-76619335D01*
X148423748Y-76218937D01*
X148117674Y-75912329D01*
X147717566Y-75746189D01*
X147701000Y-75746175D01*
X147701000Y-75402000D01*
X169598000Y-75402000D01*
X169598000Y-93598000D01*
M02*
