G04 #@! TF.FileFunction,Legend,Top*
%FSLAX46Y46*%
G04 Gerber Fmt 4.6, Leading zero omitted, Abs format (unit mm)*
G04 Created by KiCad (PCBNEW 4.0.2+dfsg1-stable) date jeu. 11 mai 2017 22:37:16 CEST*
%MOMM*%
G01*
G04 APERTURE LIST*
%ADD10C,0.100000*%
%ADD11C,0.101600*%
%ADD12C,0.152400*%
%ADD13C,0.127000*%
%ADD14C,0.150000*%
%ADD15C,0.203200*%
%ADD16C,0.027940*%
%ADD17C,0.124460*%
G04 APERTURE END LIST*
D10*
D11*
X126305128Y-78079600D02*
X126232557Y-78043314D01*
X126123700Y-78043314D01*
X126014843Y-78079600D01*
X125942271Y-78152171D01*
X125905986Y-78224743D01*
X125869700Y-78369886D01*
X125869700Y-78478743D01*
X125905986Y-78623886D01*
X125942271Y-78696457D01*
X126014843Y-78769029D01*
X126123700Y-78805314D01*
X126196271Y-78805314D01*
X126305128Y-78769029D01*
X126341414Y-78732743D01*
X126341414Y-78478743D01*
X126196271Y-78478743D01*
X126667986Y-78805314D02*
X126667986Y-78043314D01*
X127103414Y-78805314D01*
X127103414Y-78043314D01*
X127466272Y-78805314D02*
X127466272Y-78043314D01*
X127647700Y-78043314D01*
X127756557Y-78079600D01*
X127829129Y-78152171D01*
X127865414Y-78224743D01*
X127901700Y-78369886D01*
X127901700Y-78478743D01*
X127865414Y-78623886D01*
X127829129Y-78696457D01*
X127756557Y-78769029D01*
X127647700Y-78805314D01*
X127466272Y-78805314D01*
D12*
X128450000Y-79000000D02*
X138610000Y-79000000D01*
D11*
X131371000Y-78708429D02*
X131479857Y-78744714D01*
X131661286Y-78744714D01*
X131733857Y-78708429D01*
X131770143Y-78672143D01*
X131806428Y-78599571D01*
X131806428Y-78527000D01*
X131770143Y-78454429D01*
X131733857Y-78418143D01*
X131661286Y-78381857D01*
X131516143Y-78345571D01*
X131443571Y-78309286D01*
X131407286Y-78273000D01*
X131371000Y-78200429D01*
X131371000Y-78127857D01*
X131407286Y-78055286D01*
X131443571Y-78019000D01*
X131516143Y-77982714D01*
X131697571Y-77982714D01*
X131806428Y-78019000D01*
X132133000Y-78345571D02*
X132387000Y-78345571D01*
X132495857Y-78744714D02*
X132133000Y-78744714D01*
X132133000Y-77982714D01*
X132495857Y-77982714D01*
X133257857Y-78744714D02*
X133003857Y-78381857D01*
X132822429Y-78744714D02*
X132822429Y-77982714D01*
X133112714Y-77982714D01*
X133185286Y-78019000D01*
X133221571Y-78055286D01*
X133257857Y-78127857D01*
X133257857Y-78236714D01*
X133221571Y-78309286D01*
X133185286Y-78345571D01*
X133112714Y-78381857D01*
X132822429Y-78381857D01*
X134019857Y-78672143D02*
X133983571Y-78708429D01*
X133874714Y-78744714D01*
X133802143Y-78744714D01*
X133693286Y-78708429D01*
X133620714Y-78635857D01*
X133584429Y-78563286D01*
X133548143Y-78418143D01*
X133548143Y-78309286D01*
X133584429Y-78164143D01*
X133620714Y-78091571D01*
X133693286Y-78019000D01*
X133802143Y-77982714D01*
X133874714Y-77982714D01*
X133983571Y-78019000D01*
X134019857Y-78055286D01*
X134491571Y-77982714D02*
X134636714Y-77982714D01*
X134709286Y-78019000D01*
X134781857Y-78091571D01*
X134818143Y-78236714D01*
X134818143Y-78490714D01*
X134781857Y-78635857D01*
X134709286Y-78708429D01*
X134636714Y-78744714D01*
X134491571Y-78744714D01*
X134419000Y-78708429D01*
X134346429Y-78635857D01*
X134310143Y-78490714D01*
X134310143Y-78236714D01*
X134346429Y-78091571D01*
X134419000Y-78019000D01*
X134491571Y-77982714D01*
X135144715Y-78744714D02*
X135144715Y-77982714D01*
X135398715Y-78527000D01*
X135652715Y-77982714D01*
X135652715Y-78744714D01*
D12*
X138610000Y-75000000D02*
X138610000Y-79000000D01*
X128450000Y-75000000D02*
X128450000Y-79000000D01*
D13*
X132080000Y-89725500D02*
X131064000Y-89725500D01*
X131064000Y-89725500D02*
X131064000Y-88201500D01*
X131064000Y-88201500D02*
X132080000Y-88201500D01*
X133096000Y-88201500D02*
X134112000Y-88201500D01*
X134112000Y-88201500D02*
X134112000Y-89725500D01*
X134112000Y-89725500D02*
X133096000Y-89725500D01*
X134112000Y-91694000D02*
X134112000Y-90678000D01*
X134112000Y-90678000D02*
X135636000Y-90678000D01*
X135636000Y-90678000D02*
X135636000Y-91694000D01*
X135636000Y-92710000D02*
X135636000Y-93726000D01*
X135636000Y-93726000D02*
X134112000Y-93726000D01*
X134112000Y-93726000D02*
X134112000Y-92710000D01*
X133794500Y-92710000D02*
X133794500Y-93726000D01*
X133794500Y-93726000D02*
X132270500Y-93726000D01*
X132270500Y-93726000D02*
X132270500Y-92710000D01*
X132270500Y-91694000D02*
X132270500Y-90678000D01*
X132270500Y-90678000D02*
X133794500Y-90678000D01*
X133794500Y-90678000D02*
X133794500Y-91694000D01*
X131064000Y-91122500D02*
X131826000Y-91630500D01*
X129286000Y-91122500D02*
X131889500Y-91122500D01*
X131889500Y-91122500D02*
X131889500Y-92646500D01*
X131889500Y-92646500D02*
X129286000Y-92646500D01*
X129286000Y-92646500D02*
X129286000Y-91122500D01*
D14*
X141498609Y-87312500D02*
G75*
G03X141498609Y-87312500I-401609J0D01*
G01*
X134803000Y-88018500D02*
X134803000Y-87718500D01*
X134803000Y-88018500D02*
X135103000Y-88018500D01*
X134803000Y-81018500D02*
X135103000Y-81018500D01*
X134803000Y-81018500D02*
X134803000Y-81318500D01*
X141803000Y-81018500D02*
X141803000Y-81318500D01*
X141803000Y-81018500D02*
X141503000Y-81018500D01*
X141803000Y-88018500D02*
X141803000Y-87718500D01*
X141803000Y-88018500D02*
X141503000Y-88018500D01*
D13*
X139001500Y-90932000D02*
X136715500Y-90932000D01*
X136715500Y-90932000D02*
X136715500Y-89662000D01*
X136715500Y-89662000D02*
X139001500Y-89662000D01*
X139001500Y-89662000D02*
X139001500Y-90932000D01*
X140144500Y-91376500D02*
X140144500Y-93662500D01*
X140144500Y-93662500D02*
X138874500Y-93662500D01*
X138874500Y-93662500D02*
X138874500Y-91376500D01*
X138874500Y-91376500D02*
X140144500Y-91376500D01*
X143192500Y-91376500D02*
X143192500Y-93662500D01*
X143192500Y-93662500D02*
X141922500Y-93662500D01*
X141922500Y-93662500D02*
X141922500Y-91376500D01*
X141922500Y-91376500D02*
X143192500Y-91376500D01*
X141668500Y-91376500D02*
X141668500Y-93662500D01*
X141668500Y-93662500D02*
X140398500Y-93662500D01*
X140398500Y-93662500D02*
X140398500Y-91376500D01*
X140398500Y-91376500D02*
X141668500Y-91376500D01*
X141859000Y-78359000D02*
X144145000Y-78359000D01*
X144145000Y-78359000D02*
X144145000Y-79629000D01*
X144145000Y-79629000D02*
X141859000Y-79629000D01*
X141859000Y-79629000D02*
X141859000Y-78359000D01*
D15*
X160497520Y-81200000D02*
X157002480Y-81200000D01*
X157002480Y-87800000D02*
X160497520Y-87800000D01*
D13*
X157124400Y-80848200D02*
X157124400Y-78562200D01*
X157124400Y-78562200D02*
X158394400Y-78562200D01*
X158394400Y-78562200D02*
X158394400Y-80848200D01*
X158394400Y-80848200D02*
X157124400Y-80848200D01*
X157607000Y-88290400D02*
X159893000Y-88290400D01*
X159893000Y-88290400D02*
X159893000Y-89560400D01*
X159893000Y-89560400D02*
X157607000Y-89560400D01*
X157607000Y-89560400D02*
X157607000Y-88290400D01*
X159105600Y-80848200D02*
X159105600Y-78562200D01*
X159105600Y-78562200D02*
X160375600Y-78562200D01*
X160375600Y-78562200D02*
X160375600Y-80848200D01*
X160375600Y-80848200D02*
X159105600Y-80848200D01*
X145592800Y-88671400D02*
X145592800Y-90957400D01*
X145592800Y-90957400D02*
X144322800Y-90957400D01*
X144322800Y-90957400D02*
X144322800Y-88671400D01*
X144322800Y-88671400D02*
X145592800Y-88671400D01*
X154584400Y-93091000D02*
X153568400Y-93091000D01*
X153568400Y-93091000D02*
X153568400Y-91567000D01*
X153568400Y-91567000D02*
X154584400Y-91567000D01*
X155600400Y-91567000D02*
X156616400Y-91567000D01*
X156616400Y-91567000D02*
X156616400Y-93091000D01*
X156616400Y-93091000D02*
X155600400Y-93091000D01*
X151892000Y-90957400D02*
X151892000Y-88671400D01*
X151892000Y-88671400D02*
X153162000Y-88671400D01*
X153162000Y-88671400D02*
X153162000Y-90957400D01*
X153162000Y-90957400D02*
X151892000Y-90957400D01*
D16*
X163167060Y-88869520D02*
X163421060Y-88869520D01*
X163014660Y-88894920D02*
X163649660Y-88894920D01*
X163014660Y-88920320D02*
X163649660Y-88920320D01*
X162989260Y-88945720D02*
X163675060Y-88945720D01*
X162989260Y-88971120D02*
X163675060Y-88971120D01*
X162989260Y-88996520D02*
X163675060Y-88996520D01*
X162989260Y-89021920D02*
X163675060Y-89021920D01*
X162989260Y-89047320D02*
X163675060Y-89047320D01*
X162989260Y-89072720D02*
X163675060Y-89072720D01*
X162963860Y-89098120D02*
X163700460Y-89098120D01*
X162963860Y-89123520D02*
X163700460Y-89123520D01*
X162963860Y-89148920D02*
X163700460Y-89148920D01*
X162963860Y-89174320D02*
X163700460Y-89174320D01*
X162963860Y-89199720D02*
X163700460Y-89199720D01*
X162938460Y-89225120D02*
X163700460Y-89225120D01*
X162938460Y-89250520D02*
X163725860Y-89250520D01*
X162938460Y-89275920D02*
X163725860Y-89275920D01*
X162938460Y-89301320D02*
X163725860Y-89301320D01*
X162938460Y-89326720D02*
X163725860Y-89326720D01*
X161897060Y-89352120D02*
X161973260Y-89352120D01*
X162938460Y-89352120D02*
X163725860Y-89352120D01*
X164665660Y-89352120D02*
X164767260Y-89352120D01*
X161871660Y-89377520D02*
X161998660Y-89377520D01*
X162913060Y-89377520D02*
X163725860Y-89377520D01*
X164614860Y-89377520D02*
X164792660Y-89377520D01*
X161846260Y-89402920D02*
X162049460Y-89402920D01*
X162913060Y-89402920D02*
X163725860Y-89402920D01*
X164589460Y-89402920D02*
X164818060Y-89402920D01*
X161795460Y-89428320D02*
X162074860Y-89428320D01*
X162913060Y-89428320D02*
X163751260Y-89428320D01*
X164538660Y-89428320D02*
X164868860Y-89428320D01*
X161770060Y-89453720D02*
X162125660Y-89453720D01*
X162913060Y-89453720D02*
X163751260Y-89453720D01*
X164513260Y-89453720D02*
X164894260Y-89453720D01*
X161744660Y-89479120D02*
X162151060Y-89479120D01*
X162913060Y-89479120D02*
X163751260Y-89479120D01*
X164462460Y-89479120D02*
X164919660Y-89479120D01*
X161719260Y-89504520D02*
X162176460Y-89504520D01*
X162887660Y-89504520D02*
X163751260Y-89504520D01*
X164437060Y-89504520D02*
X164945060Y-89504520D01*
X161693860Y-89529920D02*
X162227260Y-89529920D01*
X162811460Y-89529920D02*
X163852860Y-89529920D01*
X164386260Y-89529920D02*
X164970460Y-89529920D01*
X161668460Y-89555320D02*
X162252660Y-89555320D01*
X162735260Y-89555320D02*
X163929060Y-89555320D01*
X164360860Y-89555320D02*
X164995860Y-89555320D01*
X161643060Y-89580720D02*
X162303460Y-89580720D01*
X162659060Y-89580720D02*
X163979860Y-89580720D01*
X164310060Y-89580720D02*
X165021260Y-89580720D01*
X161617660Y-89606120D02*
X162328860Y-89606120D01*
X162608260Y-89606120D02*
X164056060Y-89606120D01*
X164284660Y-89606120D02*
X165046660Y-89606120D01*
X161592260Y-89631520D02*
X162354260Y-89631520D01*
X162557460Y-89631520D02*
X164106860Y-89631520D01*
X164259260Y-89631520D02*
X165072060Y-89631520D01*
X161566860Y-89656920D02*
X162405060Y-89656920D01*
X162506660Y-89656920D02*
X164157660Y-89656920D01*
X164208460Y-89656920D02*
X165097460Y-89656920D01*
X161541460Y-89682320D02*
X162430460Y-89682320D01*
X162455860Y-89682320D02*
X165122860Y-89682320D01*
X161516060Y-89707720D02*
X165122860Y-89707720D01*
X161516060Y-89733120D02*
X165148260Y-89733120D01*
X161490660Y-89758520D02*
X165148260Y-89758520D01*
X161490660Y-89783920D02*
X165148260Y-89783920D01*
X161516060Y-89809320D02*
X165148260Y-89809320D01*
X161516060Y-89834720D02*
X165122860Y-89834720D01*
X161541460Y-89860120D02*
X165122860Y-89860120D01*
X161566860Y-89885520D02*
X165097460Y-89885520D01*
X161566860Y-89910920D02*
X165072060Y-89910920D01*
X161592260Y-89936320D02*
X165046660Y-89936320D01*
X161617660Y-89961720D02*
X165046660Y-89961720D01*
X161643060Y-89987120D02*
X165021260Y-89987120D01*
X161643060Y-90012520D02*
X164995860Y-90012520D01*
X161668460Y-90037920D02*
X164995860Y-90037920D01*
X161693860Y-90063320D02*
X164970460Y-90063320D01*
X161693860Y-90088720D02*
X164945060Y-90088720D01*
X161719260Y-90114120D02*
X164919660Y-90114120D01*
X161744660Y-90139520D02*
X164919660Y-90139520D01*
X161744660Y-90164920D02*
X164894260Y-90164920D01*
X161770060Y-90190320D02*
X164868860Y-90190320D01*
X161795460Y-90215720D02*
X164843460Y-90215720D01*
X161795460Y-90241120D02*
X164843460Y-90241120D01*
X161820860Y-90266520D02*
X164818060Y-90266520D01*
X161820860Y-90291920D02*
X164818060Y-90291920D01*
X161820860Y-90317320D02*
X164843460Y-90317320D01*
X161795460Y-90342720D02*
X164868860Y-90342720D01*
X161795460Y-90368120D02*
X164868860Y-90368120D01*
X161770060Y-90393520D02*
X164894260Y-90393520D01*
X161770060Y-90418920D02*
X164894260Y-90418920D01*
X161744660Y-90444320D02*
X164919660Y-90444320D01*
X161744660Y-90469720D02*
X164919660Y-90469720D01*
X161719260Y-90495120D02*
X164945060Y-90495120D01*
X161719260Y-90520520D02*
X164945060Y-90520520D01*
X161693860Y-90545920D02*
X164945060Y-90545920D01*
X161693860Y-90571320D02*
X163217860Y-90571320D01*
X163446460Y-90571320D02*
X164970460Y-90571320D01*
X161693860Y-90596720D02*
X163141660Y-90596720D01*
X163522660Y-90596720D02*
X164970460Y-90596720D01*
X161668460Y-90622120D02*
X163065460Y-90622120D01*
X163598860Y-90622120D02*
X164995860Y-90622120D01*
X161668460Y-90647520D02*
X163014660Y-90647520D01*
X163649660Y-90647520D02*
X164995860Y-90647520D01*
X161668460Y-90672920D02*
X162989260Y-90672920D01*
X163675060Y-90672920D02*
X164995860Y-90672920D01*
X161643060Y-90698320D02*
X162938460Y-90698320D01*
X163725860Y-90698320D02*
X165021260Y-90698320D01*
X161643060Y-90723720D02*
X162913060Y-90723720D01*
X163751260Y-90723720D02*
X165097460Y-90723720D01*
X161643060Y-90749120D02*
X162887660Y-90749120D01*
X163776660Y-90749120D02*
X165249860Y-90749120D01*
X161617660Y-90774520D02*
X162862260Y-90774520D01*
X163802060Y-90774520D02*
X165376860Y-90774520D01*
X161465260Y-90799920D02*
X162836860Y-90799920D01*
X163827460Y-90799920D02*
X165529260Y-90799920D01*
X161312860Y-90825320D02*
X162836860Y-90825320D01*
X163827460Y-90825320D02*
X165630860Y-90825320D01*
X161160460Y-90850720D02*
X162811460Y-90850720D01*
X163852860Y-90850720D02*
X165630860Y-90850720D01*
X161033460Y-90876120D02*
X162786060Y-90876120D01*
X163878260Y-90876120D02*
X165656260Y-90876120D01*
X161008060Y-90901520D02*
X162786060Y-90901520D01*
X163878260Y-90901520D02*
X165656260Y-90901520D01*
X161008060Y-90926920D02*
X162760660Y-90926920D01*
X163903660Y-90926920D02*
X165656260Y-90926920D01*
X161008060Y-90952320D02*
X162760660Y-90952320D01*
X163903660Y-90952320D02*
X165656260Y-90952320D01*
X161008060Y-90977720D02*
X162735260Y-90977720D01*
X163929060Y-90977720D02*
X165656260Y-90977720D01*
X161008060Y-91003120D02*
X162735260Y-91003120D01*
X163929060Y-91003120D02*
X165656260Y-91003120D01*
X161008060Y-91028520D02*
X162735260Y-91028520D01*
X163929060Y-91028520D02*
X165656260Y-91028520D01*
X161008060Y-91053920D02*
X162735260Y-91053920D01*
X163954460Y-91053920D02*
X165656260Y-91053920D01*
X161008060Y-91079320D02*
X162709860Y-91079320D01*
X163954460Y-91079320D02*
X165656260Y-91079320D01*
X161008060Y-91104720D02*
X162709860Y-91104720D01*
X163954460Y-91104720D02*
X165681660Y-91104720D01*
X160982660Y-91130120D02*
X162709860Y-91130120D01*
X163954460Y-91130120D02*
X165681660Y-91130120D01*
X160982660Y-91155520D02*
X162709860Y-91155520D01*
X163954460Y-91155520D02*
X165681660Y-91155520D01*
X160982660Y-91180920D02*
X162709860Y-91180920D01*
X163954460Y-91180920D02*
X165681660Y-91180920D01*
X160982660Y-91206320D02*
X162709860Y-91206320D01*
X163954460Y-91206320D02*
X165681660Y-91206320D01*
X160982660Y-91231720D02*
X162709860Y-91231720D01*
X163954460Y-91231720D02*
X165681660Y-91231720D01*
X160982660Y-91257120D02*
X162709860Y-91257120D01*
X163954460Y-91257120D02*
X165681660Y-91257120D01*
X160982660Y-91282520D02*
X162709860Y-91282520D01*
X163954460Y-91282520D02*
X165681660Y-91282520D01*
X160982660Y-91307920D02*
X162709860Y-91307920D01*
X163954460Y-91307920D02*
X165681660Y-91307920D01*
X160982660Y-91333320D02*
X162735260Y-91333320D01*
X163954460Y-91333320D02*
X165681660Y-91333320D01*
X161008060Y-91358720D02*
X162735260Y-91358720D01*
X163929060Y-91358720D02*
X165681660Y-91358720D01*
X161008060Y-91384120D02*
X162735260Y-91384120D01*
X163929060Y-91384120D02*
X165656260Y-91384120D01*
X161008060Y-91409520D02*
X162760660Y-91409520D01*
X163929060Y-91409520D02*
X165656260Y-91409520D01*
X161008060Y-91434920D02*
X162760660Y-91434920D01*
X163903660Y-91434920D02*
X165656260Y-91434920D01*
X161008060Y-91460320D02*
X162760660Y-91460320D01*
X163903660Y-91460320D02*
X165630860Y-91460320D01*
X161008060Y-91485720D02*
X162786060Y-91485720D01*
X163878260Y-91485720D02*
X165478460Y-91485720D01*
X161109660Y-91511120D02*
X162811460Y-91511120D01*
X163878260Y-91511120D02*
X165326060Y-91511120D01*
X161236660Y-91536520D02*
X162811460Y-91536520D01*
X163852860Y-91536520D02*
X165148260Y-91536520D01*
X161389060Y-91561920D02*
X162836860Y-91561920D01*
X163827460Y-91561920D02*
X165046660Y-91561920D01*
X161516060Y-91587320D02*
X162862260Y-91587320D01*
X163802060Y-91587320D02*
X165046660Y-91587320D01*
X161617660Y-91612720D02*
X162887660Y-91612720D01*
X163802060Y-91612720D02*
X165046660Y-91612720D01*
X161643060Y-91638120D02*
X162887660Y-91638120D01*
X163776660Y-91638120D02*
X165021260Y-91638120D01*
X161643060Y-91663520D02*
X162938460Y-91663520D01*
X163725860Y-91663520D02*
X165021260Y-91663520D01*
X161643060Y-91688920D02*
X162963860Y-91688920D01*
X163700460Y-91688920D02*
X165021260Y-91688920D01*
X161643060Y-91714320D02*
X162989260Y-91714320D01*
X163675060Y-91714320D02*
X165021260Y-91714320D01*
X161668460Y-91739720D02*
X163040060Y-91739720D01*
X163624260Y-91739720D02*
X164995860Y-91739720D01*
X161668460Y-91765120D02*
X163090860Y-91765120D01*
X163573460Y-91765120D02*
X164995860Y-91765120D01*
X161668460Y-91790520D02*
X163116260Y-91790520D01*
X163573460Y-91790520D02*
X164995860Y-91790520D01*
X161693860Y-91815920D02*
X163116260Y-91815920D01*
X163573460Y-91815920D02*
X164970460Y-91815920D01*
X161693860Y-91841320D02*
X163116260Y-91841320D01*
X163573460Y-91841320D02*
X164970460Y-91841320D01*
X161693860Y-91866720D02*
X163090860Y-91866720D01*
X163598860Y-91866720D02*
X164945060Y-91866720D01*
X161719260Y-91892120D02*
X163090860Y-91892120D01*
X163598860Y-91892120D02*
X164945060Y-91892120D01*
X161719260Y-91917520D02*
X163090860Y-91917520D01*
X163598860Y-91917520D02*
X164945060Y-91917520D01*
X161744660Y-91942920D02*
X163065460Y-91942920D01*
X163624260Y-91942920D02*
X164919660Y-91942920D01*
X161744660Y-91968320D02*
X163065460Y-91968320D01*
X163624260Y-91968320D02*
X164919660Y-91968320D01*
X161770060Y-91993720D02*
X163040060Y-91993720D01*
X163649660Y-91993720D02*
X164894260Y-91993720D01*
X161770060Y-92019120D02*
X163040060Y-92019120D01*
X163649660Y-92019120D02*
X164894260Y-92019120D01*
X161795460Y-92044520D02*
X163040060Y-92044520D01*
X163649660Y-92044520D02*
X164868860Y-92044520D01*
X161795460Y-92069920D02*
X163014660Y-92069920D01*
X163675060Y-92069920D02*
X164894260Y-92069920D01*
X161820860Y-92095320D02*
X163014660Y-92095320D01*
X163675060Y-92095320D02*
X164894260Y-92095320D01*
X161820860Y-92120720D02*
X163014660Y-92120720D01*
X163700460Y-92120720D02*
X164919660Y-92120720D01*
X161820860Y-92146120D02*
X162989260Y-92146120D01*
X163700460Y-92146120D02*
X164945060Y-92146120D01*
X161820860Y-92171520D02*
X162989260Y-92171520D01*
X163700460Y-92171520D02*
X164970460Y-92171520D01*
X161795460Y-92196920D02*
X162989260Y-92196920D01*
X163725860Y-92196920D02*
X164970460Y-92196920D01*
X161770060Y-92222320D02*
X162963860Y-92222320D01*
X163725860Y-92222320D02*
X164995860Y-92222320D01*
X161744660Y-92247720D02*
X162963860Y-92247720D01*
X163725860Y-92247720D02*
X165021260Y-92247720D01*
X161744660Y-92273120D02*
X162963860Y-92273120D01*
X163751260Y-92273120D02*
X165021260Y-92273120D01*
X161719260Y-92298520D02*
X162938460Y-92298520D01*
X163751260Y-92298520D02*
X165046660Y-92298520D01*
X161693860Y-92323920D02*
X162938460Y-92323920D01*
X163776660Y-92323920D02*
X165072060Y-92323920D01*
X161668460Y-92349320D02*
X162938460Y-92349320D01*
X163776660Y-92349320D02*
X165072060Y-92349320D01*
X161668460Y-92374720D02*
X162913060Y-92374720D01*
X163776660Y-92374720D02*
X165097460Y-92374720D01*
X161643060Y-92400120D02*
X162913060Y-92400120D01*
X163802060Y-92400120D02*
X165122860Y-92400120D01*
X161617660Y-92425520D02*
X162887660Y-92425520D01*
X163802060Y-92425520D02*
X165122860Y-92425520D01*
X161617660Y-92450920D02*
X162887660Y-92450920D01*
X163827460Y-92450920D02*
X165148260Y-92450920D01*
X161592260Y-92476320D02*
X162887660Y-92476320D01*
X163827460Y-92476320D02*
X165173660Y-92476320D01*
X161566860Y-92501720D02*
X162862260Y-92501720D01*
X163827460Y-92501720D02*
X165199060Y-92501720D01*
X161541460Y-92527120D02*
X162862260Y-92527120D01*
X163852860Y-92527120D02*
X165199060Y-92527120D01*
X161541460Y-92552520D02*
X162862260Y-92552520D01*
X163852860Y-92552520D02*
X165224460Y-92552520D01*
X161516060Y-92577920D02*
X162836860Y-92577920D01*
X163878260Y-92577920D02*
X165224460Y-92577920D01*
X161490660Y-92603320D02*
X162836860Y-92603320D01*
X163878260Y-92603320D02*
X165224460Y-92603320D01*
X161490660Y-92628720D02*
X162836860Y-92628720D01*
X163878260Y-92628720D02*
X165199060Y-92628720D01*
X161490660Y-92654120D02*
X162811460Y-92654120D01*
X163903660Y-92654120D02*
X165173660Y-92654120D01*
X161490660Y-92679520D02*
X162811460Y-92679520D01*
X163903660Y-92679520D02*
X165148260Y-92679520D01*
X161516060Y-92704920D02*
X162811460Y-92704920D01*
X163903660Y-92704920D02*
X165122860Y-92704920D01*
X161541460Y-92730320D02*
X162786060Y-92730320D01*
X163929060Y-92730320D02*
X165122860Y-92730320D01*
X161566860Y-92755720D02*
X162786060Y-92755720D01*
X163929060Y-92755720D02*
X164284660Y-92755720D01*
X164335460Y-92755720D02*
X165097460Y-92755720D01*
X161592260Y-92781120D02*
X162786060Y-92781120D01*
X163954460Y-92781120D02*
X164208460Y-92781120D01*
X164411660Y-92781120D02*
X165072060Y-92781120D01*
X161617660Y-92806520D02*
X162379660Y-92806520D01*
X162506660Y-92806520D02*
X162760660Y-92806520D01*
X163954460Y-92806520D02*
X164157660Y-92806520D01*
X164437060Y-92806520D02*
X165046660Y-92806520D01*
X161643060Y-92831920D02*
X162328860Y-92831920D01*
X162582860Y-92831920D02*
X162760660Y-92831920D01*
X163954460Y-92831920D02*
X164106860Y-92831920D01*
X164462460Y-92831920D02*
X165021260Y-92831920D01*
X161668460Y-92857320D02*
X162278060Y-92857320D01*
X162633660Y-92857320D02*
X162735260Y-92857320D01*
X163979860Y-92857320D02*
X164056060Y-92857320D01*
X164487860Y-92857320D02*
X165046660Y-92857320D01*
X161693860Y-92882720D02*
X162252660Y-92882720D01*
X162684460Y-92882720D02*
X162735260Y-92882720D01*
X163979860Y-92882720D02*
X164005260Y-92882720D01*
X164487860Y-92882720D02*
X165046660Y-92882720D01*
X161719260Y-92908120D02*
X162201860Y-92908120D01*
X164538660Y-92908120D02*
X165046660Y-92908120D01*
X161744660Y-92933520D02*
X162176460Y-92933520D01*
X164564060Y-92933520D02*
X165046660Y-92933520D01*
X161744660Y-92958920D02*
X162125660Y-92958920D01*
X164589460Y-92958920D02*
X165046660Y-92958920D01*
X161744660Y-92984320D02*
X162100260Y-92984320D01*
X164640260Y-92984320D02*
X165046660Y-92984320D01*
X161744660Y-93009720D02*
X162074860Y-93009720D01*
X164691060Y-93009720D02*
X165021260Y-93009720D01*
X161770060Y-93035120D02*
X162049460Y-93035120D01*
X164741860Y-93035120D02*
X165021260Y-93035120D01*
X161770060Y-93060520D02*
X162024060Y-93060520D01*
X164767260Y-93060520D02*
X164995860Y-93060520D01*
X161795460Y-93085920D02*
X162024060Y-93085920D01*
X164792660Y-93085920D02*
X164995860Y-93085920D01*
X161820860Y-93111320D02*
X161998660Y-93111320D01*
X164818060Y-93111320D02*
X164970460Y-93111320D01*
X161846260Y-93136720D02*
X161998660Y-93136720D01*
X164843460Y-93136720D02*
X164945060Y-93136720D01*
X161871660Y-93162120D02*
X161973260Y-93162120D01*
X164868860Y-93162120D02*
X164919660Y-93162120D01*
X161897060Y-93187520D02*
X161973260Y-93187520D01*
X149524720Y-87462360D02*
X149524720Y-85811360D01*
X149550120Y-87487760D02*
X149550120Y-85811360D01*
X149575520Y-87513160D02*
X149575520Y-85811360D01*
X149600920Y-87538560D02*
X149600920Y-85811360D01*
X149626320Y-87563960D02*
X149626320Y-85811360D01*
X149651720Y-87589360D02*
X149651720Y-85811360D01*
X149677120Y-87614760D02*
X149677120Y-85811360D01*
X149677120Y-84084160D02*
X149677120Y-84058760D01*
X149702520Y-87640160D02*
X149702520Y-87335360D01*
X149702520Y-84109560D02*
X149702520Y-84033360D01*
X149727920Y-87665560D02*
X149727920Y-87360760D01*
X149727920Y-84109560D02*
X149727920Y-84033360D01*
X149753320Y-87690960D02*
X149753320Y-87386160D01*
X149753320Y-84134960D02*
X149753320Y-84007960D01*
X149778720Y-87716360D02*
X149778720Y-87411560D01*
X149778720Y-87335360D02*
X149778720Y-85658960D01*
X149778720Y-84134960D02*
X149778720Y-84007960D01*
X149804120Y-87741760D02*
X149804120Y-87436960D01*
X149804120Y-87360760D02*
X149804120Y-85658960D01*
X149804120Y-84160360D02*
X149804120Y-83982560D01*
X149829520Y-87767160D02*
X149829520Y-87462360D01*
X149829520Y-87386160D02*
X149829520Y-85709760D01*
X149829520Y-85684360D02*
X149829520Y-85658960D01*
X149829520Y-84160360D02*
X149829520Y-83982560D01*
X149854920Y-87792560D02*
X149854920Y-87487760D01*
X149854920Y-87411560D02*
X149854920Y-85735160D01*
X149854920Y-85684360D02*
X149854920Y-85658960D01*
X149854920Y-84185760D02*
X149854920Y-83957160D01*
X149880320Y-87817960D02*
X149880320Y-87513160D01*
X149880320Y-87436960D02*
X149880320Y-85760560D01*
X149880320Y-85684360D02*
X149880320Y-85658960D01*
X149880320Y-84185760D02*
X149880320Y-83957160D01*
X149905720Y-87843360D02*
X149905720Y-87538560D01*
X149905720Y-87462360D02*
X149905720Y-85785960D01*
X149905720Y-85684360D02*
X149905720Y-85658960D01*
X149905720Y-84211160D02*
X149905720Y-83931760D01*
X149931120Y-87868760D02*
X149931120Y-87563960D01*
X149931120Y-87487760D02*
X149931120Y-85811360D01*
X149931120Y-85684360D02*
X149931120Y-85658960D01*
X149931120Y-84211160D02*
X149931120Y-83931760D01*
X149956520Y-87894160D02*
X149956520Y-87589360D01*
X149956520Y-87513160D02*
X149956520Y-85836760D01*
X149956520Y-85684360D02*
X149956520Y-85658960D01*
X149956520Y-84236560D02*
X149956520Y-83906360D01*
X149981920Y-87919560D02*
X149981920Y-87614760D01*
X149981920Y-87538560D02*
X149981920Y-85862160D01*
X149981920Y-85684360D02*
X149981920Y-85658960D01*
X149981920Y-84236560D02*
X149981920Y-83906360D01*
X150007320Y-87944960D02*
X150007320Y-87640160D01*
X150007320Y-87563960D02*
X150007320Y-85887560D01*
X150007320Y-85735160D02*
X150007320Y-85658960D01*
X150007320Y-84261960D02*
X150007320Y-83880960D01*
X150032720Y-87970360D02*
X150032720Y-87665560D01*
X150032720Y-87589360D02*
X150032720Y-85912960D01*
X150032720Y-85735160D02*
X150032720Y-85658960D01*
X150032720Y-84261960D02*
X150032720Y-83880960D01*
X150058120Y-87970360D02*
X150058120Y-87665560D01*
X150058120Y-87614760D02*
X150058120Y-85938360D01*
X150058120Y-85785960D02*
X150058120Y-85658960D01*
X150058120Y-84287360D02*
X150058120Y-83855560D01*
X150083520Y-87970360D02*
X150083520Y-87690960D01*
X150083520Y-87640160D02*
X150083520Y-85963760D01*
X150083520Y-85811360D02*
X150083520Y-85658960D01*
X150083520Y-84287360D02*
X150083520Y-83855560D01*
X150083520Y-81696560D02*
X150083520Y-81442560D01*
X150083520Y-81264760D02*
X150083520Y-81010760D01*
X150083520Y-79994760D02*
X150083520Y-79715360D01*
X150083520Y-78699360D02*
X150083520Y-78242160D01*
X150083520Y-77683360D02*
X150083520Y-77429360D01*
X150083520Y-76895960D02*
X150083520Y-76540360D01*
X150108920Y-87970360D02*
X150108920Y-87741760D01*
X150108920Y-87665560D02*
X150108920Y-85989160D01*
X150108920Y-85836760D02*
X150108920Y-85658960D01*
X150108920Y-84312760D02*
X150108920Y-83830160D01*
X150108920Y-82763360D02*
X150108920Y-82331560D01*
X150108920Y-81696560D02*
X150108920Y-81442560D01*
X150108920Y-81264760D02*
X150108920Y-81010760D01*
X150108920Y-80020160D02*
X150108920Y-79715360D01*
X150108920Y-78775560D02*
X150108920Y-78140560D01*
X150108920Y-77683360D02*
X150108920Y-77429360D01*
X150108920Y-76921360D02*
X150108920Y-76565760D01*
X150134320Y-87970360D02*
X150134320Y-87741760D01*
X150134320Y-87690960D02*
X150134320Y-86014560D01*
X150134320Y-85862160D02*
X150134320Y-85658960D01*
X150134320Y-84312760D02*
X150134320Y-83830160D01*
X150134320Y-82864960D02*
X150134320Y-82255360D01*
X150134320Y-81696560D02*
X150134320Y-81442560D01*
X150134320Y-81264760D02*
X150134320Y-81010760D01*
X150134320Y-80020160D02*
X150134320Y-79689960D01*
X150134320Y-78826360D02*
X150134320Y-78089760D01*
X150134320Y-77683360D02*
X150134320Y-77429360D01*
X150134320Y-76946760D02*
X150134320Y-76591160D01*
X150159720Y-87970360D02*
X150159720Y-87767160D01*
X150159720Y-87716360D02*
X150159720Y-86039960D01*
X150159720Y-85887560D02*
X150159720Y-85658960D01*
X150159720Y-84338160D02*
X150159720Y-83804760D01*
X150159720Y-82915760D02*
X150159720Y-82179160D01*
X150159720Y-81696560D02*
X150159720Y-81442560D01*
X150159720Y-81264760D02*
X150159720Y-81010760D01*
X150159720Y-80020160D02*
X150159720Y-79689960D01*
X150159720Y-78877160D02*
X150159720Y-78038960D01*
X150159720Y-77683360D02*
X150159720Y-77429360D01*
X150159720Y-76972160D02*
X150159720Y-76616560D01*
X150185120Y-87970360D02*
X150185120Y-87792560D01*
X150185120Y-87716360D02*
X150185120Y-86065360D01*
X150185120Y-85912960D02*
X150185120Y-85709760D01*
X150185120Y-85684360D02*
X150185120Y-85658960D01*
X150185120Y-84338160D02*
X150185120Y-83804760D01*
X150185120Y-82966560D02*
X150185120Y-82128360D01*
X150185120Y-81696560D02*
X150185120Y-81442560D01*
X150185120Y-81264760D02*
X150185120Y-81010760D01*
X150185120Y-80045560D02*
X150185120Y-79689960D01*
X150185120Y-78927960D02*
X150185120Y-78038960D01*
X150185120Y-77683360D02*
X150185120Y-77429360D01*
X150185120Y-76997560D02*
X150185120Y-76641960D01*
X150210520Y-87970360D02*
X150210520Y-87792560D01*
X150210520Y-87716360D02*
X150210520Y-86090760D01*
X150210520Y-85938360D02*
X150210520Y-85735160D01*
X150210520Y-85684360D02*
X150210520Y-85658960D01*
X150210520Y-84363560D02*
X150210520Y-83779360D01*
X150210520Y-82991960D02*
X150210520Y-82077560D01*
X150210520Y-81696560D02*
X150210520Y-81442560D01*
X150210520Y-81264760D02*
X150210520Y-81010760D01*
X150210520Y-80045560D02*
X150210520Y-79664560D01*
X150210520Y-78953360D02*
X150210520Y-78038960D01*
X150210520Y-77683360D02*
X150210520Y-77429360D01*
X150210520Y-77022960D02*
X150210520Y-76667360D01*
X150235920Y-87970360D02*
X150235920Y-87792560D01*
X150235920Y-87716360D02*
X150235920Y-86116160D01*
X150235920Y-85963760D02*
X150235920Y-85760560D01*
X150235920Y-85684360D02*
X150235920Y-85658960D01*
X150235920Y-84363560D02*
X150235920Y-83779360D01*
X150235920Y-83042760D02*
X150235920Y-82052160D01*
X150235920Y-81696560D02*
X150235920Y-81442560D01*
X150235920Y-81264760D02*
X150235920Y-81010760D01*
X150235920Y-80045560D02*
X150235920Y-79664560D01*
X150235920Y-79004160D02*
X150235920Y-78064360D01*
X150235920Y-77683360D02*
X150235920Y-77429360D01*
X150235920Y-77048360D02*
X150235920Y-76692760D01*
X150261320Y-87970360D02*
X150261320Y-87792560D01*
X150261320Y-87716360D02*
X150261320Y-86141560D01*
X150261320Y-85989160D02*
X150261320Y-85785960D01*
X150261320Y-85684360D02*
X150261320Y-85658960D01*
X150261320Y-84388960D02*
X150261320Y-83753960D01*
X150261320Y-83068160D02*
X150261320Y-82052160D01*
X150261320Y-81696560D02*
X150261320Y-81442560D01*
X150261320Y-81264760D02*
X150261320Y-81010760D01*
X150261320Y-80070960D02*
X150261320Y-79639160D01*
X150261320Y-79029560D02*
X150261320Y-78064360D01*
X150261320Y-77683360D02*
X150261320Y-77429360D01*
X150261320Y-77048360D02*
X150261320Y-76718160D01*
X150286720Y-87970360D02*
X150286720Y-87792560D01*
X150286720Y-87716360D02*
X150286720Y-86166960D01*
X150286720Y-86014560D02*
X150286720Y-85811360D01*
X150286720Y-85684360D02*
X150286720Y-85658960D01*
X150286720Y-84388960D02*
X150286720Y-83753960D01*
X150286720Y-83093560D02*
X150286720Y-82052160D01*
X150286720Y-81696560D02*
X150286720Y-81442560D01*
X150286720Y-81264760D02*
X150286720Y-81010760D01*
X150286720Y-80070960D02*
X150286720Y-79639160D01*
X150286720Y-79054960D02*
X150286720Y-78089760D01*
X150286720Y-77683360D02*
X150286720Y-77429360D01*
X150286720Y-77073760D02*
X150286720Y-76743560D01*
X150312120Y-87970360D02*
X150312120Y-87792560D01*
X150312120Y-87716360D02*
X150312120Y-86192360D01*
X150312120Y-86039960D02*
X150312120Y-85836760D01*
X150312120Y-85709760D02*
X150312120Y-85658960D01*
X150312120Y-84414360D02*
X150312120Y-83728560D01*
X150312120Y-83118960D02*
X150312120Y-82077560D01*
X150312120Y-81696560D02*
X150312120Y-81442560D01*
X150312120Y-81264760D02*
X150312120Y-81010760D01*
X150312120Y-80070960D02*
X150312120Y-79639160D01*
X150312120Y-79054960D02*
X150312120Y-78089760D01*
X150312120Y-77683360D02*
X150312120Y-77429360D01*
X150312120Y-77099160D02*
X150312120Y-76768960D01*
X150337520Y-87970360D02*
X150337520Y-87792560D01*
X150337520Y-87716360D02*
X150337520Y-86217760D01*
X150337520Y-86065360D02*
X150337520Y-85862160D01*
X150337520Y-85735160D02*
X150337520Y-85658960D01*
X150337520Y-84414360D02*
X150337520Y-83728560D01*
X150337520Y-83144360D02*
X150337520Y-82102960D01*
X150337520Y-81696560D02*
X150337520Y-81442560D01*
X150337520Y-81264760D02*
X150337520Y-81010760D01*
X150337520Y-80096360D02*
X150337520Y-79613760D01*
X150337520Y-79080360D02*
X150337520Y-78623160D01*
X150337520Y-78267560D02*
X150337520Y-78089760D01*
X150337520Y-77683360D02*
X150337520Y-77429360D01*
X150337520Y-77124560D02*
X150337520Y-76794360D01*
X150362920Y-87970360D02*
X150362920Y-87792560D01*
X150362920Y-87716360D02*
X150362920Y-86243160D01*
X150362920Y-86090760D02*
X150362920Y-85887560D01*
X150362920Y-85760560D02*
X150362920Y-85658960D01*
X150362920Y-84439760D02*
X150362920Y-84084160D01*
X150362920Y-84058760D02*
X150362920Y-83703160D01*
X150362920Y-83144360D02*
X150362920Y-82687160D01*
X150362920Y-82382360D02*
X150362920Y-82102960D01*
X150362920Y-81696560D02*
X150362920Y-81442560D01*
X150362920Y-81264760D02*
X150362920Y-81010760D01*
X150362920Y-80096360D02*
X150362920Y-79613760D01*
X150362920Y-79105760D02*
X150362920Y-78673960D01*
X150362920Y-78191360D02*
X150362920Y-78115160D01*
X150362920Y-77683360D02*
X150362920Y-77429360D01*
X150362920Y-77149960D02*
X150362920Y-76819760D01*
X150388320Y-87970360D02*
X150388320Y-87792560D01*
X150388320Y-87716360D02*
X150388320Y-86801960D01*
X150388320Y-86598760D02*
X150388320Y-86268560D01*
X150388320Y-86116160D02*
X150388320Y-85912960D01*
X150388320Y-85785960D02*
X150388320Y-85658960D01*
X150388320Y-84439760D02*
X150388320Y-84084160D01*
X150388320Y-84058760D02*
X150388320Y-83703160D01*
X150388320Y-83169760D02*
X150388320Y-82763360D01*
X150388320Y-82280760D02*
X150388320Y-82128360D01*
X150388320Y-81696560D02*
X150388320Y-81442560D01*
X150388320Y-81264760D02*
X150388320Y-81010760D01*
X150388320Y-80121760D02*
X150388320Y-79613760D01*
X150388320Y-79131160D02*
X150388320Y-78724760D01*
X150388320Y-77683360D02*
X150388320Y-77429360D01*
X150388320Y-77175360D02*
X150388320Y-76819760D01*
X150413720Y-87970360D02*
X150413720Y-87792560D01*
X150413720Y-87716360D02*
X150413720Y-86878160D01*
X150413720Y-86522560D02*
X150413720Y-86293960D01*
X150413720Y-86141560D02*
X150413720Y-85938360D01*
X150413720Y-85811360D02*
X150413720Y-85658960D01*
X150413720Y-84465160D02*
X150413720Y-84109560D01*
X150413720Y-84033360D02*
X150413720Y-83677760D01*
X150413720Y-83195160D02*
X150413720Y-82788760D01*
X150413720Y-82229960D02*
X150413720Y-82128360D01*
X150413720Y-81696560D02*
X150413720Y-81442560D01*
X150413720Y-81264760D02*
X150413720Y-81010760D01*
X150413720Y-80121760D02*
X150413720Y-79588360D01*
X150413720Y-79131160D02*
X150413720Y-78775560D01*
X150413720Y-77683360D02*
X150413720Y-77429360D01*
X150413720Y-77200760D02*
X150413720Y-76845160D01*
X150439120Y-87970360D02*
X150439120Y-87792560D01*
X150439120Y-87716360D02*
X150439120Y-86903560D01*
X150439120Y-86471760D02*
X150439120Y-86319360D01*
X150439120Y-86166960D02*
X150439120Y-85963760D01*
X150439120Y-85836760D02*
X150439120Y-85658960D01*
X150439120Y-84465160D02*
X150439120Y-84109560D01*
X150439120Y-84033360D02*
X150439120Y-83677760D01*
X150439120Y-83195160D02*
X150439120Y-82839560D01*
X150439120Y-82179160D02*
X150439120Y-82153760D01*
X150439120Y-81696560D02*
X150439120Y-81442560D01*
X150439120Y-81264760D02*
X150439120Y-81010760D01*
X150439120Y-80121760D02*
X150439120Y-79867760D01*
X150439120Y-79842360D02*
X150439120Y-79588360D01*
X150439120Y-79156560D02*
X150439120Y-78800960D01*
X150439120Y-77683360D02*
X150439120Y-77429360D01*
X150439120Y-77226160D02*
X150439120Y-76870560D01*
X150464520Y-87970360D02*
X150464520Y-87792560D01*
X150464520Y-87716360D02*
X150464520Y-86954360D01*
X150464520Y-86446360D02*
X150464520Y-86344760D01*
X150464520Y-86192360D02*
X150464520Y-85989160D01*
X150464520Y-85862160D02*
X150464520Y-85658960D01*
X150464520Y-84490560D02*
X150464520Y-84134960D01*
X150464520Y-84007960D02*
X150464520Y-83652360D01*
X150464520Y-83220560D02*
X150464520Y-82864960D01*
X150464520Y-81696560D02*
X150464520Y-81442560D01*
X150464520Y-81264760D02*
X150464520Y-81010760D01*
X150464520Y-80147160D02*
X150464520Y-79893160D01*
X150464520Y-79842360D02*
X150464520Y-79562960D01*
X150464520Y-79156560D02*
X150464520Y-78826360D01*
X150464520Y-77683360D02*
X150464520Y-77429360D01*
X150464520Y-77226160D02*
X150464520Y-76895960D01*
X150489920Y-87970360D02*
X150489920Y-87792560D01*
X150489920Y-87716360D02*
X150489920Y-86979760D01*
X150489920Y-86420960D02*
X150489920Y-86370160D01*
X150489920Y-86217760D02*
X150489920Y-86014560D01*
X150489920Y-85887560D02*
X150489920Y-85658960D01*
X150489920Y-84490560D02*
X150489920Y-84134960D01*
X150489920Y-84007960D02*
X150489920Y-83652360D01*
X150489920Y-83220560D02*
X150489920Y-82890360D01*
X150489920Y-81696560D02*
X150489920Y-81442560D01*
X150489920Y-81264760D02*
X150489920Y-81010760D01*
X150489920Y-80147160D02*
X150489920Y-79893160D01*
X150489920Y-79842360D02*
X150489920Y-79562960D01*
X150489920Y-79181960D02*
X150489920Y-78851760D01*
X150489920Y-77683360D02*
X150489920Y-77429360D01*
X150489920Y-77251560D02*
X150489920Y-76921360D01*
X150515320Y-87970360D02*
X150515320Y-87792560D01*
X150515320Y-87716360D02*
X150515320Y-87005160D01*
X150515320Y-86776560D02*
X150515320Y-86598760D01*
X150515320Y-86395560D02*
X150515320Y-86370160D01*
X150515320Y-86243160D02*
X150515320Y-86039960D01*
X150515320Y-85912960D02*
X150515320Y-85658960D01*
X150515320Y-84515960D02*
X150515320Y-84134960D01*
X150515320Y-83982560D02*
X150515320Y-83626960D01*
X150515320Y-83245960D02*
X150515320Y-82915760D01*
X150515320Y-81696560D02*
X150515320Y-81442560D01*
X150515320Y-81264760D02*
X150515320Y-81010760D01*
X150515320Y-80147160D02*
X150515320Y-79893160D01*
X150515320Y-79816960D02*
X150515320Y-79562960D01*
X150515320Y-79181960D02*
X150515320Y-78851760D01*
X150515320Y-77683360D02*
X150515320Y-77429360D01*
X150515320Y-77276960D02*
X150515320Y-76946760D01*
X150540720Y-87970360D02*
X150540720Y-87792560D01*
X150540720Y-87716360D02*
X150540720Y-87030560D01*
X150540720Y-86827360D02*
X150540720Y-86547960D01*
X150540720Y-86268560D02*
X150540720Y-86065360D01*
X150540720Y-85938360D02*
X150540720Y-85658960D01*
X150540720Y-84515960D02*
X150540720Y-84160360D01*
X150540720Y-83982560D02*
X150540720Y-83626960D01*
X150540720Y-83245960D02*
X150540720Y-82941160D01*
X150540720Y-81696560D02*
X150540720Y-81442560D01*
X150540720Y-81264760D02*
X150540720Y-81010760D01*
X150540720Y-80172560D02*
X150540720Y-79918560D01*
X150540720Y-79816960D02*
X150540720Y-79537560D01*
X150540720Y-79181960D02*
X150540720Y-78877160D01*
X150540720Y-77683360D02*
X150540720Y-77429360D01*
X150540720Y-77302360D02*
X150540720Y-76972160D01*
X150566120Y-87970360D02*
X150566120Y-87792560D01*
X150566120Y-87716360D02*
X150566120Y-87055960D01*
X150566120Y-86852760D02*
X150566120Y-86522560D01*
X150566120Y-86293960D02*
X150566120Y-86090760D01*
X150566120Y-85963760D02*
X150566120Y-85658960D01*
X150566120Y-84541360D02*
X150566120Y-84160360D01*
X150566120Y-83957160D02*
X150566120Y-83601560D01*
X150566120Y-83245960D02*
X150566120Y-82941160D01*
X150566120Y-81696560D02*
X150566120Y-81442560D01*
X150566120Y-81264760D02*
X150566120Y-81010760D01*
X150566120Y-80172560D02*
X150566120Y-79918560D01*
X150566120Y-79816960D02*
X150566120Y-79537560D01*
X150566120Y-79181960D02*
X150566120Y-78877160D01*
X150566120Y-77683360D02*
X150566120Y-77429360D01*
X150566120Y-77327760D02*
X150566120Y-76997560D01*
X150591520Y-87970360D02*
X150591520Y-87792560D01*
X150591520Y-87716360D02*
X150591520Y-87081360D01*
X150591520Y-86878160D02*
X150591520Y-86497160D01*
X150591520Y-86293960D02*
X150591520Y-86116160D01*
X150591520Y-85989160D02*
X150591520Y-85658960D01*
X150591520Y-84541360D02*
X150591520Y-84185760D01*
X150591520Y-83957160D02*
X150591520Y-83576160D01*
X150591520Y-83245960D02*
X150591520Y-82966560D01*
X150591520Y-81696560D02*
X150591520Y-81442560D01*
X150591520Y-81264760D02*
X150591520Y-81010760D01*
X150591520Y-80197960D02*
X150591520Y-79918560D01*
X150591520Y-79791560D02*
X150591520Y-79537560D01*
X150591520Y-79207360D02*
X150591520Y-78902560D01*
X150591520Y-77683360D02*
X150591520Y-77429360D01*
X150591520Y-77353160D02*
X150591520Y-77022960D01*
X150616920Y-87970360D02*
X150616920Y-87792560D01*
X150616920Y-87716360D02*
X150616920Y-87106760D01*
X150616920Y-86903560D02*
X150616920Y-86471760D01*
X150616920Y-86293960D02*
X150616920Y-86141560D01*
X150616920Y-86014560D02*
X150616920Y-85658960D01*
X150616920Y-84566760D02*
X150616920Y-84185760D01*
X150616920Y-83931760D02*
X150616920Y-83576160D01*
X150616920Y-83271360D02*
X150616920Y-82966560D01*
X150616920Y-81696560D02*
X150616920Y-81442560D01*
X150616920Y-81264760D02*
X150616920Y-81010760D01*
X150616920Y-80197960D02*
X150616920Y-79943960D01*
X150616920Y-79791560D02*
X150616920Y-79512160D01*
X150616920Y-79207360D02*
X150616920Y-78902560D01*
X150616920Y-77683360D02*
X150616920Y-77429360D01*
X150616920Y-77378560D02*
X150616920Y-77048360D01*
X150642320Y-87970360D02*
X150642320Y-87792560D01*
X150642320Y-87716360D02*
X150642320Y-87132160D01*
X150642320Y-86903560D02*
X150642320Y-86471760D01*
X150642320Y-86293960D02*
X150642320Y-86192360D01*
X150642320Y-86039960D02*
X150642320Y-85658960D01*
X150642320Y-84566760D02*
X150642320Y-84211160D01*
X150642320Y-83931760D02*
X150642320Y-83550760D01*
X150642320Y-83271360D02*
X150642320Y-82966560D01*
X150642320Y-81696560D02*
X150642320Y-81442560D01*
X150642320Y-81264760D02*
X150642320Y-81010760D01*
X150642320Y-80197960D02*
X150642320Y-79943960D01*
X150642320Y-79791560D02*
X150642320Y-79512160D01*
X150642320Y-79207360D02*
X150642320Y-78927960D01*
X150642320Y-77683360D02*
X150642320Y-77429360D01*
X150642320Y-77403960D02*
X150642320Y-77073760D01*
X150667720Y-87970360D02*
X150667720Y-87792560D01*
X150667720Y-87716360D02*
X150667720Y-87157560D01*
X150667720Y-86928960D02*
X150667720Y-86471760D01*
X150667720Y-86293960D02*
X150667720Y-86217760D01*
X150667720Y-86065360D02*
X150667720Y-85658960D01*
X150667720Y-84592160D02*
X150667720Y-84211160D01*
X150667720Y-83906360D02*
X150667720Y-83550760D01*
X150667720Y-83271360D02*
X150667720Y-82991960D01*
X150667720Y-81696560D02*
X150667720Y-81442560D01*
X150667720Y-81264760D02*
X150667720Y-81010760D01*
X150667720Y-80223360D02*
X150667720Y-79943960D01*
X150667720Y-79766160D02*
X150667720Y-79512160D01*
X150667720Y-79207360D02*
X150667720Y-78927960D01*
X150667720Y-77683360D02*
X150667720Y-77429360D01*
X150667720Y-77403960D02*
X150667720Y-77099160D01*
X150693120Y-87970360D02*
X150693120Y-87792560D01*
X150693120Y-87716360D02*
X150693120Y-87182960D01*
X150693120Y-86928960D02*
X150693120Y-86446360D01*
X150693120Y-86293960D02*
X150693120Y-86243160D01*
X150693120Y-86090760D02*
X150693120Y-85658960D01*
X150693120Y-84592160D02*
X150693120Y-84236560D01*
X150693120Y-83906360D02*
X150693120Y-83525360D01*
X150693120Y-83271360D02*
X150693120Y-82991960D01*
X150693120Y-81696560D02*
X150693120Y-81442560D01*
X150693120Y-81264760D02*
X150693120Y-81010760D01*
X150693120Y-80223360D02*
X150693120Y-79969360D01*
X150693120Y-79766160D02*
X150693120Y-79486760D01*
X150693120Y-79207360D02*
X150693120Y-78927960D01*
X150693120Y-77683360D02*
X150693120Y-77124560D01*
X150718520Y-87970360D02*
X150718520Y-87792560D01*
X150718520Y-87716360D02*
X150718520Y-87208360D01*
X150718520Y-86928960D02*
X150718520Y-86446360D01*
X150718520Y-86293960D02*
X150718520Y-86268560D01*
X150718520Y-86116160D02*
X150718520Y-85658960D01*
X150718520Y-84617560D02*
X150718520Y-84236560D01*
X150718520Y-83880960D02*
X150718520Y-83525360D01*
X150718520Y-83271360D02*
X150718520Y-82991960D01*
X150718520Y-82636360D02*
X150718520Y-82001360D01*
X150718520Y-81696560D02*
X150718520Y-81442560D01*
X150718520Y-81264760D02*
X150718520Y-81010760D01*
X150718520Y-80223360D02*
X150718520Y-79969360D01*
X150718520Y-79766160D02*
X150718520Y-79486760D01*
X150718520Y-79207360D02*
X150718520Y-78927960D01*
X150718520Y-77683360D02*
X150718520Y-77149960D01*
X150743920Y-87970360D02*
X150743920Y-87792560D01*
X150743920Y-87716360D02*
X150743920Y-87233760D01*
X150743920Y-86928960D02*
X150743920Y-86446360D01*
X150743920Y-86141560D02*
X150743920Y-85658960D01*
X150743920Y-84617560D02*
X150743920Y-84261960D01*
X150743920Y-83880960D02*
X150743920Y-83499960D01*
X150743920Y-83271360D02*
X150743920Y-82991960D01*
X150743920Y-82636360D02*
X150743920Y-82001360D01*
X150743920Y-81696560D02*
X150743920Y-81442560D01*
X150743920Y-81264760D02*
X150743920Y-81010760D01*
X150743920Y-80248760D02*
X150743920Y-79969360D01*
X150743920Y-79740760D02*
X150743920Y-79461360D01*
X150743920Y-79207360D02*
X150743920Y-78927960D01*
X150743920Y-77683360D02*
X150743920Y-77149960D01*
X150769320Y-87970360D02*
X150769320Y-87792560D01*
X150769320Y-87716360D02*
X150769320Y-87259160D01*
X150769320Y-86928960D02*
X150769320Y-86446360D01*
X150769320Y-86166960D02*
X150769320Y-85658960D01*
X150769320Y-84642960D02*
X150769320Y-84261960D01*
X150769320Y-83855560D02*
X150769320Y-83499960D01*
X150769320Y-83271360D02*
X150769320Y-82991960D01*
X150769320Y-82636360D02*
X150769320Y-82001360D01*
X150769320Y-81696560D02*
X150769320Y-81442560D01*
X150769320Y-81264760D02*
X150769320Y-81010760D01*
X150769320Y-80248760D02*
X150769320Y-79994760D01*
X150769320Y-79740760D02*
X150769320Y-79461360D01*
X150769320Y-79207360D02*
X150769320Y-78927960D01*
X150769320Y-77683360D02*
X150769320Y-77124560D01*
X150794720Y-87970360D02*
X150794720Y-87792560D01*
X150794720Y-87716360D02*
X150794720Y-87284560D01*
X150794720Y-87106760D02*
X150794720Y-87081360D01*
X150794720Y-86928960D02*
X150794720Y-86446360D01*
X150794720Y-86192360D02*
X150794720Y-85658960D01*
X150794720Y-84642960D02*
X150794720Y-84287360D01*
X150794720Y-83855560D02*
X150794720Y-83474560D01*
X150794720Y-83271360D02*
X150794720Y-82991960D01*
X150794720Y-82636360D02*
X150794720Y-82001360D01*
X150794720Y-81696560D02*
X150794720Y-81442560D01*
X150794720Y-81264760D02*
X150794720Y-81010760D01*
X150794720Y-80248760D02*
X150794720Y-79994760D01*
X150794720Y-79740760D02*
X150794720Y-79461360D01*
X150794720Y-79207360D02*
X150794720Y-78927960D01*
X150794720Y-77683360D02*
X150794720Y-77099160D01*
X150820120Y-87970360D02*
X150820120Y-87792560D01*
X150820120Y-87716360D02*
X150820120Y-87309960D01*
X150820120Y-87132160D02*
X150820120Y-87081360D01*
X150820120Y-86928960D02*
X150820120Y-86446360D01*
X150820120Y-86217760D02*
X150820120Y-85658960D01*
X150820120Y-84668360D02*
X150820120Y-84287360D01*
X150820120Y-83830160D02*
X150820120Y-83474560D01*
X150820120Y-83271360D02*
X150820120Y-82991960D01*
X150820120Y-82636360D02*
X150820120Y-82001360D01*
X150820120Y-81696560D02*
X150820120Y-81442560D01*
X150820120Y-81264760D02*
X150820120Y-81010760D01*
X150820120Y-80274160D02*
X150820120Y-79994760D01*
X150820120Y-79715360D02*
X150820120Y-79435960D01*
X150820120Y-79207360D02*
X150820120Y-78927960D01*
X150820120Y-77683360D02*
X150820120Y-77073760D01*
X150845520Y-87970360D02*
X150845520Y-87792560D01*
X150845520Y-87716360D02*
X150845520Y-87335360D01*
X150845520Y-87157560D02*
X150845520Y-87081360D01*
X150845520Y-86928960D02*
X150845520Y-86446360D01*
X150845520Y-86243160D02*
X150845520Y-85658960D01*
X150845520Y-84668360D02*
X150845520Y-84287360D01*
X150845520Y-83830160D02*
X150845520Y-83449160D01*
X150845520Y-83271360D02*
X150845520Y-82991960D01*
X150845520Y-82636360D02*
X150845520Y-82001360D01*
X150845520Y-81696560D02*
X150845520Y-81442560D01*
X150845520Y-81264760D02*
X150845520Y-81010760D01*
X150845520Y-80274160D02*
X150845520Y-80020160D01*
X150845520Y-79715360D02*
X150845520Y-79435960D01*
X150845520Y-79207360D02*
X150845520Y-78927960D01*
X150845520Y-77683360D02*
X150845520Y-77429360D01*
X150845520Y-77403960D02*
X150845520Y-77073760D01*
X150870920Y-87970360D02*
X150870920Y-87792560D01*
X150870920Y-87716360D02*
X150870920Y-87360760D01*
X150870920Y-87182960D02*
X150870920Y-87081360D01*
X150870920Y-86928960D02*
X150870920Y-86471760D01*
X150870920Y-86268560D02*
X150870920Y-85658960D01*
X150870920Y-84693760D02*
X150870920Y-84312760D01*
X150870920Y-83804760D02*
X150870920Y-83449160D01*
X150870920Y-83271360D02*
X150870920Y-82991960D01*
X150870920Y-82636360D02*
X150870920Y-82001360D01*
X150870920Y-81696560D02*
X150870920Y-81442560D01*
X150870920Y-81264760D02*
X150870920Y-81010760D01*
X150870920Y-80299560D02*
X150870920Y-80020160D01*
X150870920Y-79715360D02*
X150870920Y-79435960D01*
X150870920Y-79207360D02*
X150870920Y-78927960D01*
X150870920Y-77683360D02*
X150870920Y-77429360D01*
X150870920Y-77378560D02*
X150870920Y-77048360D01*
X150896320Y-87970360D02*
X150896320Y-87792560D01*
X150896320Y-87716360D02*
X150896320Y-87386160D01*
X150896320Y-87208360D02*
X150896320Y-87081360D01*
X150896320Y-86903560D02*
X150896320Y-86471760D01*
X150896320Y-86293960D02*
X150896320Y-85658960D01*
X150896320Y-84693760D02*
X150896320Y-84312760D01*
X150896320Y-83804760D02*
X150896320Y-83423760D01*
X150896320Y-83271360D02*
X150896320Y-82991960D01*
X150896320Y-82636360D02*
X150896320Y-82001360D01*
X150896320Y-81696560D02*
X150896320Y-81442560D01*
X150896320Y-81264760D02*
X150896320Y-81010760D01*
X150896320Y-80299560D02*
X150896320Y-79410560D01*
X150896320Y-79207360D02*
X150896320Y-78927960D01*
X150896320Y-77683360D02*
X150896320Y-77429360D01*
X150896320Y-77353160D02*
X150896320Y-77022960D01*
X150921720Y-87970360D02*
X150921720Y-87792560D01*
X150921720Y-87716360D02*
X150921720Y-87411560D01*
X150921720Y-87233760D02*
X150921720Y-87081360D01*
X150921720Y-86903560D02*
X150921720Y-86497160D01*
X150921720Y-86319360D02*
X150921720Y-85658960D01*
X150921720Y-84719160D02*
X150921720Y-84338160D01*
X150921720Y-83779360D02*
X150921720Y-83423760D01*
X150921720Y-83271360D02*
X150921720Y-82991960D01*
X150921720Y-82636360D02*
X150921720Y-82001360D01*
X150921720Y-81696560D02*
X150921720Y-81442560D01*
X150921720Y-81264760D02*
X150921720Y-81010760D01*
X150921720Y-80299560D02*
X150921720Y-79410560D01*
X150921720Y-79207360D02*
X150921720Y-78902560D01*
X150921720Y-77683360D02*
X150921720Y-77429360D01*
X150921720Y-77327760D02*
X150921720Y-76997560D01*
X150947120Y-87970360D02*
X150947120Y-87792560D01*
X150947120Y-87716360D02*
X150947120Y-87436960D01*
X150947120Y-87259160D02*
X150947120Y-87081360D01*
X150947120Y-86878160D02*
X150947120Y-86497160D01*
X150947120Y-86344760D02*
X150947120Y-85658960D01*
X150947120Y-84719160D02*
X150947120Y-84338160D01*
X150947120Y-83779360D02*
X150947120Y-83398360D01*
X150947120Y-83271360D02*
X150947120Y-82966560D01*
X150947120Y-82255360D02*
X150947120Y-82001360D01*
X150947120Y-81696560D02*
X150947120Y-81442560D01*
X150947120Y-81264760D02*
X150947120Y-81010760D01*
X150947120Y-80324960D02*
X150947120Y-79410560D01*
X150947120Y-79207360D02*
X150947120Y-78902560D01*
X150947120Y-77683360D02*
X150947120Y-77429360D01*
X150947120Y-77327760D02*
X150947120Y-76972160D01*
X150972520Y-87970360D02*
X150972520Y-87792560D01*
X150972520Y-87716360D02*
X150972520Y-87462360D01*
X150972520Y-87284560D02*
X150972520Y-87106760D01*
X150972520Y-86852760D02*
X150972520Y-86547960D01*
X150972520Y-86370160D02*
X150972520Y-85658960D01*
X150972520Y-84744560D02*
X150972520Y-84363560D01*
X150972520Y-83753960D02*
X150972520Y-83398360D01*
X150972520Y-83271360D02*
X150972520Y-82966560D01*
X150972520Y-82255360D02*
X150972520Y-82001360D01*
X150972520Y-81696560D02*
X150972520Y-81442560D01*
X150972520Y-81264760D02*
X150972520Y-81010760D01*
X150972520Y-80324960D02*
X150972520Y-79385160D01*
X150972520Y-79207360D02*
X150972520Y-78902560D01*
X150972520Y-77683360D02*
X150972520Y-77429360D01*
X150972520Y-77302360D02*
X150972520Y-76946760D01*
X150997920Y-87970360D02*
X150997920Y-87792560D01*
X150997920Y-87716360D02*
X150997920Y-87487760D01*
X150997920Y-87309960D02*
X150997920Y-87132160D01*
X150997920Y-86801960D02*
X150997920Y-86573360D01*
X150997920Y-86395560D02*
X150997920Y-85658960D01*
X150997920Y-84744560D02*
X150997920Y-84363560D01*
X150997920Y-83753960D02*
X150997920Y-83372960D01*
X150997920Y-83245960D02*
X150997920Y-82966560D01*
X150997920Y-82255360D02*
X150997920Y-82001360D01*
X150997920Y-81696560D02*
X150997920Y-81442560D01*
X150997920Y-81264760D02*
X150997920Y-81010760D01*
X150997920Y-80324960D02*
X150997920Y-79385160D01*
X150997920Y-79181960D02*
X150997920Y-78877160D01*
X150997920Y-77683360D02*
X150997920Y-77429360D01*
X150997920Y-77276960D02*
X150997920Y-76921360D01*
X151023320Y-87970360D02*
X151023320Y-87792560D01*
X151023320Y-87716360D02*
X151023320Y-87487760D01*
X151023320Y-87335360D02*
X151023320Y-87157560D01*
X151023320Y-87005160D02*
X151023320Y-86979760D01*
X151023320Y-86725760D02*
X151023320Y-86674960D01*
X151023320Y-86395560D02*
X151023320Y-85658960D01*
X151023320Y-84769960D02*
X151023320Y-84388960D01*
X151023320Y-83728560D02*
X151023320Y-83372960D01*
X151023320Y-83245960D02*
X151023320Y-82941160D01*
X151023320Y-82255360D02*
X151023320Y-82001360D01*
X151023320Y-81696560D02*
X151023320Y-81442560D01*
X151023320Y-81264760D02*
X151023320Y-81010760D01*
X151023320Y-80350360D02*
X151023320Y-79359760D01*
X151023320Y-79181960D02*
X151023320Y-78877160D01*
X151023320Y-77683360D02*
X151023320Y-77429360D01*
X151023320Y-77251560D02*
X151023320Y-76895960D01*
X151048720Y-87970360D02*
X151048720Y-87792560D01*
X151048720Y-87716360D02*
X151048720Y-87513160D01*
X151048720Y-87360760D02*
X151048720Y-87182960D01*
X151048720Y-87030560D02*
X151048720Y-86954360D01*
X151048720Y-86420960D02*
X151048720Y-85658960D01*
X151048720Y-84769960D02*
X151048720Y-84388960D01*
X151048720Y-83728560D02*
X151048720Y-83347560D01*
X151048720Y-83245960D02*
X151048720Y-82915760D01*
X151048720Y-82255360D02*
X151048720Y-82001360D01*
X151048720Y-81696560D02*
X151048720Y-81442560D01*
X151048720Y-81264760D02*
X151048720Y-81010760D01*
X151048720Y-80350360D02*
X151048720Y-79359760D01*
X151048720Y-79181960D02*
X151048720Y-78851760D01*
X151048720Y-77683360D02*
X151048720Y-77429360D01*
X151048720Y-77226160D02*
X151048720Y-76870560D01*
X151074120Y-87970360D02*
X151074120Y-87792560D01*
X151074120Y-87716360D02*
X151074120Y-87538560D01*
X151074120Y-87386160D02*
X151074120Y-87208360D01*
X151074120Y-87055960D02*
X151074120Y-86928960D01*
X151074120Y-86471760D02*
X151074120Y-85658960D01*
X151074120Y-84795360D02*
X151074120Y-83855560D01*
X151074120Y-83703160D02*
X151074120Y-83347560D01*
X151074120Y-83245960D02*
X151074120Y-82915760D01*
X151074120Y-82255360D02*
X151074120Y-82001360D01*
X151074120Y-81696560D02*
X151074120Y-81442560D01*
X151074120Y-81264760D02*
X151074120Y-81010760D01*
X151074120Y-80350360D02*
X151074120Y-79359760D01*
X151074120Y-79156560D02*
X151074120Y-78826360D01*
X151074120Y-77683360D02*
X151074120Y-77429360D01*
X151074120Y-77200760D02*
X151074120Y-76845160D01*
X151099520Y-87970360D02*
X151099520Y-87792560D01*
X151099520Y-87716360D02*
X151099520Y-87563960D01*
X151099520Y-87411560D02*
X151099520Y-87233760D01*
X151099520Y-87081360D02*
X151099520Y-86903560D01*
X151099520Y-86497160D02*
X151099520Y-85658960D01*
X151099520Y-84795360D02*
X151099520Y-83855560D01*
X151099520Y-83703160D02*
X151099520Y-83322160D01*
X151099520Y-83220560D02*
X151099520Y-82890360D01*
X151099520Y-82255360D02*
X151099520Y-82001360D01*
X151099520Y-81696560D02*
X151099520Y-81442560D01*
X151099520Y-81264760D02*
X151099520Y-81010760D01*
X151099520Y-80375760D02*
X151099520Y-79334360D01*
X151099520Y-79156560D02*
X151099520Y-78800960D01*
X151099520Y-77683360D02*
X151099520Y-77429360D01*
X151099520Y-77175360D02*
X151099520Y-76845160D01*
X151124920Y-87970360D02*
X151124920Y-87792560D01*
X151124920Y-87716360D02*
X151124920Y-87589360D01*
X151124920Y-87436960D02*
X151124920Y-87259160D01*
X151124920Y-87106760D02*
X151124920Y-86827360D01*
X151124920Y-86547960D02*
X151124920Y-85658960D01*
X151124920Y-84820760D02*
X151124920Y-83830160D01*
X151124920Y-83677760D02*
X151124920Y-83322160D01*
X151124920Y-83220560D02*
X151124920Y-82864960D01*
X151124920Y-82255360D02*
X151124920Y-82001360D01*
X151124920Y-81696560D02*
X151124920Y-81442560D01*
X151124920Y-81264760D02*
X151124920Y-81010760D01*
X151124920Y-80375760D02*
X151124920Y-80096360D01*
X151124920Y-79613760D02*
X151124920Y-79334360D01*
X151124920Y-79156560D02*
X151124920Y-78775560D01*
X151124920Y-77683360D02*
X151124920Y-77429360D01*
X151124920Y-77175360D02*
X151124920Y-76819760D01*
X151150320Y-87970360D02*
X151150320Y-87792560D01*
X151150320Y-87716360D02*
X151150320Y-87614760D01*
X151150320Y-87462360D02*
X151150320Y-87284560D01*
X151150320Y-87132160D02*
X151150320Y-86751160D01*
X151150320Y-86649560D02*
X151150320Y-85658960D01*
X151150320Y-84820760D02*
X151150320Y-83830160D01*
X151150320Y-83677760D02*
X151150320Y-83296760D01*
X151150320Y-83195160D02*
X151150320Y-82839560D01*
X151150320Y-82255360D02*
X151150320Y-82001360D01*
X151150320Y-81696560D02*
X151150320Y-81442560D01*
X151150320Y-81264760D02*
X151150320Y-81010760D01*
X151150320Y-80401160D02*
X151150320Y-80121760D01*
X151150320Y-79613760D02*
X151150320Y-79334360D01*
X151150320Y-79131160D02*
X151150320Y-78750160D01*
X151150320Y-77683360D02*
X151150320Y-77429360D01*
X151150320Y-77149960D02*
X151150320Y-76794360D01*
X151175720Y-87970360D02*
X151175720Y-87792560D01*
X151175720Y-87716360D02*
X151175720Y-87640160D01*
X151175720Y-87487760D02*
X151175720Y-87309960D01*
X151175720Y-87157560D02*
X151175720Y-85658960D01*
X151175720Y-84846160D02*
X151175720Y-83804760D01*
X151175720Y-83652360D02*
X151175720Y-83296760D01*
X151175720Y-83195160D02*
X151175720Y-82814160D01*
X151175720Y-82255360D02*
X151175720Y-82001360D01*
X151175720Y-81696560D02*
X151175720Y-81442560D01*
X151175720Y-81264760D02*
X151175720Y-81010760D01*
X151175720Y-80401160D02*
X151175720Y-80121760D01*
X151175720Y-79613760D02*
X151175720Y-79308960D01*
X151175720Y-79105760D02*
X151175720Y-78724760D01*
X151175720Y-77683360D02*
X151175720Y-77429360D01*
X151175720Y-77124560D02*
X151175720Y-76768960D01*
X151201120Y-87970360D02*
X151201120Y-87792560D01*
X151201120Y-87716360D02*
X151201120Y-87665560D01*
X151201120Y-87513160D02*
X151201120Y-87335360D01*
X151201120Y-87182960D02*
X151201120Y-85658960D01*
X151201120Y-84846160D02*
X151201120Y-83804760D01*
X151201120Y-83652360D02*
X151201120Y-83271360D01*
X151201120Y-83169760D02*
X151201120Y-82788760D01*
X151201120Y-82280760D02*
X151201120Y-82001360D01*
X151201120Y-81696560D02*
X151201120Y-81442560D01*
X151201120Y-81264760D02*
X151201120Y-81010760D01*
X151201120Y-80401160D02*
X151201120Y-80121760D01*
X151201120Y-79588360D02*
X151201120Y-79308960D01*
X151201120Y-79105760D02*
X151201120Y-78673960D01*
X151201120Y-78191360D02*
X151201120Y-78089760D01*
X151201120Y-77683360D02*
X151201120Y-77429360D01*
X151201120Y-77099160D02*
X151201120Y-76743560D01*
X151226520Y-87970360D02*
X151226520Y-87792560D01*
X151226520Y-87716360D02*
X151226520Y-87690960D01*
X151226520Y-87538560D02*
X151226520Y-87360760D01*
X151226520Y-87208360D02*
X151226520Y-85658960D01*
X151226520Y-84871560D02*
X151226520Y-83779360D01*
X151226520Y-83626960D02*
X151226520Y-83271360D01*
X151226520Y-83169760D02*
X151226520Y-82737960D01*
X151226520Y-82306160D02*
X151226520Y-82001360D01*
X151226520Y-81696560D02*
X151226520Y-81442560D01*
X151226520Y-81264760D02*
X151226520Y-81010760D01*
X151226520Y-80426560D02*
X151226520Y-80147160D01*
X151226520Y-79588360D02*
X151226520Y-79283560D01*
X151226520Y-79080360D02*
X151226520Y-78597760D01*
X151226520Y-78267560D02*
X151226520Y-78089760D01*
X151226520Y-77683360D02*
X151226520Y-77429360D01*
X151226520Y-77073760D02*
X151226520Y-76718160D01*
X151251920Y-87970360D02*
X151251920Y-87792560D01*
X151251920Y-87716360D02*
X151251920Y-87690960D01*
X151251920Y-87563960D02*
X151251920Y-87386160D01*
X151251920Y-87233760D02*
X151251920Y-85658960D01*
X151251920Y-84871560D02*
X151251920Y-83779360D01*
X151251920Y-83626960D02*
X151251920Y-83245960D01*
X151251920Y-83144360D02*
X151251920Y-82661760D01*
X151251920Y-82382360D02*
X151251920Y-82001360D01*
X151251920Y-81696560D02*
X151251920Y-81442560D01*
X151251920Y-81264760D02*
X151251920Y-80147160D01*
X151251920Y-79588360D02*
X151251920Y-79283560D01*
X151251920Y-79054960D02*
X151251920Y-78064360D01*
X151251920Y-77683360D02*
X151251920Y-77429360D01*
X151251920Y-77048360D02*
X151251920Y-76692760D01*
X151277320Y-87970360D02*
X151277320Y-87792560D01*
X151277320Y-87716360D02*
X151277320Y-87690960D01*
X151277320Y-87589360D02*
X151277320Y-87411560D01*
X151277320Y-87259160D02*
X151277320Y-85658960D01*
X151277320Y-84896960D02*
X151277320Y-83753960D01*
X151277320Y-83601560D02*
X151277320Y-83245960D01*
X151277320Y-83118960D02*
X151277320Y-82001360D01*
X151277320Y-81696560D02*
X151277320Y-81442560D01*
X151277320Y-81264760D02*
X151277320Y-80172560D01*
X151277320Y-79562960D02*
X151277320Y-79283560D01*
X151277320Y-79054960D02*
X151277320Y-78064360D01*
X151277320Y-77683360D02*
X151277320Y-77429360D01*
X151277320Y-77022960D02*
X151277320Y-76667360D01*
X151302720Y-87970360D02*
X151302720Y-87792560D01*
X151302720Y-87716360D02*
X151302720Y-87690960D01*
X151302720Y-87614760D02*
X151302720Y-87436960D01*
X151302720Y-87284560D02*
X151302720Y-85658960D01*
X151302720Y-84896960D02*
X151302720Y-83753960D01*
X151302720Y-83601560D02*
X151302720Y-83220560D01*
X151302720Y-83093560D02*
X151302720Y-82001360D01*
X151302720Y-81696560D02*
X151302720Y-81442560D01*
X151302720Y-81264760D02*
X151302720Y-80172560D01*
X151302720Y-79562960D02*
X151302720Y-79258160D01*
X151302720Y-79029560D02*
X151302720Y-78038960D01*
X151302720Y-77683360D02*
X151302720Y-77429360D01*
X151302720Y-76997560D02*
X151302720Y-76641960D01*
X151328120Y-87970360D02*
X151328120Y-87792560D01*
X151328120Y-87716360D02*
X151328120Y-87690960D01*
X151328120Y-87640160D02*
X151328120Y-87462360D01*
X151328120Y-87309960D02*
X151328120Y-85658960D01*
X151328120Y-84922360D02*
X151328120Y-83728560D01*
X151328120Y-83576160D02*
X151328120Y-83220560D01*
X151328120Y-83068160D02*
X151328120Y-82001360D01*
X151328120Y-81696560D02*
X151328120Y-81442560D01*
X151328120Y-81264760D02*
X151328120Y-80172560D01*
X151328120Y-79537560D02*
X151328120Y-79258160D01*
X151328120Y-79004160D02*
X151328120Y-78038960D01*
X151328120Y-77683360D02*
X151328120Y-77429360D01*
X151328120Y-76997560D02*
X151328120Y-76616560D01*
X151353520Y-87970360D02*
X151353520Y-87817960D01*
X151353520Y-87716360D02*
X151353520Y-87690960D01*
X151353520Y-87665560D02*
X151353520Y-87487760D01*
X151353520Y-87335360D02*
X151353520Y-85658960D01*
X151353520Y-84922360D02*
X151353520Y-83728560D01*
X151353520Y-83576160D02*
X151353520Y-83195160D01*
X151353520Y-83068160D02*
X151353520Y-82026760D01*
X151353520Y-81696560D02*
X151353520Y-81442560D01*
X151353520Y-81264760D02*
X151353520Y-80197960D01*
X151353520Y-79537560D02*
X151353520Y-79258160D01*
X151353520Y-78953360D02*
X151353520Y-78038960D01*
X151353520Y-77683360D02*
X151353520Y-77429360D01*
X151353520Y-76972160D02*
X151353520Y-76616560D01*
X151378920Y-87970360D02*
X151378920Y-87843360D01*
X151378920Y-87716360D02*
X151378920Y-87513160D01*
X151378920Y-87360760D02*
X151378920Y-85684360D01*
X151378920Y-84922360D02*
X151378920Y-83728560D01*
X151378920Y-83550760D02*
X151378920Y-83195160D01*
X151378920Y-83017360D02*
X151378920Y-82052160D01*
X151378920Y-81696560D02*
X151378920Y-81442560D01*
X151378920Y-81264760D02*
X151378920Y-80197960D01*
X151378920Y-79537560D02*
X151378920Y-79232760D01*
X151378920Y-78927960D02*
X151378920Y-78013560D01*
X151378920Y-77683360D02*
X151378920Y-77429360D01*
X151378920Y-76946760D02*
X151378920Y-76591160D01*
X151404320Y-87970360D02*
X151404320Y-87868760D01*
X151404320Y-87716360D02*
X151404320Y-87538560D01*
X151404320Y-87386160D02*
X151404320Y-85709760D01*
X151404320Y-83550760D02*
X151404320Y-83169760D01*
X151404320Y-82991960D02*
X151404320Y-82102960D01*
X151404320Y-81696560D02*
X151404320Y-81442560D01*
X151404320Y-81264760D02*
X151404320Y-80197960D01*
X151404320Y-79512160D02*
X151404320Y-79232760D01*
X151404320Y-78877160D02*
X151404320Y-78013560D01*
X151404320Y-77683360D02*
X151404320Y-77429360D01*
X151404320Y-76921360D02*
X151404320Y-76565760D01*
X151429720Y-87970360D02*
X151429720Y-87894160D01*
X151429720Y-87716360D02*
X151429720Y-87563960D01*
X151429720Y-87411560D02*
X151429720Y-85735160D01*
X151429720Y-83525360D02*
X151429720Y-83169760D01*
X151429720Y-82966560D02*
X151429720Y-82128360D01*
X151429720Y-81696560D02*
X151429720Y-81442560D01*
X151429720Y-81264760D02*
X151429720Y-80223360D01*
X151429720Y-79512160D02*
X151429720Y-79232760D01*
X151429720Y-78851760D02*
X151429720Y-78089760D01*
X151429720Y-77683360D02*
X151429720Y-77429360D01*
X151429720Y-76895960D02*
X151429720Y-76540360D01*
X151455120Y-87716360D02*
X151455120Y-87589360D01*
X151455120Y-87436960D02*
X151455120Y-85760560D01*
X151455120Y-83525360D02*
X151455120Y-83144360D01*
X151455120Y-82915760D02*
X151455120Y-82179160D01*
X151455120Y-81696560D02*
X151455120Y-81442560D01*
X151455120Y-81264760D02*
X151455120Y-80223360D01*
X151455120Y-79486760D02*
X151455120Y-79207360D01*
X151455120Y-78775560D02*
X151455120Y-78165960D01*
X151455120Y-77683360D02*
X151455120Y-77429360D01*
X151455120Y-76870560D02*
X151455120Y-76514960D01*
X151480520Y-87716360D02*
X151480520Y-87614760D01*
X151480520Y-87462360D02*
X151480520Y-85785960D01*
X151480520Y-83499960D02*
X151480520Y-83144360D01*
X151480520Y-82839560D02*
X151480520Y-82255360D01*
X151480520Y-78699360D02*
X151480520Y-78267560D01*
X151505920Y-87716360D02*
X151505920Y-87640160D01*
X151505920Y-87487760D02*
X151505920Y-85811360D01*
X151505920Y-83499960D02*
X151505920Y-83118960D01*
X151505920Y-82763360D02*
X151505920Y-82331560D01*
X151531320Y-87716360D02*
X151531320Y-87665560D01*
X151531320Y-87513160D02*
X151531320Y-85836760D01*
X151531320Y-83474560D02*
X151531320Y-83118960D01*
X151556720Y-87716360D02*
X151556720Y-87690960D01*
X151556720Y-87538560D02*
X151556720Y-85862160D01*
X151556720Y-85201760D02*
X151556720Y-83728560D01*
X151556720Y-83474560D02*
X151556720Y-83093560D01*
X151582120Y-87716360D02*
X151582120Y-87690960D01*
X151582120Y-87563960D02*
X151582120Y-85887560D01*
X151582120Y-85201760D02*
X151582120Y-83728560D01*
X151582120Y-83449160D02*
X151582120Y-83093560D01*
X151607520Y-87716360D02*
X151607520Y-87690960D01*
X151607520Y-87589360D02*
X151607520Y-85912960D01*
X151607520Y-85201760D02*
X151607520Y-83728560D01*
X151607520Y-83449160D02*
X151607520Y-83068160D01*
X151632920Y-87716360D02*
X151632920Y-87690960D01*
X151632920Y-87614760D02*
X151632920Y-85938360D01*
X151632920Y-85201760D02*
X151632920Y-83728560D01*
X151632920Y-83423760D02*
X151632920Y-83068160D01*
X151658320Y-87716360D02*
X151658320Y-87690960D01*
X151658320Y-87640160D02*
X151658320Y-85963760D01*
X151658320Y-85201760D02*
X151658320Y-83728560D01*
X151658320Y-83423760D02*
X151658320Y-83042760D01*
X151683720Y-87716360D02*
X151683720Y-87690960D01*
X151683720Y-87665560D02*
X151683720Y-85989160D01*
X151683720Y-85201760D02*
X151683720Y-83728560D01*
X151683720Y-83398360D02*
X151683720Y-83017360D01*
X151709120Y-87716360D02*
X151709120Y-86014560D01*
X151709120Y-85201760D02*
X151709120Y-83728560D01*
X151709120Y-83398360D02*
X151709120Y-83017360D01*
X151734520Y-87716360D02*
X151734520Y-86039960D01*
X151734520Y-85201760D02*
X151734520Y-83728560D01*
X151734520Y-83372960D02*
X151734520Y-82991960D01*
X151759920Y-87716360D02*
X151759920Y-86065360D01*
X151759920Y-85201760D02*
X151759920Y-83728560D01*
X151759920Y-83372960D02*
X151759920Y-82991960D01*
X151785320Y-85201760D02*
X151785320Y-83728560D01*
X151785320Y-83347560D02*
X151785320Y-82966560D01*
X151810720Y-83347560D02*
X151810720Y-82966560D01*
X151836120Y-83322160D02*
X151836120Y-82941160D01*
X151861520Y-83322160D02*
X151861520Y-82941160D01*
X151886920Y-83296760D02*
X151886920Y-82915760D01*
X151912320Y-83296760D02*
X151912320Y-82915760D01*
X151937720Y-83271360D02*
X151937720Y-82890360D01*
X151963120Y-83271360D02*
X151963120Y-82890360D01*
X151988520Y-83245960D02*
X151988520Y-82864960D01*
D11*
X125000000Y-78475000D02*
X125000000Y-79400000D01*
X125000000Y-79400000D02*
X128800000Y-79400000D01*
X128800000Y-79400000D02*
X128800000Y-89600000D01*
X125000000Y-89600000D02*
X128800000Y-89600000D01*
X125000000Y-90525000D02*
X125000000Y-89600000D01*
X110000000Y-78475000D02*
X110000000Y-90525000D01*
X110000000Y-90525000D02*
X125000000Y-90525000D01*
X125000000Y-78475000D02*
X110000000Y-78475000D01*
D13*
X131318000Y-81915000D02*
X131318000Y-80899000D01*
X131318000Y-80899000D02*
X132842000Y-80899000D01*
X132842000Y-80899000D02*
X132842000Y-81915000D01*
X132842000Y-82931000D02*
X132842000Y-83947000D01*
X132842000Y-83947000D02*
X131318000Y-83947000D01*
X131318000Y-83947000D02*
X131318000Y-82931000D01*
X131699000Y-79336900D02*
X133985000Y-79336900D01*
X133985000Y-79336900D02*
X133985000Y-80606900D01*
X133985000Y-80606900D02*
X131699000Y-80606900D01*
X131699000Y-80606900D02*
X131699000Y-79336900D01*
D14*
X146967000Y-93982200D02*
X150467000Y-93982200D01*
X147867000Y-94632200D02*
X149567000Y-94632200D01*
X149367000Y-91082200D02*
X150467000Y-91082200D01*
X146967000Y-91082200D02*
X148067000Y-91082200D01*
D13*
X131572000Y-87711643D02*
X131535714Y-87747929D01*
X131426857Y-87784214D01*
X131354286Y-87784214D01*
X131245429Y-87747929D01*
X131172857Y-87675357D01*
X131136572Y-87602786D01*
X131100286Y-87457643D01*
X131100286Y-87348786D01*
X131136572Y-87203643D01*
X131172857Y-87131071D01*
X131245429Y-87058500D01*
X131354286Y-87022214D01*
X131426857Y-87022214D01*
X131535714Y-87058500D01*
X131572000Y-87094786D01*
X132297714Y-87784214D02*
X131862286Y-87784214D01*
X132080000Y-87784214D02*
X132080000Y-87022214D01*
X132007429Y-87131071D01*
X131934857Y-87203643D01*
X131862286Y-87239929D01*
X128081314Y-93773171D02*
X128698171Y-93773171D01*
X128770743Y-93736886D01*
X128807029Y-93700600D01*
X128843314Y-93628029D01*
X128843314Y-93482886D01*
X128807029Y-93410314D01*
X128770743Y-93374029D01*
X128698171Y-93337743D01*
X128081314Y-93337743D01*
X128153886Y-93011171D02*
X128117600Y-92974885D01*
X128081314Y-92902314D01*
X128081314Y-92720885D01*
X128117600Y-92648314D01*
X128153886Y-92612028D01*
X128226457Y-92575743D01*
X128299029Y-92575743D01*
X128407886Y-92612028D01*
X128843314Y-93047457D01*
X128843314Y-92575743D01*
D14*
X141975114Y-89518671D02*
X142591971Y-89518671D01*
X142664543Y-89482386D01*
X142700829Y-89446100D01*
X142737114Y-89373529D01*
X142737114Y-89228386D01*
X142700829Y-89155814D01*
X142664543Y-89119529D01*
X142591971Y-89083243D01*
X141975114Y-89083243D01*
X142737114Y-88321243D02*
X142737114Y-88756671D01*
X142737114Y-88538957D02*
X141975114Y-88538957D01*
X142083971Y-88611528D01*
X142156543Y-88684100D01*
X142192829Y-88756671D01*
D11*
X140754100Y-78999443D02*
X140717814Y-79035729D01*
X140608957Y-79072014D01*
X140536386Y-79072014D01*
X140427529Y-79035729D01*
X140354957Y-78963157D01*
X140318672Y-78890586D01*
X140282386Y-78745443D01*
X140282386Y-78636586D01*
X140318672Y-78491443D01*
X140354957Y-78418871D01*
X140427529Y-78346300D01*
X140536386Y-78310014D01*
X140608957Y-78310014D01*
X140717814Y-78346300D01*
X140754100Y-78382586D01*
X141407243Y-78564014D02*
X141407243Y-79072014D01*
X141225814Y-78273729D02*
X141044386Y-78818014D01*
X141516100Y-78818014D01*
D17*
X163054574Y-86648471D02*
X163671431Y-86648471D01*
X163744003Y-86612186D01*
X163780289Y-86575900D01*
X163816574Y-86503329D01*
X163816574Y-86358186D01*
X163780289Y-86285614D01*
X163744003Y-86249329D01*
X163671431Y-86213043D01*
X163054574Y-86213043D01*
X163054574Y-85922757D02*
X163054574Y-85451043D01*
X163344860Y-85705043D01*
X163344860Y-85596185D01*
X163381146Y-85523614D01*
X163417431Y-85487328D01*
X163490003Y-85451043D01*
X163671431Y-85451043D01*
X163744003Y-85487328D01*
X163780289Y-85523614D01*
X163816574Y-85596185D01*
X163816574Y-85813900D01*
X163780289Y-85886471D01*
X163744003Y-85922757D01*
D11*
X156808714Y-79832200D02*
X156445857Y-80086200D01*
X156808714Y-80267628D02*
X156046714Y-80267628D01*
X156046714Y-79977343D01*
X156083000Y-79904771D01*
X156119286Y-79868486D01*
X156191857Y-79832200D01*
X156300714Y-79832200D01*
X156373286Y-79868486D01*
X156409571Y-79904771D01*
X156445857Y-79977343D01*
X156445857Y-80267628D01*
X156046714Y-79578200D02*
X156046714Y-79106486D01*
X156337000Y-79360486D01*
X156337000Y-79251628D01*
X156373286Y-79179057D01*
X156409571Y-79142771D01*
X156482143Y-79106486D01*
X156663571Y-79106486D01*
X156736143Y-79142771D01*
X156772429Y-79179057D01*
X156808714Y-79251628D01*
X156808714Y-79469343D01*
X156772429Y-79541914D01*
X156736143Y-79578200D01*
X155821743Y-89197543D02*
X155785457Y-89233829D01*
X155676600Y-89270114D01*
X155604029Y-89270114D01*
X155495172Y-89233829D01*
X155422600Y-89161257D01*
X155386315Y-89088686D01*
X155350029Y-88943543D01*
X155350029Y-88834686D01*
X155386315Y-88689543D01*
X155422600Y-88616971D01*
X155495172Y-88544400D01*
X155604029Y-88508114D01*
X155676600Y-88508114D01*
X155785457Y-88544400D01*
X155821743Y-88580686D01*
X156547457Y-89270114D02*
X156112029Y-89270114D01*
X156329743Y-89270114D02*
X156329743Y-88508114D01*
X156257172Y-88616971D01*
X156184600Y-88689543D01*
X156112029Y-88725829D01*
X157019171Y-88508114D02*
X157091743Y-88508114D01*
X157164314Y-88544400D01*
X157200600Y-88580686D01*
X157236886Y-88653257D01*
X157273171Y-88798400D01*
X157273171Y-88979829D01*
X157236886Y-89124971D01*
X157200600Y-89197543D01*
X157164314Y-89233829D01*
X157091743Y-89270114D01*
X157019171Y-89270114D01*
X156946600Y-89233829D01*
X156910314Y-89197543D01*
X156874029Y-89124971D01*
X156837743Y-88979829D01*
X156837743Y-88798400D01*
X156874029Y-88653257D01*
X156910314Y-88580686D01*
X156946600Y-88544400D01*
X157019171Y-88508114D01*
X161384343Y-80195057D02*
X161420629Y-80231343D01*
X161456914Y-80340200D01*
X161456914Y-80412771D01*
X161420629Y-80521628D01*
X161348057Y-80594200D01*
X161275486Y-80630485D01*
X161130343Y-80666771D01*
X161021486Y-80666771D01*
X160876343Y-80630485D01*
X160803771Y-80594200D01*
X160731200Y-80521628D01*
X160694914Y-80412771D01*
X160694914Y-80340200D01*
X160731200Y-80231343D01*
X160767486Y-80195057D01*
X161456914Y-79469343D02*
X161456914Y-79904771D01*
X161456914Y-79687057D02*
X160694914Y-79687057D01*
X160803771Y-79759628D01*
X160876343Y-79832200D01*
X160912629Y-79904771D01*
X161456914Y-78743629D02*
X161456914Y-79179057D01*
X161456914Y-78961343D02*
X160694914Y-78961343D01*
X160803771Y-79033914D01*
X160876343Y-79106486D01*
X160912629Y-79179057D01*
X146699514Y-89941400D02*
X146336657Y-90195400D01*
X146699514Y-90376828D02*
X145937514Y-90376828D01*
X145937514Y-90086543D01*
X145973800Y-90013971D01*
X146010086Y-89977686D01*
X146082657Y-89941400D01*
X146191514Y-89941400D01*
X146264086Y-89977686D01*
X146300371Y-90013971D01*
X146336657Y-90086543D01*
X146336657Y-90376828D01*
X146010086Y-89651114D02*
X145973800Y-89614828D01*
X145937514Y-89542257D01*
X145937514Y-89360828D01*
X145973800Y-89288257D01*
X146010086Y-89251971D01*
X146082657Y-89215686D01*
X146155229Y-89215686D01*
X146264086Y-89251971D01*
X146699514Y-89687400D01*
X146699514Y-89215686D01*
D13*
X154529972Y-91251314D02*
X154529972Y-90489314D01*
X154711400Y-90489314D01*
X154820257Y-90525600D01*
X154892829Y-90598171D01*
X154929114Y-90670743D01*
X154965400Y-90815886D01*
X154965400Y-90924743D01*
X154929114Y-91069886D01*
X154892829Y-91142457D01*
X154820257Y-91215029D01*
X154711400Y-91251314D01*
X154529972Y-91251314D01*
X155255686Y-90561886D02*
X155291972Y-90525600D01*
X155364543Y-90489314D01*
X155545972Y-90489314D01*
X155618543Y-90525600D01*
X155654829Y-90561886D01*
X155691114Y-90634457D01*
X155691114Y-90707029D01*
X155654829Y-90815886D01*
X155219400Y-91251314D01*
X155691114Y-91251314D01*
D11*
X151576314Y-89941400D02*
X151213457Y-90195400D01*
X151576314Y-90376828D02*
X150814314Y-90376828D01*
X150814314Y-90086543D01*
X150850600Y-90013971D01*
X150886886Y-89977686D01*
X150959457Y-89941400D01*
X151068314Y-89941400D01*
X151140886Y-89977686D01*
X151177171Y-90013971D01*
X151213457Y-90086543D01*
X151213457Y-90376828D01*
X150814314Y-89251971D02*
X150814314Y-89614828D01*
X151177171Y-89651114D01*
X151140886Y-89614828D01*
X151104600Y-89542257D01*
X151104600Y-89360828D01*
X151140886Y-89288257D01*
X151177171Y-89251971D01*
X151249743Y-89215686D01*
X151431171Y-89215686D01*
X151503743Y-89251971D01*
X151540029Y-89288257D01*
X151576314Y-89360828D01*
X151576314Y-89542257D01*
X151540029Y-89614828D01*
X151503743Y-89651114D01*
D14*
X127885867Y-89952581D02*
X127885867Y-90666867D01*
X127838247Y-90809724D01*
X127743009Y-90904962D01*
X127600152Y-90952581D01*
X127504914Y-90952581D01*
X128885867Y-90952581D02*
X128314438Y-90952581D01*
X128600152Y-90952581D02*
X128600152Y-89952581D01*
X128504914Y-90095438D01*
X128409676Y-90190676D01*
X128314438Y-90238295D01*
D13*
X132920014Y-86122328D02*
X132158014Y-86122328D01*
X132158014Y-85940900D01*
X132194300Y-85832043D01*
X132266871Y-85759471D01*
X132339443Y-85723186D01*
X132484586Y-85686900D01*
X132593443Y-85686900D01*
X132738586Y-85723186D01*
X132811157Y-85759471D01*
X132883729Y-85832043D01*
X132920014Y-85940900D01*
X132920014Y-86122328D01*
X132920014Y-84961186D02*
X132920014Y-85396614D01*
X132920014Y-85178900D02*
X132158014Y-85178900D01*
X132266871Y-85251471D01*
X132339443Y-85324043D01*
X132375729Y-85396614D01*
D11*
X130644900Y-80011814D02*
X130390900Y-79648957D01*
X130209472Y-80011814D02*
X130209472Y-79249814D01*
X130499757Y-79249814D01*
X130572329Y-79286100D01*
X130608614Y-79322386D01*
X130644900Y-79394957D01*
X130644900Y-79503814D01*
X130608614Y-79576386D01*
X130572329Y-79612671D01*
X130499757Y-79648957D01*
X130209472Y-79648957D01*
X131298043Y-79503814D02*
X131298043Y-80011814D01*
X131116614Y-79213529D02*
X130935186Y-79757814D01*
X131406900Y-79757814D01*
X147701001Y-90072029D02*
X147809858Y-90108314D01*
X147991287Y-90108314D01*
X148063858Y-90072029D01*
X148100144Y-90035743D01*
X148136429Y-89963171D01*
X148136429Y-89890600D01*
X148100144Y-89818029D01*
X148063858Y-89781743D01*
X147991287Y-89745457D01*
X147846144Y-89709171D01*
X147773572Y-89672886D01*
X147737287Y-89636600D01*
X147701001Y-89564029D01*
X147701001Y-89491457D01*
X147737287Y-89418886D01*
X147773572Y-89382600D01*
X147846144Y-89346314D01*
X148027572Y-89346314D01*
X148136429Y-89382600D01*
X148390429Y-89346314D02*
X148571858Y-90108314D01*
X148717001Y-89564029D01*
X148862143Y-90108314D01*
X149043572Y-89346314D01*
X149733000Y-90108314D02*
X149297572Y-90108314D01*
X149515286Y-90108314D02*
X149515286Y-89346314D01*
X149442715Y-89455171D01*
X149370143Y-89527743D01*
X149297572Y-89564029D01*
M02*
