M48
;DRILL file {KiCad 4.0.2+dfsg1-stable} date jeu. 11 mai 2017 22:37:16 CEST
;FORMAT={-:-/ absolute / inch / decimal}
FMAT,2
INCH,TZ
T1C0.012
T2C0.031
%
G90
G05
M72
T1
X4.949Y-3.675
X4.957Y-2.978
X5.0255Y-3.3265
X5.057Y-2.978
X5.1122Y-3.189
X5.1225Y-3.5175
X5.156Y-2.978
X5.1725Y-3.366
X5.2Y-3.33
X5.23Y-3.4375
X5.257Y-2.978
X5.3Y-3.5025
X5.327Y-3.312
X5.356Y-3.28
X5.357Y-2.978
X5.3625Y-3.555
X5.3625Y-3.675
X5.366Y-3.447
X5.375Y-3.36
X5.385Y-3.249
X5.414Y-3.217
X5.43Y-3.4475
X5.445Y-3.675
X5.457Y-2.978
X5.4605Y-3.21
X5.492Y-3.2415
X5.5235Y-3.21
X5.525Y-3.4325
X5.525Y-3.555
X5.557Y-2.978
X5.6125Y-3.577
X5.655Y-3.504
X5.655Y-3.572
X5.657Y-2.978
X5.658Y-3.675
X5.66Y-3.156
X5.757Y-2.978
X5.857Y-2.978
X5.993Y-3.675
X6.06Y-3.391
X6.191Y-3.635
X6.289Y-3.072
X6.318Y-3.501
X6.426Y-3.442
T2
X5.0071Y-3.025
X5.0071Y-3.625
X5.1071Y-3.025
X5.2071Y-3.025
X5.3071Y-3.025
X5.4071Y-3.025
X5.4071Y-3.625
X5.5071Y-3.025
X5.6071Y-3.025
X5.7071Y-3.025
X5.7071Y-3.625
X5.8071Y-3.025
X5.8071Y-3.125
X5.8071Y-3.225
X5.8071Y-3.325
X5.8071Y-3.425
X6.6071Y-3.025
X6.6071Y-3.125
X6.6071Y-3.225
X6.6071Y-3.325
X6.6071Y-3.425
X6.6071Y-3.525
X6.6071Y-3.625
T0
M30
